<svg width="522" height="456" viewBox="0 0 522 456" fill="none" xmlns="http://www.w3.org/2000/svg">
<g clip-path="url(#clip0_2046_1334)">
<path d="M168.383 437.219C167.887 437.241 167.396 437.111 166.976 436.844C166.556 436.578 166.228 436.189 166.037 435.729C165.845 435.269 165.799 434.762 165.905 434.275C166.01 433.788 166.263 433.346 166.627 433.008C166.688 432.764 166.732 432.589 166.793 432.346C166.771 432.293 166.749 432.24 166.727 432.187C166.227 431.003 165.39 429.993 164.32 429.285C163.25 428.577 161.995 428.202 160.713 428.207C159.43 428.211 158.178 428.596 157.114 429.312C156.049 430.028 155.219 431.044 154.728 432.232C152.765 436.972 150.266 441.721 149.651 446.733C149.38 448.949 149.494 451.195 149.989 453.371C145.379 443.287 142.985 432.326 142.97 421.233C142.969 418.449 143.123 415.667 143.432 412.901C143.687 410.633 144.041 408.381 144.494 406.145C146.964 394.014 152.269 382.644 159.972 372.969C163.7 370.929 166.715 367.792 168.611 363.98C169.298 362.61 169.783 361.147 170.052 359.638C169.631 359.693 169.204 359.728 168.783 359.755C168.652 359.762 168.514 359.769 168.383 359.776L168.334 359.778C167.872 359.799 167.413 359.686 167.014 359.451C166.615 359.217 166.292 358.872 166.083 358.457C165.875 358.043 165.791 357.577 165.84 357.116C165.89 356.654 166.071 356.217 166.363 355.857C166.544 355.633 166.726 355.409 166.908 355.185C167.184 354.839 167.466 354.5 167.742 354.155C167.774 354.122 167.804 354.087 167.832 354.051C168.149 353.657 168.466 353.269 168.783 352.875C168.204 351.974 167.426 351.219 166.508 350.67C163.33 348.803 158.945 350.096 156.649 352.979C154.346 355.862 153.912 359.908 154.711 363.51C155.498 366.575 156.799 369.484 158.559 372.112C158.386 372.333 158.207 372.547 158.035 372.769C154.884 376.832 152.138 381.195 149.835 385.796C150.395 380.642 149.727 375.428 147.886 370.584C146.02 366.069 142.522 362.266 139.442 358.363C135.742 353.675 128.155 355.721 127.503 361.664C127.497 361.722 127.491 361.779 127.485 361.837C127.942 362.095 128.39 362.37 128.828 362.661C129.379 363.03 129.805 363.557 130.052 364.173C130.299 364.789 130.354 365.466 130.211 366.114C130.068 366.762 129.733 367.352 129.25 367.806C128.766 368.26 128.158 368.557 127.504 368.658L127.436 368.668C127.599 370.322 127.888 371.961 128.298 373.571C129.488 378.065 131.592 382.264 134.476 385.905C137.36 389.546 140.963 392.55 145.059 394.729C145.328 394.867 145.59 395.006 145.859 395.137C143.546 401.711 142.095 408.558 141.543 415.507C141.23 419.607 141.249 423.725 141.598 427.822L141.577 427.677C140.695 423.121 138.272 419.011 134.717 416.04C129.438 411.69 121.979 410.089 116.284 406.593C115.679 406.203 114.975 405.995 114.256 405.993C113.536 405.992 112.831 406.196 112.224 406.583C111.617 406.97 111.133 407.523 110.829 408.176C110.525 408.83 110.413 409.557 110.508 410.273C110.515 410.323 110.523 410.374 110.531 410.425C111.38 410.772 112.207 411.171 113.006 411.621C113.464 411.88 113.911 412.155 114.35 412.446C114.9 412.814 115.327 413.341 115.573 413.958C115.82 414.574 115.875 415.25 115.732 415.898C115.589 416.547 115.254 417.136 114.771 417.59C114.288 418.044 113.679 418.341 113.025 418.443L112.958 418.453C112.91 418.46 112.868 418.467 112.82 418.474C114.271 421.947 116.307 425.145 118.839 427.926C121.967 431.292 125.748 433.982 129.95 435.831C134.151 437.68 138.685 438.649 143.273 438.678H143.28C144.526 444.106 146.33 449.389 148.665 454.443H167.901C167.97 454.229 168.032 454.007 168.094 453.793C166.313 453.905 164.526 453.799 162.771 453.475C164.198 451.719 165.626 449.949 167.053 448.192C167.085 448.159 167.115 448.125 167.142 448.089C167.866 447.19 168.597 446.298 169.321 445.399L169.321 445.398C169.36 442.642 169.044 439.893 168.383 437.219Z" fill="#F2F2F2"/>
<path d="M232.848 66.2563C232.848 79.2533 226.365 92.4789 213.406 92.4789C200.446 92.4789 182.566 83.0657 186.588 62.8945C189.13 50.1499 196.424 42.7233 209.383 42.7233C215.607 42.7233 221.575 45.2026 225.976 49.6159C230.376 54.0293 232.848 60.015 232.848 66.2563Z" fill="#2F2E41"/>
<path d="M178.485 251.949C179.192 251.163 179.718 250.232 180.026 249.221C180.335 248.209 180.418 247.142 180.271 246.095C180.124 245.047 179.749 244.045 179.174 243.158C178.599 242.272 177.837 241.522 176.942 240.963L182.615 215.888L170.145 220.593L166.67 243.684C165.833 245.254 165.599 247.078 166.013 248.81C166.427 250.542 167.46 252.061 168.917 253.08C170.373 254.099 172.152 254.546 173.915 254.338C175.679 254.129 177.305 253.279 178.485 251.949Z" fill="#FFB8B8"/>
<path d="M204.953 163.072L196.25 163.961C196.25 163.961 198.526 176.891 194.967 179.803C191.407 182.716 192.842 182.702 192.862 184.86C192.883 187.019 191.483 190.63 188.634 192.816C185.785 195.002 179.859 233.936 179.859 233.936L166.946 234.06C167.331 230.711 167.299 227.327 166.85 223.987C166.084 218.957 162.214 206.288 163.628 204.116C165.042 201.944 164.298 197.949 164.256 193.632C164.215 189.315 170.373 194.085 170.304 186.89C170.235 179.695 178.133 134.548 177.354 128.079C176.575 121.611 184.411 115.779 184.411 115.779L191.585 115.71L204.953 163.072Z" fill="#6C63FF"/>
<path d="M297.347 102.353C297.564 103.331 297.565 104.345 297.349 105.324C297.133 106.302 296.705 107.222 296.097 108.017C295.488 108.812 294.713 109.463 293.827 109.925C292.94 110.387 291.963 110.649 290.965 110.692L283.983 134.026L275.887 124.313L283.758 103.643C283.798 101.956 284.453 100.343 285.6 99.1083C286.747 97.8737 288.306 97.104 289.981 96.9449C291.656 96.7858 293.331 97.2485 294.688 98.2452C296.046 99.242 296.992 100.704 297.347 102.353Z" fill="#FFB8B8"/>
<path d="M223.635 109.953C223.635 109.953 240.514 103.606 249.665 138.364L261.812 150.981L272.018 132.487L270.669 128.099L278.556 110.167L292.079 117.95L288.75 130.262L289.313 136.348L286.081 140.134L280.791 159.698L277.482 166.09C277.482 166.09 273.309 174.275 266.024 175.623C264.082 175.988 262.095 176.044 260.135 175.79C256.299 175.288 252.095 173.515 247.775 169.601C231.746 155.082 222.266 143.882 222.266 143.882L223.635 109.953Z" fill="#6C63FF"/>
<path d="M305.007 117.346L274.96 88.2638C274.797 88.1052 274.7 87.8897 274.69 87.6616C274.68 87.4336 274.757 87.2103 274.907 87.0379C275.056 86.8655 275.265 86.7571 275.492 86.7349C275.718 86.7128 275.945 86.7786 276.124 86.9189L307.983 111.811L305.007 117.346Z" fill="#3F3D56"/>
<path d="M317.382 120.569C315.875 121.1 314.311 121.45 312.721 121.613C311.913 121.693 311.102 121.722 310.297 121.731C310.015 121.741 309.728 121.742 309.448 121.746C308.78 121.756 308.111 121.766 307.436 121.773C306.868 121.784 306.292 121.793 305.726 121.798C304.892 121.811 303.976 121.793 303.378 121.205C303.125 120.909 302.941 120.56 302.839 120.184C302.737 119.807 302.719 119.413 302.787 119.029C302.92 118.226 303.163 117.445 303.508 116.708C304.229 114.968 304.956 113.231 305.677 111.491L305.565 110.517C306.889 110.325 308.235 110.367 309.545 110.64C310.08 110.777 310.582 111.021 311.02 111.357C311.458 111.694 311.824 112.116 312.096 112.598C312.21 112.815 312.301 113.043 312.366 113.279C312.649 114.316 312.445 115.467 312.567 116.551C312.595 116.777 312.636 117.001 312.691 117.221C312.846 117.874 313.143 118.484 313.56 119.008C313.977 119.532 314.504 119.957 315.104 120.254C315.819 120.569 316.608 120.679 317.382 120.569Z" fill="#CCCCCC"/>
<path d="M319.495 119.726C318.868 120.172 318.143 120.461 317.382 120.569C318.1 120.324 318.805 120.042 319.495 119.726Z" fill="#E6E6E6"/>
<path d="M317.382 120.569C315.875 121.1 314.311 121.45 312.721 121.613C311.913 121.693 311.101 121.721 310.297 121.731C310.015 121.741 309.728 121.742 309.448 121.746C308.78 121.756 308.111 121.766 307.436 121.773C307.469 121.433 307.52 121.096 307.588 120.761C308.219 117.64 310.049 114.986 312.096 112.598C312.21 112.815 312.301 113.043 312.366 113.279C312.649 114.316 312.445 115.467 312.567 116.551C312.595 116.777 312.636 117.001 312.691 117.221C312.846 117.874 313.143 118.484 313.56 119.008C313.977 119.532 314.504 119.957 315.104 120.254C315.819 120.569 316.608 120.679 317.382 120.569Z" fill="#6C63FF"/>
<path d="M200.996 168.153L199.802 173.86L198.787 194.908L239.574 189.369L242.705 164.997L238.376 157.863L200.996 168.153Z" fill="#FFB6B6"/>
<path d="M231.164 82.0655C236.277 72.684 232.84 60.9214 223.485 55.7929C214.131 50.6645 202.402 54.1124 197.288 63.4939C192.175 72.8754 195.613 84.638 204.967 89.7664C214.321 94.8948 226.05 91.447 231.164 82.0655Z" fill="#FFB7B7"/>
<path d="M185.144 141.924L179.837 128.093C179.834 122.303 181.788 116.682 185.379 112.149C188.971 107.616 193.988 104.436 199.613 103.13L199.686 103.113L203.503 97.9553L219.01 99.5111L221.853 105.337L233.09 112.048L245.87 127.056C249.895 129.954 252.286 133.671 252.977 138.103C254.446 147.513 247.877 156.928 247.096 158.007L245.082 169.379L198.53 176.07L198.174 176.115L185.144 141.924Z" fill="#6C63FF"/>
<path d="M194.024 77.8548C194.199 77.827 194.374 77.7901 194.549 77.7623C197.56 77.2268 200.571 76.7004 203.573 76.1555L203.849 69.3312L207.486 75.4444C215.783 78.2056 223.545 76.645 230.847 73.2005C233.256 72.0538 235.593 70.7616 237.845 69.3312C239.416 59.7185 235.453 52.1429 225.276 51.1758C224.96 51.1458 224.733 50.8804 224.457 50.7417L224.453 50.7411L224.45 50.7391L224.448 50.736L224.448 50.7325C223.978 50.5109 223.499 50.2985 223.02 50.1046C219.272 48.6354 215.184 48.2633 211.233 49.0316C207.282 49.7999 203.63 51.6771 200.7 54.4448C194.807 60.0873 192.155 69.405 194.024 77.8548Z" fill="#2F2E41"/>
<path d="M229.428 406.483L240.503 411.586L265.4 371.175L249.055 363.643L229.428 406.483Z" fill="#FFB6B6"/>
<path d="M229.192 399.738L247.179 406.758L243.732 414.28L255.093 433.479C255.654 434.427 255.899 435.53 255.791 436.627C255.682 437.725 255.227 438.758 254.492 439.578C253.756 440.397 252.778 440.96 251.702 441.183C250.625 441.405 249.505 441.277 248.506 440.817L227.665 431.211L227.482 422.115L222.67 428.909L214.812 425.288L229.192 399.738Z" fill="#2F2E41"/>
<path d="M181.018 431.556H193.206L199.004 384.41L181.016 384.411L181.018 431.556Z" fill="#FFB6B6"/>
<path d="M174.39 334.815L174.39 334.689L178.968 326.777L174.293 316.479L173.961 253.887C172.12 208.655 198.286 186.912 198.492 186.698L199.059 186.107L241.021 185.077C241.021 185.077 263.077 250.01 280.598 308.518C281.633 311.976 284.562 315.387 283.651 318.81C276.427 345.964 267.851 376.697 262.347 377.565L244.916 368.152L248.156 321.091L246.164 315.97C242.596 315.311 233.32 279.208 233.32 279.208C231.765 277.357 231.845 272.324 231.845 272.324L219.696 259.53L208.497 318.499L211.266 336.087L208.975 342.134L199.161 392.061L199.057 392.865L180.555 391.013L174.39 334.815Z" fill="#2F2E41"/>
<path d="M176.891 425.526L196.157 424.373V432.651L214.474 445.338C215.379 445.965 216.06 446.865 216.418 447.907C216.777 448.95 216.794 450.08 216.467 451.132C216.14 452.185 215.485 453.105 214.6 453.759C213.714 454.412 212.643 454.764 211.544 454.764H188.607L184.653 446.576L183.11 454.764H174.462L176.891 425.526Z" fill="#2F2E41"/>
<path d="M201.42 50.2517V50.2681C201.422 51.2813 201.294 52.2906 201.037 53.2706C200.996 53.4425 200.947 53.6224 200.89 53.7942V53.8024C200.343 55.5525 199.399 57.1517 198.132 58.4746C196.865 59.7975 195.31 60.8082 193.589 61.4275C193.336 61.5257 193.075 61.6075 192.814 61.6811C192.264 61.841 191.702 61.956 191.133 62.0247C190.622 62.0973 190.107 62.1328 189.591 62.1311C189.188 62.1328 188.785 62.1136 188.384 62.0738C187.445 61.9785 186.522 61.7669 185.635 61.4438C185.496 61.4033 185.36 61.3541 185.227 61.2965C185.16 61.2728 185.095 61.2455 185.031 61.2148C183.551 60.5935 182.213 59.6771 181.097 58.5211C179.981 57.3652 179.11 55.9939 178.539 54.4904C177.968 52.9869 177.707 51.3827 177.772 49.775C177.838 48.1674 178.229 46.5899 178.921 45.1383L178.929 45.1301C179.509 43.9123 180.296 42.805 181.254 41.8576C183.391 39.7222 184.333 34.3708 187.58 34.3708C187.735 34.3681 187.89 34.3735 188.045 34.3871C190.223 34.4608 194.249 39.1741 195.963 40.2867C197.235 41.0929 198.338 42.1406 199.209 43.3711C200.119 44.6369 200.768 46.0722 201.118 47.5927C201.318 48.4648 201.42 49.3568 201.42 50.2517Z" fill="#2F2E41"/>
<path d="M186.968 46.1209C185.131 48.2658 182.255 49.0995 179.66 50.2157C175.081 52.2303 171.061 55.3348 167.949 59.2598C164.836 63.1849 162.726 67.8121 161.8 72.7402C161.082 76.7542 161.176 80.9095 160.043 84.8227C158.917 88.736 156.128 92.5752 152.125 93.2543C149.417 93.7182 146.701 92.6693 144.154 91.6339C142.753 91.0691 141.351 90.502 139.95 89.9328C141.412 86.2549 142.871 82.577 144.328 78.8991C141.986 82.3701 139.263 85.566 136.209 88.4267C131.188 86.3961 126.162 84.3655 121.131 82.3349C133.507 82.382 131.395 70.333 134.164 58.2438C135.686 51.6007 148.646 47.1026 151.187 40.7822C152.56 37.3541 154.883 34.3923 157.882 32.2472C160.881 30.1021 164.43 28.8636 168.109 28.6783C171.789 28.4929 175.443 29.3685 178.642 31.2014C181.84 33.0343 184.448 35.7478 186.157 39.0206C188.697 40.0359 188.771 44.0029 186.968 46.1209Z" fill="#2F2E41"/>
<path d="M239.534 188.04C242.381 188.785 245.008 190.209 247.189 192.19C249.37 194.171 251.042 196.652 252.061 199.421C252.612 201.013 252.956 202.901 252.009 204.415C251.72 204.958 251.244 205.377 250.67 205.595C250.096 205.813 249.463 205.816 248.888 205.602C247.651 205.091 246.8 203.824 246.171 202.7C245.339 201.113 244.623 199.467 244.03 197.774C243.059 195.221 240.987 190.958 243.945 188.961C246.432 187.282 249.726 187.935 252.524 187.819C255.549 187.695 258.911 186.533 259.985 183.39C261.03 180.332 258.58 177.456 255.939 176.294C254.351 175.633 252.626 175.374 250.915 175.537C249.204 175.701 247.559 176.282 246.124 177.231C243.288 179.203 241.263 182.141 240.425 185.498C240.365 185.753 240.405 186.021 240.538 186.246C240.671 186.472 240.885 186.636 241.137 186.706C241.388 186.776 241.657 186.744 241.886 186.619C242.115 186.494 242.287 186.284 242.365 186.035C243.195 182.994 244.992 180.133 247.794 178.575C250.419 177.116 254.018 177.026 256.466 178.915C257.677 179.849 258.628 181.403 258.008 182.947C257.439 184.363 255.957 185.206 254.546 185.548C251.355 186.322 248.017 185.32 244.836 186.342C241.803 187.317 240.055 189.805 240.493 193.034C240.824 194.848 241.36 196.618 242.09 198.311C242.711 200.05 243.437 201.751 244.264 203.402C245.526 205.796 247.803 208.387 250.808 207.685C254.233 206.885 255.046 202.875 254.312 199.926C252.638 193.201 246.631 187.814 240.068 186.095C239.815 186.034 239.547 186.075 239.323 186.208C239.098 186.341 238.934 186.556 238.864 186.809C238.795 187.061 238.826 187.33 238.951 187.56C239.076 187.79 239.285 187.962 239.534 188.04Z" fill="#2F2E41"/>
<path d="M269.632 371.745C268.211 370.058 266.182 369.03 264.211 368.045L247.676 359.784L247.205 362.728C246.58 360.792 243.511 360.649 242.267 362.257C241.023 363.864 241.421 366.294 242.634 367.925C243.847 369.556 245.69 370.573 247.474 371.542C251.431 373.689 255.387 375.837 259.343 377.984C261.187 378.985 263.089 380.004 265.173 380.233C267.256 380.461 269.59 379.708 270.629 377.882C271.719 375.964 271.054 373.431 269.632 371.745Z" fill="#2F2E41"/>
<path d="M205.306 387.126C203.283 386.254 201.01 386.242 198.808 386.244C192.65 386.249 186.492 386.254 180.335 386.259L181.224 389.103C179.803 387.651 176.993 388.898 176.596 390.893C176.199 392.889 177.637 394.885 179.449 395.8C181.261 396.716 183.362 396.802 185.39 396.869C189.886 397.018 194.382 397.168 198.879 397.317C200.973 397.387 203.13 397.447 205.096 396.718C207.062 395.99 208.815 394.27 208.93 392.172C209.052 389.967 207.329 387.998 205.306 387.126Z" fill="#2F2E41"/>
<path d="M309.136 257.044C282.041 257.044 252.599 251.63 223.354 241.218C187.189 228.342 154.03 208.907 127.461 185.015L128.247 183.432C154.689 207.209 187.701 226.555 223.716 239.377C256.263 250.965 289.054 256.334 318.531 254.917L318.583 256.819C315.469 256.97 312.321 257.045 309.136 257.044Z" fill="#F0F0F0"/>
<path d="M66.4088 157.882C44.6999 129.142 53.309 96.3399 40.5906 73.4566C-8.15441 -14.2475 51.8683 -6.1672 119.73 10.8884L119.892 12.7804C76.7003 19.4652 48.2951 41.7585 41.9594 73.9437C37.0354 98.9569 46.0711 128.285 67.4022 156.525L66.4088 157.882Z" fill="#F0F0F0"/>
<path d="M275.863 259.9C248.769 259.9 217.631 229.747 190.082 244.074C106.67 287.451 118.152 214.866 94.1882 187.871L94.975 186.288C121.416 210.065 154.429 229.411 190.444 242.233C222.991 253.821 255.781 259.19 285.259 257.773L285.31 259.675C282.197 259.826 279.048 259.901 275.863 259.9Z" fill="#F0F0F0"/>
<path d="M338.02 247.927L337.567 246.123C361.799 235.105 359.717 202.287 381.396 194.793C546.547 137.706 383.525 131.269 346.857 101.072C314.066 74.0688 278.329 42.6738 232.912 26.5045L233.274 24.6637C278.89 40.9041 319.553 67.5235 347.771 99.6185C376.131 131.874 388.559 165.848 382.765 195.28C378.196 218.49 362.724 236.695 338.02 247.927Z" fill="#F0F0F0"/>
<path d="M115.514 260.696C86.3501 212.875 47.6023 170.159 0 144.695L1.17936 143.641C22.2847 186.395 63.0935 227.347 116.088 258.956L115.514 260.696Z" fill="#F0F0F0"/>
<path d="M302.696 315.707C297.205 315.707 291.62 315.542 285.941 315.212L286.001 313.31C327.887 337.21 365.253 331.526 394.143 293.582L394.672 295.349C369.925 308.759 338.382 315.707 302.696 315.707Z" fill="#F0F0F0"/>
<path d="M311.28 297.503C314.408 297.503 316.944 294.093 316.944 289.886C316.944 285.68 314.408 282.27 311.28 282.27C308.153 282.27 305.617 285.68 305.617 289.886C305.617 294.093 308.153 297.503 311.28 297.503Z" fill="#FD6584"/>
<path d="M119.955 158.169C120.425 155.067 117.444 152.041 113.297 151.41C109.15 150.779 105.408 152.781 104.939 155.882C104.469 158.984 107.45 162.01 111.597 162.641C115.743 163.272 119.486 161.27 119.955 158.169Z" fill="#E6E6E6"/>
<path d="M93.8831 75.5291C97.0109 75.5291 99.5465 72.1192 99.5465 67.9128C99.5465 63.7064 97.0109 60.2965 93.8831 60.2965C90.7553 60.2965 88.2197 63.7064 88.2197 67.9128C88.2197 72.1192 90.7553 75.5291 93.8831 75.5291Z" fill="#E6E6E6"/>
<path d="M106.753 119.15C99.3666 108.826 85.4263 103.491 75.616 107.234C65.8057 110.977 63.8403 122.38 71.2263 132.703C78.6123 143.027 100.354 159.266 110.164 155.523C119.975 151.78 114.139 129.473 106.753 119.15ZM106.798 150.902C105.59 152.678 102.628 152.76 100.181 151.086C97.7335 149.412 96.7287 146.616 97.9363 144.84C99.1439 143.065 102.107 142.983 104.554 144.656C107.001 146.33 108.006 149.127 106.798 150.902Z" fill="#3F3D56"/>
<path d="M98.4147 129.248C97.4949 129.993 96.5751 130.739 95.6553 131.485C94.5264 132.529 93.1897 133.321 91.7333 133.81C89.7339 134.273 87.6436 134.148 85.7131 133.45C82.8987 132.538 80.4321 130.78 78.6478 128.415L80.6361 128.86C79.5812 127.635 78.7235 126.253 78.094 124.762C77.6277 123.38 77.8879 121.976 79.1465 121.597C80.5872 121.164 82.9066 122.138 84.1163 121.438C86.208 120.226 82.7692 115.714 84.6754 114.322C85.786 113.511 88.0083 114.314 89.8607 115.109C92.1649 115.99 94.3486 117.159 96.3598 118.59C99.6503 121.138 101.472 125.155 100.128 127.48C99.6689 128.169 99.0882 128.768 98.4147 129.248Z" fill="#6C63FF"/>
<path d="M97.737 136.989C96.1284 137.21 94.2673 135.97 92.7151 134.826L92.32 134.307C91.9967 133.314 91.8607 132.269 91.919 131.226C91.9557 130.743 92.155 130.287 92.4842 129.932C92.8134 129.577 93.253 129.345 93.731 129.274C94.6745 129.149 95.9337 129.557 96.5569 129.01C97.762 127.951 94.9675 125.034 96.2452 124.043C96.9623 123.487 98.486 124.2 99.143 125.155C99.6795 126.046 99.9272 127.082 99.8518 128.12C99.8731 129.645 99.8944 131.169 99.9157 132.693C99.9836 133.593 99.8928 134.498 99.6474 135.367C99.5125 135.79 99.2619 136.166 98.9241 136.453C98.5864 136.739 98.175 136.925 97.737 136.989Z" fill="#2F2E41"/>
<path d="M98.1402 142.068C95.9106 141.408 92.5104 139.104 89.6143 137.069L88.7522 136.316C87.8493 135.289 87.084 134.148 86.4759 132.923C86.1417 132.005 86.5719 131.469 88.0524 131.912C89.3629 132.304 91.427 133.42 92.0373 133.2C93.2174 132.775 87.5325 128.227 88.8561 127.912C89.5989 127.736 92.2167 129.311 93.7012 130.657C94.7944 131.63 95.6974 132.798 96.364 134.102C97.2316 135.684 98.0992 137.265 98.9668 138.847C99.4908 139.637 99.8559 140.522 100.042 141.452C100.06 142.125 99.4931 142.469 98.1402 142.068Z" fill="#FF6584"/>
<path d="M413.748 18.6501C414.623 7.54441 421.951 20.6489 433.025 21.5262C435.659 21.7338 438.226 22.4597 440.58 23.6626C442.934 24.8655 445.029 26.5217 446.744 28.5366C448.46 30.5516 449.763 32.8857 450.579 35.4058C451.395 37.9259 451.708 40.5826 451.5 43.2239C451.292 45.8653 450.567 48.4397 449.366 50.8001C448.166 53.1604 446.514 55.2605 444.504 56.9803C442.494 58.7001 440.166 60.0059 437.653 60.8231C435.14 61.6404 432.491 61.9531 429.857 61.7433C418.783 60.866 412.874 29.7557 413.748 18.6501Z" fill="#6C63FF"/>
<path d="M482.689 125.282C482.897 122.642 483.622 120.068 484.822 117.708C486.021 115.348 487.673 113.248 489.682 111.529C491.691 109.809 494.018 108.503 496.53 107.685C499.042 106.867 501.691 106.554 504.324 106.762C515.397 107.639 522.805 85.5854 521.93 96.6911C521.055 107.797 512.229 147.857 501.156 146.979C498.523 146.771 495.956 146.044 493.603 144.841C491.25 143.637 489.157 141.981 487.442 139.966C485.727 137.952 484.425 135.618 483.609 133.098C482.794 130.579 482.481 127.923 482.689 125.282Z" fill="#6C63FF"/>
<path d="M507.932 149.59C504.904 151.053 501.407 150.191 498.793 148.258C495.82 146.059 494.354 142.562 493.87 138.975C493.404 135.125 493.725 131.219 494.812 127.497C495.846 123.907 498.06 120.18 502.017 119.44C504.654 118.946 507.468 120.074 508.199 122.821C508.477 123.922 508.467 125.077 508.171 126.174C507.874 127.27 507.301 128.272 506.506 129.082C504.139 131.362 500.34 131.188 497.592 129.739C494.359 128.034 492.574 124.624 491.986 121.117C491.286 116.948 492.263 112.758 493.655 108.836C495.167 104.573 497.049 100.438 498.779 96.2607C502.152 88.1151 505.32 79.7941 506.664 71.0345C508.716 57.6534 505.52 41.7726 493.823 33.5812C487.508 29.1592 479.589 27.9066 472.055 28.8583C464.11 29.862 456.809 33.3583 450.344 37.9878C446.981 40.4392 443.787 43.1158 440.784 45.9995C439.874 46.9382 438.706 47.5843 437.429 47.8557C436.151 48.1272 434.823 48.0116 433.611 47.5238C427.394 44.9861 429.375 34.8399 435.784 34.0839C438.696 33.7404 441.695 35.3697 443.67 37.4056C445.825 39.7162 447.231 42.6272 447.703 45.7552C448.8 52.3388 446.366 59.2982 442.138 64.3307C437.362 70.0162 430.103 73.2169 423.037 74.9028C414.993 76.8222 406.718 76.9201 398.495 77.1025C390.08 77.2891 381.565 77.61 373.443 80.0312C366.906 82.0001 360.738 85.0398 355.189 89.0271C344.011 96.9905 335.646 108.311 331.302 121.354C330.281 124.509 329.525 127.745 329.043 131.026C328.853 132.311 330.859 132.464 331.048 131.185C333.163 116.881 340.885 103.727 351.74 94.3099C357.155 89.5907 363.354 85.861 370.055 83.2906C378.126 80.2197 386.699 79.441 395.264 79.1903C404.012 78.9343 412.84 79.0737 421.457 77.3172C429.076 75.7644 436.79 72.7184 442.341 67.0775C447.236 62.1037 450.264 54.988 449.939 47.9556C449.636 41.4121 446.043 34.4153 439.386 32.4708C436.262 31.5584 432.909 32.1389 430.589 34.5305C429.299 35.894 428.411 37.5892 428.024 39.428C427.636 41.2667 427.764 43.1772 428.393 44.9475C429.223 46.8709 430.736 48.416 432.639 49.2821C434.542 50.1481 436.698 50.2732 438.688 49.633C440.149 49.0948 441.468 48.2297 442.546 47.1035C448.832 41.2004 455.866 35.7833 464.051 32.8438C471.685 30.102 480.467 29.5396 488.064 32.7017C502.445 38.6879 506.766 56.0611 504.756 70.2126C503.441 79.474 499.945 88.2432 496.368 96.8222C494.542 101.203 492.513 105.555 491.115 110.099C489.863 114.167 489.235 118.532 490.261 122.723C491.157 126.381 493.278 129.742 496.67 131.514C499.752 133.124 503.662 133.402 506.681 131.487C511.045 128.72 512.027 121.079 507.125 118.294C503.872 116.447 499.707 117.354 497.009 119.781C493.984 122.501 492.749 126.575 492.125 130.474C490.947 137.841 491.873 146.913 499.129 150.855C502.118 152.479 505.682 152.917 508.807 151.406C509.038 151.284 509.212 151.077 509.294 150.829C509.376 150.58 509.358 150.31 509.244 150.074C509.131 149.838 508.93 149.656 508.685 149.566C508.441 149.475 508.17 149.484 507.932 149.59Z" fill="#3F3D56"/>
<path d="M328.633 125.892C329.561 114.115 313.493 82.6259 320.406 74.102C321.263 73.0368 322.162 72.0064 323.104 71.0109C326.152 67.7517 329.58 64.8732 333.316 62.438C333.947 62.016 334.584 61.6145 335.227 61.227C337.509 59.8612 339.885 58.6588 342.336 57.6288C342.781 57.4482 343.232 57.2681 343.684 57.0881C356.045 52.2911 369.702 52.0481 382.225 56.4023C394.749 60.7565 405.325 69.4255 412.073 80.8665C418.821 92.3076 421.303 105.779 419.077 118.883C416.85 131.987 410.061 143.873 399.915 152.428C399.382 152.885 398.836 153.327 398.277 153.761C392.732 158.104 386.417 161.354 379.667 163.342C379.66 163.341 379.66 163.348 379.653 163.347C369.531 166.311 358.781 166.359 348.632 163.486L348.619 163.485C348.395 163.42 348.172 163.355 347.949 163.284C323.127 155.928 326.514 152.804 328.633 125.892Z" fill="#6C63FF"/>
<path d="M342.31 57.8829C342.308 57.7974 342.317 57.7121 342.336 57.6287C342.781 57.4481 343.232 57.2681 343.684 57.088C343.873 57.1641 344.034 57.2961 344.147 57.4664C344.26 57.6367 344.318 57.8374 344.315 58.0418C344.318 59.0611 344.434 60.077 344.661 61.0706C346.605 69.6959 355.409 74.7235 363.269 76.8773C372.886 79.521 383.22 79.5573 392.192 84.3352C395.879 86.1915 399.059 88.9204 401.458 92.2861C403.956 95.9817 405.003 100.472 404.399 104.896C403.028 115.302 395.039 122.897 391.749 132.558C390.393 136.538 390.06 140.774 391.602 144.754C392.91 148.136 395.491 151.22 399.202 151.919C399.353 151.942 399.495 152 399.619 152.089C399.743 152.177 399.844 152.293 399.915 152.428C399.382 152.884 398.836 153.327 398.277 153.761C397.607 153.606 396.955 153.38 396.333 153.088C392.781 151.39 390.485 148.005 389.337 144.319C388.012 140.052 388.516 135.614 390 131.462C393.459 121.781 402.008 113.818 402.541 103.13C403.002 93.8652 395.409 87.4632 387.487 84.3805C377.686 80.5689 366.7 81.1352 357.043 76.8561C349.446 73.489 342.345 66.7415 342.31 57.8829Z" fill="#3F3D56"/>
<path d="M333.316 62.4379C333.947 62.0159 334.584 61.6144 335.227 61.2269C335.301 61.3207 335.355 61.4294 335.384 61.5457C335.413 61.6621 335.417 61.7833 335.396 61.9013C334.378 70.5455 336.693 79.2529 341.865 86.2428C344.101 89.3097 346.838 91.9755 349.959 94.1279C353.227 96.3629 356.9 97.7128 360.527 99.2277C364.095 100.718 367.703 102.467 370.287 105.43C372.921 108.452 374.026 112.35 374.146 116.298C374.424 125.655 369.121 133.814 368.027 142.92C367.539 146.983 368.122 151.015 370.384 154.492C372.34 157.493 375.403 159.679 379.079 159.538C380.294 159.486 380.214 161.26 379.145 161.52C379.071 161.537 378.996 161.547 378.921 161.549C374.644 161.709 370.985 159.072 368.723 155.602C366.088 151.569 365.437 146.856 366.104 142.141C367.401 133.017 372.908 124.584 372.078 115.143C371.964 113.162 371.436 111.227 370.529 109.463C369.622 107.7 368.355 106.147 366.811 104.906C363.631 102.421 359.746 101.108 356.061 99.5753C352.377 98.1206 348.948 96.0868 345.903 93.5502C342.929 90.9831 340.384 87.9558 338.364 84.5827C334.326 77.9477 332.553 70.1736 333.316 62.4379Z" fill="#3F3D56"/>
<path d="M320.406 74.1019C321.263 73.0367 322.162 72.0063 323.104 71.0107C321.8 76.1475 321.578 81.5004 322.451 86.7281C323.503 93.3056 326.193 99.5107 330.27 104.769C332.315 107.388 334.724 109.698 337.424 111.629C340.512 113.829 343.925 115.752 345.97 119.071C350.406 126.275 346.351 134.897 344.171 142.089C343.028 145.843 342.253 149.876 343.518 153.699C344.502 156.664 346.683 159.541 349.906 160.127C351.172 160.356 351.02 162.374 349.747 162.138C349.509 162.092 349.271 162.04 349.033 161.98C345.535 161.056 343.01 158.185 341.784 154.796C340.196 150.374 340.94 145.793 342.275 141.4C344.471 134.175 348.988 124.732 342.757 118.196C340.13 115.438 336.571 113.746 333.7 111.259C331.127 109.041 328.867 106.482 326.982 103.652C321.21 94.9615 318.866 84.4291 320.406 74.1019Z" fill="#3F3D56"/>
<path d="M358.832 218.081V216.785H337.181V186.57H335.893V216.785H311.08V193.451C310.646 193.793 310.218 194.145 309.795 194.507V216.785H293.407C293.224 217.214 293.049 217.646 292.883 218.081H309.795V243.47H288.797C288.817 243.905 288.847 244.334 288.883 244.766H309.795V265.021H294.129C294.321 265.456 294.523 265.884 294.735 266.309H309.795V283.337H311.08V266.309H335.893V283.337H337.181V266.309H358.832V265.021H337.181C337.181 262.361 337.703 259.727 338.718 257.269C339.733 254.811 341.22 252.578 343.096 250.697C344.971 248.816 347.198 247.324 349.649 246.306C352.099 245.289 354.726 244.765 357.378 244.766H358.832V243.47H337.181V218.081H358.832ZM335.893 265.021H311.08V244.766H335.893V265.021ZM335.893 243.47H311.08V242.962C311.08 239.694 311.722 236.459 312.969 233.44C314.217 230.421 316.044 227.678 318.348 225.368C320.653 223.057 323.388 221.224 326.398 219.974C329.409 218.724 332.635 218.08 335.893 218.081V243.47Z" fill="#3F3D56"/>
<path d="M297.585 455.793L112.712 456C112.501 456 112.298 455.916 112.148 455.765C111.998 455.615 111.914 455.412 111.914 455.199C111.914 454.987 111.998 454.783 112.148 454.633C112.298 454.483 112.501 454.399 112.712 454.399L297.585 454.192C297.69 454.192 297.794 454.212 297.891 454.252C297.988 454.293 298.076 454.351 298.151 454.426C298.225 454.5 298.284 454.589 298.324 454.686C298.364 454.783 298.385 454.887 298.385 454.993C298.385 455.098 298.364 455.202 298.324 455.3C298.284 455.397 298.225 455.485 298.151 455.56C298.076 455.634 297.988 455.693 297.891 455.733C297.794 455.773 297.69 455.794 297.585 455.793Z" fill="#CACACA"/>
</g>
<defs>
<clipPath id="clip0_2046_1334">
<rect width="522" height="456" fill="white"/>
</clipPath>
</defs>
</svg>
