<svg width="505" height="619" viewBox="0 0 505 619" fill="none" xmlns="http://www.w3.org/2000/svg">
<g clip-path="url(#clip0_2046_926)">
<path d="M468.72 52.4004H70.3744C55.7617 52.4004 43.8793 64.4501 43.8793 79.2687V356.089C43.8793 370.907 55.7617 382.957 70.3744 382.957H468.72C483.333 382.957 495.215 370.907 495.215 356.089V79.2687C495.215 64.4501 483.333 52.4004 468.72 52.4004Z" fill="#F2F2F2"/>
<path d="M425.503 73.7227H27.1572C12.5445 73.7227 0.662109 85.7724 0.662109 100.591V377.411C0.662109 392.23 12.5445 404.279 27.1572 404.279H425.503C440.116 404.279 451.998 392.23 451.998 377.411V100.591C451.998 85.7724 440.116 73.7227 425.503 73.7227ZM449.212 295.935C449.212 354.212 402.626 401.454 345.159 401.454H27.1572C14.0631 401.454 3.44813 390.69 3.44813 377.411V100.591C3.44813 87.3124 14.063 76.5479 27.1571 76.5479H425.503C438.597 76.5479 449.212 87.3124 449.212 100.591V295.935Z" fill="#3F3D56"/>
<path d="M57.5614 344.289L55.2039 342.784C56.7363 340.313 58.3177 337.919 59.9026 335.667L62.1703 337.309C60.6161 339.516 59.0659 341.864 57.5614 344.289Z" fill="#CCCCCC"/>
<path d="M72.9232 324.154L70.929 322.182C75.1801 317.764 79.6543 313.971 84.2265 310.909L85.7624 313.266C81.3555 316.217 77.0356 319.881 72.9232 324.154ZM142.428 306.321C139.102 306.321 136.071 305.889 133.802 305.513L134.252 302.725C136.551 303.106 139.32 303.496 142.428 303.496C145.174 303.496 147.872 303.19 150.677 302.561L151.278 305.32C148.273 305.994 145.378 306.321 142.428 306.321ZM100.741 305.947L99.9027 303.253C102.895 302.296 105.996 301.578 109.117 301.12C111.798 300.727 114.361 300.535 116.951 300.535H117.123V303.361H116.951C114.495 303.361 112.064 303.542 109.516 303.916C106.543 304.353 103.59 305.036 100.741 305.947ZM167.147 297.783L165.367 295.61C169.211 292.371 171.967 288.456 174.885 284.309L176.048 282.66L178.309 284.312L177.152 285.95C174.127 290.25 171.269 294.311 167.147 297.783ZM189.49 271.878L187.776 269.65C191.531 266.678 195.774 264.27 200.746 262.289C201.593 261.951 202.403 261.649 203.179 261.381L204.079 264.055C203.34 264.31 202.571 264.597 201.766 264.918C197.046 266.799 193.031 269.075 189.49 271.878ZM223.124 262.065C222.187 262.065 221.298 262.056 220.444 262.046L220.476 259.221C221.35 259.231 222.261 259.233 223.226 259.239C226.504 259.239 231.07 259.145 237.333 258.409L237.654 261.215C231.185 261.976 226.546 262.055 223.124 262.065ZM254.602 258.365L254.05 255.596C259.054 254.57 264.875 253.348 270.638 251.84L271.334 254.576C265.506 256.101 259.641 257.331 254.602 258.365ZM287.746 249.22L286.704 246.599C292.29 244.316 297.14 241.74 301.533 238.724L303.095 241.064C298.537 244.193 293.516 246.861 287.746 249.22ZM315.895 229.032L313.634 227.38C314.412 226.287 315.084 225.219 315.733 224.188C317.651 221.142 319.635 217.991 324.359 214.125L324.69 213.856L326.416 216.073L326.109 216.322C321.738 219.901 319.963 222.722 318.081 225.708C317.411 226.773 316.717 227.874 315.895 229.032ZM340.888 207.842L339.872 205.211C344.837 203.237 350.446 201.649 356.541 200.489L357.055 203.266C351.131 204.393 345.692 205.933 340.888 207.842Z" fill="#CCCCCC"/>
<path d="M374.084 201.192L373.91 198.372C376.617 198.2 379.447 198.087 382.322 198.035L382.372 200.86C379.538 200.911 376.749 201.023 374.084 201.192Z" fill="#CCCCCC"/>
<path d="M88.6282 104.336H49.5402C47.5761 104.336 45.9741 105.961 45.9741 107.953C45.9741 109.958 47.5761 111.583 49.5402 111.583H88.6282C90.5923 111.583 92.1943 109.958 92.1943 107.953C92.1943 105.961 90.5924 104.336 88.6282 104.336Z" fill="#E6E6E6"/>
<path d="M154.1 104.336H115.012C113.048 104.336 111.446 105.961 111.446 107.953C111.446 109.958 113.048 111.583 115.012 111.583H154.1C156.064 111.583 157.666 109.958 157.666 107.953C157.666 105.961 156.064 104.336 154.1 104.336Z" fill="#E6E6E6"/>
<path d="M219.571 104.336H180.483C178.519 104.336 176.917 105.961 176.917 107.953C176.917 109.958 178.519 111.583 180.483 111.583H219.571C221.535 111.583 223.137 109.958 223.137 107.953C223.137 105.961 221.535 104.336 219.571 104.336Z" fill="#E6E6E6"/>
<path d="M401.153 342.123H45.9351V344.949H401.153V342.123Z" fill="#E6E6E6"/>
<path d="M382.389 135.878C357.106 136.542 338.245 144.086 326.293 158.269C321.877 163.524 320.08 167.663 318.185 172.042C316.305 176.365 314.382 180.814 309.911 186.62V181.817C312.683 177.692 314.173 174.246 315.636 170.898C317.614 166.321 319.495 161.998 324.175 156.446C336.657 141.614 356.215 133.745 382.306 133.053L382.389 135.878Z" fill="#CCCCCC"/>
<path d="M318.185 172.042C316.305 176.365 314.382 180.815 309.911 186.62C309.381 187.313 308.81 188.033 308.197 188.782C292.066 208.234 270.516 214.619 253.187 219.761C252.101 220.086 251.042 220.382 250.011 220.665C234.605 224.903 226.163 224.747 219.88 224.649C213.57 224.536 209.405 224.465 201.952 228.788C188.287 236.684 182.687 248.24 177.268 259.414C171.682 270.912 166.417 281.776 152.988 286.875C143.669 290.407 137.122 288.655 130.198 286.819C124.25 285.222 113.53 245.931 104.038 240.202C84.4379 244.369 72.5277 309.322 57.6642 344.101L55.1011 342.971C70.3546 307.316 82.9195 241.812 103.452 237.433C112.605 235.484 124.654 282.411 130.909 284.078C137.4 285.816 143.516 287.44 152.013 284.219C164.411 279.529 169.203 269.627 174.761 258.17C180.11 247.152 186.17 234.664 200.559 226.33C208.681 221.626 213.403 221.71 219.922 221.823C226.135 221.936 234.521 222.078 250.011 217.741C250.791 217.515 251.585 217.289 252.407 217.049C269.374 212.02 290.478 205.762 306.052 186.974C307.585 185.123 308.852 183.414 309.911 181.817C312.683 177.693 314.173 174.246 315.636 170.898C317.614 166.321 320.08 167.663 318.185 172.042Z" fill="#6C63FF"/>
<path d="M169.635 495.225C168.533 491.331 166.644 488.01 164.396 485.641L156.228 447.881L138.424 452.304L148.626 490.131C147.955 493.332 148.09 497.153 149.192 501.047C151.711 509.942 158.33 515.85 163.975 514.243C169.62 512.635 172.154 504.121 169.635 495.225Z" fill="#FFB6B6"/>
<path d="M167.172 247.532C167.172 247.532 139.055 246.948 131.906 267.712C125.398 286.612 117.684 338.535 121.854 341.536L139.605 469.359L164.917 465.832L158.421 312.463L167.172 247.532Z" fill="#6C63FF"/>
<path d="M297.374 484.8L292.387 619H226.219L223.544 558.864L211.787 619H140.869L149.714 515.623L158.853 493.883L165.038 479.149L297.374 484.8Z" fill="#2F2E41"/>
<path d="M244.439 222.049L198.47 219.224L183.147 239.001L149.714 251.715L165.037 402.867L158.072 493.275C158.072 493.275 255.583 572.383 297.374 484.8L286.23 378.852L289.016 255.953L256.976 241.826L244.439 222.049Z" fill="#6C63FF"/>
<path d="M332.938 187.667C333.436 192.565 332.803 197.171 331.345 200.864L339.002 247.215L317.146 250.265L311.732 202.918C309.559 199.605 308.011 195.228 307.513 190.33C306.373 179.142 311.141 169.476 318.162 168.74C325.183 168.005 331.798 176.479 332.938 187.667Z" fill="#FFB6B6"/>
<path d="M294.869 261.26C287.335 248.2 268.645 246.969 260.274 259.494C257.986 262.918 258.623 266.766 258.077 271.39C255.757 291.021 292.853 349.029 318.52 355.708C321.888 356.584 323.807 360.269 327.207 361.01C337.277 363.205 346.654 355.098 346.11 344.667L339.138 210.879L309.847 221.011L311.722 290.471L294.869 261.26Z" fill="#6C63FF"/>
<path d="M226.225 215.568C248.588 215.568 266.717 197.184 266.717 174.506C266.717 151.828 248.588 133.444 226.225 133.444C203.862 133.444 185.733 151.828 185.733 174.506C185.733 197.184 203.862 215.568 226.225 215.568Z" fill="#FFB6B6"/>
<path d="M263.941 144.354C263.593 144.439 269.272 138.826 269.514 138.704C275.086 135.879 269.36 163.496 265.334 162.719C255.43 160.811 251.154 157.026 247.309 166.476C246.236 169.104 245.568 172.07 243.478 173.949C240.609 176.506 235.844 176.294 233.504 179.345C231.624 181.803 232.167 185.42 233.56 188.188C234.953 190.971 237.07 193.33 238.338 196.17C239.759 199.362 233.699 209.519 231.387 215.226V215.24L231.373 215.274C230.759 216.771 229.298 212.459 227.757 212.028C225.912 211.513 223.195 215.93 220.257 215.127C220.243 215.127 220.229 215.113 220.215 215.113C217.415 214.322 214.294 213.475 211.202 212.627H211.188C202.482 210.226 200.281 213.672 199.863 213.573L194.458 207.838C192.603 206.469 192.813 202.047 191.505 200.86C190.435 199.889 187.769 202.133 186.983 201.199C183.129 196.622 182.242 192.044 179.971 183.004C177.895 174.74 173.591 150.005 182.436 148.889C190.78 147.829 184.679 136.048 193.079 136.486C192.577 134.339 193.511 132.036 195.029 130.454C196.534 128.858 198.54 127.869 200.559 127.021C210.519 122.896 208.862 119.351 219.365 121.752C220.41 120.269 235.58 121.258 237.474 121.752C237.614 121.78 232.78 122.953 240.26 121.752C239.982 123.49 244.718 124.253 244.439 125.99C245.484 124.563 256.712 132.757 256.976 134.466C257.325 136.599 254.149 135.511 256.266 135.836C257.52 136.034 259.665 138.619 259.456 139.904C260.361 138.661 261.267 137.432 262.186 136.189C262.353 136.203 262.507 136.232 262.674 136.26C266.909 137.079 262.054 151.118 262.228 146.742C262.548 138.704 268.162 143.408 263.941 144.354Z" fill="#2F2E41"/>
<path d="M419.067 362.905C419.379 363.685 420.456 363.685 420.768 362.905C422.943 357.467 426.039 351.378 429.408 346.724C429.947 345.979 429.204 344.983 428.346 345.298L421.126 347.947V302.62H418.709V347.947L411.486 345.297C410.629 344.983 409.886 345.978 410.425 346.724C413.793 351.378 416.89 357.467 419.067 362.905Z" fill="#3F3D56"/>
<path d="M466.416 409.575C466.183 410.382 467.026 411.061 467.748 410.648C472.786 407.761 478.946 404.945 484.438 403.425C485.317 403.182 485.345 401.933 484.481 401.639L477.203 399.16L505 363.665L503.107 362.141L475.31 397.635L471.278 391.005C470.8 390.219 469.607 390.529 469.573 391.453C469.356 397.222 468.047 403.944 466.416 409.575Z" fill="#3F3D56"/>
<path d="M443.803 439.823H396.829C393.913 439.823 391.54 437.417 391.54 434.459C385.329 416.05 385.452 398.012 391.54 380.323C391.54 377.365 393.913 374.959 396.829 374.959H443.803C446.72 374.959 449.093 377.365 449.093 380.323V434.459C449.093 437.417 446.72 439.823 443.803 439.823Z" fill="#E6E6E6"/>
<path d="M406.894 376.557C399.284 376.557 393.116 382.812 393.116 390.529V433.311C393.116 436.025 395.285 438.225 397.962 438.225H423.939C436.96 438.225 447.517 427.52 447.517 414.314V381.471C447.517 378.757 445.347 376.557 442.671 376.557H406.894Z" fill="white"/>
<path d="M431.256 392.289H409.263C408.709 392.289 408.258 391.832 408.258 391.27C408.258 390.707 408.709 390.25 409.263 390.25H431.256C431.81 390.25 432.261 390.707 432.261 391.27C432.261 391.832 431.81 392.289 431.256 392.289Z" fill="#E6E6E6"/>
<path d="M431.256 414.033H409.263C408.709 414.033 408.258 413.576 408.258 413.014C408.258 412.451 408.709 411.994 409.263 411.994H431.256C431.81 411.994 432.261 412.451 432.261 413.014C432.261 413.576 431.81 414.033 431.256 414.033Z" fill="#E6E6E6"/>
<path d="M443.058 403.168H397.462C396.907 403.168 396.456 402.711 396.456 402.149C396.456 401.586 396.907 401.129 397.462 401.129H443.058C443.612 401.129 444.063 401.586 444.063 402.149C444.063 402.711 443.612 403.168 443.058 403.168Z" fill="#E6E6E6"/>
<path d="M443.595 422.875H424.57C424.015 422.875 423.564 422.417 423.564 421.855C423.564 421.292 424.015 420.835 424.57 420.835H443.595C444.15 420.835 444.601 421.293 444.601 421.855C444.601 422.417 444.15 422.875 443.595 422.875Z" fill="#E6E6E6"/>
<path d="M17.3615 34.9239C26.95 34.9239 34.723 27.2074 34.723 17.6887C34.723 8.17004 26.95 0.453613 17.3615 0.453613C7.77301 0.453613 0 8.17004 0 17.6887C0 27.2074 7.77301 34.9239 17.3615 34.9239Z" fill="#6C63FF"/>
<path d="M156.541 11.7925H63.0912C59.8853 11.7925 57.2769 9.14731 57.2769 5.89623C57.2769 2.64515 59.8853 0 63.0912 0H156.541C159.747 0 162.356 2.64515 162.356 5.89623C162.356 9.14731 159.747 11.7925 156.541 11.7925Z" fill="#F2F2F2"/>
<path d="M229.47 31.749H63.0912C59.8853 31.749 57.2769 29.1039 57.2769 25.8528C57.2769 22.6017 59.8853 19.9565 63.0912 19.9565H229.47C232.676 19.9565 235.284 22.6017 235.284 25.8528C235.284 29.1039 232.676 31.749 229.47 31.749Z" fill="#F2F2F2"/>
</g>
<defs>
<clipPath id="clip0_2046_926">
<rect width="505" height="619" fill="white"/>
</clipPath>
</defs>
</svg>
