<svg width="470" height="594" viewBox="0 0 470 594" fill="none" xmlns="http://www.w3.org/2000/svg">
<g clip-path="url(#clip0_2046_1166)">
<path d="M6.46018e-06 592.718C-0.000558261 592.886 0.0359065 593.052 0.107304 593.208C0.178701 593.363 0.28364 593.504 0.416129 593.623C0.548619 593.742 0.706031 593.837 0.879441 593.901C1.05285 593.966 1.23886 594 1.42679 594H468.565C468.945 594 469.31 593.865 469.58 593.625C469.849 593.384 470 593.058 470 592.718C470 592.378 469.849 592.052 469.58 591.812C469.31 591.572 468.945 591.437 468.565 591.437H1.43533C1.24739 591.436 1.06116 591.469 0.887318 591.533C0.713475 591.596 0.555411 591.69 0.422129 591.808C0.288847 591.927 0.182973 592.067 0.110543 592.222C0.038113 592.377 0.000556856 592.543 6.46018e-06 592.711V592.718Z" fill="#CCCCCC"/>
<path opacity="0.5" d="M186.678 417.187C191.767 416.268 196.979 416.015 202.15 416.437C202.629 416.434 203.087 416.263 203.425 415.96C203.764 415.658 203.956 415.249 203.959 414.822C203.949 414.396 203.756 413.99 203.419 413.689C203.081 413.388 202.627 413.215 202.15 413.206C196.654 412.781 191.118 413.072 185.716 414.071C185.254 414.186 184.861 414.459 184.625 414.832C184.388 415.204 184.327 415.645 184.454 416.058C184.582 416.471 184.888 416.822 185.305 417.034C185.722 417.245 186.215 417.3 186.678 417.187Z" fill="#CCCCCC"/>
<path d="M62.474 389.085C52.5247 377.268 46.7742 364.054 46.5858 348.988C46.2652 348.177 46.3184 347.284 46.7337 346.507C47.149 345.73 47.8924 345.132 48.8009 344.844L82.7133 334.13C83.6225 333.844 84.6217 333.891 85.4917 334.262C86.3618 334.633 87.0316 335.297 87.3542 336.108L103.242 376.204C103.563 377.016 103.51 377.908 103.095 378.685C102.679 379.462 101.936 380.06 101.027 380.348L67.115 391.062C66.2057 391.349 65.2065 391.301 64.3364 390.93C63.4664 390.56 62.7966 389.896 62.474 389.085Z" fill="#F2F2F2"/>
<path opacity="0.2" d="M70.1303 388.37C69.2211 388.656 68.2219 388.609 67.3518 388.238C66.4818 387.867 65.812 387.203 65.4894 386.392C55.54 374.575 49.7896 361.361 49.6011 346.296C49.3936 345.762 49.3478 345.188 49.4682 344.634L48.8009 344.844C47.8924 345.132 47.149 345.731 46.7337 346.507C46.3185 347.284 46.2652 348.177 46.5857 348.988C46.7742 364.054 52.5247 377.268 62.474 389.085C62.7966 389.896 63.4664 390.56 64.3365 390.93C65.2065 391.301 66.2057 391.349 67.1149 391.062L101.027 380.348C101.629 380.156 102.163 379.825 102.575 379.389C102.988 378.954 103.264 378.428 103.375 377.866L70.1303 388.37Z" fill="black"/>
<path d="M86.018 358.359L63.3149 365.595C62.9537 365.71 62.556 365.692 62.2093 365.546C61.8627 365.399 61.5955 365.135 61.4665 364.813C61.3376 364.49 61.3574 364.135 61.5217 363.826C61.6859 363.516 61.9812 363.277 62.3424 363.162L85.0455 355.926C85.4064 355.812 85.8034 355.83 86.1493 355.977C86.4951 356.124 86.7616 356.387 86.8903 356.709C87.0191 357.031 86.9996 357.386 86.836 357.695C86.6725 358.004 86.3783 358.243 86.018 358.359Z" fill="white"/>
<path d="M65.6431 357.332L60.6485 358.924C60.4697 358.982 60.28 359.008 60.0901 359C59.9002 358.992 59.7139 358.951 59.5418 358.879C59.3697 358.807 59.2152 358.705 59.0871 358.58C58.9591 358.454 58.86 358.308 58.7955 358.148C58.7311 357.988 58.7025 357.819 58.7114 357.649C58.7204 357.48 58.7667 357.313 58.8476 357.16C58.9286 357.006 59.0427 356.868 59.1833 356.754C59.324 356.64 59.4885 356.552 59.6674 356.495L59.676 356.492L64.6707 354.9C65.0316 354.786 65.4284 354.804 65.7741 354.951C66.1198 355.098 66.3862 355.361 66.5149 355.683C66.6436 356.005 66.6241 356.36 66.4607 356.669C66.2973 356.978 66.0033 357.217 65.6431 357.332Z" fill="white"/>
<path d="M90.2931 369.053L67.5901 376.29C67.2292 376.404 66.8324 376.385 66.4867 376.238C66.141 376.091 65.8746 375.828 65.7459 375.506C65.6172 375.184 65.6367 374.83 65.8001 374.521C65.9635 374.212 66.2575 373.973 66.6177 373.857L89.3207 366.621C89.6815 366.505 90.0788 366.522 90.4256 366.668C90.7724 366.814 91.0402 367.076 91.1702 367.398C91.3002 367.72 91.2817 368.075 91.1189 368.385C90.9561 368.695 90.6622 368.934 90.3018 369.051L90.2931 369.053Z" fill="white"/>
<path d="M88.1556 363.706L65.4526 370.942C65.0915 371.058 64.6937 371.041 64.3469 370.894C64 370.748 63.7325 370.485 63.6031 370.162C63.4737 369.84 63.493 369.485 63.6569 369.175C63.8208 368.865 64.1157 368.626 64.4768 368.511L64.4801 368.51L87.1831 361.273C87.5441 361.159 87.941 361.178 88.2869 361.325C88.6327 361.471 88.8992 361.735 89.028 362.057C89.1567 362.379 89.1372 362.733 88.9736 363.042C88.8101 363.352 88.516 363.59 88.1556 363.706Z" fill="white"/>
<path d="M64.8541 345.259C68.1848 345.259 70.8848 342.848 70.8848 339.874C70.8848 336.9 68.1848 334.489 64.8541 334.489C61.5234 334.489 58.8234 336.9 58.8234 339.874C58.8234 342.848 61.5234 345.259 64.8541 345.259Z" fill="#CCCCCC"/>
<path d="M285.579 107.283C285.676 115.167 288.486 131.58 286.472 139.302L286.146 138.656C284.472 139.841 282.693 140.904 280.827 141.833C279.481 138.91 277.469 136.269 274.917 134.079C275.253 137.703 274.773 141.35 273.506 144.806C265.967 147.229 252.736 139.593 244.534 139.432C231.339 139.162 218.481 136.233 205.877 133.131C201.402 132.033 196.481 130.6 194.455 127.283C192.428 123.966 196.055 120.385 195.818 116.642C194.128 89.9799 208.35 85.5109 221.883 78.3866C224.861 76.8188 226.321 73.4431 229.686 72.1292C234.354 70.309 239.915 71.1814 244.992 72.0969C243.731 71.7259 242.598 71.0713 241.703 70.196C240.807 69.3208 240.179 68.2544 239.878 67.0995C239.667 65.9676 239.809 64.8054 240.29 63.7411C240.771 62.6769 241.572 61.7519 242.604 61.0683C245.403 59.1405 249.576 58.9035 253.146 59.722C256.595 60.6852 259.858 62.1164 262.819 63.9655C264.83 64.9504 266.628 66.2489 268.126 67.7996C268.832 68.5335 269.271 69.4423 269.383 70.4046C269.495 71.3669 269.275 72.3368 268.754 73.1847C268.11 73.9115 267.291 74.4991 266.357 74.9038C265.424 75.3084 264.4 75.5197 263.362 75.5218C261.763 75.5633 260.165 75.4148 258.61 75.0802C265.738 76.6504 272.163 80.1215 277.028 85.0318C283.071 91.3108 285.471 99.3991 285.579 107.283Z" fill="#2F2E41"/>
<path d="M74.7453 183.26C75.9717 185.585 78.1655 187.39 80.8599 188.292C83.5543 189.194 86.5366 189.122 89.1722 188.091C89.7042 187.873 90.2152 187.617 90.6999 187.325L121.757 207.7L138.88 197.266L92.9561 173.462C91.4424 171.761 89.3408 170.555 86.9792 170.033C84.6176 169.511 82.1289 169.702 79.9014 170.575C78.6393 171.083 77.5015 171.809 76.5532 172.709C75.6049 173.61 74.8645 174.668 74.3743 175.825C73.8841 176.981 73.6538 178.212 73.6964 179.447C73.739 180.683 74.0538 181.899 74.6227 183.026C74.6623 183.105 74.7032 183.183 74.7453 183.26Z" fill="#FFB6B6"/>
<path d="M394.844 164.769C391.989 165.087 389.385 166.387 387.587 168.393C385.788 170.399 384.938 172.952 385.215 175.51C385.281 176.029 385.395 176.542 385.555 177.044L354.208 197.062L359.987 214.839L399.608 183.272C401.89 182.516 403.826 181.108 405.117 179.266C406.407 177.424 406.978 175.253 406.741 173.091C406.593 171.862 406.176 170.671 405.512 169.586C404.848 168.501 403.952 167.543 402.874 166.768C401.796 165.992 400.557 165.413 399.229 165.065C397.901 164.717 396.508 164.606 395.132 164.738C395.036 164.747 394.94 164.758 394.844 164.769Z" fill="#FFB6B6"/>
<path d="M167.53 575.018L157.435 574.941L152.967 539.364L167.866 539.476L167.53 575.018Z" fill="#FFB6B6"/>
<path d="M135.196 589.351C135.187 590.42 135.653 591.448 136.492 592.21C137.33 592.972 138.474 593.406 139.67 593.417L159.741 593.566L163.254 587.207L164.545 593.599L172.118 593.66L170.205 570.862L167.571 570.706L156.824 570.044L153.357 569.837L153.296 576.287L137.173 586.052C136.569 586.418 136.074 586.909 135.729 587.484C135.385 588.059 135.202 588.7 135.196 589.351Z" fill="#2F2E41"/>
<path d="M300.598 535.086L292.356 540.29L265.449 513.748L277.613 506.066L300.598 535.086Z" fill="#FFB6B6"/>
<path d="M283.736 563.587C284.428 564.459 285.479 565.05 286.658 565.231C287.837 565.412 289.049 565.168 290.027 564.552L306.413 554.202L305.103 547.208L310.333 551.722L316.519 547.821L300.05 530.317L297.809 531.564L288.655 536.634L285.705 538.275L289.877 543.541L283.182 559.878C282.931 560.49 282.851 561.147 282.947 561.793C283.044 562.439 283.314 563.055 283.736 563.587Z" fill="#2F2E41"/>
<path d="M175.101 286.564L204.424 225.762H271.964L252.483 289.217L175.101 286.564Z" fill="#FFB6B6"/>
<path d="M113.103 575.291C112.542 575.314 111.987 575.182 111.513 574.914C111.039 574.646 110.668 574.254 110.452 573.792C110.235 573.33 110.183 572.819 110.303 572.329C110.422 571.84 110.707 571.395 111.119 571.054L111.307 570.389C111.282 570.335 111.257 570.282 111.232 570.229C110.667 569.038 109.721 568.022 108.512 567.309C107.303 566.597 105.885 566.219 104.436 566.224C102.987 566.229 101.572 566.616 100.369 567.336C99.1661 568.057 98.2282 569.079 97.6733 570.274C95.4557 575.043 92.6323 579.82 91.9371 584.863C91.6309 587.092 91.7601 589.351 92.3189 591.541C87.1103 581.396 84.4057 570.369 84.3883 559.208C84.3872 556.408 84.5614 553.609 84.9102 550.826C85.1985 548.544 85.5984 546.279 86.11 544.029C88.9017 531.826 94.8955 520.387 103.599 510.653C107.812 508.601 111.219 505.445 113.361 501.61C114.137 500.232 114.685 498.76 114.989 497.242C114.514 497.297 113.197 490.835 113.555 490.438C112.893 489.541 111.708 489.095 110.985 488.219C107.388 483.865 102.432 484.625 99.8444 490.543C94.3175 493.034 94.2641 497.164 97.6552 501.137C99.8128 503.665 100.109 507.085 102.002 509.791C101.808 510.013 101.605 510.229 101.41 510.452C97.85 514.539 94.747 518.929 92.1458 523.557C92.7784 518.372 92.0234 513.127 89.9429 508.253C87.8343 503.711 83.8821 499.886 80.4017 495.959C79.4811 494.905 78.2311 494.117 76.8095 493.697C75.3878 493.276 73.8585 493.241 72.4148 493.597C70.971 493.952 69.6777 494.682 68.6983 495.693C67.7188 496.705 67.0973 497.953 66.9121 499.28C66.905 499.338 66.898 499.396 66.8912 499.454C67.4082 499.714 67.9142 499.991 68.4093 500.283C69.0313 500.654 69.5133 501.184 69.7921 501.804C70.0708 502.424 70.1334 503.104 69.9716 503.757C69.8098 504.409 69.4312 505.002 68.8853 505.459C68.3394 505.915 67.6518 506.214 66.9124 506.316L66.8367 506.326C67.0209 507.99 67.3464 509.639 67.8105 511.259C63.3456 526.677 72.985 532.292 86.7488 532.545C87.0526 532.684 87.3487 532.823 87.6525 532.955C85.039 539.569 83.3997 546.457 82.7758 553.448C82.4225 557.573 82.4433 561.716 82.8381 565.837L82.8147 565.691C81.8174 561.108 79.0795 556.973 75.0633 553.984C69.0981 549.608 60.6705 547.997 54.2352 544.48C53.5513 544.088 52.756 543.879 51.9433 543.877C51.1305 543.875 50.3341 544.081 49.6481 544.47C48.962 544.859 48.4149 545.415 48.0712 546.073C47.7276 546.731 47.6017 547.462 47.7084 548.182L47.7348 548.335C48.6941 548.684 49.6281 549.086 50.5314 549.539C51.0484 549.799 51.5544 550.076 52.0496 550.368C52.6715 550.739 53.1535 551.269 53.4323 551.889C53.711 552.509 53.7736 553.19 53.6118 553.842C53.45 554.494 53.0713 555.087 52.5255 555.544C51.9796 556.001 51.2919 556.299 50.5526 556.401L50.4769 556.412C50.4224 556.419 50.3755 556.426 50.3211 556.432C51.9602 559.927 54.2608 563.144 57.1221 565.942C59.9139 579.401 71.9046 580.678 84.7311 576.759H84.7389C86.1461 582.219 88.1851 587.535 90.8231 592.619H112.558C112.636 592.403 112.706 592.181 112.776 591.965C110.764 592.078 108.745 591.971 106.762 591.645C108.375 589.878 109.987 588.097 111.6 586.33C111.636 586.297 111.67 586.263 111.701 586.226C112.519 585.322 113.345 584.424 114.163 583.52L114.163 583.519C114.207 580.747 113.85 577.981 113.103 575.291Z" fill="#F2F2F2"/>
<path d="M348.296 575.291C348.857 575.314 349.412 575.182 349.886 574.914C350.361 574.646 350.731 574.254 350.948 573.792C351.164 573.33 351.216 572.819 351.097 572.329C350.977 571.84 350.692 571.394 350.28 571.054L350.093 570.389C350.117 570.335 350.142 570.282 350.167 570.229C350.732 569.037 351.678 568.022 352.887 567.309C354.097 566.597 355.515 566.219 356.963 566.224C358.412 566.229 359.827 566.616 361.03 567.336C362.233 568.057 363.171 569.079 363.726 570.274C365.943 575.043 368.767 579.82 369.462 584.863C369.768 587.092 369.639 589.351 369.08 591.541C374.289 581.395 376.994 570.369 377.011 559.208C377.012 556.407 376.838 553.609 376.489 550.826C376.201 548.544 375.801 546.279 375.289 544.029C372.498 531.826 366.504 520.387 357.8 510.653C353.587 508.601 350.181 505.445 348.039 501.61C347.263 500.232 346.714 498.76 346.41 497.242C346.886 497.297 348.202 490.835 347.844 490.438C348.506 489.541 349.691 489.095 350.415 488.219C354.012 483.865 358.968 484.625 361.555 490.543C367.082 493.034 367.135 497.164 363.744 501.137C361.587 503.665 361.29 507.085 359.397 509.791C359.592 510.013 359.794 510.229 359.989 510.452C363.549 514.539 366.652 518.929 369.254 523.557C368.621 518.372 369.376 513.127 371.456 508.253C373.565 503.711 377.517 499.886 380.998 495.959C381.918 494.905 383.168 494.117 384.59 493.697C386.011 493.276 387.541 493.241 388.984 493.597C390.428 493.952 391.722 494.682 392.701 495.693C393.68 496.705 394.302 497.953 394.487 499.28C394.494 499.338 394.501 499.396 394.508 499.454C393.991 499.714 393.485 499.991 392.99 500.283C392.368 500.654 391.886 501.184 391.607 501.804C391.328 502.424 391.266 503.104 391.428 503.757C391.589 504.409 391.968 505.002 392.514 505.459C393.06 505.916 393.747 506.214 394.487 506.316L394.562 506.326C394.378 507.99 394.053 509.639 393.589 511.259C398.054 526.677 388.414 532.292 374.65 532.545C374.347 532.684 374.051 532.823 373.747 532.955C376.36 539.569 378 546.457 378.623 553.448C378.977 557.573 378.956 561.716 378.561 565.837L378.585 565.691C379.582 561.108 382.32 556.973 386.336 553.984C392.301 549.608 400.729 547.997 407.164 544.48C407.848 544.088 408.643 543.879 409.456 543.877C410.269 543.875 411.065 544.081 411.751 544.47C412.437 544.859 412.984 545.415 413.328 546.073C413.672 546.731 413.797 547.462 413.691 548.182L413.664 548.335C412.705 548.684 411.771 549.086 410.868 549.539C410.351 549.799 409.845 550.076 409.35 550.368C408.728 550.739 408.246 551.269 407.967 551.889C407.688 552.509 407.626 553.189 407.787 553.842C407.949 554.494 408.328 555.087 408.874 555.544C409.42 556 410.107 556.299 410.847 556.401L410.922 556.411C410.977 556.418 411.024 556.425 411.078 556.432C409.439 559.927 407.138 563.144 404.277 565.942C401.485 579.401 389.494 580.678 376.668 576.759H376.66C375.253 582.219 373.214 587.535 370.576 592.619H348.841C348.763 592.403 348.693 592.181 348.623 591.965C350.635 592.078 352.654 591.97 354.637 591.645C353.024 589.878 351.412 588.097 349.799 586.33C349.763 586.297 349.729 586.263 349.698 586.226C348.88 585.322 348.054 584.424 347.236 583.52L347.236 583.519C347.192 580.747 347.549 577.981 348.296 575.291Z" fill="#F2F2F2"/>
<path d="M175.102 281.999L145.989 336.228L148.067 552.338H173.002C173.002 552.338 177.851 546.499 177.851 542.408C177.851 538.317 169.604 537.724 175.102 532.702C180.6 527.68 182.433 526.044 182.433 521.135V442.595L202.094 366.459L200.016 450.115L270.666 525.407L287.124 510.712C287.124 510.712 291.937 508.817 287.124 504.748C282.311 500.68 279.309 507.866 278.977 496.5C278.645 485.134 281.394 487.588 278.645 485.134C275.896 482.679 237.418 441.664 237.418 441.664C237.418 441.664 272.231 309.219 254.821 283.855L175.102 281.999Z" fill="#2F2E41"/>
<path d="M256.654 287.946C256.654 287.946 181.516 264.218 187.014 251.127C192.512 238.035 201.747 240.554 190.715 236.431C179.684 232.308 172.375 231.49 179.236 225.762C186.098 220.035 196.177 214.307 196.177 208.58C196.177 202.853 204.424 157.851 204.424 157.851H217.626L230.997 137.396H249.886L259.403 156.215H279.497L280.478 184.852C280.478 184.852 281.777 240.174 275.629 242.378C269.482 244.581 263.984 244.581 269.482 249.49C274.98 254.4 278.111 256.938 275.629 261.396C273.147 265.854 256.654 287.946 256.654 287.946Z" fill="#E6E6E6"/>
<path d="M267.649 164.397L279.497 156.215C279.497 156.215 299.72 156.215 302.469 166.033C305.218 175.852 321.764 199.863 321.764 199.863C321.764 199.863 338.206 191.398 344.62 191.398C351.034 191.398 355.615 195.489 355.615 190.579C355.615 185.67 351.95 184.852 357.448 184.852C362.946 184.852 377.607 179.943 377.607 179.943L393.246 193.907C393.246 193.907 391.352 206.944 384.937 206.125C378.523 205.307 374.858 201.216 374.858 206.125C374.858 211.035 378.523 218.398 370.276 219.217C362.03 220.035 307.051 232.308 307.051 232.308L269.482 183.216L267.649 164.397Z" fill="#E6E6E6"/>
<path d="M220.001 164.397L208.154 156.215C208.154 156.215 187.93 156.215 185.181 166.033C182.432 175.852 164.965 199.863 164.965 199.863C164.965 199.863 149.445 191.398 143.031 191.398C136.617 191.398 132.035 195.489 132.035 190.579C132.035 185.67 135.701 184.852 130.203 184.852C124.705 184.852 110.044 179.943 110.044 179.943L94.4052 193.907C94.4052 193.907 96.2991 206.944 102.713 206.125C109.128 205.307 112.793 201.216 112.793 206.125C112.793 211.035 109.128 218.398 117.374 219.217C125.621 220.035 180.6 232.308 180.6 232.308L218.169 183.216L220.001 164.397Z" fill="#E6E6E6"/>
<path d="M238.245 132.952C254.395 132.952 267.487 121.262 267.487 106.841C267.487 92.4204 254.395 80.73 238.245 80.73C222.095 80.73 209.003 92.4204 209.003 106.841C209.003 121.262 222.095 132.952 238.245 132.952Z" fill="#FFB6B6"/>
<path d="M270.153 102.899C266.715 106.615 261.601 106.421 257.054 105.829C255.619 105.646 254.183 105.441 252.748 105.204C252.495 104.483 252.205 103.761 251.88 103.061C250.534 100.138 248.521 97.4968 245.969 95.3064C246.238 98.1701 245.99 101.054 245.234 103.847C242.568 103.298 239.915 102.684 237.273 102.005C234.936 101.666 232.834 100.538 231.402 98.8543C229.97 97.1706 229.317 95.06 229.578 92.9586C225.779 95.5434 221.641 97.7836 217.299 97.8266C214.852 97.7699 212.489 97.0146 210.557 95.6715C208.625 94.3283 207.226 92.4679 206.565 90.363C205.383 87.1319 205.564 83.4055 206.046 79.916C206.625 75.7695 207.928 71.2137 211.064 69.5443C213.584 68.1873 216.491 69.1566 219.084 70.2552C224.798 72.7035 230.214 75.6701 235.247 79.1082L235.307 80.2391C236.61 74.6709 240.916 70.3737 245.608 69.9428C248.768 69.6628 251.855 70.966 254.835 72.28C258.729 73.8139 262.349 75.8495 265.581 78.322C269.233 81.2878 271.769 85.1885 272.843 89.4906C273.964 94.1541 273.12 99.6899 270.153 102.899Z" fill="#2F2E41"/>
<path d="M241.206 66.6624C241.506 66.6848 240.769 66.534 241.008 66.6237C240.891 66.5758 240.778 66.5194 240.671 66.4552C240.653 66.4447 240.415 66.2732 240.571 66.3926C240.213 66.144 239.944 65.8082 239.795 65.4258C239.463 64.4966 239.308 63.524 239.338 62.5489C239.397 61.2674 239.152 59.9891 238.619 58.7981C238.461 58.4755 238.221 58.1908 237.916 57.967C237.612 57.7432 237.253 57.5866 236.868 57.51C236.483 57.4333 236.083 57.4388 235.701 57.5259C235.319 57.6131 234.966 57.7794 234.669 58.0115C233.682 58.8757 233.604 60.3357 233.534 61.4969C233.459 62.7024 233.602 63.9109 233.958 65.0758C234.57 66.9911 235.793 68.7061 237.477 70.0118C239.423 71.5332 241.866 72.454 244.443 72.6378C244.798 72.6307 245.142 72.5318 245.434 72.3531C245.727 72.1744 245.954 71.9236 246.09 71.6313C246.226 71.339 246.263 71.0178 246.198 70.7068C246.133 70.3959 245.968 70.1086 245.723 69.8799L242.485 67.1355C242.146 66.8325 241.686 66.6624 241.206 66.6624C240.726 66.6624 240.266 66.8325 239.927 67.1355C239.587 67.4385 239.397 67.8494 239.397 68.2779C239.397 68.7063 239.587 69.1172 239.927 69.4202L243.164 72.1646L244.443 69.4067C243.909 69.3638 243.382 69.2676 242.872 69.12C242.318 68.9827 241.789 68.7758 241.301 68.5055C240.823 68.2715 240.375 67.9916 239.964 67.6709C239.702 67.4648 239.451 67.2469 239.213 67.0181C239.127 66.935 239.042 66.8504 238.959 66.7644C238.965 66.7706 238.618 66.3821 238.767 66.5598C238.393 66.1027 238.067 65.6154 237.794 65.1044C237.698 64.9234 237.619 64.7356 237.557 64.5431C237.442 64.2263 237.349 63.9038 237.276 63.5772C237.139 62.8911 237.097 62.1923 237.153 61.4969C237.168 61.202 237.201 60.9081 237.251 60.6162C237.297 60.4624 237.331 60.3059 237.352 60.1479C237.359 59.7557 237.292 60.3574 237.063 60.4487L236.15 60.6693C236.001 60.6585 235.857 60.6179 235.729 60.5506C235.6 60.4832 235.49 60.3909 235.406 60.2804C235.368 60.1455 235.379 60.1695 235.439 60.3521C235.507 60.5666 235.56 60.7847 235.598 61.0051C235.667 61.5176 235.708 62.0328 235.719 62.5489C235.731 63.6424 235.873 64.7316 236.143 65.798C236.397 66.8697 237.023 67.8425 237.932 68.5779C238.841 69.3133 239.987 69.7737 241.206 69.8934C241.685 69.89 242.142 69.7187 242.481 69.4165C242.819 69.1143 243.011 68.7053 243.015 68.2779C243.006 67.8521 242.812 67.4461 242.475 67.145C242.137 66.8438 241.683 66.6709 241.206 66.6624Z" fill="#2F2E41"/>
<path d="M390.546 171.528C380.597 159.712 374.847 146.498 374.658 131.432C374.338 130.62 374.391 129.728 374.806 128.951C375.221 128.174 375.965 127.576 376.873 127.288L410.786 116.574C411.695 116.288 412.694 116.335 413.564 116.706C414.434 117.077 415.104 117.741 415.426 118.552L431.315 158.648C431.635 159.46 431.582 160.352 431.167 161.129C430.751 161.906 430.008 162.504 429.1 162.792L395.187 173.506C394.278 173.793 393.279 173.745 392.409 173.374C391.539 173.003 390.869 172.34 390.546 171.528Z" fill="#6C63FF"/>
<path opacity="0.2" d="M398.203 170.814C397.294 171.1 396.294 171.053 395.424 170.682C394.554 170.311 393.885 169.647 393.562 168.836C383.613 157.019 377.862 143.805 377.674 128.74C377.466 128.206 377.42 127.632 377.541 127.077L376.873 127.288C375.965 127.576 375.222 128.174 374.806 128.951C374.391 129.728 374.338 130.62 374.658 131.432C374.847 146.497 380.597 159.712 390.547 171.528C390.869 172.34 391.539 173.003 392.409 173.374C393.279 173.745 394.278 173.793 395.187 173.506L429.1 162.792C429.701 162.6 430.236 162.269 430.648 161.833C431.06 161.397 431.336 160.872 431.448 160.31L398.203 170.814Z" fill="black"/>
<path d="M414.09 140.803L391.387 148.039C391.026 148.154 390.628 148.136 390.282 147.99C389.935 147.843 389.668 147.579 389.539 147.257C389.41 146.934 389.43 146.579 389.594 146.269C389.758 145.96 390.054 145.721 390.415 145.606L413.118 138.37C413.297 138.313 413.487 138.288 413.676 138.296C413.866 138.305 414.052 138.347 414.224 138.419C414.395 138.492 414.549 138.594 414.677 138.72C414.804 138.845 414.903 138.992 414.966 139.152C415.03 139.312 415.058 139.481 415.049 139.651C415.039 139.82 414.993 139.986 414.911 140.139C414.83 140.293 414.716 140.43 414.575 140.544C414.434 140.658 414.269 140.746 414.09 140.803Z" fill="white"/>
<path d="M393.716 139.776L388.721 141.368C388.542 141.426 388.352 141.451 388.163 141.442C387.973 141.434 387.787 141.393 387.615 141.32C387.443 141.248 387.289 141.146 387.162 141.02C387.034 140.895 386.935 140.748 386.871 140.588C386.807 140.429 386.779 140.259 386.788 140.09C386.798 139.92 386.844 139.754 386.925 139.601C387.006 139.448 387.12 139.31 387.261 139.196C387.402 139.082 387.566 138.994 387.745 138.937L387.748 138.936L392.743 137.344C393.104 137.229 393.502 137.247 393.848 137.394C394.194 137.54 394.461 137.804 394.59 138.126C394.719 138.449 394.699 138.804 394.535 139.113C394.371 139.422 394.076 139.661 393.716 139.776Z" fill="white"/>
<path d="M418.366 151.497L395.663 158.734C395.301 158.849 394.904 158.832 394.557 158.685C394.21 158.539 393.942 158.276 393.813 157.953C393.684 157.631 393.703 157.276 393.867 156.966C394.031 156.656 394.326 156.417 394.687 156.302L394.69 156.301L417.393 149.065C417.754 148.95 418.152 148.968 418.498 149.115C418.844 149.261 419.111 149.525 419.24 149.847C419.369 150.17 419.349 150.525 419.185 150.834C419.021 151.143 418.726 151.382 418.366 151.497Z" fill="white"/>
<path d="M416.228 146.15L393.525 153.386C393.346 153.443 393.157 153.469 392.967 153.46C392.777 153.452 392.591 153.411 392.419 153.338C392.248 153.266 392.094 153.164 391.966 153.038C391.838 152.913 391.74 152.766 391.676 152.606C391.612 152.446 391.583 152.277 391.593 152.108C391.602 151.938 391.648 151.772 391.729 151.619C391.811 151.465 391.925 151.328 392.065 151.214C392.206 151.1 392.371 151.012 392.549 150.955L392.553 150.954L415.256 143.717C415.434 143.66 415.624 143.635 415.814 143.643C416.003 143.651 416.19 143.693 416.361 143.765C416.533 143.838 416.687 143.94 416.815 144.065C416.942 144.191 417.041 144.338 417.105 144.498C417.169 144.657 417.197 144.827 417.188 144.996C417.179 145.165 417.132 145.332 417.051 145.485C416.97 145.638 416.856 145.776 416.715 145.89C416.575 146.004 416.41 146.092 416.231 146.149L416.228 146.15Z" fill="white"/>
<path d="M392.926 127.703C396.257 127.703 398.957 125.292 398.957 122.318C398.957 119.344 396.257 116.933 392.926 116.933C389.596 116.933 386.896 119.344 386.896 122.318C386.896 125.292 389.596 127.703 392.926 127.703Z" fill="#3F3D56"/>
<path d="M95.1307 34.2696C101.205 20.5165 110.809 9.22772 125.089 1.20342C125.696 0.534774 126.576 0.108512 127.534 0.0181294C128.493 -0.0722531 129.453 0.180634 130.203 0.721318L158.17 20.9241C158.918 21.4663 159.396 22.2516 159.497 23.1077C159.598 23.9638 159.315 24.8208 158.71 25.4906L128.751 58.5568C128.144 59.2254 127.265 59.6517 126.306 59.7421C125.347 59.8325 124.387 59.5796 123.637 59.0389L95.6706 38.8361C94.9218 38.2939 94.4444 37.5086 94.3431 36.6525C94.2419 35.7964 94.5251 34.9395 95.1307 34.2696Z" fill="#6C63FF"/>
<path opacity="0.2" d="M99.8179 39.7223C99.069 39.1801 98.5917 38.3948 98.4904 37.5387C98.3892 36.6826 98.6724 35.8256 99.278 35.1557C105.352 21.4026 114.956 10.1138 129.236 2.08952C129.637 1.65229 130.161 1.31744 130.753 1.11882L130.203 0.72124C129.453 0.180564 128.493 -0.0723398 127.534 0.0180341C126.576 0.108408 125.696 0.534681 125.089 1.20331C110.809 9.22763 101.205 20.5164 95.1307 34.2695C94.5251 34.9394 94.2419 35.7964 94.3431 36.6525C94.4443 37.5086 94.9217 38.2939 95.6706 38.836L123.637 59.0388C124.135 59.3962 124.73 59.6296 125.362 59.7154C125.994 59.8012 126.64 59.7364 127.234 59.5275L99.8179 39.7223Z" fill="black"/>
<path d="M136.773 36.1136L117.99 22.6217C117.693 22.4067 117.502 22.095 117.462 21.755C117.421 21.415 117.533 21.0744 117.773 20.8079C118.013 20.5415 118.361 20.3709 118.742 20.3336C119.123 20.2964 119.505 20.3954 119.804 20.6091L138.587 34.101C138.884 34.316 139.074 34.6277 139.115 34.9677C139.156 35.3077 139.044 35.6482 138.804 35.9147C138.564 36.1811 138.215 36.3517 137.835 36.3889C137.454 36.4262 137.072 36.3273 136.773 36.1136Z" fill="white"/>
<path d="M127.094 20.0712L122.962 17.103C122.665 16.8879 122.475 16.5762 122.434 16.2364C122.394 15.8966 122.506 15.5563 122.746 15.29C122.986 15.0237 123.334 14.8532 123.714 14.8158C124.095 14.7784 124.476 14.8771 124.775 15.0904L128.908 18.0586C129.205 18.2737 129.395 18.5853 129.436 18.9252C129.476 19.2651 129.364 19.6056 129.124 19.8719C128.884 20.1383 128.536 20.3088 128.156 20.3462C127.775 20.3835 127.393 20.2847 127.094 20.0712Z" fill="white"/>
<path d="M128.802 44.9616L110.019 31.4698C109.721 31.2548 109.531 30.9431 109.49 30.603C109.45 30.263 109.562 29.9224 109.802 29.6559C110.042 29.3894 110.39 29.2189 110.771 29.1816C111.152 29.1444 111.533 29.2434 111.832 29.4571L130.615 42.949C130.913 43.1642 131.102 43.4758 131.143 43.8156C131.184 44.1554 131.072 44.4957 130.832 44.762C130.592 45.0283 130.244 45.1988 129.863 45.2362C129.483 45.2736 129.101 45.1749 128.802 44.9616Z" fill="white"/>
<path d="M132.788 40.5376L114.005 27.0458C113.856 26.9398 113.733 26.8088 113.641 26.6603C113.55 26.5117 113.492 26.3485 113.471 26.1799C113.428 25.8395 113.539 25.4979 113.779 25.2305C114.018 24.963 114.367 24.7915 114.749 24.7537C115.13 24.7158 115.512 24.8148 115.812 25.0288L115.818 25.0331L134.601 38.5251C134.9 38.739 135.092 39.0505 135.135 39.3909C135.177 39.7314 135.066 40.0729 134.827 40.3403C134.587 40.6078 134.238 40.7793 133.857 40.8172C133.476 40.855 133.093 40.756 132.794 40.5421L132.788 40.5376Z" fill="white"/>
<path d="M143.345 15.723C146.675 15.723 149.375 13.312 149.375 10.338C149.375 7.36388 146.675 4.95291 143.345 4.95291C140.014 4.95291 137.314 7.36388 137.314 10.338C137.314 13.312 140.014 15.723 143.345 15.723Z" fill="#3F3D56"/>
<path d="M25.9542 195.263C11.2379 177.784 2.73208 158.239 2.45333 135.955C1.9792 134.754 2.05788 133.434 2.67213 132.285C3.28637 131.136 4.38601 130.251 5.72979 129.825L55.8909 113.977C57.2358 113.554 58.7138 113.624 60.0007 114.173C61.2876 114.721 62.2784 115.703 62.7555 116.903L86.2564 176.211C86.7305 177.412 86.6518 178.731 86.0376 179.88C85.4234 181.03 84.3238 181.914 82.98 182.34L32.8188 198.188C31.474 198.612 29.996 198.542 28.709 197.993C27.4221 197.445 26.4314 196.463 25.9542 195.263Z" fill="#6C63FF"/>
<path opacity="0.2" d="M37.2791 194.206C35.9342 194.629 34.4562 194.559 33.1693 194.01C31.8824 193.462 30.8917 192.48 30.4145 191.28C15.6981 173.801 7.19237 154.256 6.91352 131.972C6.60661 131.182 6.53875 130.334 6.71688 129.513L5.72978 129.825C4.38601 130.251 3.28641 131.136 2.67216 132.285C2.0579 133.434 1.9792 134.754 2.45329 135.955C2.73204 158.238 11.2378 177.784 25.9542 195.263C26.4314 196.463 27.4222 197.444 28.7091 197.993C29.996 198.541 31.474 198.612 32.8188 198.188L82.98 182.34C83.8699 182.056 84.6599 181.567 85.2698 180.922C85.8797 180.278 86.2879 179.5 86.4531 178.669L37.2791 194.206Z" fill="black"/>
<path d="M60.7791 149.815L27.1982 160.518C26.9334 160.604 26.6523 160.641 26.3712 160.629C26.09 160.617 25.8142 160.556 25.5597 160.449C25.3052 160.341 25.0768 160.19 24.8878 160.004C24.6988 159.818 24.5527 159.6 24.4581 159.363C24.3635 159.127 24.3221 158.876 24.3364 158.624C24.3506 158.373 24.4202 158.127 24.5411 157.9C24.662 157.673 24.8319 157.47 25.041 157.302C25.2501 157.134 25.4944 157.004 25.7598 156.92L59.3407 146.217C59.6053 146.132 59.8859 146.095 60.1665 146.108C60.4471 146.12 60.7222 146.182 60.9761 146.29C61.23 146.397 61.4577 146.548 61.6462 146.734C61.8347 146.92 61.9804 147.137 62.0748 147.374C62.1693 147.61 62.2106 147.861 62.1966 148.111C62.1826 148.362 62.1135 148.607 61.9932 148.834C61.8729 149.061 61.7037 149.264 61.4954 149.432C61.2871 149.601 61.0437 149.731 60.7791 149.815Z" fill="white"/>
<path d="M30.6418 148.297L23.254 150.652C22.7201 150.82 22.1331 150.793 21.6217 150.576C21.1104 150.359 20.7163 149.969 20.5259 149.493C20.3355 149.017 20.3644 148.493 20.6061 148.035C20.8479 147.578 21.2828 147.225 21.8156 147.054L29.2034 144.699C29.7373 144.53 30.3243 144.557 30.8357 144.775C31.3471 144.992 31.7412 145.381 31.9315 145.858C32.1219 146.334 32.0931 146.858 31.8513 147.315C31.6095 147.773 31.1746 148.126 30.6418 148.297Z" fill="white"/>
<path d="M67.1027 165.634L33.5218 176.337C32.9874 176.508 32.3992 176.481 31.8864 176.264C31.3737 176.047 30.9785 175.657 30.7877 175.18C30.597 174.703 30.6263 174.178 30.8693 173.72C31.1123 173.262 31.549 172.909 32.0834 172.739L65.6643 162.036C65.9289 161.951 66.2095 161.914 66.4901 161.927C66.7707 161.939 67.0458 162.001 67.2997 162.109C67.5536 162.216 67.7813 162.367 67.9698 162.553C68.1583 162.739 68.304 162.956 68.3984 163.193C68.4929 163.429 68.5343 163.679 68.5203 163.93C68.5063 164.181 68.4371 164.426 68.3168 164.653C68.1965 164.88 68.0274 165.083 67.819 165.251C67.6107 165.42 67.3673 165.55 67.1027 165.634Z" fill="white"/>
<path d="M63.941 157.725L30.3601 168.428C30.0955 168.512 29.8149 168.549 29.5343 168.537C29.2537 168.524 28.9786 168.462 28.7247 168.355C28.4708 168.248 28.2431 168.097 28.0546 167.911C27.8661 167.725 27.7204 167.507 27.626 167.271C27.5315 167.035 27.4901 166.784 27.5041 166.533C27.5181 166.283 27.5872 166.037 27.7076 165.811C27.8279 165.584 27.997 165.381 28.2053 165.212C28.4136 165.044 28.6571 164.914 28.9217 164.83L62.5026 154.126C62.7672 154.042 63.0478 154.005 63.3284 154.017C63.609 154.03 63.8841 154.092 64.138 154.199C64.3919 154.306 64.6196 154.458 64.8081 154.644C64.9966 154.83 65.1422 155.047 65.2367 155.283C65.3311 155.519 65.3725 155.77 65.3585 156.021C65.3445 156.271 65.2754 156.517 65.1551 156.743C65.0348 156.97 64.8656 157.173 64.6573 157.342C64.449 157.51 64.2056 157.64 63.941 157.725Z" fill="white"/>
<path d="M29.4749 130.439C34.4014 130.439 38.3952 126.873 38.3952 122.474C38.3952 118.074 34.4014 114.508 29.4749 114.508C24.5483 114.508 20.5546 118.074 20.5546 122.474C20.5546 126.873 24.5483 130.439 29.4749 130.439Z" fill="#3F3D56"/>
<path d="M356.969 483.347C340.413 483.272 325.15 479.366 311.603 470.386C310.685 470.123 309.921 469.545 309.48 468.78C309.038 468.015 308.955 467.124 309.247 466.304L320.209 435.711C320.504 434.891 321.151 434.209 322.008 433.815C322.865 433.421 323.862 433.346 324.781 433.608L370.147 446.568C371.065 446.832 371.829 447.409 372.27 448.175C372.712 448.94 372.795 449.83 372.502 450.65L361.54 481.244C361.246 482.063 360.599 482.745 359.742 483.139C358.885 483.534 357.888 483.608 356.969 483.347Z" fill="#F2F2F2"/>
<path opacity="0.2" d="M360.964 477.471C360.669 478.291 360.022 478.972 359.165 479.367C358.308 479.761 357.311 479.835 356.392 479.574C339.836 479.499 324.574 475.593 311.026 466.613C310.424 466.438 309.885 466.123 309.463 465.702L309.248 466.304C308.955 467.124 309.038 468.015 309.48 468.78C309.921 469.545 310.685 470.123 311.603 470.386C325.151 479.366 340.413 483.272 356.969 483.347C357.888 483.608 358.885 483.534 359.742 483.139C360.599 482.745 361.246 482.063 361.541 481.244L372.503 450.65C372.695 450.106 372.723 449.527 372.584 448.97C372.445 448.413 372.143 447.899 371.71 447.48L360.964 477.471Z" fill="black"/>
<path d="M343.814 448.019L336.532 468.538C336.475 468.7 336.384 468.851 336.262 468.981C336.14 469.112 335.991 469.22 335.823 469.298C335.655 469.377 335.47 469.426 335.281 469.441C335.092 469.457 334.901 469.438 334.719 469.388C334.538 469.337 334.369 469.255 334.224 469.146C334.078 469.037 333.957 468.904 333.869 468.753C333.781 468.603 333.727 468.439 333.71 468.269C333.693 468.1 333.714 467.93 333.771 467.768L333.774 467.758L341.056 447.239C341.174 446.914 341.43 446.643 341.77 446.487C342.11 446.33 342.506 446.3 342.87 446.403C343.235 446.506 343.539 446.734 343.716 447.037C343.892 447.34 343.928 447.693 343.814 448.019Z" fill="white"/>
<path d="M330.572 461.884L328.97 466.399C328.914 466.561 328.822 466.711 328.7 466.841C328.579 466.971 328.429 467.079 328.261 467.158C328.093 467.236 327.909 467.285 327.72 467.3C327.531 467.315 327.34 467.297 327.159 467.246C326.977 467.196 326.809 467.114 326.663 467.005C326.517 466.896 326.397 466.763 326.309 466.613C326.221 466.463 326.166 466.298 326.149 466.129C326.132 465.961 326.153 465.79 326.209 465.628L326.213 465.618L327.815 461.104C327.872 460.942 327.963 460.792 328.085 460.662C328.207 460.531 328.356 460.424 328.524 460.345C328.693 460.267 328.876 460.218 329.066 460.203C329.255 460.188 329.445 460.206 329.627 460.256C329.808 460.307 329.976 460.389 330.122 460.498C330.268 460.606 330.388 460.74 330.477 460.89C330.565 461.04 330.619 461.204 330.636 461.373C330.653 461.542 330.633 461.712 330.576 461.874L330.572 461.884Z" fill="white"/>
<path d="M355.937 451.449L348.655 471.969C348.598 472.131 348.507 472.281 348.385 472.411C348.263 472.541 348.114 472.649 347.946 472.728C347.777 472.806 347.593 472.855 347.404 472.87C347.215 472.885 347.024 472.867 346.843 472.816C346.662 472.766 346.493 472.684 346.348 472.575C346.202 472.466 346.081 472.333 345.993 472.183C345.905 472.033 345.851 471.868 345.834 471.7C345.817 471.531 345.837 471.36 345.894 471.198L345.897 471.188L353.18 450.669C353.236 450.507 353.328 450.356 353.449 450.226C353.571 450.095 353.72 449.987 353.888 449.908C354.057 449.829 354.241 449.781 354.43 449.765C354.62 449.75 354.811 449.768 354.992 449.819C355.174 449.869 355.343 449.951 355.488 450.06C355.634 450.169 355.755 450.303 355.843 450.453C355.931 450.604 355.985 450.768 356.002 450.938C356.019 451.107 355.998 451.277 355.941 451.439L355.937 451.449Z" fill="white"/>
<path d="M349.876 449.734L342.593 470.253C342.537 470.416 342.445 470.566 342.324 470.697C342.202 470.827 342.053 470.935 341.884 471.014C341.716 471.093 341.532 471.141 341.343 471.156C341.153 471.172 340.962 471.154 340.781 471.103C340.599 471.052 340.431 470.97 340.285 470.861C340.139 470.753 340.019 470.619 339.931 470.469C339.842 470.318 339.788 470.154 339.772 469.985C339.755 469.816 339.775 469.645 339.832 469.483L339.836 469.473L347.118 448.954C347.175 448.792 347.266 448.642 347.388 448.511C347.51 448.381 347.659 448.274 347.827 448.195C347.996 448.116 348.18 448.068 348.369 448.053C348.558 448.037 348.749 448.056 348.93 448.106C349.111 448.157 349.28 448.239 349.425 448.347C349.571 448.456 349.692 448.589 349.78 448.74C349.868 448.89 349.922 449.054 349.939 449.223C349.956 449.392 349.936 449.562 349.879 449.724L349.876 449.734Z" fill="white"/>
<path d="M314.527 457.268C317.858 457.268 320.558 454.857 320.558 451.883C320.558 448.909 317.858 446.498 314.527 446.498C311.197 446.498 308.497 448.909 308.497 451.883C308.497 454.857 311.197 457.268 314.527 457.268Z" fill="#CCCCCC"/>
<path d="M447.287 241.623C447.876 239.547 445.644 237.25 442.302 236.494C438.959 235.737 435.772 236.808 435.182 238.884C434.593 240.96 436.825 243.257 440.168 244.013C443.51 244.77 446.698 243.699 447.287 241.623Z" fill="white"/>
<path d="M406.467 241.388C407.056 239.312 404.824 237.015 401.481 236.259C398.138 235.503 394.951 236.573 394.362 238.649C393.772 240.725 396.004 243.022 399.347 243.778C402.69 244.535 405.877 243.465 406.467 241.388Z" fill="#3F3D56"/>
<path d="M454.947 271.864C455.537 269.787 453.305 267.491 449.962 266.735C446.619 265.978 443.432 267.048 442.842 269.125C442.253 271.201 444.485 273.497 447.828 274.254C451.17 275.01 454.358 273.94 454.947 271.864Z" fill="#FF6584"/>
<path d="M464.463 283.267C464.705 281.333 463.68 279.643 462.173 279.493C460.666 279.343 459.249 280.789 459.007 282.722C458.765 284.656 459.79 286.346 461.296 286.496C462.803 286.647 464.221 285.201 464.463 283.267Z" fill="#E6E6E6"/>
<path d="M467.819 306.108C468.061 304.174 467.036 302.484 465.53 302.334C464.023 302.184 462.605 303.63 462.363 305.564C462.121 307.498 463.146 309.187 464.653 309.338C466.16 309.488 467.577 308.042 467.819 306.108Z" fill="#3F3D56"/>
<path d="M426.086 262.58C426.328 260.646 425.303 258.956 423.796 258.806C422.29 258.655 420.872 260.101 420.63 262.035C420.388 263.969 421.413 265.659 422.92 265.809C424.427 265.96 425.844 264.514 426.086 262.58Z" fill="#E6E6E6"/>
<path d="M446.629 255.688C446.871 253.754 445.846 252.065 444.339 251.914C442.833 251.764 441.415 253.21 441.173 255.144C440.931 257.078 441.956 258.768 443.463 258.918C444.97 259.068 446.387 257.622 446.629 255.688Z" fill="#FF6584"/>
<path d="M421.321 237.071C421.563 235.137 420.538 233.447 419.032 233.297C417.525 233.146 416.107 234.592 415.865 236.526C415.623 238.46 416.648 240.15 418.155 240.3C419.662 240.45 421.079 239.005 421.321 237.071Z" fill="#3F3D56"/>
<path d="M66.144 228.699C66.7333 226.623 64.5013 224.326 61.1586 223.57C57.8159 222.813 54.6285 223.883 54.0392 225.96C53.4499 228.036 55.6819 230.333 59.0246 231.089C62.3673 231.845 65.5547 230.775 66.144 228.699Z" fill="white"/>
<path d="M25.3236 228.464C25.9129 226.388 23.6808 224.091 20.3382 223.335C16.9955 222.578 13.808 223.648 13.2187 225.725C12.6294 227.801 14.8615 230.098 18.2042 230.854C21.5468 231.61 24.7343 230.54 25.3236 228.464Z" fill="#3F3D56"/>
<path d="M73.8043 258.94C74.3936 256.863 72.1615 254.567 68.8189 253.811C65.4762 253.054 62.2887 254.124 61.6995 256.201C61.1102 258.277 63.3422 260.573 66.6849 261.33C70.0275 262.086 73.215 261.016 73.8043 258.94Z" fill="#FF6584"/>
<path d="M83.3199 270.343C83.562 268.409 82.5367 266.719 81.03 266.569C79.5233 266.419 78.1057 267.864 77.8637 269.798C77.6217 271.732 78.647 273.422 80.1536 273.572C81.6603 273.723 83.0779 272.277 83.3199 270.343Z" fill="#E6E6E6"/>
<path d="M86.6766 293.184C86.9187 291.25 85.8934 289.56 84.3867 289.41C82.88 289.259 81.4624 290.705 81.2204 292.639C80.9784 294.573 82.0036 296.263 83.5103 296.413C85.017 296.564 86.4346 295.118 86.6766 293.184Z" fill="#3F3D56"/>
<path d="M44.9435 249.655C45.1855 247.721 44.1603 246.032 42.6536 245.881C41.1469 245.731 39.7293 247.177 39.4873 249.111C39.2453 251.045 40.2705 252.735 41.7772 252.885C43.2839 253.035 44.7015 251.589 44.9435 249.655Z" fill="#E6E6E6"/>
<path d="M65.4863 242.764C65.7283 240.83 64.7031 239.141 63.1964 238.99C61.6897 238.84 60.2721 240.286 60.0301 242.22C59.7881 244.154 60.8133 245.844 62.32 245.994C63.8267 246.144 65.2443 244.698 65.4863 242.764Z" fill="#FF6584"/>
<path d="M40.1785 224.147C40.4205 222.213 39.3952 220.523 37.8886 220.373C36.3819 220.222 34.9643 221.668 34.7223 223.602C34.4802 225.536 35.5055 227.226 37.0122 227.376C38.5189 227.526 39.9365 226.081 40.1785 224.147Z" fill="#3F3D56"/>
<path d="M326.62 332.003C316.671 320.186 310.921 306.972 310.732 291.907C310.412 291.095 310.465 290.203 310.88 289.426C311.295 288.649 312.039 288.051 312.947 287.763L346.86 277.048C347.769 276.762 348.768 276.81 349.638 277.18C350.508 277.551 351.178 278.215 351.501 279.026L367.389 319.122C367.709 319.934 367.656 320.827 367.241 321.603C366.826 322.38 366.082 322.978 365.174 323.266L331.261 333.981C330.352 334.267 329.353 334.22 328.483 333.849C327.613 333.478 326.943 332.814 326.62 332.003Z" fill="#F2F2F2"/>
<path opacity="0.2" d="M334.277 331.288C333.368 331.575 332.369 331.527 331.498 331.156C330.628 330.786 329.959 330.122 329.636 329.31C319.687 317.494 313.936 304.28 313.748 289.214C313.54 288.68 313.495 288.107 313.615 287.552L312.948 287.763C312.039 288.051 311.296 288.649 310.88 289.426C310.465 290.203 310.412 291.095 310.732 291.907C310.921 306.972 316.671 320.186 326.621 332.003C326.943 332.814 327.613 333.478 328.483 333.849C329.353 334.22 330.352 334.267 331.262 333.981L365.174 323.267C365.776 323.074 366.31 322.744 366.722 322.308C367.134 321.872 367.41 321.347 367.522 320.785L334.277 331.288Z" fill="black"/>
<path d="M350.164 301.277L327.461 308.513C327.1 308.629 326.702 308.611 326.356 308.464C326.009 308.317 325.742 308.054 325.613 307.731C325.484 307.409 325.504 307.054 325.668 306.744C325.832 306.434 326.128 306.196 326.489 306.081L349.192 298.845C349.371 298.788 349.561 298.763 349.75 298.771C349.94 298.779 350.126 298.821 350.298 298.894C350.469 298.966 350.623 299.069 350.751 299.194C350.878 299.32 350.977 299.467 351.04 299.627C351.104 299.786 351.132 299.956 351.123 300.125C351.113 300.295 351.067 300.461 350.985 300.614C350.904 300.767 350.79 300.905 350.649 301.018C350.508 301.132 350.343 301.22 350.164 301.277Z" fill="white"/>
<path d="M329.79 300.251L324.795 301.843C324.616 301.9 324.427 301.925 324.237 301.917C324.047 301.909 323.861 301.867 323.689 301.795C323.518 301.722 323.364 301.62 323.236 301.495C323.108 301.369 323.01 301.222 322.946 301.063C322.882 300.903 322.853 300.734 322.863 300.564C322.872 300.395 322.918 300.229 322.999 300.075C323.081 299.922 323.195 299.784 323.335 299.67C323.476 299.557 323.64 299.468 323.819 299.411L323.823 299.41L328.817 297.818C329.178 297.704 329.576 297.721 329.922 297.868C330.268 298.015 330.535 298.278 330.664 298.601C330.793 298.923 330.773 299.278 330.609 299.587C330.445 299.897 330.151 300.136 329.79 300.251Z" fill="white"/>
<path d="M354.44 311.972L331.737 319.208C331.558 319.265 331.368 319.29 331.178 319.282C330.989 319.274 330.803 319.232 330.631 319.16C330.459 319.088 330.305 318.986 330.178 318.86C330.05 318.734 329.951 318.588 329.887 318.428C329.823 318.268 329.795 318.099 329.804 317.929C329.813 317.76 329.86 317.594 329.941 317.441C330.022 317.287 330.136 317.15 330.277 317.036C330.418 316.922 330.582 316.834 330.761 316.776L330.764 316.775L353.467 309.539C353.828 309.424 354.226 309.442 354.572 309.589C354.918 309.736 355.185 309.999 355.314 310.322C355.443 310.644 355.423 310.999 355.259 311.308C355.095 311.618 354.801 311.856 354.44 311.972Z" fill="white"/>
<path d="M352.302 306.625L329.599 313.861C329.42 313.918 329.231 313.943 329.041 313.935C328.851 313.927 328.665 313.885 328.494 313.813C328.322 313.74 328.168 313.638 328.04 313.513C327.913 313.387 327.814 313.24 327.75 313.081C327.686 312.921 327.658 312.752 327.667 312.582C327.676 312.413 327.722 312.247 327.804 312.093C327.885 311.94 327.999 311.802 328.14 311.688C328.28 311.574 328.445 311.486 328.624 311.429L328.627 311.428L351.33 304.192C351.691 304.076 352.089 304.094 352.435 304.24C352.782 304.386 353.05 304.65 353.179 304.972C353.309 305.295 353.289 305.65 353.126 305.959C352.962 306.269 352.667 306.508 352.306 306.624L352.302 306.625Z" fill="white"/>
<path d="M329.001 288.178C332.331 288.178 335.031 285.767 335.031 282.792C335.031 279.818 332.331 277.407 329.001 277.407C325.67 277.407 322.97 279.818 322.97 282.792C322.97 285.767 325.67 288.178 329.001 288.178Z" fill="#CCCCCC"/>
</g>
<defs>
<clipPath id="clip0_2046_1166">
<rect width="470" height="594" fill="white"/>
</clipPath>
</defs>
</svg>
