<svg xmlns="http://www.w3.org/2000/svg" xmlns:xlink="http://www.w3.org/1999/xlink" xmlns:xodm="http://www.corel.com/coreldraw/odm/2003" xml:space="preserve" width="40.0768mm" height="25.9276mm" style="shape-rendering:geometricPrecision; text-rendering:geometricPrecision; image-rendering:optimizeQuality; fill-rule:evenodd; clip-rule:evenodd" viewBox="0 0 294.27 190.38">
 <defs>
  <style type="text/css">
   <![CDATA[
    .fil0 {fill:black}
    .fil5 {fill:#2D51FF}
    .fil4 {fill:#373435}
    .fil6 {fill:#5580FF}
    .fil7 {fill:#787B82}
    .fil2 {fill:#7B8CBD}
    .fil8 {fill:#9C9FA4}
    .fil3 {fill:#D9D8D6}
    .fil18 {fill:url(#id14)}
    .fil10 {fill:url(#id15)}
    .fil14 {fill:url(#id16)}
    .fil20 {fill:url(#id17)}
    .fil16 {fill:url(#id18)}
    .fil1 {fill:url(#id19)}
    .fil12 {fill:url(#id20)}
    .fil19 {fill:url(#id21);fill-opacity:0.501961}
    .fil15 {fill:url(#id22);fill-opacity:0.501961}
    .fil17 {fill:url(#id23);fill-opacity:0.501961}
    .fil11 {fill:url(#id24);fill-opacity:0.501961}
    .fil13 {fill:url(#id25);fill-opacity:0.501961}
    .fil9 {fill:url(#id26);fill-opacity:0.501961}
   ]]>
  </style>
    <mask id="id0">
  <linearGradient id="id1" gradientUnits="userSpaceOnUse" x1="220.11" y1="202.28" x2="8.92" y2="26.06">
   <stop offset="0" style="stop-opacity:0; stop-color:white"></stop>
   <stop offset="0.878431" style="stop-opacity:0.247059; stop-color:white"></stop>
   <stop offset="1" style="stop-opacity:0.490196; stop-color:white"></stop>
  </linearGradient>
     <rect style="fill:url(#id1)" x="17.13" y="25.99" width="277.87" height="165.11"></rect>
    </mask>
    <mask id="id2">
  <linearGradient id="id3" gradientUnits="userSpaceOnUse" x1="131" y1="58.96" x2="124.94" y2="40.47">
   <stop offset="0" style="stop-opacity:0; stop-color:white"></stop>
   <stop offset="0.670588" style="stop-opacity:0.501961; stop-color:white"></stop>
   <stop offset="1" style="stop-opacity:1; stop-color:white"></stop>
  </linearGradient>
     <rect style="fill:url(#id3)" x="110.56" y="32.77" width="30.11" height="24.88"></rect>
    </mask>
    <mask id="id4">
  <linearGradient id="id5" gradientUnits="userSpaceOnUse" x1="92.87" y1="80.84" x2="86.81" y2="62.36">
   <stop offset="0" style="stop-opacity:0; stop-color:white"></stop>
   <stop offset="0.670588" style="stop-opacity:0.501961; stop-color:white"></stop>
   <stop offset="1" style="stop-opacity:1; stop-color:white"></stop>
  </linearGradient>
     <rect style="fill:url(#id5)" x="72.43" y="54.65" width="30.11" height="24.88"></rect>
    </mask>
    <mask id="id6">
  <linearGradient id="id7" gradientUnits="userSpaceOnUse" x1="172.32" y1="83.22" x2="166.26" y2="64.74">
   <stop offset="0" style="stop-opacity:0; stop-color:white"></stop>
   <stop offset="0.670588" style="stop-opacity:0.501961; stop-color:white"></stop>
   <stop offset="1" style="stop-opacity:1; stop-color:white"></stop>
  </linearGradient>
     <rect style="fill:url(#id7)" x="151.88" y="57.03" width="30.11" height="24.88"></rect>
    </mask>
    <mask id="id8">
  <linearGradient id="id9" gradientUnits="userSpaceOnUse" x1="134.19" y1="105.11" x2="128.13" y2="86.62">
   <stop offset="0" style="stop-opacity:0; stop-color:white"></stop>
   <stop offset="0.670588" style="stop-opacity:0.501961; stop-color:white"></stop>
   <stop offset="1" style="stop-opacity:1; stop-color:white"></stop>
  </linearGradient>
     <rect style="fill:url(#id9)" x="113.75" y="78.92" width="30.11" height="24.88"></rect>
    </mask>
    <mask id="id10">
  <linearGradient id="id11" gradientUnits="userSpaceOnUse" x1="213.64" y1="107.49" x2="207.58" y2="89">
   <stop offset="0" style="stop-opacity:0; stop-color:white"></stop>
   <stop offset="0.670588" style="stop-opacity:0.501961; stop-color:white"></stop>
   <stop offset="1" style="stop-opacity:1; stop-color:white"></stop>
  </linearGradient>
     <rect style="fill:url(#id11)" x="193.2" y="81.3" width="30.11" height="24.88"></rect>
    </mask>
    <mask id="id12">
  <linearGradient id="id13" gradientUnits="userSpaceOnUse" x1="175.51" y1="129.38" x2="169.46" y2="110.89">
   <stop offset="0" style="stop-opacity:0; stop-color:white"></stop>
   <stop offset="0.670588" style="stop-opacity:0.501961; stop-color:white"></stop>
   <stop offset="1" style="stop-opacity:1; stop-color:white"></stop>
  </linearGradient>
     <rect style="fill:url(#id13)" x="155.08" y="103.19" width="30.11" height="24.88"></rect>
    </mask>
  <linearGradient id="id14" gradientUnits="userSpaceOnUse" x1="199.85" y1="73.03" x2="212.18" y2="73.03">
   <stop offset="0" style="stop-opacity:1; stop-color:#21254A"></stop>
   <stop offset="1" style="stop-opacity:1; stop-color:#2E5097"></stop>
  </linearGradient>
  <linearGradient id="id15" gradientUnits="userSpaceOnUse" xlink:href="#id14" x1="117.21" y1="24.5" x2="129.54" y2="24.5">
  </linearGradient>
  <linearGradient id="id16" gradientUnits="userSpaceOnUse" xlink:href="#id14" x1="158.53" y1="48.76" x2="170.86" y2="48.76">
  </linearGradient>
  <linearGradient id="id17" gradientUnits="userSpaceOnUse" xlink:href="#id14" x1="161.72" y1="94.92" x2="174.05" y2="94.92">
  </linearGradient>
  <linearGradient id="id18" gradientUnits="userSpaceOnUse" xlink:href="#id14" x1="120.4" y1="70.65" x2="132.73" y2="70.65">
  </linearGradient>
  <linearGradient id="id19" gradientUnits="userSpaceOnUse" x1="0.15" y1="81.82" x2="281.25" y2="81.82">
   <stop offset="0" style="stop-opacity:1; stop-color:white"></stop>
   <stop offset="1" style="stop-opacity:1; stop-color:#E4EBFF"></stop>
  </linearGradient>
  <linearGradient id="id20" gradientUnits="userSpaceOnUse" xlink:href="#id14" x1="79.08" y1="46.38" x2="91.41" y2="46.38">
  </linearGradient>
  <linearGradient id="id21" gradientUnits="userSpaceOnUse" x1="168.45" y1="101.53" x2="168.39" y2="96.1">
   <stop offset="0" style="stop-opacity:1; stop-color:#242C5D"></stop>
   <stop offset="1" style="stop-opacity:1; stop-color:#2A4B90"></stop>
  </linearGradient>
  <linearGradient id="id22" gradientUnits="userSpaceOnUse" xlink:href="#id21" x1="127.13" y1="77.27" x2="127.07" y2="71.83">
  </linearGradient>
  <linearGradient id="id23" gradientUnits="userSpaceOnUse" xlink:href="#id21" x1="206.58" y1="79.65" x2="206.52" y2="74.21">
  </linearGradient>
  <linearGradient id="id24" gradientUnits="userSpaceOnUse" xlink:href="#id21" x1="85.81" y1="53" x2="85.75" y2="47.57">
  </linearGradient>
  <linearGradient id="id25" gradientUnits="userSpaceOnUse" xlink:href="#id21" x1="165.26" y1="55.38" x2="165.2" y2="49.95">
  </linearGradient>
  <linearGradient id="id26" gradientUnits="userSpaceOnUse" xlink:href="#id21" x1="123.94" y1="31.11" x2="123.88" y2="25.68">
  </linearGradient>
 </defs>
 <g id="Camada_x0020_1">
  <metadata id="CorelCorpID_0Corel-Layer"></metadata>
  <g id="_1774554402640">
   <path class="fil0" style="mask:url(#id0)" d="M22.08 95.84l160.95 94.53 111.24 -67.4 -164.99 -94.65c-3.45,-1.73 -8.33,-2.41 -12,-0.18l-98.59 59.16c-2.52,5.06 1.39,7.41 3.39,8.54z"></path>
   <path class="fil1" d="M0.15 63.88l169.85 99.76 111.24 -67.4 -164.99 -94.65c-3.45,-1.73 -8.33,-2.41 -12,-0.18l-104.1 62.47z"></path>
   <path class="fil2" d="M10.18 75.85c6.16,2.31 23.18,13.34 29.95,17.34 10.18,6.02 58.36,33.61 68.71,39.75 11.57,6.86 51.43,32.89 61.75,32.86 3.75,-0.04 23.22,-12.42 28.21,-15.34 9.2,-5.37 18.36,-10.79 27.58,-16.13 9.2,-5.33 18.42,-10.72 27.57,-16.13 4.8,-2.84 24.86,-13.52 27.07,-16.76l0.24 -5.18c-13.81,8.04 -27.65,16.45 -41.48,24.57 -0.8,0.98 -7.52,4.68 -9.04,5.22 -2.17,2.02 -13.79,8.13 -17.22,10.18l-34.89 20.44c-9.35,5.41 -10.85,5.07 -20.04,-0.22l-109.23 -63.33c-0.7,-0.49 -1.95,-1.14 -2.87,-1.58 -2.22,-1.85 -8.6,-5.05 -11.46,-6.73 -3.89,-2.28 -7.79,-4.62 -11.72,-6.83 -5.87,-3.31 -18.66,-10.05 -23.14,-14.08 -0.24,4.45 -0.71,5.67 3.18,7.93 2.26,1.32 4.64,2.76 6.84,4.04z"></path>
  </g>
  <g id="_1774554401440">
   <polygon class="fil3" style="mask:url(#id2)" points="139.94,40.48 128.13,33.5 111.3,40.48 111.3,56.92 "></polygon>
   <path class="fil4" d="M105.96 22.17c0.19,2.71 0.42,5.79 0.87,6l1.38 -0.83c-0.3,-0.61 -0.73,-3.12 -0.84,-5.61l-1.42 0.44z"></path>
   <path class="fil5" d="M105.02 13.45l1.2 -0.59c0.22,-0.11 0.99,-0.16 1.22,-0.05 1.34,0.63 1.92,1.65 1.92,2.58l0 2.87c0,1.55 -0.85,3.11 -2.31,3.64l-1.12 0.41c-1.45,0.54 -2.82,-1.27 -2.82,-2.82l0 -2.87c0,-1.55 0.5,-2.5 1.89,-3.18z"></path>
   <path class="fil6" d="M105.44 13.27l1.2 -0.59c0.22,-0.11 0.99,-0.16 1.22,-0.05 1.34,0.63 1.92,1.65 1.92,2.58l0 2.87c0,1.55 -0.85,3.11 -2.31,3.64l-1.12 0.41c-1.45,0.54 -2.82,-1.27 -2.82,-2.82l0 -2.87c0,-1.55 0.5,-2.5 1.89,-3.18z"></path>
   <path class="fil5" d="M105.98 24.48l-0.74 0.38c-0.14,0.07 -0.45,0.44 -0.48,0.59 -0.18,0.91 0.12,1.57 0.58,1.92l1.44 1.06c0.78,0.57 1.87,0.72 2.68,0.19l0.62 -0.41c0.81,-0.53 0.41,-1.88 -0.37,-2.46l-1.44 -1.06c-0.78,-0.57 -1.44,-0.67 -2.3,-0.23z"></path>
   <path class="fil6" d="M106.22 24.47l-0.74 0.38c-0.14,0.07 -0.45,0.44 -0.48,0.59 -0.18,0.91 0.12,1.57 0.58,1.92l1.44 1.06c0.78,0.57 1.87,0.72 2.68,0.19l0.62 -0.41c0.81,-0.53 -0.23,-1.5 -0.37,-2.46l-0.34 -2.35c-0.14,-0.96 -2.53,0.61 -3.39,1.06z"></path>
   <g>
    <path class="fil7" d="M141.21 25.9l-13.02 0 0 8.03 11.81 6.97c0.63,0.44 1.23,0.16 1.21,-0.38l0 -14.63z"></path>
    <path class="fil7" d="M111.36 43.13l-16.85 -7.15 -0.03 12.95 15.67 9.2c0.63,0.44 1.23,0.16 1.21,-0.38l0 -14.63z"></path>
    <path class="fil8" d="M124.2 16.2l-29.55 15.83c-1.55,0.88 -1.49,3.31 0.64,4.54l10.44 6.35c2.4,1.46 4.55,1.56 6.56,0.38l27.9 -16.4c1.97,-1.22 1.89,-3.89 0.13,-4.89 -3.89,-2.24 -7.97,-3.35 -11.86,-5.59 -1.03,-0.63 -2.88,-0.92 -4.25,-0.23z"></path>
    <path class="fil3" d="M124.2 14.95l-29.23 16.88c-1.55,0.88 -1.81,2.26 0.32,3.49l10.44 6.35c2.4,1.46 4.55,1.56 6.56,0.38l27.9 -16.4c1.97,-1.22 1.7,-2.76 -0.06,-3.76 -3.89,-2.24 -7.78,-4.48 -11.67,-6.72 -1.03,-0.62 -2.88,-0.92 -4.25,-0.23z"></path>
   </g>
   <path class="fil9" d="M124.68 24.96l-1.61 1.07c-0.28,0.17 -0.4,0.44 -0.38,0.79l0.11 5.04 2.25 -1.54 0 -5.03c0.01,-0.29 -0.17,-0.47 -0.38,-0.33z"></path>
   <path class="fil6" d="M113.08 29.62c-1.61,-1 -1.54,-0.91 -3.07,-1.91l2.73 -1.56 4.19 -2.65 0.41 -0.49 0.18 3.65c-1.66,1.01 -2.54,1.94 -4.44,2.96z"></path>
   <path class="fil10" d="M117.21 23.15c1,-1.6 11.92,-7.32 12.27,-7.28l0.06 10.67c-1.01,0.77 -2.13,1.25 -3.18,1.85 -2.38,1.34 0.05,1.66 -1.98,2.95 -2.13,1.34 -2.02,-0.35 -3.92,0.43 -1.09,0.45 -2.01,1.58 -3.19,1.32l-0.06 -9.93z"></path>
   <path class="fil6" d="M120.82 20.04c-0.32,0.52 -0.01,0.64 -1.31,0.85 -0.96,-0.29 -1.43,-0.43 -1.37,-1.45 0.59,-0.41 0.61,-0.49 1.43,-0.37 0.92,0.13 1.01,0.49 1.25,0.97z"></path>
  </g>
  <g id="_1774554405904">
   <polygon class="fil3" style="mask:url(#id4)" points="101.81,62.36 90,55.39 73.17,62.36 73.17,78.8 "></polygon>
   <path class="fil4" d="M67.83 44.06c0.19,2.71 0.42,5.79 0.87,6l1.38 -0.83c-0.3,-0.61 -0.73,-3.12 -0.84,-5.61l-1.42 0.44z"></path>
   <path class="fil5" d="M66.89 35.34l1.2 -0.59c0.22,-0.11 0.99,-0.16 1.22,-0.05 1.34,0.63 1.92,1.65 1.92,2.58l0 2.87c0,1.55 -0.85,3.11 -2.31,3.64l-1.12 0.41c-1.45,0.54 -2.82,-1.27 -2.82,-2.82l0 -2.87c0,-1.55 0.5,-2.5 1.89,-3.18z"></path>
   <path class="fil6" d="M67.31 35.16l1.2 -0.59c0.22,-0.11 0.99,-0.16 1.22,-0.05 1.34,0.63 1.92,1.65 1.92,2.58l0 2.87c0,1.55 -0.85,3.11 -2.31,3.64l-1.12 0.41c-1.45,0.54 -2.82,-1.27 -2.82,-2.82l0 -2.87c0,-1.55 0.5,-2.5 1.89,-3.18z"></path>
   <path class="fil5" d="M67.85 46.36l-0.74 0.38c-0.14,0.07 -0.45,0.44 -0.48,0.59 -0.18,0.91 0.12,1.58 0.58,1.92l1.44 1.06c0.78,0.57 1.87,0.72 2.68,0.19l0.62 -0.41c0.81,-0.53 0.41,-1.88 -0.37,-2.46l-1.44 -1.06c-0.78,-0.57 -1.44,-0.67 -2.3,-0.23z"></path>
   <path class="fil6" d="M68.09 46.36l-0.74 0.38c-0.14,0.07 -0.45,0.44 -0.48,0.59 -0.18,0.91 0.12,1.58 0.58,1.92l1.44 1.06c0.78,0.57 1.87,0.72 2.68,0.19l0.62 -0.41c0.81,-0.53 -0.23,-1.5 -0.37,-2.45l-0.34 -2.35c-0.14,-0.96 -2.53,0.61 -3.39,1.06z"></path>
   <g>
    <path class="fil7" d="M103.08 47.78l-13.02 0 0 8.03 11.81 6.97c0.63,0.44 1.23,0.16 1.21,-0.38l0 -14.63z"></path>
    <path class="fil7" d="M73.23 65.02l-16.85 -7.15 -0.03 12.95 15.67 9.2c0.63,0.44 1.23,0.16 1.21,-0.38l0 -14.63z"></path>
    <path class="fil8" d="M86.07 38.08l-29.55 15.83c-1.55,0.88 -1.49,3.31 0.64,4.54l10.43 6.35c2.4,1.46 4.55,1.56 6.56,0.38l27.9 -16.4c1.97,-1.22 1.89,-3.89 0.13,-4.89 -3.89,-2.24 -7.97,-3.35 -11.86,-5.59 -1.03,-0.62 -2.88,-0.92 -4.25,-0.23z"></path>
    <path class="fil3" d="M86.07 36.84l-29.23 16.88c-1.55,0.88 -1.81,2.26 0.32,3.49l10.43 6.35c2.4,1.46 4.55,1.56 6.56,0.38l27.9 -16.4c1.97,-1.22 1.7,-2.76 -0.06,-3.76 -3.89,-2.24 -7.78,-4.48 -11.67,-6.72 -1.03,-0.63 -2.88,-0.92 -4.25,-0.23z"></path>
   </g>
   <path class="fil11" d="M86.55 46.85l-1.61 1.07c-0.28,0.17 -0.4,0.44 -0.38,0.79l0.11 5.04 2.25 -1.54 0 -5.03c0.01,-0.29 -0.17,-0.47 -0.38,-0.33z"></path>
   <path class="fil6" d="M74.95 51.51c-1.61,-1 -1.54,-0.91 -3.07,-1.91l2.73 -1.56 4.19 -2.65 0.41 -0.49 0.18 3.65c-1.66,1.01 -2.54,1.94 -4.44,2.96z"></path>
   <path class="fil12" d="M79.08 45.04c1,-1.6 11.91,-7.32 12.27,-7.28l0.06 10.67c-1.01,0.77 -2.13,1.25 -3.18,1.85 -2.38,1.34 0.05,1.66 -1.98,2.95 -2.13,1.34 -2.02,-0.35 -3.92,0.43 -1.09,0.45 -2.01,1.58 -3.19,1.32l-0.06 -9.93z"></path>
   <path class="fil6" d="M82.69 41.93c-0.32,0.52 -0.01,0.64 -1.31,0.85 -0.96,-0.29 -1.43,-0.43 -1.37,-1.45 0.59,-0.41 0.61,-0.49 1.43,-0.37 0.92,0.13 1.01,0.49 1.25,0.97z"></path>
  </g>
  <g id="_1774554409504">
   <polygon class="fil3" style="mask:url(#id6)" points="181.26,64.74 169.45,57.77 152.62,64.74 152.62,81.18 "></polygon>
   <path class="fil4" d="M147.28 46.44c0.19,2.71 0.42,5.79 0.87,6l1.38 -0.83c-0.3,-0.61 -0.73,-3.12 -0.84,-5.61l-1.42 0.44z"></path>
   <path class="fil5" d="M146.34 37.72l1.2 -0.59c0.22,-0.11 0.99,-0.16 1.22,-0.05 1.34,0.63 1.92,1.65 1.92,2.58l0 2.87c0,1.55 -0.85,3.11 -2.31,3.64l-1.12 0.41c-1.45,0.54 -2.82,-1.27 -2.82,-2.82l0 -2.87c0,-1.55 0.5,-2.5 1.89,-3.18z"></path>
   <path class="fil6" d="M146.76 37.54l1.2 -0.59c0.22,-0.11 0.99,-0.16 1.22,-0.05 1.34,0.63 1.92,1.65 1.92,2.58l0 2.87c0,1.55 -0.85,3.11 -2.31,3.64l-1.12 0.41c-1.45,0.54 -2.82,-1.27 -2.82,-2.82l0 -2.87c0,-1.55 0.5,-2.5 1.89,-3.18z"></path>
   <path class="fil5" d="M147.3 48.74l-0.74 0.38c-0.14,0.07 -0.45,0.44 -0.48,0.59 -0.18,0.91 0.12,1.57 0.58,1.92l1.44 1.06c0.78,0.57 1.87,0.72 2.68,0.19l0.62 -0.41c0.81,-0.53 0.41,-1.88 -0.37,-2.46l-1.44 -1.06c-0.78,-0.57 -1.44,-0.67 -2.3,-0.23z"></path>
   <path class="fil6" d="M147.54 48.74l-0.74 0.38c-0.14,0.07 -0.45,0.44 -0.48,0.59 -0.18,0.91 0.12,1.57 0.58,1.92l1.44 1.06c0.78,0.57 1.87,0.72 2.68,0.19l0.62 -0.41c0.81,-0.53 -0.23,-1.5 -0.37,-2.46l-0.34 -2.35c-0.14,-0.96 -2.53,0.61 -3.39,1.06z"></path>
   <g>
    <path class="fil7" d="M182.53 50.16l-13.02 0 0 8.03 11.81 6.97c0.63,0.44 1.23,0.16 1.21,-0.38l0 -14.63z"></path>
    <path class="fil7" d="M152.68 67.4l-16.85 -7.15 -0.03 12.95 15.67 9.2c0.63,0.44 1.23,0.16 1.21,-0.38l0 -14.63z"></path>
    <path class="fil8" d="M165.52 40.46l-29.55 15.83c-1.55,0.88 -1.49,3.31 0.64,4.54l10.43 6.35c2.4,1.46 4.55,1.56 6.56,0.38l27.9 -16.4c1.97,-1.22 1.89,-3.89 0.13,-4.89 -3.89,-2.24 -7.97,-3.35 -11.86,-5.59 -1.03,-0.63 -2.88,-0.92 -4.25,-0.23z"></path>
    <path class="fil3" d="M165.52 39.22l-29.23 16.88c-1.55,0.88 -1.81,2.26 0.32,3.49l10.43 6.35c2.4,1.46 4.55,1.56 6.56,0.38l27.9 -16.4c1.97,-1.22 1.7,-2.76 -0.06,-3.76 -3.89,-2.24 -7.78,-4.48 -11.67,-6.72 -1.03,-0.62 -2.88,-0.92 -4.25,-0.23z"></path>
   </g>
   <path class="fil13" d="M166 49.23l-1.61 1.07c-0.28,0.17 -0.4,0.44 -0.38,0.79l0.11 5.04 2.25 -1.54 0 -5.03c0.01,-0.29 -0.17,-0.47 -0.38,-0.33z"></path>
   <path class="fil6" d="M154.4 53.89c-1.61,-1 -1.54,-0.91 -3.07,-1.91l2.73 -1.56 4.19 -2.65 0.41 -0.49 0.18 3.65c-1.66,1.01 -2.54,1.94 -4.44,2.96z"></path>
   <path class="fil14" d="M158.53 47.42c1,-1.6 11.91,-7.32 12.27,-7.28l0.06 10.67c-1.01,0.77 -2.13,1.25 -3.18,1.85 -2.38,1.34 0.05,1.66 -1.98,2.95 -2.13,1.34 -2.02,-0.35 -3.92,0.43 -1.09,0.45 -2.01,1.58 -3.19,1.32l-0.06 -9.93z"></path>
   <path class="fil6" d="M162.14 44.31c-0.32,0.52 -0.01,0.64 -1.31,0.85 -0.96,-0.29 -1.43,-0.43 -1.37,-1.45 0.59,-0.41 0.61,-0.49 1.43,-0.37 0.92,0.13 1.01,0.49 1.25,0.98z"></path>
  </g>
  <g id="_1774554411520">
   <polygon class="fil3" style="mask:url(#id8)" points="143.13,86.63 131.32,79.66 114.49,86.63 114.49,103.07 "></polygon>
   <path class="fil4" d="M109.15 68.33c0.19,2.71 0.42,5.79 0.87,6l1.38 -0.83c-0.31,-0.61 -0.73,-3.12 -0.84,-5.61l-1.42 0.44z"></path>
   <path class="fil5" d="M108.21 59.61l1.2 -0.59c0.22,-0.11 0.99,-0.16 1.22,-0.05 1.34,0.63 1.92,1.65 1.92,2.58l0 2.87c0,1.55 -0.85,3.11 -2.31,3.64l-1.12 0.41c-1.45,0.54 -2.82,-1.27 -2.82,-2.82l0 -2.87c0,-1.55 0.5,-2.5 1.89,-3.18z"></path>
   <path class="fil6" d="M108.63 59.42l1.2 -0.59c0.22,-0.11 0.99,-0.16 1.22,-0.05 1.34,0.63 1.92,1.65 1.92,2.58l0 2.87c0,1.55 -0.85,3.11 -2.31,3.64l-1.12 0.41c-1.45,0.54 -2.82,-1.27 -2.82,-2.82l0 -2.87c0,-1.55 0.5,-2.5 1.89,-3.18z"></path>
   <path class="fil5" d="M109.17 70.63l-0.74 0.38c-0.14,0.07 -0.45,0.44 -0.48,0.59 -0.18,0.91 0.12,1.58 0.58,1.92l1.44 1.06c0.78,0.57 1.87,0.72 2.68,0.19l0.62 -0.41c0.81,-0.53 0.41,-1.88 -0.37,-2.46l-1.44 -1.06c-0.78,-0.57 -1.44,-0.67 -2.3,-0.23z"></path>
   <path class="fil6" d="M109.41 70.63l-0.74 0.38c-0.14,0.07 -0.45,0.44 -0.48,0.59 -0.18,0.91 0.12,1.58 0.58,1.92l1.44 1.06c0.78,0.57 1.87,0.72 2.68,0.19l0.62 -0.41c0.81,-0.53 -0.23,-1.5 -0.37,-2.46l-0.35 -2.35c-0.14,-0.96 -2.53,0.61 -3.39,1.06z"></path>
   <g>
    <path class="fil7" d="M144.4 72.05l-13.02 0 0 8.03 11.81 6.97c0.63,0.44 1.23,0.16 1.21,-0.38l0 -14.63z"></path>
    <path class="fil7" d="M114.55 89.29l-16.85 -7.15 -0.03 12.95 15.67 9.2c0.63,0.44 1.23,0.16 1.21,-0.38l0 -14.63z"></path>
    <path class="fil8" d="M127.39 62.35l-29.55 15.83c-1.55,0.88 -1.49,3.31 0.64,4.54l10.43 6.35c2.4,1.46 4.55,1.56 6.56,0.38l27.9 -16.4c1.97,-1.22 1.89,-3.89 0.13,-4.89 -3.89,-2.24 -7.97,-3.35 -11.86,-5.59 -1.03,-0.62 -2.88,-0.92 -4.25,-0.23z"></path>
    <path class="fil3" d="M127.39 61.11l-29.23 16.88c-1.55,0.88 -1.81,2.26 0.32,3.49l10.43 6.35c2.4,1.46 4.55,1.56 6.56,0.38l27.9 -16.4c1.97,-1.22 1.7,-2.76 -0.06,-3.76 -3.89,-2.24 -7.78,-4.48 -11.67,-6.72 -1.03,-0.63 -2.88,-0.92 -4.25,-0.23z"></path>
   </g>
   <path class="fil15" d="M127.87 71.11l-1.61 1.07c-0.28,0.17 -0.4,0.44 -0.38,0.79l0.11 5.04 2.25 -1.54 0 -5.03c0.01,-0.29 -0.17,-0.47 -0.38,-0.33z"></path>
   <path class="fil6" d="M116.27 75.77c-1.61,-1 -1.54,-0.91 -3.07,-1.91l2.73 -1.56 4.19 -2.65 0.41 -0.49 0.18 3.65c-1.66,1.01 -2.54,1.94 -4.44,2.96z"></path>
   <path class="fil16" d="M120.4 69.31c1,-1.6 11.91,-7.32 12.27,-7.28l0.06 10.67c-1.01,0.77 -2.13,1.25 -3.18,1.85 -2.38,1.34 0.05,1.66 -1.98,2.95 -2.13,1.34 -2.02,-0.35 -3.92,0.43 -1.09,0.45 -2.01,1.58 -3.19,1.32l-0.06 -9.93z"></path>
   <path class="fil6" d="M124.01 66.19c-0.32,0.52 -0.01,0.64 -1.31,0.85 -0.96,-0.29 -1.43,-0.43 -1.37,-1.45 0.59,-0.41 0.61,-0.49 1.43,-0.37 0.92,0.13 1.01,0.49 1.25,0.97z"></path>
  </g>
  <g id="_1774554413344">
   <polygon class="fil3" style="mask:url(#id10)" points="222.58,89.01 210.77,82.04 193.94,89.01 193.94,105.45 "></polygon>
   <path class="fil4" d="M188.6 70.71c0.19,2.71 0.42,5.79 0.87,6l1.38 -0.83c-0.31,-0.61 -0.73,-3.12 -0.84,-5.61l-1.42 0.44z"></path>
   <path class="fil5" d="M187.66 61.99l1.2 -0.59c0.22,-0.11 0.99,-0.16 1.22,-0.05 1.34,0.63 1.92,1.65 1.92,2.58l0 2.87c0,1.55 -0.85,3.11 -2.31,3.64l-1.12 0.41c-1.45,0.54 -2.82,-1.27 -2.82,-2.82l0 -2.87c0,-1.55 0.5,-2.5 1.89,-3.18z"></path>
   <path class="fil6" d="M188.08 61.8l1.2 -0.59c0.22,-0.11 0.99,-0.16 1.22,-0.05 1.34,0.63 1.92,1.65 1.92,2.58l0 2.87c0,1.55 -0.85,3.11 -2.31,3.64l-1.12 0.41c-1.45,0.54 -2.82,-1.27 -2.82,-2.82l0 -2.87c0,-1.55 0.5,-2.5 1.89,-3.18z"></path>
   <path class="fil5" d="M188.62 73.01l-0.74 0.38c-0.14,0.07 -0.45,0.44 -0.48,0.59 -0.18,0.91 0.12,1.57 0.58,1.92l1.44 1.06c0.78,0.57 1.87,0.72 2.68,0.19l0.62 -0.41c0.81,-0.53 0.41,-1.88 -0.37,-2.46l-1.44 -1.06c-0.78,-0.57 -1.44,-0.67 -2.3,-0.23z"></path>
   <path class="fil6" d="M188.86 73.01l-0.74 0.38c-0.14,0.07 -0.45,0.44 -0.48,0.59 -0.18,0.91 0.12,1.57 0.58,1.92l1.44 1.06c0.78,0.57 1.87,0.72 2.68,0.19l0.62 -0.41c0.81,-0.53 -0.23,-1.5 -0.37,-2.46l-0.34 -2.35c-0.14,-0.96 -2.53,0.61 -3.39,1.06z"></path>
   <g>
    <path class="fil7" d="M223.85 74.43l-13.02 0 0 8.03 11.81 6.97c0.63,0.44 1.23,0.16 1.21,-0.38l0 -14.63z"></path>
    <path class="fil7" d="M194 91.67l-16.85 -7.15 -0.03 12.95 15.67 9.2c0.63,0.44 1.23,0.16 1.21,-0.38l0 -14.63z"></path>
    <path class="fil8" d="M206.84 64.73l-29.55 15.83c-1.55,0.88 -1.49,3.31 0.64,4.54l10.43 6.35c2.4,1.46 4.55,1.56 6.56,0.38l27.9 -16.4c1.97,-1.22 1.89,-3.89 0.13,-4.89 -3.89,-2.24 -7.97,-3.35 -11.86,-5.59 -1.03,-0.63 -2.88,-0.92 -4.25,-0.23z"></path>
    <path class="fil3" d="M206.84 63.49l-29.23 16.88c-1.55,0.88 -1.81,2.26 0.33,3.49l10.43 6.35c2.4,1.46 4.55,1.56 6.56,0.38l27.9 -16.4c1.97,-1.22 1.7,-2.76 -0.06,-3.76 -3.89,-2.24 -7.78,-4.48 -11.67,-6.72 -1.03,-0.62 -2.88,-0.92 -4.25,-0.23z"></path>
   </g>
   <path class="fil17" d="M207.32 73.49l-1.61 1.07c-0.28,0.17 -0.4,0.44 -0.38,0.79l0.11 5.04 2.25 -1.54 0 -5.03c0.01,-0.29 -0.17,-0.47 -0.38,-0.33z"></path>
   <path class="fil6" d="M195.72 78.15c-1.61,-1 -1.54,-0.91 -3.07,-1.91l2.73 -1.56 4.19 -2.65 0.41 -0.49 0.18 3.65c-1.66,1.01 -2.54,1.94 -4.44,2.96z"></path>
   <path class="fil18" d="M199.85 71.69c1,-1.6 11.92,-7.32 12.27,-7.28l0.06 10.67c-1.01,0.77 -2.13,1.25 -3.18,1.85 -2.38,1.34 0.05,1.66 -1.98,2.95 -2.13,1.34 -2.02,-0.35 -3.92,0.43 -1.09,0.45 -2.01,1.58 -3.19,1.32l-0.06 -9.93z"></path>
   <path class="fil6" d="M203.46 68.58c-0.32,0.52 -0.01,0.64 -1.31,0.85 -0.96,-0.29 -1.43,-0.43 -1.37,-1.45 0.59,-0.41 0.61,-0.49 1.43,-0.37 0.92,0.13 1.01,0.49 1.25,0.98z"></path>
  </g>
  <g id="_1774554354544">
   <polygon class="fil3" style="mask:url(#id12)" points="184.45,110.9 172.64,103.92 155.81,110.9 155.81,127.34 "></polygon>
   <path class="fil4" d="M150.47 92.59c0.19,2.71 0.42,5.79 0.87,6l1.38 -0.83c-0.31,-0.61 -0.73,-3.12 -0.84,-5.61l-1.42 0.44z"></path>
   <path class="fil5" d="M149.53 83.87l1.2 -0.59c0.22,-0.11 0.99,-0.16 1.22,-0.05 1.34,0.63 1.92,1.65 1.92,2.58l0 2.87c0,1.55 -0.85,3.11 -2.31,3.64l-1.12 0.41c-1.45,0.54 -2.82,-1.27 -2.82,-2.82l0 -2.87c0,-1.55 0.5,-2.5 1.89,-3.18z"></path>
   <path class="fil6" d="M149.95 83.69l1.2 -0.59c0.22,-0.11 0.99,-0.16 1.22,-0.05 1.34,0.63 1.92,1.65 1.92,2.58l0 2.87c0,1.55 -0.85,3.11 -2.31,3.64l-1.12 0.41c-1.45,0.54 -2.82,-1.27 -2.82,-2.82l0 -2.87c0,-1.55 0.5,-2.5 1.89,-3.18z"></path>
   <path class="fil5" d="M150.49 94.9l-0.74 0.38c-0.14,0.07 -0.45,0.44 -0.48,0.59 -0.18,0.91 0.12,1.58 0.58,1.92l1.44 1.06c0.78,0.57 1.87,0.72 2.68,0.19l0.62 -0.41c0.81,-0.53 0.41,-1.88 -0.37,-2.46l-1.44 -1.06c-0.78,-0.57 -1.44,-0.67 -2.3,-0.23z"></path>
   <path class="fil6" d="M150.73 94.89l-0.74 0.38c-0.14,0.07 -0.45,0.44 -0.48,0.59 -0.18,0.91 0.12,1.58 0.58,1.92l1.44 1.06c0.78,0.57 1.87,0.72 2.68,0.19l0.62 -0.41c0.81,-0.53 -0.23,-1.5 -0.37,-2.46l-0.34 -2.35c-0.14,-0.96 -2.53,0.61 -3.39,1.06z"></path>
   <g>
    <path class="fil7" d="M185.72 96.32l-13.02 0 0 8.03 11.81 6.97c0.63,0.44 1.23,0.16 1.21,-0.38l0 -14.63z"></path>
    <path class="fil7" d="M155.87 113.55l-16.85 -7.15 -0.03 12.95 15.67 9.2c0.63,0.44 1.23,0.16 1.21,-0.38l0 -14.63z"></path>
    <path class="fil8" d="M168.71 86.62l-29.55 15.83c-1.55,0.88 -1.49,3.31 0.64,4.54l10.43 6.35c2.4,1.46 4.55,1.56 6.56,0.38l27.9 -16.4c1.97,-1.22 1.89,-3.89 0.13,-4.89 -3.89,-2.24 -7.97,-3.35 -11.86,-5.59 -1.03,-0.63 -2.88,-0.92 -4.25,-0.23z"></path>
    <path class="fil3" d="M168.71 85.37l-29.23 16.88c-1.55,0.88 -1.81,2.26 0.33,3.49l10.43 6.35c2.4,1.46 4.55,1.56 6.56,0.38l27.9 -16.4c1.97,-1.22 1.7,-2.76 -0.06,-3.76 -3.89,-2.24 -7.78,-4.48 -11.67,-6.72 -1.03,-0.63 -2.88,-0.92 -4.25,-0.23z"></path>
   </g>
   <path class="fil19" d="M169.19 95.38l-1.61 1.07c-0.28,0.17 -0.4,0.44 -0.38,0.79l0.11 5.04 2.25 -1.54 0 -5.03c0.01,-0.29 -0.17,-0.47 -0.38,-0.33z"></path>
   <path class="fil6" d="M157.59 100.04c-1.61,-1 -1.54,-0.91 -3.07,-1.91l2.73 -1.56 4.19 -2.65 0.41 -0.49 0.18 3.65c-1.66,1.01 -2.54,1.94 -4.44,2.96z"></path>
   <path class="fil20" d="M161.72 93.57c1,-1.6 11.92,-7.32 12.27,-7.28l0.06 10.67c-1.01,0.77 -2.13,1.25 -3.18,1.85 -2.38,1.34 0.05,1.66 -1.98,2.95 -2.13,1.34 -2.02,-0.35 -3.92,0.43 -1.09,0.45 -2.01,1.58 -3.19,1.32l-0.06 -9.93z"></path>
   <path class="fil6" d="M165.33 90.46c-0.32,0.52 -0.01,0.64 -1.31,0.85 -0.96,-0.29 -1.43,-0.43 -1.37,-1.45 0.59,-0.41 0.61,-0.49 1.43,-0.37 0.92,0.13 1.01,0.49 1.25,0.97z"></path>
  </g>
 </g>
</svg>