<svg xmlns="http://www.w3.org/2000/svg" xmlns:xlink="http://www.w3.org/1999/xlink" xmlns:xodm="http://www.corel.com/coreldraw/odm/2003" xml:space="preserve" width="67.8334mm" height="52.965mm" style="shape-rendering:geometricPrecision; text-rendering:geometricPrecision; image-rendering:optimizeQuality; fill-rule:evenodd; clip-rule:evenodd" viewBox="0 0 799.75 624.45">
 <defs>
  <style type="text/css">
   <![CDATA[
    .fil2 {fill:none}
    .fil1 {fill:black}
    .fil42 {fill:#0548A3}
    .fil55 {fill:#0F2432}
    .fil35 {fill:#11192B}
    .fil60 {fill:#152539}
    .fil52 {fill:#1B2748}
    .fil63 {fill:#1C2957}
    .fil67 {fill:#2097DF}
    .fil62 {fill:#242A5B}
    .fil25 {fill:#242D62}
    .fil9 {fill:#242E61}
    .fil15 {fill:#243264}
    .fil16 {fill:#252956}
    .fil24 {fill:#25356B}
    .fil22 {fill:#253973}
    .fil51 {fill:#264383}
    .fil45 {fill:#27150E}
    .fil13 {fill:#28427B}
    .fil61 {fill:#28478B}
    .fil37 {fill:#292A33}
    .fil58 {fill:#294A94}
    .fil54 {fill:#2A4484}
    .fil41 {fill:#2D51FF}
    .fil39 {fill:#333333}
    .fil70 {fill:#3593D1}
    .fil71 {fill:#4C4955}
    .fil6 {fill:#5580FF}
    .fil73 {fill:#576572}
    .fil72 {fill:#58A8AA}
    .fil40 {fill:#6A4224}
    .fil32 {fill:#6C4529}
    .fil64 {fill:#74524B}
    .fil4 {fill:#7B8CBD}
    .fil5 {fill:#94B7C8}
    .fil59 {fill:#94C7CD}
    .fil38 {fill:#9C9FA4}
    .fil68 {fill:#AACDD5}
    .fil21 {fill:#C7CCD5}
    .fil34 {fill:#C8CACB}
    .fil75 {fill:#C8DEEC}
    .fil66 {fill:#CAD3D7}
    .fil29 {fill:#CCCCCC}
    .fil46 {fill:#CCD4DB}
    .fil18 {fill:#D4DADD}
    .fil48 {fill:#D4DCE3}
    .fil56 {fill:#D6DBE8}
    .fil8 {fill:#D9D8D6}
    .fil43 {fill:#DCE1E5}
    .fil19 {fill:#DCE3EB}
    .fil30 {fill:#E0A75C}
    .fil47 {fill:#E1DDDB}
    .fil44 {fill:#E4ECF4}
    .fil31 {fill:#E8E8E6}
    .fil33 {fill:#ECF2F5}
    .fil53 {fill:#EDF4FA}
    .fil65 {fill:#EFA19F}
    .fil26 {fill:#EFDE6D}
    .fil69 {fill:#F0F4FB}
    .fil20 {fill:#F1F5F9}
    .fil49 {fill:#F1F7FB}
    .fil36 {fill:#F4F4F4}
    .fil14 {fill:#F4F9FC}
    .fil17 {fill:#F6F5EC}
    .fil27 {fill:#F7F7F7}
    .fil23 {fill:#F8F8F8}
    .fil7 {fill:#F9D64C}
    .fil10 {fill:#F9FAFA}
    .fil57 {fill:#FABA9F}
    .fil50 {fill:#FAD54A}
    .fil12 {fill:#FBFBFB}
    .fil28 {fill:#FDE452}
    .fil11 {fill:#FEFDFE}
    .fil74 {fill:url(#id3)}
    .fil3 {fill:url(#id4)}
    .fil0 {fill:url(#id5)}
   ]]>
  </style>
    <clipPath id="id0">
     <path d="M49.62 624.45l750.13 0 0 -448.45 -750.13 0 0 448.45z"></path>
    </clipPath>
      <mask id="id1">
  <linearGradient id="id2" gradientUnits="userSpaceOnUse" x1="494.64" y1="658.75" x2="25.89" y2="178.28">
   <stop offset="0" style="stop-opacity:0; stop-color:white"></stop>
   <stop offset="0.878431" style="stop-opacity:0.247059; stop-color:white"></stop>
   <stop offset="1" style="stop-opacity:0.490196; stop-color:white"></stop>
  </linearGradient>
       <rect style="fill:url(#id2)" x="50.36" y="176.74" width="748.67" height="446.99"></rect>
      </mask>
  <linearGradient id="id3" gradientUnits="userSpaceOnUse" x1="143.39" y1="316.15" x2="120.8" y2="316.15">
   <stop offset="0" style="stop-opacity:1; stop-color:#FA7373"></stop>
   <stop offset="1" style="stop-opacity:1; stop-color:#A13030"></stop>
  </linearGradient>
  <linearGradient id="id4" gradientUnits="userSpaceOnUse" x1="0.48" y1="321.49" x2="744.88" y2="321.49">
   <stop offset="0" style="stop-opacity:1; stop-color:white"></stop>
   <stop offset="1" style="stop-opacity:1; stop-color:#E4EBFF"></stop>
  </linearGradient>
  <linearGradient id="id5" gradientUnits="userSpaceOnUse" x1="494.85" y1="660.12" x2="24.63" y2="177.11">
   <stop offset="0" style="stop-opacity:0; stop-color:white"></stop>
   <stop offset="0.878431" style="stop-opacity:0.247059; stop-color:white"></stop>
   <stop offset="1" style="stop-opacity:0.490196; stop-color:white"></stop>
  </linearGradient>
 </defs>
 <g id="Camada_x0020_1">
  <metadata id="CorelCorpID_0Corel-Layer"></metadata>
  <g id="_1901186901792">
   <polygon class="fil0" points="49.62,624.45 799.75,624.45 799.75,176.01 49.62,176.01 "></polygon>
   <g style="clip-path:url(#id0)">
    <g>
     <path id="1" class="fil1" style="mask:url(#id1)" d="M64.99 409.97l358.93 213.31 374.66 -227 -372.53 -213.73c-11.62,-5.82 -28.07,-8.13 -40.43,-0.6l-332.04 199.25c-8.49,17.06 4.67,24.97 11.43,28.77l-0.01 -0z"></path>
    </g>
   </g>
   <polygon class="fil2" points="49.62,624.45 799.75,624.45 799.75,176.01 49.62,176.01 "></polygon>
   <path class="fil3" d="M0.52 317.93l370.02 220.09 374.66 -227 -353.62 -202.88c-11.62,-5.82 -28.07,-8.13 -40.43,-0.6l-350.62 210.4 -0.01 -0.01z"></path>
   <path class="fil4" d="M34.27 358.24c20.75,7.79 78.07,44.92 100.86,58.39 34.29,20.26 -5.5,-2.73 29.35,17.95 38.96,23.11 173.22,110.77 207.99,110.68 12.64,-0.14 78.2,-41.83 95.02,-51.66 30.97,-18.1 61.84,-36.35 92.88,-54.33 30.99,-17.96 62.03,-36.09 92.86,-54.34 16.15,-9.57 83.74,-45.53 91.18,-56.45l0.8 -17.46c-46.51,27.08 -93.14,55.4 -139.69,82.76 -2.7,3.3 -25.32,15.76 -30.45,17.6 -7.3,6.81 -46.43,27.38 -57.99,34.27l-117.49 68.85c-31.51,18.24 -36.53,17.09 -67.51,-0.75l-165.84 -97.38c-2.34,-1.64 -6.58,-3.83 -9.68,-5.33 -7.48,-6.25 -28.95,-17.02 -38.59,-22.68 -13.1,-7.7 -26.24,-15.55 -39.49,-23 -19.77,-11.14 -62.84,-33.85 -77.95,-47.43 -0.81,15 -2.39,19.09 10.7,26.72 7.62,4.44 15.65,9.29 23.05,13.59l0 0.01z"></path>
  </g>
  <path class="fil5" d="M387.2 239.3c2.83,0.8 4.41,1.66 6.28,3.83 1.33,-0.95 2.81,-1.52 4.74,-2.69l-3.48 -1.28 -7.24 -3.74c-5.06,-1.97 -10.33,0.11 -12.84,4.55 -1.94,3.43 -0.43,4.16 -0.15,4.64 2.78,-1.28 0.72,0.39 2.95,-2.77 4.28,-6.07 9.18,-3.85 9.73,-2.53l0.01 -0z"></path>
  <g id="_1901186905920">
   <path class="fil6" d="M341.09 99.83l1.12 6.2c1.68,2.02 2.55,4.95 4.75,6.36 3.3,2.11 6.13,0.22 9.21,0.43 5.48,0.37 10.26,5.7 12.39,-8.24l0.23 -7.4c-0.23,-13.64 -0.73,-33.16 -4.73,-45.9 -3.08,-9.82 -3.01,-36.38 -7.74,-42.22 -0.83,-4.2 -1.4,-8.23 -5.64,-9.06 -2.64,1.78 -3.69,5.31 -4.74,8.51 -6.46,12.6 -9.53,77.35 -4.85,91.31l0 0z"></path>
   <path class="fil7" d="M368.57 104.58c3.41,1.16 4.92,2.57 6.37,5.93 -5.5,18.52 -51.02,4.64 -32.74,-4.48l-1.12 -6.2c-18.68,1.2 0.46,27.33 -1.6,35.8 8.41,5.58 12.19,10.65 25.06,6.4 13.43,-4.44 5.93,-15.88 13.26,-21.21 0.72,-9.3 7.51,-19.81 -9.01,-23.64l-0.23 7.4 0 0z"></path>
   <path class="fil8" d="M339.49 135.63c3.62,12.27 27.53,14.39 38.69,14.86l24.51 -14.85 0.48 -0.21c3.56,-1.54 -1.97,-7.26 -3.82,-9.06 -2.05,-1.43 -18.58,-4.38 -21.88,-3.34l0.34 -2.22c-7.33,5.33 0.16,16.77 -13.26,21.21 -12.87,4.26 -16.65,-0.82 -25.06,-6.4l-0 0.01z"></path>
   <path class="fil9" d="M342.21 106.04c-18.28,9.12 27.23,23 32.74,4.48 -1.45,-3.37 -2.96,-4.77 -6.37,-5.93 -2.14,13.95 -6.91,8.61 -12.39,8.24 -3.08,-0.21 -5.92,1.69 -9.21,-0.43 -2.21,-1.41 -3.08,-4.34 -4.75,-6.36l-0 -0z"></path>
  </g>
  <g id="_1901186920032">
   <path class="fil6" d="M41.02 283.53l0.84 7.48c2.6,0.82 1.07,0.96 3.81,4.22 5.05,6 7.2,0.79 11.85,2.26 2.87,0.9 -1.79,0.79 3.79,1.03 4.79,0.21 5.34,-1.18 6.42,-4.12l2.26 -4.96 -0.87 -7.89c-0.2,-9.6 -0.55,-19.14 -1.64,-28.66 -1.03,-8.99 -3.84,-16.67 -5.09,-24.78 -0.11,-1.28 -0.14,-3.48 -0.3,-4.66 -0.05,-0.39 -0.22,-1.5 -0.29,-1.83 -0.51,-2.26 0.23,-0.52 -0.81,-2.2 0.64,-3.24 -0.01,-10.18 -1.4,-12.32l-0.95 -7.97c-2.02,-5.18 -2.09,-12.66 -7.69,-14.32 -13.43,8.68 -11.87,82.31 -9.94,98.76l-0 0z"></path>
   <path class="fil7" d="M70 289.43c3.07,1.77 4.23,2.63 5.24,6.03 -5.54,12.42 -31.51,11.76 -37.17,-0.23l3.79 -4.23 -0.84 -7.48c-11.91,1.92 -7.43,15.63 -4,23.15 4.34,9.52 -0.12,17.28 13.86,20.97 7.44,0.19 13.92,0.9 19.7,-4.24 5.01,-4.46 2.78,-13.27 6.73,-17.66 4.65,-13.4 6.54,-17.91 -8.2,-24.21l0.87 7.89 0.01 -0z"></path>
   <path class="fil8" d="M50.89 327.65c8.72,8.31 30.8,2.66 42.22,2.17 3.02,-4.3 -0.98,-1.38 2.91,-3.39 2.12,-1.09 3.46,-0.71 5.43,-1.99l0.12 -8.38c-4.36,-3.43 -4.38,-3.55 -9.89,-5.03 -5.76,-1.55 -6.69,-1.59 -13.32,-1.78l-1.03 -3.5c-3.95,4.39 -1.72,13.21 -6.73,17.66 -5.78,5.14 -12.26,4.43 -19.7,4.24l0 0z"></path>
   <path class="fil9" d="M41.86 291l-3.79 4.23c5.66,11.99 31.63,12.65 37.17,0.23 -1.01,-3.4 -2.17,-4.26 -5.24,-6.03l-2.26 4.96c-1.08,2.95 -1.63,4.33 -6.42,4.12 -5.58,-0.24 -0.91,-0.12 -3.79,-1.03 -4.65,-1.47 -6.8,3.74 -11.85,-2.26 -2.74,-3.26 -1.22,-3.4 -3.81,-4.22l-0 0z"></path>
  </g>
  <g id="_1901186922864">
   <path class="fil10" d="M207.37 158.67c1.43,-1.95 11.08,-7.23 14.35,-8.21l35.18 -20.32 15.59 -8.98c1.68,-2.4 3.8,-1.64 6.37,-5 -0.91,-0.09 -0.56,1.16 -1.33,-0.93 -0.88,-2.39 1.57,1.01 0.46,-0.7 -3.86,0.17 -14.09,3.8 -15.71,4.65 4.25,-1.93 1.76,-0.95 2,1.26 0.35,3.14 1.23,0.03 -0.57,1.73 -4.47,4.19 1.34,-0.34 -3.88,-0.23l-6.6 1.01c2.04,-1.89 0.93,-1.04 2.79,-2.53 3.8,-3.04 5.29,-1.7 7.29,-5.73 -1.61,-0.93 -4.84,-1.44 -6.74,-0.2 -1.48,0.98 0.81,0.24 -1.47,1.09 -4.62,1.72 -2.54,-0.46 -3.15,-1.25 1.7,0.09 3.77,-1.59 5.45,-2.48 4.26,-2.26 4.01,-1.1 6.83,-6.32 -6.73,0.35 -8.6,3.09 -15.13,6.62 -1.1,0.6 -2.17,1.22 -2.94,1.62l-51.13 29.55c-6.4,2.97 -11.89,7.13 -17.95,10.75 -1.89,-1.95 -0.46,1.16 -0.47,-1.3l0.47 -0.71c-0.86,1.31 -0.22,0.53 -1.79,1.33l-2.79 1.09 -1.82 -34.04 20.16 0.65c1.26,-1.89 1.08,-1.58 2.94,-3.41 3.74,-3.7 8.08,-7.92 8.98,-13.13 -3.25,-1.36 -0.2,0.35 -2.25,-1.26l-3.05 -4.53c-5.31,-10.96 -9.12,-2.24 -12.54,5.32 -1.92,4.26 -4.01,9.05 -6.51,11.9l-0 -2.49c-5.56,2.37 -1.46,2.13 -7.74,3.02 0,-9.37 -1.2,-14.83 1.83,-21.09 -3.18,-1.49 -0.39,0.33 -1.68,-2.47 -2.87,-6.2 -0.28,-5.5 -0.54,-8.64 -6.7,2.49 -4.74,4.49 -4.74,20.28l0 76.85c6.14,-1.18 32.36,-19.45 41.79,-22.81l0.01 0.02z"></path>
   <path class="fil11" d="M213.49 58.24c-2.45,3.49 -9.85,6.78 -13.46,8.04 -1.99,3.34 -26.21,13.8 -29.73,18.06 0.26,3.14 -2.33,2.44 0.54,8.64 1.29,2.79 -1.51,0.98 1.68,2.47 -3.04,6.26 -1.83,11.72 -1.83,21.09 6.28,-0.89 2.18,-0.64 7.74,-3.02l3.05 -5.38c2.41,-4.89 8.62,-22.09 15.1,-13.79 0.76,0.97 1.2,1.9 1.75,2.86 1.23,2.16 2.19,3.78 3.54,5.74 10.28,-2.11 7.6,-15.29 17.43,-18.63 5.97,-0.35 7.24,12.43 14.53,2.8 1.89,-2.5 2.59,-3.8 4.49,-6.52 7.33,-10.53 8.95,-5.81 12.32,-4.42l2.43 -0.6c-1.18,-4.7 3.42,-6.74 -7.17,-6.74l-1.28 -2.14c-6,-0.3 -17.27,0.49 -20.55,-0.79 0.12,-5.51 1.64,-4.89 -0.18,-11.74 3.66,3.38 2.19,-4.51 2.56,5.51 0.27,7.4 -0.53,3.74 -1.83,5.34l4.24 0.01c-2.01,-2.36 -2.23,-5.65 -1.44,-9.01 1.36,-5.8 -2.41,1.7 0.91,-2.09 -4,0.02 -3.94,1.36 -4.58,0.41 -0.21,-0.31 -0.67,0.09 -1,0.11 -1.88,0.2 -3.21,1.1 -4.84,1.95 -3.17,1.64 -1.82,1.3 -4.41,1.82l-0.01 0.01z"></path>
   <path class="fil12" d="M275.87 22.51c-1.66,2.71 -6.86,4.78 -9.79,5.88 -1.1,1.75 -14.45,9.16 -18.31,10.62 -0.58,0.57 1.12,-0.46 -1.29,1.11 -0.56,0.36 -1.09,0.6 -1.71,0.97 -1.49,0.89 -2.09,1.35 -3.64,2.21l-11.74 7.08c-1.9,7.46 2.1,4.99 7.23,5.35 8.94,0.62 4.92,-1.37 10.3,2.77 3.2,-5.14 9.17,-2.29 12.84,-2.09 1,-1.7 5.02,-0.48 8.87,-1.04 -1.66,-3.84 -2.88,-6.97 0.12,-10.36 1.83,-2.93 2.51,-6.41 5.3,-9.4 2.22,-2.39 6.7,-5.73 10.23,-3.59 3.3,1.44 4.74,2.66 4.77,7.01l0.05 8.44 6.32 0.35c-0.37,-3.94 -0.9,-4.06 -0.78,-7.88l2.13 2.88 0 -31.05c-6.89,2.62 -14.94,9.66 -20.9,10.76l-0 -0z"></path>
   <path class="fil13" d="M187.2 67.17c-1.28,2.09 -18.41,11.41 -22.02,12.62 -1.77,2.29 -5.28,2.47 -6.62,4.57 -2.09,3.26 1.34,4.35 2.02,4.72l2.21 0.88 0.07 74.3c0,8.04 1.19,18.73 -2.19,23.35 3.74,3.3 3.46,1.4 4.05,7.1 6.66,-2.42 16.97,-9.39 23.44,-12.97 4.68,-2.59 19.11,-9.71 21.66,-13.34 -3.8,0.86 -2.23,-0.95 -6.74,-1.73l4.28 -7.99c-9.44,3.36 -35.66,21.63 -41.79,22.81l0 -76.85c0,-15.8 -1.97,-17.8 4.74,-20.28 3.52,-4.25 27.74,-14.71 29.73,-18.06 -0.15,-0.27 -0.41,-1.07 -0.48,-1.29 -0.07,-0.22 -0.29,-1.12 -0.37,-1.34 -0.86,-2.56 0.78,-0.63 -0.87,-1.68l-1.68 -0.7c-1.16,1.65 0.03,0.5 -1.94,2.24 -0.08,0.08 -1.96,1.31 -2.2,1.43 -1.91,1.01 -3.37,1.54 -5.3,2.23l-0 -0.01z"></path>
   <path class="fil14" d="M255.88 142.54c-3.44,2.55 -20.57,10.77 -21.91,13.44l0 33.95c6.12,0.78 11.08,-0.86 18.21,0.94l2.81 -1.16 -0.04 -32.77c0.11,-2.67 2.04,-10.15 -1.72,-6.47l6.27 -2.56c5.82,-2.64 11.18,-6.99 15.88,-10.91 3.13,-2.59 2.32,1.01 4.45,-3.95 -3.52,1.08 -4.35,0.84 -6.65,1.47l-1.31 -0.37 -15.99 8.38 0.01 0.01z"></path>
   <path class="fil15" d="M221.72 150.46c2.91,2.26 0.7,-0.19 2.11,2.78l-5.95 5.5c2.66,0.8 4.2,0.3 4.5,-0.83 0.07,-0.25 0.35,-0.26 0.54,-0.3 2.27,2.05 0.82,-0.21 1.07,3.32 2.78,-1.1 0.77,-0.46 3.21,-0.73 0.77,-1.2 -0.02,-1.11 1.13,-0.54l-0.33 37.12c-13.58,1.99 -19.89,-0.11 -20.62,6.07l20.59 -1.43c-0.45,6.84 -2.21,14 -1.26,20.76l2.86 0.05 0.95 -2.03 0.37 -3.25 0.01 -0.77 1.36 -14.4c8.76,0 17.2,3.32 25.96,2.62l-0.61 -3.27 -24.93 -4.34 -0.19 -31.62c-0.12,-8.77 -0.5,-7.13 1.49,-9.17 1.34,-2.67 18.47,-10.89 21.91,-13.44l1.94 -3.98c-0.4,0.08 -0.79,0.22 -1.17,0.35l-4.67 1.86c1.3,-0.3 1.18,-3.13 1.26,-3.35l2.08 -1.36c2.54,-0.92 -1.56,-2.09 3.16,-0.26 -0.18,-0.28 -0.49,-0.56 -0.65,-0.76 -3.31,-4.18 -0.5,-3.19 -0.93,-4.9l-35.18 20.32 -0 -0.01z"></path>
   <path class="fil16" d="M275.24 17.45l-1.39 4.62c1.36,1.07 -2.05,2.42 2.02,0.44 5.96,-1.1 14,-8.14 20.9,-10.76l0 31.05 -0.01 62.74c-1.69,2.89 -14.83,10.21 -17.9,10.62 -2.57,3.36 -4.69,2.6 -6.37,5 -0.55,3.01 -2.26,-0.68 1.81,2.97l5.86 4.21 0.89 -0.32 1.7 -0.22 22.12 -12.71c0.61,-9.25 -3.96,-5.76 -5.4,-10.48l-0.04 -89.03c0,-5.29 1.46,-6.4 1.13,-10.39 -0.16,-0.07 -0.38,-0.19 -0.48,-0.22 -0.11,-0.03 -0.42,-0.15 -0.56,-0.19l-3.43 -0.61c-2.95,4.36 -17.54,9.45 -20.87,13.26l0.01 0z"></path>
   <path class="fil17" d="M259.76 56.4c-1.37,3.3 -1.18,3.98 -0.51,8.26 6.91,0.1 6.19,0.84 7.74,2.34l-8.08 0.27c-7.79,-1.58 -7.85,0.07 -10.56,-1.7 -3.74,-0.57 -0.63,-1.25 -3.74,1.12l1.28 2.14c10.6,0 6,2.04 7.17,6.74l-2.43 0.6 0.67 4.48c-2.89,0.64 -2.84,1.97 -3.98,3.47 -5.48,7.21 -5.98,5.91 -15.44,7.04l-2.5 0.97c-0.84,1.39 0.34,-0.32 -1.81,1.31l-4.79 4.51c-0.39,0.34 -1.33,1.02 -2.1,1.63 -7.51,5.97 -6.82,1.18 -10.91,0.82 -3.49,1.56 -1.76,0.98 -2.73,2.79 4.83,2.76 5.93,3.41 13.17,3.05 0.89,-1.16 1.3,-1.61 2.44,-2.8l9.15 -8.14c1.34,-0.69 7.22,-1.49 8.94,-2 7.88,-2.32 3.11,-0.07 8.55,-4.35 3.24,2.74 1.36,1.79 7.16,2.05l0.42 4.42c1.37,-3.38 0.53,-3.4 0.86,-7.28l0.73 -4.05c1.08,-4.89 -0.67,-8.05 -0.53,-14.36l10.32 -0.77c-1.2,4.75 -0.43,4.03 -0.46,8.49 -0.01,3.6 -2.02,5.33 0.82,8.79 -0.31,-5.64 -0.11,-7.79 2.27,-12.07 2.05,-3.56 2.3,-4.21 5.61,-7.02 -1.91,-1.35 -4.41,-2.02 -4.37,-1.22l6.53 -0.89c-4.2,-4.46 -0.46,2.49 -7.55,-3.89 3.29,0.77 2.59,1.1 6.91,0.04 0.23,-0.06 0.62,0.01 0.79,-0.31 0.16,-0.33 0.52,-0.22 0.78,-0.33 -2.52,-1.54 -3.19,-0.37 -7.09,-0.51l-2.49 -3.49c-0.96,-2.8 -1.56,-7.17 -1.25,-11.59 -3,3.38 -1.78,6.52 -0.12,10.36 -3.85,0.56 -7.87,-0.67 -8.87,1.04l-0 -0.01z"></path>
   <path class="fil18" d="M258.22 204.39l1.75 2.05 -5.77 4.65c-8.11,5.4 -13.69,3.08 -23.31,5.09l-0.01 0.77c6.96,2.38 4.58,-1.32 5.8,1.47 14.32,-2.8 12.7,3.39 33.46,-6.47 0.67,-6.2 0.21,-8.6 -3.94,-10.96 -14.25,-8.09 -13.9,-3.12 -21.18,-5.92 -2.59,-0.99 -3.32,-1.06 -5.96,-1.64 -1.88,-0.41 -4.06,-0.29 -5.08,-1.66l0 -1.83 0 -33.95c-1.98,2.04 -1.62,0.4 -1.49,9.17l0.19 31.62 24.93 4.34 0.61 3.27 0 -0z"></path>
   <path class="fil19" d="M230.88 216.94l-0.37 3.25 3.47 -0.85c7.97,0.88 15.29,1.96 23.81,0.98 2.31,-0.27 7.2,-1.21 10.01,-1.92 0.26,-0.06 0.49,-0.13 0.73,-0.2l1.34 -0.49c4.13,-1.38 2.78,-0.83 8.22,-1.2 0.89,-3.18 2.94,-4.72 3.82,-8.24 -2.33,-3.82 -0.66,0.96 -3.78,-4.58 -0.1,-0.19 -0.19,-0.45 -0.29,-0.63 -2.24,-3.75 -10.35,-6.91 -14.83,-8.26 -9.64,-2.89 -18.51,-3.04 -29.03,-3.04 1.02,1.37 3.21,1.25 5.08,1.66 2.63,0.58 3.38,0.65 5.96,1.64 7.28,2.8 6.93,-2.18 21.18,5.92 4.14,2.35 4.61,4.76 3.94,10.96 -20.75,9.86 -19.13,3.67 -33.46,6.47 -1.22,-2.79 1.16,0.91 -5.8,-1.47l0 0z"></path>
   <path class="fil20" d="M289.85 129.02l8.33 1.36c7.57,0.83 8.62,-3.22 14.85,-3.33 1.43,-1.44 -1.31,0.13 2.29,-1.65 0.99,-0.49 2.21,-0.81 3.41,-1.15 2.41,-0.7 3.96,-1.09 6.43,-1.48l-1.29 -13.53 0.05 -4.61 -1.15 2.69c-2.15,5.33 -2.55,3.07 -2.97,4.99 -0.6,2.73 0.38,-1.94 0.39,1.5l-2.57 -0.62c-2.31,0.14 -4.67,2.21 -5.56,2.74l-22.21 13.09 -0 0z"></path>
   <path class="fil21" d="M230.89 216.18c9.62,-2.01 15.2,0.31 23.31,-5.09l5.77 -4.65 -1.75 -2.05c-8.76,0.7 -17.2,-2.61 -25.96,-2.62l-1.36 14.4 0 0z"></path>
   <path class="fil21" d="M207.38 202.84c3.26,7.66 10.34,11.01 17.74,13.32 0.65,5.01 -1.89,2.41 1.59,6.01 -0.95,-6.76 0.81,-13.93 1.26,-20.76l-20.59 1.43 -0 0z"></path>
   <path class="fil22" d="M207.37 158.67l-4.28 7.99c4.52,0.78 2.94,2.59 6.74,1.73 3.37,-0.23 4.41,-1.54 7.52,-3.34 2.44,-1.41 5.15,-2.97 6.64,-4.12 -0.24,-3.53 1.21,-1.27 -1.07,-3.32 -0.2,0.05 -0.48,0.06 -0.54,0.3 -0.3,1.14 -1.85,1.63 -4.5,0.83l5.95 -5.5c-1.41,-2.96 0.81,-0.51 -2.11,-2.78 -3.28,0.98 -12.92,6.26 -14.35,8.21l0 0z"></path>
   <path class="fil12" d="M273.71 75.84c-1.15,4.42 -2.3,6.36 -0.69,10.68 6.54,7.75 17.18,-9.61 10.41,-17.61 -5.2,0.35 -7.21,2.93 -9.72,6.92l0 0z"></path>
   <path class="fil23" d="M275.56 54.92c5.62,-1.4 7.59,-4.58 9.29,-9.12l0.49 -8.57 -1.92 -2.09c-4.83,-0.36 -6.16,1.75 -8.29,5.19 -3.03,4.91 -2.96,5.68 -2.57,12.29l3.01 2.31 -0 0z"></path>
   <path class="fil6" d="M283.43 68.91c6.77,7.99 -3.86,25.35 -10.41,17.61 -1.62,-4.31 -0.47,-6.26 0.69,-10.68 -1.41,-1.96 1.09,-0.9 -2.82,-1.63 -2.38,4.27 -2.58,6.43 -2.27,12.07 8.37,19.03 30.32,-10.6 16.27,-20.29l-1.27 -0 -0.19 2.94 0 -0z"></path>
   <path class="fil24" d="M233.71 40.82c-1.7,3.09 -2.92,3.49 -6.22,4.65 -2.78,0.27 -14.46,6.85 -16.46,8.97 -0.79,3.58 -0.78,-0.48 1.74,2.76 0.06,0.08 0.23,0.33 0.28,0.4 0.04,0.05 0.14,0.28 0.18,0.32 0.23,0.33 -1.38,0.5 0.27,0.3 2.59,-0.52 1.24,-0.19 4.41,-1.82 1.63,-0.85 2.97,-1.74 4.84,-1.95l2.69 -2.35c2.81,-1.72 1.05,-0.71 3.94,-1.74l11.74 -7.08c-0.19,-3.72 0,-3.8 -2.94,-4.84 -1.62,0.73 -2.86,1.61 -4.48,2.37l0 0z"></path>
   <path class="fil25" d="M256.9 130.15c0.43,1.71 -2.38,0.73 0.93,4.9 0.16,0.2 0.48,0.47 0.65,0.76 -4.72,-1.84 -0.62,-0.67 -3.16,0.26l-2.08 1.36c-0.08,0.22 0.03,3.05 -1.26,3.35l4.67 -1.86c0.39,-0.13 0.77,-0.27 1.17,-0.35l-1.94 3.98 15.99 -8.38c-1.59,-2.85 0.35,-0.1 -1.46,-1.7 -3.18,-2.83 -3.2,-0.95 -2.52,-5.92 4.47,-1.09 3.17,0.77 6.41,-2.41 -4.07,-3.65 -2.36,0.04 -1.81,-2.97l-15.59 8.98 0 -0z"></path>
   <path class="fil10" d="M209.77 100.43c4.09,0.35 3.4,5.14 10.91,-0.82 0.77,-0.62 1.72,-1.3 2.1,-1.63l4.79 -4.51c2.15,-1.63 0.98,0.08 1.81,-1.31 -3.08,-0.16 -3.48,-1.02 -5.06,-2.69 -2.91,-3.07 -5.5,-7.41 -10.71,2.1 -1.97,3.59 -3.35,5.43 -3.85,8.86l0 0z"></path>
   <path class="fil15" d="M246.11 33.75l-0.25 3.15 1.91 2.12c3.86,-1.46 17.21,-8.87 18.31,-10.62l1.03 -4.49c-1.04,-1.12 1.62,-2.32 -1.64,-0.47l-1.28 -0.81c-1.29,1.53 -1.88,2.36 -4.09,3.65 -1.8,1.05 -3.23,1.44 -4.92,2.32 -3.18,1.64 -6.32,3.56 -9.06,5.17l-0.01 0z"></path>
   <path class="fil10" d="M231.89 91.18c9.46,-1.13 9.95,0.17 15.44,-7.04 1.14,-1.5 1.08,-2.83 3.98,-3.47l-2.43 -3.09c-0.52,-0.62 -1,-1.13 -1.74,-1.79 -8.26,0.7 -6.48,8.49 -15.25,15.39l0 -0z"></path>
   <path class="fil26" d="M268.75 45.01c-0.3,4.42 0.3,8.78 1.25,11.59l5.5 0.08 0.04 -1.76 -3.01 -2.31c-0.39,-6.61 -0.46,-7.38 2.57,-12.29 2.12,-3.44 3.46,-5.55 8.29,-5.19l0.87 -3.13c-3.54,-2.13 -8.01,1.21 -10.23,3.59 -2.78,2.99 -3.47,6.48 -5.3,9.4l0.01 0z"></path>
   <path class="fil24" d="M198.32 61.96c1.65,1.05 0.01,-0.88 0.87,1.68 0.08,0.23 0.3,1.12 0.37,1.34 0.07,0.23 0.33,1.03 0.48,1.29 3.6,-1.27 11,-4.56 13.46,-8.04 -1.65,0.2 -0.04,0.02 -0.27,-0.3 -0.03,-0.04 -0.13,-0.27 -0.18,-0.32 -0.05,-0.07 -0.21,-0.32 -0.28,-0.4 -2.52,-3.24 -2.53,0.82 -1.74,-2.76 -3.15,0.97 -4.25,2.05 -7.15,3.49l-4.61 2.91c-0.12,0.1 -0.4,0.71 -0.48,0.54 -0.08,-0.17 -0.32,0.38 -0.48,0.57l0.01 0z"></path>
   <path class="fil27" d="M248.35 65.59l9.37 -0.61c-1.66,-1.39 -2.76,2.58 -2.57,-4.47 0.17,-6.2 -0.8,-1.63 2.47,-3.79 -4.46,0.57 -4.42,-1.06 -9.67,0.2 -1.18,2.66 -1.32,2.89 -0.57,5.64l0.98 3.02 -0 0z"></path>
   <path class="fil6" d="M275.56 54.92l-0.04 1.76c-0.57,1.22 -0.36,0.93 -0.97,1.67l6.15 -0.87c3.28,-2.71 5.75,-4.65 7.51,-10.3 -1.09,-2.11 1.71,-1.67 -3.37,-1.37 -1.7,4.54 -3.67,7.73 -9.29,9.12l0 0z"></path>
   <path class="fil15" d="M265.47 23.43c3.26,-1.85 0.6,-0.64 1.64,0.47l-1.03 4.49c2.93,-1.1 8.13,-3.17 9.79,-5.88 -4.07,1.98 -0.65,0.62 -2.02,-0.44l1.39 -4.62c-3.05,1.17 -7.82,3.05 -9.77,5.98l0 -0.01z"></path>
   <path class="fil28" d="M276.5 67.19c-3.32,2.8 -3.56,3.46 -5.61,7.02 3.91,0.73 1.41,-0.33 2.82,1.63 2.51,-4 4.53,-6.57 9.72,-6.92l0.19 -2.94 1.27 0 -3.09 -0.7 -5.29 1.91 -0 -0z"></path>
   <path class="fil16" d="M227.49 45.48c3.3,-1.17 4.52,-1.57 6.22,-4.65 -1.85,-0.28 -0.73,0.99 -1.1,-1.33l-0.5 -5.24 -4.03 -0.2 0.26 -0.07c-0.26,4.6 0.37,7.77 -0.85,11.48l0 0z"></path>
   <path class="fil24" d="M164.72 194.7c-0.6,-5.7 -0.32,-3.8 -4.05,-7.1l-2.42 0.86c-0.66,4.95 0.28,5.49 3.37,7.92l3.11 -1.68 -0.01 0z"></path>
   <path class="fil15" d="M238.19 38.45c2.94,1.05 2.75,1.12 2.94,4.84 1.54,-0.86 2.14,-1.32 3.64,-2.21 0.62,-0.37 1.16,-0.6 1.71,-0.97 2.41,-1.57 0.71,-0.54 1.29,-1.11l-1.91 -2.12 0.25 -3.15 -7.92 4.7 0 0.01z"></path>
   <path class="fil6" d="M284.84 45.8c5.08,-0.29 2.28,-0.74 3.37,1.37l0.9 0.29 -0.05 -8.44c-1.55,1.6 0.05,1.27 -1.62,0.37 -0.18,-0.09 -0.82,-0.82 -0.96,-0.95l-1.15 -1.21 -0.49 8.57 0 -0.01z"></path>
   <path class="fil6" d="M283.41 35.13l1.92 2.09 1.15 1.21c0.14,0.12 0.79,0.86 0.96,0.95 1.66,0.9 0.06,1.22 1.62,-0.37 -0.03,-4.35 -1.47,-5.57 -4.77,-7.01l-0.87 3.13 0 0z"></path>
   <path class="fil28" d="M176.56 117.83l0.01 0.94c2.5,-2.33 4.58,-5.19 6.51,-7.77 3.41,-4.57 7.23,-9.79 12.54,-8.27l3.05 0.2c2.04,-0.41 -1,0.46 2.25,-0.64l3.76 -2.32c0.08,-0.06 0.33,-0.22 0.5,-0.32 0.98,-1.17 -0.75,-0.09 2.73,-2.42 0.5,-1.55 1.88,-2.94 3.85,-5.29 5.21,-6.22 7.8,-5.86 10.71,-6.14 1.58,-0.16 1.97,-0.02 5.05,-1.5l2.5 -1.62c8.78,-7 6.99,-9.07 15.25,-13.46 0.73,-0.11 1.22,-0.16 1.74,-0.19l2.43 -0.04 -0.67 -1.37c-3.38,1.16 -4.99,0.17 -12.32,7.82 -1.89,1.97 -2.6,2.83 -4.49,4.72 -7.29,7.3 -8.56,3.07 -14.53,6.18 -9.83,6.17 -7.15,9.84 -17.43,15.78 -1.35,-0.07 -2.31,-0.21 -3.54,-0.42 -0.55,-0.09 -1,-0.23 -1.75,-0.22 -6.48,0.07 -12.7,9.71 -15.1,12.77l-3.05 3.57 0 -0z"></path>
   <path class="fil5" d="M178.43 113.53l0 2.49c2.5,-2.85 4.58,-7.64 6.51,-11.9 3.41,-7.55 7.23,-16.28 12.54,-5.32l3.05 4.53c2.04,1.61 -1,-0.1 2.25,1.26l3.76 -1.17c0.08,-0.03 0.33,-0.15 0.5,-0.2 0.97,-1.82 -0.75,-1.23 2.73,-2.79 0.5,-3.43 1.88,-5.27 3.85,-8.86 5.21,-9.51 7.8,-5.17 10.71,-2.1 1.58,1.67 1.97,2.53 5.06,2.69l2.5 -0.97c8.77,-6.9 6.99,-14.69 15.25,-15.39 0.73,0.66 1.22,1.17 1.74,1.79l2.43 3.09 -0.67 -4.48c-3.37,-1.38 -4.99,-6.1 -12.32,4.42 -1.89,2.72 -2.59,4.03 -4.49,6.52 -7.29,9.63 -8.56,-3.16 -14.53,-2.8 -9.83,3.34 -7.15,16.52 -17.43,18.63 -1.35,-1.96 -2.31,-3.58 -3.54,-5.74 -0.55,-0.97 -0.99,-1.9 -1.75,-2.86 -6.48,-8.3 -12.7,8.89 -15.1,13.79l-3.05 5.38 0 0.01z"></path>
   <path class="fil29" d="M252.81 114.42l0 0c0.1,0.18 0.04,0.41 -0.14,0.51l-72.2 41.27c-0.18,0.1 -0.4,0.04 -0.51,-0.14l-0 0c-0.1,-0.18 -0.04,-0.4 0.14,-0.51l72.2 -41.27c0.18,-0.1 0.41,-0.04 0.51,0.14z"></path>
   <path class="fil29" d="M252.56 121.62l0 0c0.1,0.18 0.04,0.41 -0.14,0.51l-72.2 41.27c-0.18,0.1 -0.4,0.04 -0.51,-0.14l-0 -0c-0.1,-0.18 -0.04,-0.4 0.14,-0.51l72.2 -41.27c0.18,-0.1 0.41,-0.04 0.51,0.14z"></path>
  </g>
  <path class="fil24" d="M297.89 139.86c6.89,0.51 13.65,-0.03 19.56,-2.5 1.62,0.73 2.39,-0.75 2.25,6.67 -0.05,2.72 -0.19,5.54 -0.24,8.3 -0.09,5.31 -0.22,10.59 -0.52,15.9 -0.16,5.17 -0.97,8.69 2.11,12.51l0.92 11.06 1.94 12.97c-0.34,2.19 -0.4,2.95 -0.14,5.41 0,0.03 0.46,2.39 0.48,2.47 0.66,2.16 -0.15,0.61 0.93,1.94l1.21 10c0.49,3.47 0.56,7.94 2.41,10.04l-0.36 5.75c2.29,-1.89 2.56,-2.17 5.8,-1.76 -3.33,1.21 -3.33,3.35 -2.78,7.97l2.75 0.25c-0.87,-3.23 0.27,-4.22 2.52,-6.26l0.07 -4.84 -2.32 -21.95 0.13 -12.2 2.43 4.71 4.13 22.54c0.07,0.14 0.25,0.42 0.39,0.62l0.27 8.95c0.16,0.21 0.35,0.29 0.4,0.69 0.05,0.39 0.3,0.52 0.37,0.7 0.07,0.18 0.23,0.51 0.31,0.73l0.91 4.35 1.48 2.28 0.9 2.99 3.28 1.03 0.17 -4.53c0.17,-0.17 0.42,-0.38 0.54,-0.47l2.62 -1.84c-2.78,-1.59 -2.16,-0.58 -4,-2.71l-0.88 -15.08 -0.29 -3.48 -0.38 -12.1 0.26 -3.45 0.1 -13.7 -1.39 -0.02 -0.28 -0.89c-0.45,-7.32 -1.54,-5.86 -1.7,-6.92 -0.04,-0.28 -0.25,-0.34 -0.31,-0.53l2.68 -5.87c2.05,-0.59 1.55,-0.02 2.95,-0.37 3.76,-0.95 1.59,0.58 3.09,-1.55 2.57,-3.21 1.52,-20.78 1.29,-26.24l-2.35 -15.5c-1.28,-6.57 -5.19,-8.09 -11.49,-10.35l-0.19 -0.12c-1.45,1.12 -0.8,0.01 -2.26,2.05l-3.11 11.59c-1.18,8.86 -2.9,16.44 -2.8,26.19l0.62 6.21 -2.12 0.06 -5.92 -2.09 -0.01 -4.19c0.44,-7.18 0.07,-13.61 0.76,-21.04 0.54,-5.77 3.06,-12.82 2.93,-16.86l1.51 -1.36c-0.9,-3.09 -0.47,-1.74 -4.39,-3.21 -2.46,0.39 -4.01,0.79 -6.43,1.48 -1.2,0.35 -2.42,0.66 -3.41,1.15 -3.59,1.78 -0.85,0.2 -2.29,1.65 -6.24,0.11 -7.28,4.16 -14.85,3.33l-8.33 -1.36 -7.1 -1.21 -1.7 0.22c-1.21,7.01 -1.77,6.71 5.18,8.73 2.46,0.72 11.29,2.97 11.66,3.1l0 -0.02z"></path>
  <path class="fil30" d="M325.16 122.77c3.92,1.46 3.49,0.12 4.39,3.21l1.38 2.69c2.48,-0.25 2.53,-0.41 4.27,-0.83l2.51 -0.35c1.46,-2.04 0.81,-0.94 2.26,-2.06l0.19 0.12 -1.8 -1.47c0.01,-4.79 0.06,-5.64 2.37,-8.5l0.53 -2.93c-1.7,0.49 -3.03,1.33 -4.76,2.18l-1.56 -5.63c-5.38,0.11 -5.61,1.21 -11.07,0.05l1.29 13.53 -0.01 -0z"></path>
  <path class="fil31" d="M328.04 127.34c0.13,4.04 -2.39,11.09 -2.93,16.86 -0.7,7.43 -0.33,13.86 -0.76,21.05l1.58 -0.07c-1.26,-5.84 0.97,-19.61 2.37,-25.93l1.98 -8.57c1.44,1.7 1.07,0.26 1.26,3.29 0,0.07 -0.58,3.85 -0.62,4.15 -0.37,2.81 -0.24,5.82 -0.32,8.7 -0.18,6.24 0.52,12.76 -0.64,18.86l0.33 5.86 2.12 -0.06 -0.61 -6.21c-0.1,-9.75 1.62,-17.33 2.8,-26.19l3.11 -11.58 -2.51 0.35c-1.73,0.42 -1.78,0.58 -4.27,0.83l-1.38 -2.69 -1.51 1.36 -0 -0.01z"></path>
  <path class="fil32" d="M323.92 104.63l-0.05 4.61c5.46,1.17 5.68,0.07 11.07,-0.05l1.56 5.63c1.73,-0.85 3.07,-1.69 4.76,-2.18l0.23 -8.02c-2.36,-3.5 -0.86,-2.59 -5.12,-4.46 -3.43,-0.66 -5.09,-0.71 -7.99,0.75 -2.6,1.3 -2.84,2.69 -4.47,3.71l0 0z"></path>
  <path class="fil33" d="M334.5 213.77l2.32 21.95 -0.07 4.84 0.47 -0.54 4.11 0.1 0.52 -1.75 -0.27 -8.95c-0.14,-0.2 -0.31,-0.47 -0.39,-0.62l-4.13 -22.54 -2.43 -4.71 -0.13 12.2 0 0z"></path>
  <path class="fil7" d="M325.92 165.19l1.51 1.66c2.22,-0.92 0.73,-0.34 2.52,-1.17 1.16,-6.1 0.47,-12.62 0.64,-18.86 0.08,-2.87 -0.05,-5.89 0.32,-8.7 0.04,-0.29 0.63,-4.08 0.62,-4.15 -0.19,-3.03 0.19,-1.59 -1.26,-3.29l-1.98 8.57c-1.41,6.32 -3.64,20.09 -2.37,25.93l0 0z"></path>
  <path class="fil34" d="M337.22 240.03c0.46,5.25 1.45,5.69 -2.99,6.79l-2.75 -0.25 -0.98 2.56c6.41,6.15 6.83,2.11 13.02,4.07l0.33 -8.35 -0.91 -4.35c-0.08,-0.23 -0.24,-0.55 -0.31,-0.73 -0.07,-0.19 -0.32,-0.31 -0.37,-0.71 -0.05,-0.4 -0.24,-0.48 -0.4,-0.69l-0.52 1.75 -4.11 -0.1 -0 -0z"></path>
  <path class="fil21" d="M327.75 249.49c-0.48,2.98 -0.56,2.05 0.05,5.27 0.06,0.32 0.53,1.89 0.63,2.16 0.81,2.05 0.47,1.13 1.06,1.99l0.39 -2.17c5.98,1.52 11.27,1.48 13.81,2.06l-0.18 -5.61c-6.19,-1.97 -6.61,2.07 -13.02,-4.07 -1.89,0.15 -0.48,-0.16 -2.75,0.36l0.01 0z"></path>
  <path class="fil30" d="M343.99 185.44c0.07,0.19 0.27,0.25 0.31,0.53 0.16,1.05 1.25,-0.4 1.7,6.91l0.28 0.89 1.39 0.02c6.35,-1.63 5.11,-6.4 4.55,-13.14l-5.53 -1.1 -2.68 5.87 -0.01 0.01z"></path>
  <path class="fil30" d="M271.87 134.17l1.31 0.37 0.15 -1.26 5.77 -0.02c0.17,-2.42 0.46,-3.25 1.06,-4.91l-5.86 -4.21c-3.23,3.18 -1.94,1.32 -6.41,2.41 -0.68,4.97 -0.66,3.09 2.52,5.92 1.8,1.61 -0.13,-1.15 1.46,1.7l-0 -0z"></path>
  <path class="fil35" d="M343.51 253.21l0.18 5.61c0.9,1.22 0.29,1.17 2.83,1.69 2.38,-3.25 -0.19,-2.47 2.97,-2.7l0.01 -6.64 -3.28 -1.03 -0.9 -2.99 -1.48 -2.28 -0.33 8.35 -0.01 -0z"></path>
  <path class="fil35" d="M328.45 240.37l-1.92 1.31 -0.78 1.65c0.25,3.05 0.2,3.9 1.99,6.16 2.27,-0.52 0.87,-0.21 2.75,-0.36l0.98 -2.56c-0.55,-4.62 -0.55,-6.75 2.78,-7.97 -3.24,-0.41 -3.51,-0.13 -5.8,1.76l0 0z"></path>
  <path class="fil36" d="M330.29 171.53l-0.33 -5.86c-1.8,0.83 -0.31,0.25 -2.52,1.17l-1.51 -1.66 -1.58 0.07 0.01 4.19 5.92 2.09 0 0z"></path>
  <path class="fil37" d="M334.23 246.82c4.45,-1.11 3.45,-1.54 2.99,-6.79l-0.47 0.54c-2.25,2.04 -3.4,3.03 -2.52,6.26l0 0z"></path>
  <g id="_1901246513168">
   <path class="fil38" d="M443.89 219.69l-181.97 99.54c-9.54,5.52 -9.19,20.79 3.95,28.53l64.26 39.92c14.81,9.2 28.02,9.83 40.39,2.41l171.82 -103.08c12.14,-7.64 11.65,-24.47 0.79,-30.71 -23.96,-14.08 -49.1,-21.07 -73.06,-35.15 -6.36,-3.93 -17.77,-5.8 -26.18,-1.45l-0 -0z"></path>
   <path class="fil8" d="M443.89 211.87l-180.02 106.11c-9.54,5.52 -11.13,14.22 2,21.96l64.26 39.92c14.81,9.2 28.02,9.83 40.39,2.41l171.82 -103.08c12.14,-7.64 10.46,-17.37 -0.4,-23.62 -23.96,-14.08 -47.92,-28.17 -71.87,-42.25 -6.36,-3.93 -17.77,-5.8 -26.18,-1.45l-0 0z"></path>
  </g>
  <path class="fil39" d="M502.8 227.91c-1.99,2.7 -4.12,4.71 -7.02,6.43 -0.61,2.42 -0.54,2.09 -3.11,2.37l-0.43 2.65 2.17 1.14 3.15 -0.48c0.98,-2.14 -1.15,-0.41 2.04,-2.74 1.32,-0.97 1.98,-0.93 3.22,-1.48 2.39,-1.84 2.09,-2.44 5.41,-2.75 1.25,-2.77 2.05,-5.47 4.3,-7.59 -0.02,4.02 -2,8.24 -3.43,14.93 3.28,1.13 2.45,0.77 3.6,2.79 -1.62,1.76 -1.59,2.41 -4.46,2.59 1.48,2.89 -0,2.36 3.26,3.58l2.47 -0.27c0.34,-1.81 2.62,-2.85 3.85,-2.95 2.18,-0.19 3,1.12 5.47,1.83 4.57,0.54 0.59,0.71 4.34,-1.1 2.26,-1.09 2.54,-0.99 5.53,-1.47 -2.94,-8.7 -3.76,-11.78 -0.17,-20.31 1.21,-2.86 2.65,-6.32 2.92,-9.34 0.46,-5.14 -1.21,-5.24 -4.15,-8.57l-7.99 1.16c-3.58,0.2 -1.52,0.34 -3.49,-0.9 -0.92,-0.59 -0.19,-0.24 -1.38,-1.27 -3.55,-3.07 1.87,0.29 -0.95,-0.73 -2.58,-0.39 -3.49,-0.16 -3.68,-2.87 -9.1,5.37 -5.1,20.86 -11.48,25.35l0 -0.01z"></path>
  <path class="fil6" d="M296.06 237.25c-3.01,3.9 -14.24,6.46 -17.42,12.05 -2,2.26 -1,1.35 -0.89,3.9 0.1,2.25 0.44,3.04 0.71,7.25 0.6,7.48 1.32,15.03 1.84,22.47 0.26,3.7 1.22,8.48 0.06,11.67 -1.65,4.52 -3.69,3.63 0.27,8.93 4.53,1.02 5.82,1.9 9.3,0 1.78,-0.97 4.98,-2.87 6.39,-4.08 -3.2,0.43 -0.75,0.51 -1.71,-1.31l1.55 -5.76 0.65 -0.5c-0.56,-1.33 -5.46,-3.54 -9.73,2.53 -2.23,3.16 -0.18,1.49 -2.95,2.77 -0.28,-0.47 -1.78,-1.21 0.15,-4.64 2.51,-4.44 7.78,-6.52 12.84,-4.55l-0.08 -2.65c0.73,-8.54 -2.28,-12.11 -1.97,-17.65 -0.15,-0.18 -0.33,-0.69 -0.37,-0.56l-1.14 -2.49c-0.73,-2.5 -1.87,-11.13 -0.83,-13.05 1.43,-4.78 6.06,-6.66 10.18,-8.42l2.14 -0.07c0.32,-3.98 0.87,-5.89 -1.18,-8.95l-7.84 3.09 0.01 -0z"></path>
  <path class="fil40" d="M516.04 290.04c0.48,4.08 1.53,6 2.04,8.77 9.24,3.81 -4.97,13.6 7.32,16.94 1.22,-5.86 1.23,-8.49 4.73,-11.8 3.07,-2.9 7.5,-3.81 9.57,-7.48l0.22 -2.36c0.76,-3.02 1.09,-4.39 0.01,-7.83 -0.77,-3.06 -2.45,-4.1 -2.99,-7.14 -0.61,-3.39 0.42,-5.94 -0.69,-9.78 -3.61,-12.49 -26.84,-6.86 -18.41,6.24 3.24,5.04 -1.31,8.24 -1.79,14.45l0 0z"></path>
  <path class="fil41" d="M531.78 207.18c2.94,3.33 4.6,3.42 4.15,8.57 -0.27,3.02 -1.71,6.48 -2.92,9.34 -3.59,8.52 -2.78,11.61 0.17,20.31 5.31,0.47 11.3,3.98 9.61,9.72 -4.61,-0.77 -1.61,-5.87 -9.59,-6.44l-0.34 5.19c2.74,2.24 10.19,7.34 13.51,7.33 4.84,-7.43 -1.43,-1.55 -0.34,-16.11 0.51,-6.81 0.98,-13.55 1.63,-20.37 0.55,-5.81 2.84,-14.66 -0.55,-18.86 -1.39,-1.72 -11.47,-7.24 -14.1,-8.09 0.52,2.95 -0.39,4.47 0.47,9.45l-1.71 -0.04 -0.01 0z"></path>
  <path class="fil41" d="M539.7 296.48c-2.07,3.67 -6.5,4.58 -9.57,7.48 -3.51,3.32 -3.51,5.94 -4.73,11.8l-2.69 14.28c-1.16,5.85 -1.11,13.3 -3.33,16.09l1.08 3.36c-0.06,0.48 0.05,1.13 0,1.46l-0.97 1.66c-3.29,-1.63 -0.94,1.91 -2.7,-3.35 -0.32,-0.96 -0.42,-2.55 -0.92,-3.93 -4.76,-0.94 -5.96,-3.06 -9.76,-3.31 -1.32,-1.65 0.38,-0.13 -1.96,-1.81 -0.03,-0.02 -2.16,-1.24 -2.3,-1.32 -1.66,-0.89 -3.1,-1.58 -4.36,-2.23 -3.79,-1.63 -1.65,-1.81 -6.25,-1.31 -1.75,2.61 -1.96,2.6 -1.95,6.83 1.43,1.29 3.7,2.86 4.69,4.85 3.2,0.16 22.3,11.13 23.56,13.81l2.68 0.86 4.02 1c-2.09,-0.79 -0.91,1.69 -1.77,-1.83 1.02,-2.98 1.89,-3.48 -1.23,-5.26 0.21,-1.63 0.18,-2.49 0.12,-2.92l0.2 -0.16c0.4,0.2 1.33,0.35 3.35,-0.38 -0.08,-9.17 2.75,-21.11 4.21,-29.22 1.57,-8.68 -0.05,-14.57 11.96,-19.22l13.51 -7.88c0.6,-0.38 0.91,-0.69 2.02,-1.25 -3.47,-9.03 -10.63,2.23 -16.94,1.92l0 0.01z"></path>
  <path class="fil42" d="M522.49 360.84c3.33,-0.9 16.49,-8.15 18.08,-10.41 3.82,-1.44 8.73,-4.14 12.18,-6.97 0.05,-8.86 -3.52,-0.25 -0.3,-24.54 1.08,-8.12 3.23,-16.32 4.18,-24.36 -1.1,0.56 -1.42,0.86 -2.02,1.25l-13.51 7.88c-12.02,4.66 -10.39,10.54 -11.96,19.22 -1.46,8.1 -4.3,20.05 -4.21,29.22 -5.52,2.02 -2.88,-2.66 -3.68,3.46 3.13,1.78 2.26,2.28 1.23,5.26l0 -0z"></path>
  <path class="fil6" d="M347.33 224.84l0.28 3.33 0.82 14.03 0 0 0 0 0.03 0.61 0.09 -0.01 0.51 2.46 0.19 2.14 -0 0 -0.16 4.34 -0.01 6.35c2.1,-1.04 1.6,-0.57 2.69,-2.62 0.85,-0.46 0.47,-0.22 1.35,-1.31 0.94,-1.16 0.88,-1.45 1.94,-2.48 4.07,-3.96 3.63,-0.31 5.54,-3.07l6.75 2.42c1.43,1.41 -2.23,1.4 2.84,0.95l4.28 2.22c2.24,-0.95 4.5,-2.54 6.65,-3.72 4.36,-2.4 4.16,-2.14 3.3,-8.29l-3.83 -0.34c0.07,-9.94 -1.13,-18.49 -1.5,-28.15 -0.78,-5.02 -0.91,-13.97 -5.06,-17.25 -3.9,-0.73 -16.55,7.09 -19.84,9.47 -2.75,1.59 -4.48,2.86 -6.97,4.02l-0.25 3.3 0.37 11.59 -0 0z"></path>
  <path class="fil43" d="M308.58 433.19c2.82,3.59 -0.65,-1.55 1.91,1.61 0.14,-0.19 0.36,-0.68 0.45,-0.52l8.94 -4.31c14.33,-5.69 10.42,-9.12 3.17,-14.92 -0.73,-0.58 -1.72,-1.18 -2.1,-1.49 -2.14,-1.69 -0.86,-0.31 -2.55,-3l-9.75 -1.91 -0.82 4.98c-4.37,1.77 -7.05,-3.93 -13.33,3.43 1.96,1.75 7.35,4.76 9.87,6.16 4.53,2.5 7.64,4.39 4.23,9.98l-0.01 0z"></path>
  <path class="fil25" d="M473.1 307.73c0.13,-0.13 0.21,-0.63 0.24,-0.49 0.02,0.12 0.18,-0.4 0.2,-0.46 1.32,-2.6 -1.18,0.29 0.45,-0.88 0.09,-0.07 1.88,0.06 2.37,-0.05 -0.04,-0.17 -0.23,-0.56 -0.21,-0.46l0.71 -1.9 1.73 -1.59 -6.82 -3.15 0.35 -2.7c4.38,-0.48 7.88,-0.45 10.31,2.29l3.92 0c2.75,-2.03 5.46,-1.33 9.41,-1.54l-4.46 -1.5c3.06,-2.05 3.67,-1.81 5.8,-4.71 -1.95,-1.45 -3.77,-2.55 -5.93,-4.14 -7.01,-5.18 -10.38,-0.54 -24.09,5.02 -4.23,0.1 -5.21,2.85 -9.89,3.58l-1.59 -6.21c-0.77,-5.11 -1.72,-8.41 -2.59,-13.17 0.91,-0.82 1.19,-1.01 2.31,-1.73 2.23,-1.43 1.24,-0.84 3.23,-1.8 0.96,-0.96 9.67,-6.49 11.61,-6.89l3 -3.12 0.14 -0.7c-3.84,2.01 -19.63,10.73 -21.83,12.91 -0.12,2.18 3.64,20.43 4.45,22.66 1.33,3.66 4.87,4.4 7.92,6.23 3.11,1.87 6.16,4.18 9.26,4.5l0 0z"></path>
  <path class="fil41" d="M417.3 378.99c1.23,0.83 0.71,0.47 1.75,1.37 6.79,5.81 16.9,9.55 24.92,14.81l0.12 3.02c0.73,1.18 0.96,1.56 1.56,3.07l1.98 -0.34c3.75,0.01 1.96,1.19 2,-2.91 0.03,-3.31 0.98,-4.96 -1.4,-8.22 0.2,2.98 1.12,1.15 -0.74,3.05 -2.13,-0.47 -0.51,1.6 -2.06,-1.94 -1.04,-2.36 -0.15,-5.11 -4.19,-11.51 -2.25,-3.57 -6.92,-9.12 -13.05,-9 -3.76,3.7 -8.47,3.24 -10.89,8.6l-0 -0z"></path>
  <path class="fil44" d="M307.73 405.98l0.91 2.67 9.75 1.91c1.69,2.69 0.41,1.31 2.55,3 0.38,0.3 1.37,0.9 2.1,1.49 7.25,5.8 11.16,9.23 -3.17,14.92l-8.94 4.31c-0.08,-0.16 -0.31,0.34 -0.45,0.52 -2.56,-3.15 0.91,1.98 -1.91,-1.61l0.15 -0.28c-0.27,0.22 -0.57,0.26 -0.81,0.69 -0.55,0.99 -2.93,0.93 -4.16,0.87 5.33,0.45 0.55,-0.25 2.66,1.59 7.07,1.37 29.54,-3.36 33.78,-9.49 0.34,-0.49 0.73,-1.26 1.34,-2.17 0.78,-1.16 0.71,-0.85 1.5,-2.07 -6.7,-13.03 -0.45,-3.74 -19.57,-13.01 -2.76,-1.34 -2.06,-1.05 -5.47,-1.5l-7.29 -1.36c-0.25,-0.05 -2.38,-0.34 -2.98,-0.47l0 0.01z"></path>
  <path class="fil41" d="M289.14 400.38l-0.95 1.59c-0.13,0.2 -0.37,0.85 -0.46,0.71 -0.09,-0.13 -0.32,0.44 -0.46,0.67 1.76,1.88 3.38,3.5 6.47,4.51l0.81 -0.92 -1.91 -0.13c3.63,-5.23 13.85,-9.59 21.09,-13.69 2.98,-1.69 4.06,-2.78 6.56,-4.56 -1.72,-4.51 -7.7,-7.26 -11.61,-8.84 -4.43,-0.03 -9.21,4.69 -11.54,8.09 -2.98,4.35 -3.92,11.56 -5.98,14.22 -3.61,0.22 -0.82,0.53 -2.03,-1.65l0 0z"></path>
  <path class="fil41" d="M455.75 347.71c-1.14,2.66 -0.47,1.29 -1.09,3.62 -0.84,3.18 0.27,1.28 -1.43,3.14l-0.98 10.69c-0.09,0.25 -0.23,0.55 -0.3,0.73 -0.07,0.18 -0.2,0.51 -0.28,0.73 -1.87,4.83 -1.25,4.35 -2.09,9.55 -0.67,4.15 -1.07,7.37 -1.33,11.35l-0.02 2.27c2.38,3.26 1.43,4.91 1.4,8.22 -0.04,4.1 1.75,2.92 -2,2.91l2 1.56c1.95,1.26 0.02,0.36 2.03,1.08l0.85 -0.84c-2.98,0.63 -0.62,0.35 -1.58,-0.58 0.13,-0.17 0.9,-1.6 0.95,-1.71 0.81,-2.77 -0.91,-5.08 1.13,-17.18 1.02,-6.06 2.03,-11.38 3.18,-17.34 4.96,-25.7 4.77,-14.97 16.26,-24.65 0.18,-0.16 0.43,-0.35 0.55,-0.45 9.79,-7.4 10.6,-7.84 10.49,-0.72 1.73,-2.95 1.94,-4.86 0.49,-8.08l-5.23 -0.18c-4.09,2.22 -8.82,5.17 -12.59,7.35 -4.35,2.51 -8.15,3.88 -10.4,8.54l-0.01 0z"></path>
  <path class="fil45" d="M516.36 181.49c-8.67,9.05 -1.45,2.95 -2.07,21.07 0.19,2.72 1.1,2.49 3.68,2.87 1.46,-3.46 -4.61,-0.86 -1.95,-13.19l6.52 -0.65c0.17,6.21 -0.19,12.11 1.26,16.74l7.99 -1.16 1.71 0.04c-0.86,-4.98 0.04,-6.5 -0.47,-9.45l0.08 -3.49c-2.08,-6.35 1.48,-6.3 -4.6,-11.04 -4.93,-3.84 -6.69,-1.61 -12.14,-1.76l-0 0.01z"></path>
  <path class="fil15" d="M348.35 321.28c2.92,1.25 1.18,0.47 3.48,1.92 0.77,0.48 1.59,1.08 2.71,1.68l-2.89 13.67 -1.47 6 -8.05 -3.33 -5.84 -3.95 -5.89 -2.17c-1.74,-0.29 -2.85,-0.61 -4.75,-1.51 -4.57,-2.15 -1.48,0.43 -3.27,-2.83l-5.54 2.65c-0.89,3.04 0.42,1.17 -2.9,3.69 -2.31,1.75 -2.31,0.91 -3.83,3.56 1.9,1.82 4.52,3.97 7.1,4.62 4.9,0.64 1.08,-0.9 4.61,2.4 -1.7,-4.64 0.39,-0.23 -1.25,-1.93 -1.43,-1.47 0.71,0.52 -1.02,-0.89l-1.13 -0.68c1.1,-8.49 -1.28,-6.03 2.04,-7.75 4.26,-2.2 5.89,-0.54 7.86,0.55 3.78,2.09 2.72,0.64 4.87,3.4l10.65 4.68c3.43,1.88 1.72,0.09 2.69,2.63l-13.19 6.02 -2.86 -1.56c0.17,4.25 0.63,4.2 -1.15,7.31 -0.08,0.13 -0.29,0.35 -0.39,0.56 2.47,0.29 18.25,-8.55 20.89,-10.73 2.79,-2.3 6.66,-21.96 6,-25.94l-14.29 -8.49 -0.19 1.97c0.33,0.14 5.89,3.47 7,4.45l-0 -0z"></path>
  <path class="fil46" d="M432.5 424.44l1.29 -0.5c7.16,1.8 14.13,3.22 21.6,3.33 0.09,0.18 0.18,0.29 0.2,0.57 0.03,0.38 0.29,0.92 0.34,1.09 0.19,0.75 -0.01,0.75 0.35,1.93 3.93,0.75 6.22,1.11 9.37,-0.59 1.18,-1 0.67,0.32 1.38,-2 1.46,-4.76 0.53,1.96 0.39,-4.19 -4.03,1.79 -2.2,4.01 -5.87,4.39 -1.28,-2.41 -1.73,-0.87 -2.15,-3.01 -0.65,-3.3 -0.14,-2.41 3.03,-3.32 -3.95,0.57 -1.55,0.7 -4.93,-2.01 -0.19,-0.16 -0.47,-0.23 -0.61,-0.65 -0.14,-0.42 -0.33,-0.54 -0.6,-0.67l1.44 2.66c0.98,3.11 0.02,2.55 -0.57,6.29 0.22,-1.67 -2.19,-3.67 -2.03,-9.56 1.7,-0.65 2.25,-0.39 4.34,-1.33l-8.46 -5.81c-5.01,-1.01 -7.07,1.88 -11.44,4.23 -7.75,4.16 -3.26,2.84 -7.05,9.14l-0.02 0.01z"></path>
  <path class="fil47" d="M314.89 253.42c0.74,1.79 5.57,24.64 4.04,28.04 -1.31,2.92 -1.09,1.81 -3.53,2.49 -1.33,-2.77 -2.52,-21.67 -2.01,-26.78 0.42,-4.23 0.02,-2.14 1.5,-3.75l-0 0zm-1.76 -6.7c2.27,2.45 2.62,2.01 0,4.29 -1.29,-1.68 -0.88,0.27 -1.1,-2.42 -0.26,-3.12 0.86,-1.58 1.1,-1.86l0 -0zm-6.34 -2.79l-0.74 1.22c3.62,11.16 6.01,23.37 6.59,35.73l0.02 1.83c0.56,0.12 2.2,1.49 3.3,2.38 2,1.62 2.22,1.56 3.95,2.81 2.62,2.04 5.15,2.89 8.37,1.85 1.86,-1.37 3.24,-2.05 5.38,-3.18 0.71,-0.37 2.58,-1.36 2.81,-1.56 2.34,-2.02 1.35,0.19 2.14,-3.17 -2.63,-0.02 -5.38,-2.43 -7.85,-3.77 0.38,2.9 0.97,1.47 -1.85,3.01 -2.33,1.27 -0.57,0.98 -3.58,-0.11 -0.98,3.24 -1.41,3.3 -4.83,4.38 -0.43,-6.01 -0.25,-11.96 -0.7,-17.96 -0.42,-5.52 -1.86,-11.25 -2.04,-16.37 -0.73,-0.99 -0.19,-0.04 -1.02,-1.74 -0.51,-1.05 -0.43,-0.95 -0.77,-1.86 -0.49,-1.32 -0.81,-2.45 -1.05,-4.2 -0.13,0.17 -0.28,0.41 -0.36,0.52 -0.08,0.1 -0.29,0.38 -0.39,0.5l-1.93 1.87c-2.96,-0.5 -3.44,-0.57 -5.46,-2.15l-0 -0.01z"></path>
  <path class="fil48" d="M506.66 377.77l-0.49 4c1.95,0.11 4.76,0.6 6.1,1.02l4.6 1.78c7.77,0 3.77,-0.72 5.25,2.84 6.6,-0.78 8.01,-0.58 12.81,1.74l-3.13 -4.58c3.65,0.81 2.83,0.87 6.14,0.18 0.33,0.77 -0.95,1.43 -0.88,0.94 2.84,-0.43 1.3,0.49 3.06,-2.51 -10.02,0.77 -3.68,-3.06 -8.13,-6.69 -2.86,-2.33 -7.08,-2.67 -9.86,-6.36 -5.19,0.53 -11.11,5.35 -15.46,7.64l-0 -0z"></path>
  <path class="fil15" d="M317.78 251c0.19,5.11 1.62,10.84 2.04,16.37 0.46,6 0.27,11.94 0.7,17.96 3.41,-1.08 3.84,-1.14 4.83,-4.38l-0.23 -5.64 5.66 2.74c2.48,1.34 5.22,3.76 7.85,3.77 2.26,4.09 0.85,3.06 4.32,3.04l-0.19 -3.92c3.53,-1.79 6.85,-0.1 7.9,1.76 1.42,0 1.12,0.37 1.13,-0.88l0.36 0.12c-0.03,0.27 -0.22,-0.71 -0.36,-1.06 -2.03,-2.81 -3.93,-1.46 -6.48,-2.36 -2.27,-0.81 -4.65,-3.08 -6.13,-4.46 -2.53,-1.72 -4.4,-3.56 -6.86,-4.06 -1.02,-2.7 -2.51,-7.24 -2.38,-10.83 -0.56,-0.82 -0.24,0.06 -1.01,-1.9 -0.1,-0.26 -0.55,-1.77 -0.61,-2.07 -0.58,-3.08 -0.51,-2.2 -0.04,-5.05 -1.72,-2.17 -1.67,-2.98 -1.91,-5.9l0.75 -1.58c-3.05,-0.13 -0.54,0.69 -3.3,-1.58 -2.49,-1.73 -2.36,-1.79 -5.68,-1.63 -1.81,0.82 -3.53,0.78 -3.93,2.65l0.73 1.09c0.25,1.75 0.56,2.88 1.05,4.2 0.34,0.91 0.27,0.81 0.77,1.86 0.83,1.7 0.29,0.75 1.02,1.74l-0.01 0z"></path>
  <path class="fil49" d="M284.22 363.69l1.21 10.68c4.44,-0.67 5.08,-2.63 9.9,-1.91 3.91,0.58 5.03,2.85 8.15,3.4 3.11,1.6 6.91,-1.46 8.43,-3.42 -7.31,-4.08 -14.31,-8.55 -22.74,-13.14 -4.35,-1.08 -5.23,0.08 -4.96,4.38l0.01 0.01z"></path>
  <path class="fil43" d="M283.72 423.13l3.93 5.34c-3.91,2.24 -1.7,-1.41 -4.41,0 0.72,3.09 -0.66,1.09 2.58,2.21l2.56 0.61c0.17,-0.24 0.55,0.16 0.81,0.28 -3.46,0.09 -3.54,-0.14 -6.61,-0.7 -2.59,-0.47 -2.58,0.7 -5.13,0.51l1.45 1.31c4.56,0.96 17.61,3.67 22.47,3.15l2.99 -0.08c0.22,0.03 1.78,0.28 2.07,0.29 -2.1,-1.84 2.67,-1.15 -2.66,-1.59 1.23,0.06 3.61,0.12 4.16,-0.87 0.24,-0.43 0.53,-0.46 0.81,-0.69l-4.28 -0.21c-3.1,-7.15 1.31,-3.97 -6.53,-8.34 -3.99,-2.23 -5.64,-4.15 -10.26,-4.54l-3.59 2.95c-0.05,-0.13 -0.24,0.24 -0.35,0.36l0 0z"></path>
  <path class="fil50" d="M514.09 306.35l0.75 5.33 -0.89 17.96 8.76 0.4 2.69 -14.28c-12.29,-3.33 1.93,-13.13 -7.32,-16.94 -0.11,1.89 -1.54,-0.07 -4.57,1.45 -0.1,0.71 -0.34,2.9 -0.3,3.41 0.17,2.1 -0.13,0.73 0.88,2.67l0 0z"></path>
  <path class="fil51" d="M407.97 299.21l3.6 -1.14c3.27,-1.69 4.48,-3.44 8.71,-4.77l2.7 13.59 1.32 3.05c0.18,0.95 0.32,1.63 0.22,2.51 -0.33,2.87 0.41,1.05 -0.9,1.41 -0.89,1.11 -0.28,0.49 -1.49,1.49 -0.2,0.17 -0.86,0.62 -1.08,0.78 -0.72,0.5 -2.12,1.32 -2.73,1.7 -2.05,1.25 -3.28,1.8 -5.8,2.69 -0.68,0.65 -0.81,0.7 -1.49,1.34 -0.23,0.21 -0.6,1.8 -1.03,1.02 -0.09,-0.16 -0.35,0.35 -0.53,0.54 -1.08,0.47 -2.07,0.94 -2.91,1.38l-8.15 3.57 -1.77 -6.12 -0.88 -7.39 -1.43 -5.58c0.01,-0.14 0.2,-0.3 0.22,-0.62 0.02,-0.32 0.17,-0.41 0.27,-0.61l4.57 -2.88c2.05,-1.75 6.38,-3.23 8.59,-5.92l-0.01 -0.02zm27.85 33.24l0.68 1.35c4,-1.34 9.8,-4.39 12.04,-7.19 -1.84,-3.27 -17.96,-10.71 -22.37,-12.83l-4.86 -22.6c-3.33,0.67 -4.83,1.91 -7.5,3.47l-4.96 3.19c-0.12,0.1 -0.41,0.67 -0.5,0.51 -0.09,-0.16 -0.34,0.35 -0.5,0.54 -2.75,0.39 -13.22,6.71 -15.38,8.48 0,2.41 3.89,21.87 4.92,23.82 1.08,2.05 15.12,9.62 17.49,10.01l11.96 -7.77c0.67,0.69 0.81,1.61 3.3,1.01 3.2,-0.76 2.39,-1.9 5.68,-1.99l0.01 0z"></path>
  <path class="fil52" d="M428.72 403.03l2.87 2.21c3.26,-1 3.24,-2.37 6.13,-1.24 1.41,0.55 4.7,2.72 5.92,3.6 -7.95,7.77 -16.97,4.25 -15.48,15.6l4.33 1.24c3.8,-6.31 -0.69,-4.98 7.05,-9.14 4.37,-2.35 6.43,-5.24 11.44,-4.23 -2.01,-2.55 -1.15,-1.99 -3.5,-2.96l4.17 -4.57c-2.01,-0.71 -0.08,0.18 -2.03,-1.08l-2 -1.56 -1.98 0.34c0.15,3.71 0.25,0.94 -0.8,1.73 -3.13,-2.07 -10.24,-6.51 -13.98,-6.78l-2.15 6.83 -0 -0z"></path>
  <path class="fil28" d="M506.61 293.13l-10.83 3.68c-3.95,0.22 -6.66,-0.49 -9.41,1.54l0.58 4.03 4.58 0.69c8.89,0.17 18.18,-1.9 20.42,-0.57l2.14 3.84c-1,-1.94 -0.71,-0.57 -0.88,-2.67 -0.04,-0.52 0.19,-2.71 0.3,-3.41 3.03,-1.52 4.46,0.44 4.57,-1.45 -0.51,-2.78 -1.56,-4.69 -2.04,-8.77 -3.44,0.51 -6.98,1.75 -9.44,3.09l-0.01 0z"></path>
  <path class="fil48" d="M540.33 382.34c0.26,-0.13 0.56,-0.75 0.65,-0.57 0.08,0.18 0.48,-0.43 0.59,-0.56 3.25,-3.86 -2.03,-0.31 2.06,-2.07 4.2,-1.81 3.13,-4.6 7.53,-5.94 -2.8,-6.02 -4.24,-9.13 -8.75,-7.49 -0.25,0.09 -1.22,0.68 -1.44,0.88 1.09,-4.15 2.14,-1.01 -0.66,-3.71 -7.06,2.97 -1.06,-4.83 -15.26,4.65 12.97,7.37 15.33,7.06 15.27,14.8l0.01 0.01z"></path>
  <path class="fil53" d="M329.93 259.19c-0.13,3.58 1.36,8.13 2.38,10.83 2.46,0.5 4.32,2.33 6.86,4.06 4.67,-0.87 9.97,-5.73 13.17,-6.3 -6.31,-0.27 -0.94,0.27 -3.2,-1.69l-2.9 -5.38c-2.42,-0.49 -1.84,-0.45 -2.71,-1.62 -2.43,-0.56 -7.51,-0.52 -13.23,-1.97l-0.37 2.07 -0 0z"></path>
  <path class="fil46" d="M461.02 412.1l3.27 2.22c2.13,1.32 4.4,3.44 4.07,6.28 -0.33,2.78 -0.51,1.95 -2.25,2.4l-2.75 1.1c-1.71,-2.34 -0.28,-0.45 -1.19,-2.79l-0.38 -3.53 -2.33 -0.88c-2.08,0.94 -2.63,0.68 -4.34,1.33 -0.16,5.89 2.25,7.88 2.03,9.56 0.59,-3.75 1.55,-3.18 0.57,-6.29l-1.44 -2.66c0.27,0.14 0.46,0.25 0.6,0.67 0.14,0.42 0.41,0.5 0.61,0.65 3.38,2.7 0.98,2.58 4.93,2.01 -3.16,0.91 -3.68,0.03 -3.03,3.32 0.42,2.14 0.88,0.6 2.15,3.01 3.67,-0.38 1.84,-2.6 5.87,-4.39 0.14,6.15 1.07,-0.57 -0.39,4.19 -0.71,2.32 -0.19,0.99 -1.38,2 0.26,-0.35 1.11,-1.7 1.24,-1.84 1.52,-1.72 0.35,-2.3 1.36,-0.74 0.94,-1.6 0.15,0.19 0.53,-2.3 0.4,-2.6 -0.13,-1.75 3.71,-6.98 0.89,-1.21 0.06,0.24 1.02,-1.54l0.59 -1.32 -4.43 -5.87c-0.39,-4.23 -2.35,-2.88 -1.54,-5.93l-4.65 -0.28c-1.25,4.27 0.67,7.66 -2.44,8.63l0.01 -0.02z"></path>
  <path class="fil54" d="M478.55 236.34c-2.08,-2.4 -5.54,-3.95 -8.24,-5.46 -2.67,-1.49 -5.54,-3.46 -8.47,-4.23 0.36,4.43 2.47,21.2 5.6,23.77 1.19,0.98 4.95,2.86 6.5,3.45l5.5 3.06c-1.82,2.45 -3.6,3.08 -6.12,4.49l-0.14 0.7c4.99,-0.96 0.98,-2.01 7.01,-1.76 0.01,-3.97 -0.74,-0.9 1.53,-2.06 1.56,1.86 5.91,3.73 8.54,5.32 6.97,4.23 4.94,4.42 19.3,-4.04 4.58,-2.7 7.85,-3.52 9.41,-6.75 -1.41,-1.43 -0.74,-0.81 -2.62,-2.16 -1,-0.72 -1.44,-0.86 -2.37,-1.59l-2.47 0.27c-1.12,2.73 -1.12,1.96 -3.35,4.26 -0.05,0.05 -0.25,0.47 -0.28,0.35 -0.03,-0.11 -0.18,0.23 -0.26,0.35 -0.54,3.07 -0.03,1.94 -2.98,3.19 -10.91,4.62 0.19,3.25 -10.61,3.97 0,-6.85 0.91,-7.76 0.02,-13.47 0.34,0.09 0.69,0.22 0.99,0.33l6.01 2.29 1.63 4.11 -0.25 -3.09c2.15,-1.25 3.8,-3.49 4.89,-6.01l-9.75 -5.62 -3.15 0.48 -1.2 3.67c-2.13,-0.63 -3.08,-1.31 -4.83,-2.99 0.42,-2.23 1.84,-1.7 3.86,-1.82l0.43 -2.65c-5.03,-1.72 -2.5,-2.32 -7.77,0 -4.58,2.03 -2.12,0.15 -6.36,-0.37l-0.01 0.01z"></path>
  <path class="fil52" d="M292.22 412.07c-3.7,-0.91 -1.85,-0.93 -5.6,0.11l-1.58 0.23 4.44 1.89c2.26,1.25 2.79,3.74 2.94,3.54 0.12,-0.17 0.34,0.65 0.51,0.97 -4.24,-1.53 -3.11,-0.75 -5.26,1.01 4.63,0.39 6.27,2.32 10.26,4.54 7.83,4.37 3.42,1.19 6.53,8.34l4.28 0.21 -0.15 0.28c3.41,-5.59 0.3,-7.49 -4.23,-9.98 -2.53,-1.39 -7.91,-4.4 -9.87,-6.16 6.29,-7.35 8.96,-1.66 13.33,-3.43l0.82 -4.98 -0.91 -2.67c-4.88,-1.47 -10.18,4.86 -15.51,6.08l0 0z"></path>
  <path class="fil55" d="M500.81 363.12c0.89,0.55 1.68,0.79 2.87,1.7 3.98,-1.19 2.97,-2.41 5.96,-1.17 1.62,0.67 4.64,2.77 5.97,3.65 -8.17,6.55 -14.96,5.71 -15.96,13.16 1.73,-0.2 2.6,-0.06 4.28,-0.73 2.37,-0.94 0.16,0.19 2.72,-1.97 4.35,-2.3 10.27,-7.12 15.46,-7.64 4.52,-1.17 -0.6,-3.1 -1.88,-8.45l-2.68 -0.86c0.31,3.68 0.29,0.95 -0.7,1.89 -3.71,-1.78 -10.12,-6.24 -13.88,-6.85 -1.73,2.42 -1.69,3.84 -2.16,7.25l0 0.01z"></path>
  <path class="fil56" d="M540.32 362.88c2.8,2.69 1.74,-0.44 0.66,3.71 0.22,-0.2 1.18,-0.79 1.44,-0.88 4.5,-1.64 5.94,1.47 8.75,7.49 -4.39,1.33 -3.33,4.13 -7.53,5.94 -4.09,1.76 1.19,-1.79 -2.06,2.07 -0.11,0.13 -0.5,0.73 -0.59,0.56 -0.09,-0.19 -0.4,0.44 -0.65,0.57l-0.21 0.84c2.24,2.35 2.78,0.21 1.54,2.77l3.37 -3.9c1.86,-1.23 4.53,-0.98 6.77,-2.02 3.96,-1.86 -0.92,-0.76 5.07,-3.73 8.47,-4.2 1.22,-8.34 -2.76,-12.24 -2.48,-2.43 -8.08,-4.05 -11.09,-2.51 -1.71,-4.75 -0.01,-1.53 -2.34,-3.31l-0.36 4.65 -0 -0z"></path>
  <path class="fil52" d="M524.26 362.67l-4.02 -1c1.28,5.36 6.4,7.28 1.88,8.45 2.79,3.7 7,4.03 9.86,6.36 4.45,3.63 -1.88,7.46 8.13,6.69l0.21 -0.84c0.07,-7.75 -2.3,-7.43 -15.27,-14.8 14.2,-9.48 8.21,-1.68 15.26,-4.65l0.36 -4.65 -0.98 -3.09c-4.71,0.51 -12.03,5.04 -15.44,7.54z"></path>
  <path class="fil56" d="M428.17 423.2c-1.49,-11.35 7.53,-7.83 15.48,-15.6 -1.23,-0.89 -4.52,-3.06 -5.92,-3.6 -2.89,-1.13 -2.87,0.24 -6.13,1.24l-2.87 -2.21 -2.31 2.32c-0.08,0.06 -0.29,0.2 -0.37,0.27 -0.09,0.07 -0.31,0.22 -0.4,0.3 -10.86,8.63 -1.16,12.42 0.34,14.01l2.2 3.27 -0.01 0z"></path>
  <path class="fil15" d="M483.96 354.98l-0.42 13.47c1.63,-0.36 1.53,-0.66 3.21,-0.47 6.35,0.7 1.38,0.08 3.68,1.66l-0.42 -0.63c1.31,-2.72 -0.75,-1.16 1,-0.25l0.07 5.24c1.9,-2.6 0.46,-6.81 1.53,-13.52 0.71,-4.49 1.47,-8.92 1.38,-13.46 -0.28,0.07 -0.96,0.42 -1.13,0.46 -3.73,0.83 1.67,1.16 -2.05,-0.34 -1.4,-0.56 -0.32,-3.71 -2.4,1.16 -1.41,-4.04 0.05,-2.05 -2.98,-0.75 -0.69,-4.68 0.86,-1.66 -2.02,-2.44l0.55 9.88 -0 -0.01z"></path>
  <path class="fil51" d="M502.08 320.39l0.16 0.06 1.33 3.52c-2.05,0.91 -0.2,-0.15 -1.37,1.9l6.06 3.81 1.5 -0.42c2.29,-0.27 0.54,1.43 2.11,-1.29 0.1,-0.17 0.42,-0.98 0.6,-1.21 0,6.51 -0.27,0.75 1.47,2.87l0.89 -17.96c-3.78,-0.27 -7.16,-2.52 -9.78,0.39 -2.26,2.51 -0.16,5.65 -2.97,8.32l0 -0.01z"></path>
  <path class="fil41" d="M434.42 366.84c0.69,3.8 2.61,2.32 7.95,8.76 4.03,4.87 3.54,7.19 5.88,11.92 0.27,-3.98 0.66,-7.2 1.33,-11.35 0.84,-5.2 0.22,-4.72 2.09,-9.55 0.08,-0.22 0.21,-0.54 0.28,-0.73 0.07,-0.18 0.2,-0.48 0.3,-0.73 -3.55,-0.64 -5.69,-2.61 -9.97,-1.95 -3,0.46 -5.37,2.59 -7.86,3.62l0 0z"></path>
  <path class="fil48" d="M500.81 363.12c-1.08,3.98 -5.39,1.39 -6.45,7.94 -0.88,5.46 4.06,3 4.06,10.86 0,1.52 -0.27,0.88 1.78,0.88l-0.55 -2.34c1,-7.45 7.79,-6.62 15.96,-13.16 -1.33,-0.88 -4.34,-2.97 -5.97,-3.65 -2.99,-1.24 -1.98,-0.01 -5.96,1.17 -1.19,-0.91 -1.98,-1.15 -2.87,-1.7l0 0z"></path>
  <path class="fil54" d="M363.33 296.48c6.08,-0.6 7.35,-3.88 8.53,-10.32 0.97,-5.3 2.26,-10.68 2.8,-16.02 -5.14,1.51 -8.31,4.6 -12.99,6.86l-3.25 1.92c-3.09,1.78 -2.49,2.5 -6.64,1.97 0.14,0.35 0.33,1.33 0.36,1.06l-0.36 -0.12c-0,1.25 0.29,0.88 -1.13,0.88l-0.23 1.2 -3.03 1.66 -3.08 1.6c-0.45,3.29 -0.77,10.42 -2.89,12.23l-1.06 6.25 -5.42 -2.6c-2.27,-1.53 -3.13,-2.25 -4.5,-3.92 -3.62,0.94 -3.82,0.99 -6.75,-0.6 -0.23,-0.12 -2.11,-1.44 -2.6,-1.84 -1.43,-1.15 -0.98,-0.79 -2,-1.83 -1.49,1.11 -0.91,0.34 -1.66,1.91 1.81,2.74 13.32,8.59 16.71,10.62 3.38,2.02 5.06,3.87 9.51,1.51 2.69,-1.43 6.13,-3.13 7.88,-5.54 2.86,-0.3 2.75,-0.67 5.45,-2.24 1.91,-1.11 3.45,-2.04 4.89,-2.77 2.44,-1.31 0.62,-0.03 1.47,-1.85l0 -0z"></path>
  <path class="fil41" d="M285.43 374.37c1.92,3.91 2.32,7.95 3.1,13.2l0.61 12.8c2.22,-1.4 6.86,-16.55 8.98,-18.49 1.51,-1.38 2.03,-1.45 3,-2.24 3.08,-2.51 1.77,0.66 2.37,-3.78 -3.12,-0.55 -4.25,-2.82 -8.15,-3.4 -4.83,-0.72 -5.46,1.24 -9.9,1.91l0 0z"></path>
  <path class="fil57" d="M307.44 231.39c-3.32,-0.89 -1.92,-0.79 -5.08,-1.76l1.54 4.52c2.05,3.06 1.5,4.97 1.17,8.95l0.97 2.04 0.74 -1.21c3.29,0.36 1.96,-1.26 0.38,-4.01 2.71,0.26 1.46,-0.54 2.86,2.03l4.16 0.16c0.39,-1.87 2.12,-1.83 3.93,-2.65l1.08 -14.71c-3.79,1.07 -1.55,1.07 -5.43,1.94l-4.38 -0.39 -1.96 5.1 0 -0.01z"></path>
  <path class="fil51" d="M483.96 330.45l0.01 1.55c1.45,3.22 1.25,5.12 -0.49,8.08l-0.07 5.01c2.88,0.78 1.33,-2.24 2.02,2.44 3.03,-1.3 1.57,-3.29 2.98,0.75 2.07,-4.86 0.99,-1.72 2.4,-1.16 3.73,1.5 -1.67,1.17 2.05,0.34 0.18,-0.04 0.85,-0.4 1.13,-0.46 -1,-1.99 -3.26,-3.56 -4.69,-4.85 -0.01,-4.22 0.2,-4.22 1.95,-6.83 4.6,-0.5 2.46,-0.32 6.25,1.31 2.93,-2.76 2.69,-0.27 5.21,-4.3 0.66,-1.05 -1.7,-0.49 0.94,-0.94 -1.81,-2.52 -1.31,-2.15 -4.57,-2.61 -1.16,1.47 1.12,-0.06 -5.43,1.66l-3.49 0.63c-0.19,0.04 -0.44,0.13 -0.63,0.17 -3.97,0.85 -2.88,0.5 -5.57,-0.79l0 0.01z"></path>
  <path class="fil54" d="M481.46 268.55l2.46 12.81 -3.17 1.01c-0.31,0.48 -0.02,0.44 -1.57,1.39 -1.17,0.72 -0.5,0.21 -1.95,0.83l-4.92 2.43c-2.13,2.18 -2.94,1.67 -5.22,4.45 13.71,-5.55 17.08,-10.19 24.1,-5.02 2.16,1.6 3.98,2.69 5.93,4.15 -2.13,2.89 -2.75,2.65 -5.8,4.71l4.46 1.5 10.83 -3.68c-1.68,-3.29 -15.51,-9.22 -18.95,-11.11 -3.47,-1.9 -2.2,-0.04 -3.32,-4.62 -1.15,-4.7 -2.31,-13.51 -4.13,-17.03 -0.01,2.99 0.65,5.99 1.27,8.17l-0.01 0.01z"></path>
  <path class="fil58" d="M483.96 330.45c2.68,1.29 1.6,1.65 5.57,0.79 0.2,-0.04 0.45,-0.13 0.63,-0.17l3.49 -0.63c6.55,-1.72 4.28,-0.19 5.43,-1.66 -2.91,-4.28 -7.17,-2.68 -8.55,-7.45 3.23,-1.65 8.2,2.87 11.65,4.54 1.17,-2.05 -0.68,-0.99 1.37,-1.9l-1.33 -3.52 -4.73 -1.35 -10.47 -0.36c-1.41,2.96 -1.75,1.14 -2.71,4.47 -0.59,2.05 -0.33,4.97 -0.38,7.24l0.01 0z"></path>
  <path class="fil43" d="M269.23 412.97c1.37,3.56 1.07,0.64 -0.22,2.94l-5.81 5.64c3.74,1.11 2.59,1.67 5.22,3.62l1.95 1.19 1.08 -1.63 4.09 -1.89 8.86 -6.12 -6.42 -4.17 -2.61 -0.59c-1.8,1.78 -3.1,2.93 -6.14,1.01l-0 0z"></path>
  <path class="fil5" d="M499.1 328.79c3.26,0.46 2.75,0.09 4.57,2.61 4.89,0.7 10.59,8.14 12.21,13.91 0.5,1.38 0.6,2.96 0.92,3.93 1.76,5.27 -0.59,1.72 2.7,3.35l0.97 -1.66c0.04,-0.33 -0.07,-0.98 -0,-1.46l-1.08 -3.36c-1.54,-7.35 -6.73,-13.47 -11.11,-16.43l-6.06 -3.81c-3.45,-1.67 -8.42,-6.18 -11.65,-4.54 1.37,4.77 5.63,3.17 8.55,7.45l-0 0z"></path>
  <path class="fil59" d="M311.93 372.45c-1.52,1.96 -5.33,5.01 -8.43,3.42 -0.6,4.44 0.72,1.27 -2.37,3.78 -0.97,0.79 -1.49,0.86 -3,2.24 -2.13,1.95 -3.01,4.02 -5.24,5.42 0.98,1.78 -1.18,0.98 1.15,1.55 -2.55,-0.21 -1.28,0.35 -2.22,3.14 -0.74,2.22 -1.41,4.38 -2.34,6.04l-0.34 2.34c1.21,2.17 -1.58,1.87 2.03,1.65 2.06,-2.65 2.99,-9.86 5.98,-14.22 2.32,-3.4 7.1,-8.13 11.54,-8.09 1.22,-2.87 -0.61,-1.26 3.25,-3.45 2.45,-1.39 1.7,-1.3 4.52,-1.08 0.76,-2.06 0,-1.03 1.49,-2.53 1.38,-1.39 0.78,-1.08 2.8,-1.43l-2.82 -1.55c-1.2,0.95 -3.44,2.17 -6,2.77l-0 -0.01z"></path>
  <path class="fil59" d="M417.39 364.16c4.37,-0.27 3.86,0.24 7.06,2.16 0.52,0.31 2.62,1.46 2.78,1.6 1.62,1.47 1.43,0.25 0.96,2.46 6.12,-0.12 10.8,5.43 13.05,9 4.04,6.4 3.15,9.15 4.19,11.51 1.55,3.53 -0.07,1.47 2.06,1.94 1.86,-1.89 0.94,-0.06 0.74,-3.05l0.02 -2.27c-2.35,-4.73 -1.85,-7.04 -5.88,-11.92 -5.33,-6.44 -7.25,-4.96 -7.95,-8.76 -3.39,1.19 -3.05,0.34 -6.32,-1.5 -0.71,-0.4 -2.96,-1.58 -3.35,-1.89 -1.5,-1.22 -1.2,-0.65 -1.55,-2.41l-3.82 0.07c-1.35,2.66 -0.22,1.06 -1.99,3.05l-0.01 0.01z"></path>
  <path class="fil22" d="M328.28 289.74l-1.44 3.43c1.97,1.69 2.27,1.51 3.68,3.98 5.05,-1.08 7.32,-5.62 12.55,-6.83 -0.05,5.02 -1.21,5.18 -1.65,9.07 2.12,-1.81 2.45,-8.94 2.89,-12.23l3.08 -1.6 -2.8 0.94 -1.66 -1.63c-3.47,0.02 -2.06,1.05 -4.32,-3.04 -0.8,3.36 0.2,1.15 -2.14,3.17 -0.23,0.2 -2.1,1.19 -2.81,1.56 -2.14,1.13 -3.52,1.8 -5.38,3.18l0 0z"></path>
  <path class="fil52" d="M330.47 351.99l0 0.15 2.86 1.56 13.19 -6.02c-0.97,-2.54 0.74,-0.76 -2.69,-2.63l-10.65 -4.68c-2.15,-2.76 -1.09,-1.3 -4.87,-3.39 -1.97,-1.09 -3.6,-2.75 -7.86,-0.55 -3.32,1.71 -0.94,-0.74 -2.04,7.75l1.13 0.68c1.74,1.41 -0.4,-0.58 1.02,0.89 1.64,1.7 -0.44,-2.7 1.25,1.93 3.01,0.26 4.65,3.13 8.64,4.31l0 0z"></path>
  <path class="fil55" d="M452.51 402.71l-0.85 0.84 -4.17 4.57c2.35,0.97 1.49,0.41 3.5,2.96l8.46 5.81 2.33 0.88 0.38 3.53 2 -1.23 1.94 2.93c1.74,-0.45 1.92,0.38 2.25,-2.4 0.34,-2.85 -1.94,-4.96 -4.07,-6.28l-3.27 -2.22c-3.83,-0.86 -4.83,-2.34 -7.85,-4.27l2.51 -2.13c0.77,-2.41 1.72,-3.1 -0.25,-4.12l-2.94 1.13 0 0z"></path>
  <path class="fil60" d="M277.98 412.55l6.42 4.17 -8.86 6.12 -0.73 2.78 2.24 -0.18c3.33,-0.25 0.39,0.21 3.07,-0.98 2.17,-0.97 1.13,-0.7 3.6,-1.33 0.11,-0.13 0.3,-0.49 0.35,-0.36l3.59 -2.95c2.15,-1.77 1.02,-2.55 5.26,-1.01 -0.18,-0.32 -0.38,-1.13 -0.51,-0.97 -0.15,0.2 -0.69,-2.29 -2.94,-3.54l-4.44 -1.89 -6.84 -4.17c-0.91,0.67 -3.64,-0.19 -0.22,4.31l0 -0.01z"></path>
  <path class="fil61" d="M317.21 345.28c-2.58,-0.64 -5.2,-2.8 -7.1,-4.62 1.52,-2.65 1.52,-1.81 3.83,-3.56 3.32,-2.52 2.01,-0.66 2.9,-3.69 -3.72,1.29 -6.01,2.73 -9.13,4.43 -2.72,1.48 -6.44,2.85 -7.84,5.74l12.38 7.12 16.68 9.32c0.1,-0.21 0.32,-0.43 0.39,-0.56 1.78,-3.12 1.32,-3.06 1.15,-7.31l0 -0.15c-4,-1.19 -5.64,-4.06 -8.64,-4.31 -3.53,-3.3 0.28,-1.77 -4.61,-2.4l0 -0z"></path>
  <path class="fil7" d="M314.89 253.42c-1.48,1.61 -1.08,-0.48 -1.5,3.75 -0.51,5.11 0.69,24.02 2.01,26.78 2.43,-0.68 2.22,0.43 3.53,-2.49 1.52,-3.4 -3.3,-26.25 -4.04,-28.04l0 0z"></path>
  <path class="fil22" d="M414.87 341.19c0.85,1.11 0.28,1.36 2.6,2.32 2.67,1.11 4.89,-0.97 8.58,-3.2l10.44 -6.52 -0.68 -1.35c-3.3,0.09 -2.48,1.23 -5.68,1.99 -3.92,0.93 -2.03,-1.86 -5.48,-1.63 -3.61,0.24 -7.8,5.68 -9.78,8.39l-0 0z"></path>
  <path class="fil24" d="M497.5 336.64c1.25,0.65 2.69,1.34 4.36,2.23 0.14,0.08 2.27,1.29 2.3,1.32 2.34,1.68 0.64,0.16 1.96,1.81 3.8,0.25 5,2.36 9.76,3.31 -1.62,-5.76 -7.32,-13.21 -12.21,-13.91 -2.64,0.45 -0.29,-0.11 -0.94,0.94 -2.52,4.03 -2.29,1.54 -5.21,4.3l-0.01 -0.01z"></path>
  <path class="fil62" d="M304.39 291.72l3.48 1.28c6.29,-3.96 3.31,-1.23 9.15,-0.17 0.4,-0.57 1.21,-1.74 1.51,-2.2 1.07,-1.67 0.88,-0.64 1.38,-2.75 -1.72,-1.25 -1.95,-1.19 -3.95,-2.81 -1.1,-0.89 -2.74,-2.26 -3.3,-2.38l-0.02 -1.82c-0.57,-12.36 -2.97,-24.57 -6.59,-35.73l-0.97 -2.04 -2.14 0.07c-4.12,1.76 -8.75,3.64 -10.18,8.42 -1.04,1.92 0.1,10.56 0.83,13.05l1.14 2.49c0.05,-0.13 0.23,0.39 0.37,0.56 -0.32,5.54 2.7,9.11 1.97,17.65l0.08 2.65 7.24 3.74 -0.01 0z"></path>
  <path class="fil15" d="M508.26 329.68c4.38,2.96 9.57,9.08 11.11,16.43 2.23,-2.79 2.17,-10.24 3.33,-16.09l-8.76 -0.4c-1.75,-2.12 -1.47,3.64 -1.47,-2.87 -0.18,0.23 -0.5,1.04 -0.6,1.21 -1.58,2.72 0.18,1.03 -2.11,1.29l-1.5 0.42 -0.01 0.01z"></path>
  <path class="fil25" d="M330.51 297.16l-0.08 1.96c1.37,1.67 2.23,2.38 4.5,3.92l5.42 2.6 1.06 -6.25c0.44,-3.89 1.61,-4.05 1.65,-9.07 -5.23,1.21 -7.5,5.75 -12.55,6.83l-0.01 0z"></path>
  <path class="fil63" d="M507.63 254.32l-4.94 0.41 -1.63 -4.11 -6.01 -2.29c-0.31,-0.11 -0.66,-0.23 -0.99,-0.33 0.89,5.72 -0.02,6.62 -0.02,13.47 10.8,-0.71 -0.3,0.65 10.61,-3.97 2.95,-1.25 2.45,-0.12 2.98,-3.19l0 0z"></path>
  <path class="fil64" d="M517.96 205.44c2.82,1.01 -2.59,-2.34 0.95,0.73 1.19,1.03 0.46,0.68 1.38,1.27 1.97,1.25 -0.08,1.11 3.49,0.9 -1.44,-4.64 -1.09,-10.53 -1.26,-16.74l-6.52 0.65c-2.66,12.33 3.41,9.73 1.95,13.19l0 0z"></path>
  <path class="fil42" d="M294.55 406.92c2.62,-0.32 4.3,-1.72 6.9,-3.27 2.83,-1.68 4.63,-2.64 7.27,-4.2 4.37,-2.58 12.09,-4.7 11.56,-10.91 -2.5,1.78 -3.57,2.87 -6.56,4.56 -7.24,4.09 -17.46,8.46 -21.09,13.69l1.91 0.13 0 -0z"></path>
  <path class="fil42" d="M444.09 398.18l-0.12 -3.02c-8.03,-5.27 -18.13,-8.99 -24.92,-14.81 -1.05,-0.89 -0.52,-0.54 -1.75,-1.37 -0.01,6.65 12.88,11.87 22.64,17.59 3.03,1.78 1.2,1.33 4.15,1.6l0 -0z"></path>
  <path class="fil22" d="M476.86 303.5l-0.71 1.9c-0.02,-0.1 0.17,0.3 0.21,0.46 -0.49,0.1 -2.28,-0.02 -2.37,0.05 -1.63,1.16 0.86,-1.72 -0.46,0.88 -0.03,0.05 -0.18,0.58 -0.2,0.46 -0.02,-0.13 -0.1,0.36 -0.23,0.49 3.44,4.42 5.64,3.53 9.92,0.87 3.13,-1.95 6.38,-3.63 8.51,-5.53l-4.58 -0.69 -8.35 -0.48 -1.73 1.59 -0 -0z"></path>
  <path class="fil57" d="M317.02 292.84l2.05 2.01c1.02,1.05 0.58,0.69 2,1.83 0.49,0.4 2.37,1.71 2.6,1.84 2.94,1.6 3.13,1.54 6.75,0.6l0.08 -1.96c-1.41,-2.47 -1.71,-2.29 -3.68,-3.98l1.44 -3.43c-3.22,1.04 -5.75,0.19 -8.37,-1.85 -0.5,2.1 -0.31,1.08 -1.38,2.75 -0.29,0.46 -1.11,1.63 -1.51,2.2l0 0z"></path>
  <path class="fil5" d="M296.84 291.87c2.83,0.8 4.41,1.66 6.28,3.83 1.33,-0.95 2.81,-1.52 4.74,-2.69l-3.48 -1.28 -7.24 -3.74c-5.06,-1.97 -10.33,0.11 -12.84,4.55 -1.94,3.43 -0.43,4.16 -0.15,4.64 2.78,-1.28 0.72,0.39 2.95,-2.77 4.28,-6.07 9.18,-3.85 9.73,-2.53l0.01 -0z"></path>
  <path class="fil41" d="M351.57 258.3c0,0.04 0,0.07 0,0.1 -0,-0.03 -0,-0.06 -0,-0.1zm0.01 0.14c0,0.02 0.01,0.05 0.01,0.07 -0,-0.02 -0.01,-0.05 -0.01,-0.07zm0.08 0.21c0.01,0.01 0.02,0.02 0.03,0.02 -0.01,-0 -0.02,-0.01 -0.03,-0.02zm0.03 0.02c0.01,0 0.02,0.01 0.03,0.01 -0.01,-0 -0.02,-0.01 -0.03,-0.01zm0.31 0.06c0.02,0 0.05,0.01 0.08,0.02 -0.03,-0.01 -0.06,-0.01 -0.08,-0.02zm0.14 0.04c0.02,0.01 0.04,0.01 0.07,0.03 -0.02,-0.01 -0.04,-0.02 -0.07,-0.03zm0.51 0.38c1.44,-0.63 2.2,-1.44 2.76,-2.27 -0.56,0.83 -1.32,1.64 -2.76,2.27zm2.76 -2.27c0.08,-0.11 0.15,-0.23 0.22,-0.34 -0.07,0.11 -0.14,0.23 -0.22,0.34zm0.22 -0.34c0.05,-0.08 0.09,-0.15 0.14,-0.23 -0.04,0.08 -0.09,0.15 -0.14,0.23zm0.14 -0.23c0.11,-0.19 0.22,-0.38 0.33,-0.57 -0.11,0.19 -0.22,0.37 -0.33,0.57zm0.33 -0.57c0.07,-0.11 0.13,-0.22 0.2,-0.33 -0.07,0.11 -0.13,0.22 -0.2,0.33zm0.2 -0.33c0.04,-0.08 0.09,-0.15 0.14,-0.22 -0.05,0.07 -0.09,0.15 -0.14,0.22zm0.21 -0.33c0.12,-0.18 0.25,-0.35 0.39,-0.52 -0.14,0.17 -0.27,0.34 -0.39,0.52zm10.38 -0.84c0.18,0.08 0.35,0.16 0.5,0.24 -0.15,-0.08 -0.32,-0.15 -0.5,-0.24zm0.5 0.24c0.19,0.09 0.36,0.18 0.51,0.26 -0.15,-0.08 -0.32,-0.17 -0.51,-0.26zm0.59 0.3c0.06,0.03 0.11,0.06 0.16,0.09 -0.05,-0.03 -0.1,-0.06 -0.16,-0.09zm0.16 0.1c0.2,0.12 0.36,0.24 0.48,0.35 -0.12,-0.12 -0.28,-0.24 -0.48,-0.35zm0.48 0.35c0.57,0.55 0.44,1.17 0.76,2.87l5.1 -3.9 -4.28 -2.22c-5.07,0.45 -1.41,0.46 -2.84,-0.95l-6.75 -2.42c-1.91,2.77 -1.47,-0.89 -5.54,3.07 -1.06,1.03 -1,1.32 -1.94,2.48 -0.88,1.09 -0.5,0.85 -1.35,1.31 -1.09,2.06 -0.59,1.59 -2.69,2.62 -3.03,0.22 -0.57,-0.52 -2.85,2.59l2.9 5.38c7.35,0.35 6.11,-0.3 11.46,-3.54 2.36,-1.43 5.57,-4.16 8.78,-4.44 -0.32,-1.7 -0.19,-2.32 -0.76,-2.87l0 0z"></path>
  <path class="fil35" d="M479.93 371.09c-0.97,2.47 -0.81,1.7 -0.79,5.1l4.99 0.26c3.29,-1.11 2.18,-1.25 4.62,-3.23l1.53 3.34c1.78,-1.66 0.98,-0.05 0.81,-2.57l-0.07 -5.24c-1.76,-0.91 0.3,-2.47 -1,0.25l0.42 0.63c-2.31,-1.58 2.67,-0.96 -3.68,-1.66 -1.68,-0.19 -1.58,0.11 -3.21,0.47l-3.62 2.64 -0 0z"></path>
  <path class="fil58" d="M322.37 330.75c1.78,3.26 -1.3,0.67 3.27,2.83 1.9,0.9 3.01,1.22 4.75,1.51 -0.81,-1.28 -0.18,-1.16 -2.19,-2.4 -1.25,-0.77 -2.67,-1.03 -4.09,-1.43 -0.41,-4.24 0.77,-8.3 2.15,-12.57l2.67 -8.73c1.93,0.8 2.62,1.38 4.48,2.57 1.33,0.85 2.81,1.79 4.05,2.07l3.87 2.23 0.19 -1.97 -13.48 -7.05c-3.07,4.48 -4.72,16.63 -5.68,22.95l0.01 0z"></path>
  <path class="fil59" d="M523.31 247.97c1.64,2.02 2.75,2.12 5.2,3.43 0.63,-2.15 -0.66,-1.16 2.02,-1.66l2.67 -1.06c7.98,0.57 4.98,5.67 9.59,6.44 1.69,-5.74 -4.3,-9.25 -9.61,-9.72 -2.99,0.48 -3.27,0.38 -5.53,1.47 -3.75,1.8 0.23,1.64 -4.34,1.1l0 -0z"></path>
  <path class="fil45" d="M302.36 229.63c3.15,0.97 1.76,0.87 5.08,1.76l1.96 -5.1 4.38 0.39c3.88,-0.88 1.64,-0.87 5.43,-1.94 3.97,-3.69 -1.62,-6.85 -4.06,-7.93 -2.45,-1.51 -6.44,-1.92 -9.24,0.12 -4.54,1.28 -5.61,7.3 -3.54,12.7l-0.01 0z"></path>
  <path class="fil65" d="M478.6 301.91l8.35 0.48 -0.58 -4.03 -3.92 -0c-2.43,-2.74 -5.92,-2.78 -10.31,-2.29l-0.35 2.7 6.82 3.15z"></path>
  <path class="fil66" d="M277.05 425.45l-1.83 6.96 2.22 -1.01c2.56,0.19 2.54,-0.98 5.13,-0.51 3.06,0.55 3.14,0.79 6.61,0.7 -0.26,-0.12 -0.64,-0.52 -0.81,-0.28l-2.56 -0.61c-3.23,-1.12 -1.85,0.88 -2.58,-2.21 2.7,-1.41 0.51,2.24 4.41,0l-3.93 -5.34c-2.47,0.62 -1.43,0.36 -3.6,1.33 -2.68,1.2 0.26,0.73 -3.07,0.98l-0 0z"></path>
  <path class="fil60" d="M269.23 412.97c3.05,1.92 4.34,0.77 6.14,-1.01l2.61 0.59c-3.42,-4.5 -0.7,-3.64 0.22,-4.31 -0.46,-0.37 -0.77,-0.67 -1.59,-1.18 -2.32,-1.46 -3.74,-2.13 -6.59,-2.08 -1.24,2.61 -1.18,4.94 -0.79,7.99l0 0z"></path>
  <path class="fil46" d="M455.69 405.7l-2.51 2.13c3.02,1.93 4.02,3.4 7.85,4.27 3.11,-0.98 1.19,-4.36 2.44,-8.63l-0.55 -0.67c-2.66,-0.07 -4.69,1.59 -7.22,2.9l0 0z"></path>
  <path class="fil41" d="M256.53 388.78l0.42 4.88 3.08 1.93c1.21,0.63 1.78,0.81 3.28,1.33l-1.43 -1.99c2.54,-0.98 2.49,-0.71 4.32,-3.35 -2.59,-3.27 -2.93,-3.03 -7.76,-4.6l-1.91 1.79 0 0zm12.6 11.38c3.68,3.45 16.1,8.92 17.48,12.02 3.75,-1.04 1.9,-1.02 5.6,-0.11 0.11,-2 -0.27,-0.83 0.41,-2.49 0.2,-0.49 0.87,-1.4 1.12,-1.72 -3.09,-1.01 -4.71,-2.63 -6.47,-4.51 -1.76,-2.28 -1.62,-2.8 -3.88,-4.73 1.15,-2.26 0.59,-1.04 1.03,-3.08 0.59,-3.84 0.42,-2.41 -0.33,-6.49 -5.47,2.25 -2.54,3.64 -7.47,5.59l-0.37 -18.11 -6.44 -0c0.6,4.04 0.36,8.29 0.35,12.43 0,3.53 0.76,8.95 -1.03,11.2l-0.01 0.01zm-12.3 -29.18l1.51 7.6c0.22,3.15 0.44,5.23 0.1,8.4 4.83,1.57 5.18,1.33 7.76,4.6 -1.83,2.63 -1.78,2.37 -4.32,3.35l1.43 1.99 5.82 3.23c1.78,-2.25 1.03,-7.68 1.03,-11.2 0,-4.13 0.25,-8.39 -0.35,-12.43 1.78,-2.07 -4.5,-1.62 6.44,-1.62l-6.46 -0.17c0.2,-0.11 0.57,-0.58 0.63,-0.37 0.08,0.24 0.59,-0.38 0.92,-0.61 0.42,-0.28 1.75,-0.15 0.12,-0.12l-0.05 -11.06c0.5,-4.03 -0.49,-1.5 1.3,-3.49 -0.14,-0.07 -0.43,-0.14 -0.47,0 -0.05,0.14 -0.4,0 -0.47,-0.03 -2.41,-0.98 -1.86,1.66 -2.18,-3.75l4.89 1.7c-1.98,-3.38 -15.92,-10.99 -18.96,-11.38 1.62,-2.79 1.48,-0.09 0.29,-1.86 -1.66,-2.47 -1.3,2.71 -1.22,-1.68 -1.65,1.55 -0.53,-0.22 -1.21,2.2l0.49 5.53c1.2,5.23 3.82,16.92 2.94,21.16l0.01 -0.01zm12.97 5.55l6.44 0 0.37 18.11c4.93,-1.96 1.99,-3.34 7.47,-5.59l-0.15 -0.94c-1.94,-8.17 -2.96,-28.59 -9.46,-31.09l-4.89 -1.7c0.32,5.41 -0.24,2.77 2.18,3.75 0.07,0.03 0.42,0.18 0.47,0.03 0.05,-0.15 0.33,-0.07 0.47,-0 -1.78,1.98 -0.8,-0.54 -1.3,3.49l0.05 11.06c1.62,-0.03 0.3,-0.17 -0.12,0.12 -0.34,0.23 -0.85,0.85 -0.92,0.61 -0.07,-0.21 -0.44,0.27 -0.63,0.37l6.46 0.17c-10.95,0 -4.66,-0.45 -6.44,1.62l0 0z"></path>
  <path class="fil42" d="M283.95 388.11l0.15 0.94c0.74,4.07 0.92,2.65 0.33,6.49l5.54 -2.94 -0.48 5.44 -0.94 -10.46 -4.59 0.54 0 -0.01zm-29.34 -46.01c-0.09,4.38 -0.45,-0.79 1.22,1.68 1.19,1.77 1.33,-0.93 -0.29,1.86 3.04,0.39 16.98,8 18.96,11.38 6.49,2.51 7.52,22.92 9.46,31.09l4.59 -0.54c-0.78,-5.25 -1.18,-9.29 -3.1,-13.2l-1.21 -10.68c-1.85,-2.84 -0.55,-1.41 -1.49,-4.22 -0.5,-1.47 -1.02,-2.02 -1.87,-3.75 -1.57,-3.69 -5.51,-5.16 -9.5,-7.49l-11.37 -6.61c-1.13,-0.65 -5.23,-2.39 -5.37,0.47l-0.01 0z"></path>
  <path class="fil59" d="M280.86 355.72c0.85,1.73 1.37,2.28 1.87,3.75 0.95,2.81 -0.36,1.38 1.49,4.22 -0.27,-4.3 0.61,-5.47 4.96,-4.38 0.51,-2.35 0.56,-1.29 1.18,-2.73 0.62,-1.43 0.53,-0.29 0.89,-2.67l-1.62 -1.39 -3.44 2.72c-1.25,0.32 -1.55,1.22 -2.92,-1.42 -3.21,0 -2.73,-0.94 -2.41,1.89l0 -0z"></path>
  <path class="fil64" d="M502.68 254.74l4.94 -0.41c0.08,-0.12 0.22,-0.46 0.26,-0.35 0.04,0.11 0.23,-0.3 0.28,-0.35 2.24,-2.3 2.23,-1.53 3.35,-4.26 -3.27,-1.22 -1.78,-0.7 -3.26,-3.58l-0.93 -0.14c-1.09,2.52 -2.74,4.75 -4.89,6.01l0.25 3.09 -0 -0.01z"></path>
  <path class="fil42" d="M284.42 395.54c-0.44,2.04 0.12,0.82 -1.02,3.08 2.27,1.93 2.12,2.45 3.88,4.73 0.14,-0.23 0.36,-0.8 0.46,-0.67 0.09,0.13 0.34,-0.51 0.46,-0.71l0.95 -1.59 0.34 -2.34 0.48 -5.44c-4.09,1.04 -2.4,1.23 -5.54,2.94z"></path>
  <path class="fil60" d="M463.36 396.78l-0.44 6.01 0.55 0.67 4.65 0.28c0.29,-1.28 0.71,-3.49 0.38,-6 -1.06,-1.77 -0.63,-1.49 -2.62,-2.43l-2.53 1.47 0.01 0z"></path>
  <path class="fil67" d="M423.63 313.84c1.31,-0.36 0.57,1.46 0.9,-1.41 0.1,-0.87 -0.04,-1.55 -0.22,-2.51l-1.32 -3.05 -2.7 -13.59c-4.23,1.33 -5.45,3.09 -8.71,4.78l-3.6 1.14c-2.21,2.69 -6.54,4.18 -8.59,5.92l-4.57 2.88c-0.1,0.2 -0.25,0.28 -0.27,0.61 -0.02,0.32 -0.2,0.48 -0.22,0.62l1.43 5.58 0.88 7.39 1.77 6.12 8.15 -3.57c0.84,-0.44 1.83,-0.9 2.91,-1.38 0.17,-0.19 0.44,-0.7 0.53,-0.54 0.43,0.79 0.81,-0.81 1.03,-1.02 0.68,-0.63 0.81,-0.68 1.5,-1.34 2.52,-0.89 3.75,-1.45 5.8,-2.69 0.62,-0.37 2.01,-1.19 2.73,-1.7 0.22,-0.16 0.88,-0.61 1.08,-0.78 1.2,-0.99 0.6,-0.37 1.49,-1.49l0.01 0.01z"></path>
  <path class="fil63" d="M296.34 299.44l6.78 -3.74c-1.88,-2.16 -3.46,-3.03 -6.28,-3.83l-0.65 0.5 -1.55 5.76c0.96,1.82 -1.48,1.74 1.71,1.31l-0.01 -0z"></path>
  <path class="fil57" d="M342.93 284.87l1.66 1.63 2.8 -0.94 3.03 -1.66 0.23 -1.2c-1.05,-1.87 -4.37,-3.56 -7.9,-1.76l0.19 3.92 -0 -0z"></path>
  <path class="fil55" d="M455.45 401.58c1.97,1.02 1.02,1.7 0.25,4.12 2.53,-1.31 4.57,-2.97 7.22,-2.9l0.44 -6.01c-1.78,0.77 -2.2,1.17 -4.12,2.18 -1.13,0.59 -1.26,0.47 -2.29,1.16 -1.53,1.03 -0.37,0.16 -1.5,1.46l-0 0z"></path>
  <path class="fil68" d="M446.39 347.78c3.8,0.61 4.04,1.89 7.57,3.17l-0.72 3.53c1.69,-1.86 0.58,0.04 1.43,-3.14 0.62,-2.33 -0.05,-0.96 1.09,-3.62 -2.96,-0.27 -3.57,0.03 -4.94,-2.99l-3.63 0.32c-0.41,1.79 -0.08,1.05 -0.8,2.74l0 -0z"></path>
  <path class="fil67" d="M455.62 288.84l1.59 6.21c4.67,-0.73 5.66,-3.48 9.89,-3.58 2.29,-2.78 3.1,-2.27 5.22,-4.45l4.92 -2.43c1.44,-0.62 0.77,-0.11 1.95,-0.83 1.55,-0.96 1.26,-0.91 1.57,-1.39l3.17 -1.01 -2.46 -12.81c-0.61,-2.19 -1.28,-5.19 -1.27,-8.17 -6.03,-0.25 -2.02,0.81 -7.01,1.76l-3 3.12c-1.94,0.4 -10.65,5.94 -11.61,6.89 -1.99,0.96 -1.01,0.37 -3.23,1.8 -1.11,0.71 -1.39,0.91 -2.31,1.73 0.86,4.76 1.81,8.06 2.59,13.17l0 -0.01z"></path>
  <path class="fil60" d="M271.45 424.72c3.4,2.32 0.67,1.79 1.75,6.1l0.97 2.37 1.05 -0.79 1.83 -6.96 -2.24 0.18 0.73 -2.78 -4.09 1.89z"></path>
  <path class="fil69" d="M325.33 280.95c3.01,1.09 1.25,1.39 3.58,0.11 2.81,-1.53 2.23,-0.1 1.85,-3.01l-5.66 -2.74 0.23 5.64 0 0z"></path>
  <path class="fil57" d="M306.79 243.93c2.02,1.58 2.5,1.65 5.46,2.15l1.93 -1.87c0.1,-0.12 0.31,-0.4 0.39,-0.5 0.08,-0.1 0.24,-0.35 0.36,-0.52l-0.73 -1.09 -4.16 -0.16c-1.4,-2.57 -0.15,-1.77 -2.86,-2.03 1.58,2.75 2.9,4.37 -0.38,4.01l0 0.01z"></path>
  <path class="fil60" d="M270.37 426.35c-0.81,4.08 -1.15,3.8 0.53,6.91l3.27 -0.08 -0.97 -2.37c-1.08,-4.3 1.65,-3.77 -1.75,-6.1l-1.08 1.63 0 -0z"></path>
  <path class="fil42" d="M475.53 386.78c2.59,-0.89 4.45,-1.15 5.54,-4.85l-0.98 -3.08c1.51,-1.74 -2.59,-0.42 -0.52,-1.63 0.54,-0.32 0.12,-2.36 -0.27,-4.49 0.12,-0.37 0.32,-0.83 0.63,-1.65 -0.45,-0.91 -0.64,-2.1 -0.68,-3.45l0 0c-0.12,-4.92 1.98,-12.05 2.33,-16.22l0 0 1.83 -6.32 0.07 -5.01c0.11,-7.12 -0.71,-6.68 -10.49,0.72 -0.13,0.09 -0.38,0.28 -0.55,0.45 -11.49,9.68 -11.29,-1.05 -16.26,24.65 -1.15,5.96 -2.15,11.28 -3.18,17.34 -2.04,12.1 -0.32,14.41 -1.13,17.18l4.48 -2.19c2.82,-1.52 6.73,-2.92 8.31,-5.51l3.28 -0.68 7.58 -5.26 0.01 -0.01z"></path>
  <path class="fil70" d="M342.13 341.21l8.05 3.33 1.47 -6 2.89 -13.66c-1.12,-0.6 -1.95,-1.2 -2.71,-1.68 -2.3,-1.45 -0.56,-0.67 -3.48,-1.92 -1.12,-0.98 -6.68,-4.31 -7,-4.45l-3.87 -2.23c-1.24,-0.28 -2.72,-1.22 -4.05,-2.07 -1.86,-1.19 -2.56,-1.77 -4.48,-2.57l-2.67 8.73c-1.38,4.27 -2.56,8.33 -2.15,12.57 1.42,0.4 2.84,0.66 4.09,1.43 2.02,1.24 1.39,1.12 2.19,2.4l5.89 2.17 5.84 3.95 -0.01 -0.01z"></path>
  <path class="fil71" d="M499.65 380.46l0.55 2.34 1.73 0.92c3.28,-0.3 2.03,0.37 4.23,-1.96l0.49 -4c-2.57,2.16 -0.35,1.03 -2.72,1.97 -1.68,0.67 -2.55,0.52 -4.28,0.73l-0 -0z"></path>
  <path class="fil64" d="M488.38 241.18c1.75,1.68 2.7,2.35 4.84,2.99l1.2 -3.67 -2.17 -1.14c-2.02,0.12 -3.45,-0.41 -3.86,1.82l-0 0z"></path>
  <path class="fil44" d="M497.52 319.1l4.73 1.35 -0.16 -0.06 0.93 -5.11c-1.5,0.5 -1.38,0.14 -3.18,1.28 -2.37,1.5 -1.36,1.02 -2.32,2.55l0 -0z"></path>
  <path class="fil72" d="M528.51 251.4l4.35 2.47 0.34 -5.19 -2.67 1.06c-2.68,0.5 -1.38,-0.5 -2.02,1.66l0 0z"></path>
  <path class="fil73" d="M462.17 421.29c0.9,2.34 -0.52,0.46 1.19,2.79l2.75 -1.1 -1.94 -2.93 -2 1.23z"></path>
  <path class="fil7" d="M313.13 251.01c2.62,-2.27 2.27,-1.84 0,-4.29 -0.25,0.28 -1.36,-1.26 -1.1,1.86 0.22,2.69 -0.19,0.75 1.1,2.42l0 0z"></path>
  <path class="fil5" d="M363.75 253.07c2.83,0.8 4.41,1.66 6.28,3.83 1.33,-0.95 2.81,-1.52 4.74,-2.69l-3.48 -1.28 -7.24 -3.74c-5.06,-1.97 -10.33,0.11 -12.84,4.55 -1.94,3.43 -0.43,4.16 -0.15,4.64 2.78,-1.28 0.73,0.39 2.95,-2.77 4.28,-6.07 9.18,-3.85 9.73,-2.53l0.01 -0z"></path>
  <polygon class="fil74" points="143.28,331.54 120.8,318.34 120.91,300.76 143.39,313.96 "></polygon>
  <path class="fil15" d="M127.11 304.53l-5.33 -2.35 0.01 16.28c2.17,1.46 6.68,3.2 8.21,5.32 1.92,0.25 3.48,1.53 5.99,2.96 1.94,1.11 3.74,2.52 6.08,3.13l-0.02 -16.35 -14.94 -9zm2.49 19.95c-2.19,-0.75 -7.96,-3.99 -9.4,-5.5l0.01 -19.92 2.11 -0.21 1.1 1.19c3.01,1.55 5.96,3.33 9.02,5.1 2.76,1.6 6.22,4.14 8.84,4.72 0.43,0.74 -0.72,0.42 1.5,0.87l1.67 1.74 -0.04 20.12c-2.67,-0.16 -6.05,-2.68 -8.08,-3.89 -1.55,-0.92 -5.85,-3.23 -6.72,-4.22z"></path>
  <path class="fil8" d="M214.4 278.61c0.03,1.35 -0,-0.3 -0,1.06l-0.15 134.91 0.03 1.76c-0.15,0.53 -0.08,15.01 -0.07,15.38 -0.35,-0.22 -0.08,0 -0.35,-0.29l0.33 0.57 -0.52 10.97c1.03,0.72 0.48,-0.39 0.53,0.92 0.23,0.47 1.02,1.25 1.44,1.49 0.12,-0.72 0.1,-6.37 0.11,-7.64 0.01,-2.54 -0.01,-5.08 -0,-7.62l0.01 -13.58c-0,-0.29 -0.02,-0.72 -0.01,-1l0.08 -0.66 -0.06 -4.25 0.06 -25.73 -0.06 -6.79c0,-2.51 -0.01,-5.03 0.02,-7.55l0.1 -7.2c-0.16,-1.58 0.04,-82.07 0.04,-84.69l-1.52 -0.07z"></path>
  <path class="fil75" d="M155.47 246.19l-0.64 163.98 5.48 3.14c0.33,-1.09 0.29,-10.11 0.31,-12.02 0.04,-3.81 -0.02,-7.63 -0,-11.44l0.03 -20.4c-0.01,-0.44 -0.05,-1.08 -0.02,-1.5l0.21 -1 -0.15 -6.38 -0.32 -71.81 -0.17 -10.2c0,-3.78 -0.25,-25.5 -0.18,-29.28l54.67 30.9 0 -1.57 -59.21 -32.42z"></path>
  <path class="fil8" d="M155.1 245.98l59.58 33.48 0.45 -0.7c-11.2,-6.58 -59.37,-33.54 -59.54,-33.64l-0.49 0.86z"></path>
  <path class="fil8" d="M154.16 245.05c0.03,1.35 -0,-0.3 -0,1.06l-0.16 134.91 0.03 1.76c-0.15,0.53 -0.08,15.01 -0.08,15.38 -0.37,-0.22 -0.09,0 -0.36,-0.29l0.34 0.57 -0.54 10.97c1.07,0.72 0.5,-0.39 0.55,0.92l1.57 0.17c0.12,-0.73 0.04,-5.06 0.04,-6.32 0.01,-2.54 -0.01,-5.08 -0,-7.62l0.01 -13.58c-0,-0.3 -0.02,-0.72 -0.01,-1l0.08 -0.66 -0.06 -4.25 0.06 -25.73 -0.06 -6.79c0,-2.52 -0.01,-5.03 0.02,-7.55l0.11 -7.2c-0.17,-1.59 0.04,-82.07 0.04,-84.69l-1.59 -0.07z"></path>
 </g>
</svg>