<svg width="257" height="201" viewBox="0 0 257 201" fill="none" xmlns="http://www.w3.org/2000/svg">
<path fill-rule="evenodd" clip-rule="evenodd" d="M20.8447 131.423L135.912 199.806L256.015 127.039L136.598 58.5187C132.864 56.652 127.606 55.9156 123.633 58.3303L17.1969 122.209C14.4739 127.672 18.6868 130.207 20.8618 131.423H20.8447Z" fill="black" fill-opacity="0.22"/>
<path fill-rule="evenodd" clip-rule="evenodd" d="M0.173828 101.915L118.787 172.473L238.889 99.706L125.534 34.6625C121.801 32.7958 116.543 32.0594 112.57 34.4741L0.173828 101.915Z" fill="url(#paint0_linear_2178_374)"/>
<path fill-rule="evenodd" clip-rule="evenodd" d="M10.9975 114.845C17.6423 117.346 36.0182 129.248 43.3309 133.564C54.3256 140.054 41.567 132.69 52.7329 139.318C65.2176 146.733 108.255 174.82 119.403 174.802C123.462 174.751 144.475 161.393 149.87 158.242C159.803 152.436 169.702 146.596 179.635 140.825C189.568 135.071 199.518 129.248 209.399 123.408C214.571 120.343 236.235 108.817 238.633 105.306L238.89 99.7061C223.973 108.389 209.039 117.465 194.106 126.234C193.232 127.296 185.988 131.286 184.344 131.868C181.998 134.043 169.462 140.637 165.763 142.863L128.103 164.938C117.999 170.778 116.389 170.418 106.456 164.698L53.2981 133.478C52.5446 132.947 51.1916 132.245 50.1983 131.765C47.8007 129.762 40.9162 126.302 37.8335 124.487C33.6377 122.021 29.4248 119.503 25.1776 117.106C18.8411 113.544 5.03777 106.248 0.191191 101.898C-0.0656952 106.71 -0.579468 108.012 3.61634 110.461C6.06532 111.882 8.63418 113.441 10.9975 114.811V114.845Z" fill="#7B8CBD"/>
<path fill-rule="evenodd" clip-rule="evenodd" d="M109.351 32.008L109.71 33.9946C110.241 34.6454 110.532 35.5873 111.234 36.0325C112.296 36.7176 113.204 36.101 114.18 36.1695C115.944 36.2894 117.468 38.002 118.153 33.5322L118.222 31.1517C118.153 26.7846 117.982 20.5166 116.697 16.4407C115.704 13.2896 115.738 4.77808 114.214 2.91137C113.94 1.55844 113.769 0.274012 112.399 0C111.56 0.565149 111.217 1.69545 110.875 2.72299C108.803 6.76466 107.826 27.5211 109.316 31.9909L109.351 32.008Z" fill="#5580FF"/>
<path fill-rule="evenodd" clip-rule="evenodd" d="M118.153 33.5322C119.249 33.909 119.729 34.3542 120.191 35.4332C118.427 41.3758 103.836 36.9231 109.693 33.9946L109.333 32.008C103.339 32.4019 109.487 40.7764 108.82 43.4823C111.508 45.2633 112.724 46.8903 116.852 45.5373C121.15 44.1159 118.753 40.451 121.099 38.7384C121.321 35.7586 123.513 32.3848 118.204 31.1517L118.136 33.5322H118.153Z" fill="#F9D64C"/>
<path fill-rule="evenodd" clip-rule="evenodd" d="M108.837 43.4823C110.001 47.4212 117.657 48.0891 121.236 48.2432L129.097 43.4823L129.251 43.4138C130.398 42.9171 128.617 41.0847 128.035 40.5024C127.384 40.04 122.075 39.0981 121.013 39.4235L121.116 38.7213C118.77 40.4339 121.167 44.0988 116.869 45.5202C112.742 46.8903 111.526 45.2633 108.837 43.4651V43.4823Z" fill="#D9D8D6"/>
<path fill-rule="evenodd" clip-rule="evenodd" d="M109.71 33.9946C103.853 36.9231 118.444 41.3758 120.208 35.4332C119.746 34.3543 119.266 33.909 118.17 33.5322C117.485 38.002 115.961 36.2895 114.197 36.1696C113.204 36.1011 112.296 36.7176 111.251 36.0326C110.549 35.5873 110.258 34.6454 109.727 33.9946H109.71Z" fill="#242E61"/>
<path fill-rule="evenodd" clip-rule="evenodd" d="M95.4961 44.8352C97.7053 45.0065 99.8631 44.8181 101.764 44.0303C102.278 44.2701 102.535 43.7905 102.483 46.171C102.466 47.0444 102.415 47.9521 102.415 48.8255C102.381 50.521 102.346 52.2164 102.244 53.929C102.192 55.5902 101.935 56.7205 102.929 57.9364L103.22 61.4814L103.836 65.643C103.734 66.3451 103.699 66.5849 103.785 67.3727C103.785 67.3898 103.939 68.1433 103.939 68.1605C104.145 68.8455 103.888 68.3488 104.23 68.777L104.624 71.9795C104.778 73.0927 104.812 74.5312 105.395 75.1991L105.275 77.0487C106.011 76.4493 106.097 76.3466 107.142 76.4836C106.08 76.8775 106.08 77.5625 106.251 79.0353L107.142 79.1209C106.868 78.0934 107.227 77.768 107.946 77.1172L107.964 75.5588L107.227 68.5201L107.261 64.6154L108.032 66.1225L109.351 73.3496C109.368 73.4009 109.436 73.4866 109.471 73.5551L109.556 76.4322C109.608 76.5007 109.676 76.5178 109.693 76.6548C109.71 76.7747 109.796 76.8261 109.813 76.8775C109.83 76.9288 109.882 77.0316 109.916 77.1172L110.207 78.5044L110.687 79.2408L110.978 80.1999L112.022 80.5252L112.074 79.0695C112.125 79.0182 112.211 78.9497 112.245 78.9154L113.084 78.3331C112.194 77.8194 112.399 78.1448 111.8 77.4597L111.526 72.6303L111.44 71.5171L111.32 67.6296L111.406 66.5164L111.44 62.1322H110.995L110.909 61.8411C110.772 59.4948 110.413 59.9572 110.361 59.6318C110.344 59.5462 110.276 59.5291 110.258 59.4606L111.115 57.5768C111.766 57.3884 111.611 57.5768 112.057 57.4569C113.255 57.1486 112.57 57.6453 113.05 56.9602C113.872 55.9327 113.529 50.2983 113.461 48.5515L112.707 43.585C112.296 41.4786 111.046 40.9991 109.025 40.2626L108.957 40.2284C108.495 40.588 108.7 40.2284 108.238 40.8792L107.244 44.5955C106.868 47.4383 106.32 49.8702 106.354 52.9871L106.559 54.9736L105.874 54.9908L103.973 54.3229V52.9871C104.11 50.6922 103.99 48.62 104.213 46.2395C104.384 44.3899 105.189 42.1293 105.155 40.8278L105.635 40.3825C105.343 39.3892 105.48 39.8174 104.23 39.355C103.442 39.4749 102.946 39.6119 102.175 39.8345C101.781 39.9373 101.404 40.04 101.079 40.2113C99.9317 40.7764 100.805 40.2798 100.343 40.7422C98.339 40.7764 98.0136 42.078 95.5817 41.804L92.9101 41.3587L90.6324 40.9648L90.0844 41.0333C89.6905 43.2768 89.5192 43.1911 91.7455 43.8248C92.5333 44.0474 95.3591 44.7838 95.479 44.8181L95.4961 44.8352Z" fill="#25356B"/>
<path fill-rule="evenodd" clip-rule="evenodd" d="M104.23 39.355C105.48 39.8174 105.343 39.3892 105.634 40.3825L106.079 41.2388C106.867 41.1532 106.884 41.1018 107.45 40.9648L108.254 40.8449C108.717 40.1941 108.511 40.5367 108.974 40.177L109.042 40.2113L108.46 39.7489C108.46 38.2076 108.477 37.9507 109.213 37.0259L109.385 36.084C108.837 36.2381 108.409 36.5121 107.861 36.7861L107.364 34.9879C105.634 35.0222 105.566 35.3818 103.819 35.005L104.23 39.3378V39.355Z" fill="#E0A75C"/>
<path fill-rule="evenodd" clip-rule="evenodd" d="M105.155 40.8106C105.189 42.1121 104.384 44.3727 104.213 46.2223C103.99 48.6028 104.11 50.6579 103.973 52.9698L104.487 52.9527C104.076 51.086 104.795 46.6676 105.24 44.6467L105.874 41.9066C106.336 42.4546 106.217 41.9922 106.285 42.9684C106.285 42.9855 106.097 44.2015 106.08 44.3042C105.96 45.2119 106.011 46.1709 105.977 47.0957C105.925 49.0994 106.148 51.1888 105.771 53.1411L105.874 55.0249L106.559 55.0078L106.371 53.0212C106.336 49.8872 106.885 47.4725 107.261 44.6296L108.255 40.9133L107.45 41.0332C106.902 41.1702 106.885 41.2216 106.08 41.3072L105.634 40.4509L105.155 40.8962V40.8106Z" fill="#E8E8E6"/>
<path fill-rule="evenodd" clip-rule="evenodd" d="M103.836 33.5321L103.819 35.0049C105.566 35.3817 105.634 35.0221 107.364 34.9878L107.861 36.786C108.409 36.512 108.837 36.238 109.385 36.0839L109.453 33.515C108.7 32.3847 109.179 32.693 107.809 32.0764C106.713 31.8709 106.182 31.8538 105.24 32.3162C104.401 32.7272 104.333 33.1725 103.802 33.4979L103.836 33.5321Z" fill="#6C4529"/>
<path fill-rule="evenodd" clip-rule="evenodd" d="M107.227 68.5201L107.963 75.5587L107.946 77.1172L108.1 76.9459L109.419 76.9802L109.59 76.415L109.505 73.5379C109.453 73.4694 109.402 73.3838 109.385 73.3324L108.066 66.1053L107.296 64.5983L107.261 68.5029L107.227 68.5201Z" fill="#ECF2F5"/>
<path fill-rule="evenodd" clip-rule="evenodd" d="M104.487 52.9528L104.966 53.4837C105.668 53.1925 105.206 53.3809 105.771 53.1069C106.148 51.1546 105.925 49.0652 105.977 47.0615C106.011 46.1367 105.959 45.1777 106.079 44.27C106.096 44.1844 106.285 42.9685 106.285 42.9342C106.216 41.9581 106.336 42.4205 105.874 41.8724L105.24 44.6126C104.795 46.6334 104.076 51.0518 104.487 52.9185V52.9528Z" fill="#F9D64C"/>
<path fill-rule="evenodd" clip-rule="evenodd" d="M108.1 76.9459C108.254 78.6243 108.563 78.7613 107.141 79.1209L106.251 79.0353L105.942 79.8573C107.997 81.8268 108.134 80.5423 110.121 81.1589L110.224 78.4873L109.933 77.1001C109.916 77.0316 109.847 76.9288 109.83 76.8603C109.813 76.8089 109.727 76.7576 109.71 76.6377C109.693 76.5178 109.624 76.4835 109.573 76.415L109.402 76.9802L108.083 76.9459H108.1Z" fill="#C8CACB"/>
<path fill-rule="evenodd" clip-rule="evenodd" d="M110.275 59.4434C110.293 59.5119 110.361 59.5291 110.378 59.6147C110.43 59.9572 110.772 59.4777 110.926 61.8239L111.012 62.1151H111.457C113.495 61.5842 113.101 60.06 112.913 57.9021L111.132 57.5425L110.275 59.4263V59.4434Z" fill="#E0A75C"/>
<path fill-rule="evenodd" clip-rule="evenodd" d="M105.292 77.0487L104.675 77.4597L104.418 77.9906C104.504 78.9667 104.487 79.2408 105.052 79.96C105.789 79.7888 105.326 79.8915 105.943 79.8402L106.251 79.0181C106.08 77.5453 106.08 76.8603 107.141 76.4664C106.097 76.3294 106.011 76.4321 105.275 77.0315L105.292 77.0487Z" fill="#11192B"/>
<path fill-rule="evenodd" clip-rule="evenodd" d="M105.874 54.9736L105.771 53.0898C105.189 53.3638 105.669 53.1754 104.966 53.4666L104.487 52.9357L103.973 52.9528V54.2886L105.874 54.9565V54.9736Z" fill="#F4F4F4"/>
<path fill-rule="evenodd" clip-rule="evenodd" d="M107.141 79.1209C108.563 78.7613 108.254 78.6242 108.1 76.9459L107.946 77.1172C107.227 77.768 106.85 78.0933 107.141 79.1209Z" fill="#292A33"/>
<path fill-rule="evenodd" clip-rule="evenodd" d="M105.772 83.094C105.737 84.2415 106.2 85.6972 106.525 86.5706C107.313 86.7247 107.912 87.3241 108.717 87.8721C110.207 87.5981 111.92 86.0397 112.947 85.8513C110.926 85.7657 112.639 85.9369 111.92 85.3033L110.995 83.5736C110.224 83.4194 110.413 83.4366 110.121 83.0598C109.351 82.8885 107.724 82.8885 105.874 82.4261L105.754 83.094H105.772Z" fill="#EDF4FA"/>
<path fill-rule="evenodd" clip-rule="evenodd" d="M104.298 90.0642C105.258 90.4067 104.692 90.5095 105.446 90.0984C106.354 89.6018 106.165 90.0642 106.045 89.1394L104.23 88.266L104.298 90.0642Z" fill="#F0F4FB"/>
<path fill-rule="evenodd" clip-rule="evenodd" d="M124.13 76.7062C125.038 76.963 125.552 77.2371 126.151 77.9392C126.579 77.6309 127.059 77.4426 127.675 77.0829L126.562 76.6719L124.233 75.4731C122.606 74.8395 120.928 75.5074 120.123 76.9288C119.506 78.0248 119.986 78.2646 120.071 78.4187C120.962 78.0077 120.294 78.5386 121.013 77.5282C122.383 75.5759 123.959 76.2951 124.13 76.7233V76.7062Z" fill="#94B7C8"/>
<rect width="24" height="25" transform="translate(71 16)" fill="white"/>
<rect width="16" height="25" transform="translate(80 11)" fill="white"/>
<rect width="24" height="20" transform="translate(53 30)" fill="white"/>
<path fill-rule="evenodd" clip-rule="evenodd" d="M13.1555 90.8863L13.4295 93.2839C14.2687 93.5408 13.772 93.5922 14.6454 94.6368C16.2724 96.5549 16.9574 94.8937 18.4473 95.3561C19.3721 95.6473 17.8651 95.613 19.6633 95.6815C21.2046 95.75 21.3758 95.3047 21.7184 94.3628L22.4376 92.7701L22.1636 90.2355C22.0951 87.1529 21.9924 84.1045 21.6327 81.039C21.3073 78.1619 20.3997 75.6958 20.0058 73.0927C19.9715 72.6816 19.9544 71.9795 19.903 71.6027C19.8859 71.4828 19.8345 71.1232 19.8174 71.0205C19.6633 70.3012 19.8859 70.8492 19.5605 70.3183C19.766 69.2736 19.5605 67.0644 19.1152 66.3623L18.807 63.8105C18.1562 62.1493 18.1391 59.7517 16.3409 59.2208C12.0423 62.0123 12.539 85.6116 13.1555 90.8863Z" fill="#5580FF"/>
<path fill-rule="evenodd" clip-rule="evenodd" d="M22.4374 92.7873C23.4136 93.3524 23.7904 93.6264 24.1158 94.7225C22.3347 98.6956 14.0116 98.4901 12.1963 94.654L13.4122 93.301L13.1382 90.9034C9.31913 91.52 10.7577 95.9213 11.8537 98.3189C13.2409 101.367 11.8195 103.868 16.3064 105.049C18.6869 105.101 20.7762 105.34 22.6258 103.696C24.2356 102.275 23.5164 99.4492 24.7837 98.0277C26.2736 93.7292 26.8901 92.2906 22.1463 90.2698L22.4203 92.8044L22.4374 92.7873Z" fill="#F9D64C"/>
<path fill-rule="evenodd" clip-rule="evenodd" d="M16.3237 105.032C19.1152 107.704 26.2053 105.888 29.8531 105.734C30.8292 104.364 29.5448 105.289 30.795 104.655C31.48 104.313 31.9081 104.433 32.5418 104.022L32.5761 101.333C31.1717 100.237 31.1717 100.203 29.4078 99.7232C27.5582 99.2265 27.2671 99.2094 25.1435 99.158L24.8181 98.0277C23.5508 99.432 24.2701 102.258 22.6603 103.696C20.8107 105.34 18.7385 105.118 16.3409 105.049L16.3237 105.032Z" fill="#D9D8D6"/>
<path fill-rule="evenodd" clip-rule="evenodd" d="M13.4293 93.2839L12.2134 94.6368C14.0287 98.473 22.3518 98.6956 24.1329 94.7054C23.8075 93.6093 23.4307 93.3353 22.4546 92.7701L21.7353 94.3628C21.3928 95.3048 21.2215 95.75 19.6802 95.6815C17.8991 95.5959 19.3891 95.6473 18.4643 95.3561C16.9743 94.8937 16.2893 96.5549 14.6624 94.6368C13.7889 93.5922 14.2685 93.5408 13.4464 93.2839H13.4293Z" fill="#242E61"/>
<path fill-rule="evenodd" clip-rule="evenodd" d="M66.4851 50.8634C66.9475 50.2469 70.0301 48.5515 71.0919 48.2261L82.3606 41.7183L87.3613 38.8412C87.8922 38.0705 88.5773 38.3103 89.3993 37.2313C89.1082 37.1971 89.2281 37.6081 88.9712 36.9402C88.6972 36.1696 89.4678 37.2656 89.1253 36.7176C87.8922 36.769 84.6041 37.9335 84.0903 38.2075C85.4604 37.591 84.6555 37.8993 84.724 38.6185C84.8439 39.629 85.1179 38.6357 84.5356 39.1666C83.097 40.5024 84.9637 39.0638 83.2854 39.0981L81.1618 39.4234C81.8126 38.824 81.453 39.0809 82.0524 38.6185C83.2683 37.6424 83.7478 38.0705 84.3815 36.7861C83.8677 36.4949 82.823 36.3237 82.2236 36.7176C81.7441 37.0258 82.4805 36.8032 81.7441 37.0601C80.2713 37.6081 80.9221 36.906 80.7337 36.6662C81.2817 36.7005 81.9496 36.1524 82.4805 35.8784C83.8506 35.1591 83.7649 35.5188 84.6726 33.8576C82.5148 33.9775 81.9154 34.8509 79.826 35.9812C79.4664 36.1696 79.1239 36.3751 78.8841 36.4949L62.4948 45.9655C60.4397 46.9245 58.6929 48.2432 56.7405 49.4077C56.1411 48.7912 56.5864 49.7845 56.5864 48.9967L56.7405 48.7741C56.4665 49.1851 56.672 48.9454 56.1583 49.2022L55.2677 49.5448L54.6854 38.6357L61.1418 38.8412C61.5529 38.2418 61.4844 38.3274 62.0838 37.7451C63.2826 36.5634 64.6697 35.2105 64.9609 33.5322C63.9162 33.0869 64.8924 33.6521 64.2416 33.1212L63.2654 31.6655C61.57 28.1547 60.3369 30.9462 59.2409 33.3781C58.6244 34.7481 57.9565 36.2723 57.1515 37.1971V36.3922C55.3705 37.1457 56.6892 37.0772 54.6683 37.3512C54.6683 34.3542 54.2744 32.5903 55.2506 30.5866C54.223 30.107 55.1307 30.6893 54.7197 29.7988C53.7949 27.8122 54.6341 28.0348 54.5484 27.0244C52.4077 27.8293 53.0242 28.463 53.0242 33.5322V58.1761C54.9937 57.7994 63.4024 51.9424 66.4166 50.8634H66.4851Z" fill="#F9FAFA"/>
<path fill-rule="evenodd" clip-rule="evenodd" d="M68.4373 18.667C67.6495 19.7801 65.2861 20.8419 64.1216 21.2529C63.4879 22.3319 55.7128 25.6714 54.5997 27.0414C54.6853 28.0519 53.8461 27.8292 54.7709 29.8158C55.1819 30.7064 54.2914 30.1241 55.3018 30.6036C54.3257 32.6073 54.7195 34.3541 54.7195 37.3683C56.7404 37.0771 55.4217 37.1628 57.2028 36.4092L58.1789 34.6795C58.9496 33.104 60.9362 27.6066 63.0255 30.2611C63.2653 30.5693 63.4194 30.8776 63.5907 31.1859C63.9846 31.888 64.2928 32.4018 64.721 33.0183C68.0091 32.3333 67.1528 28.1204 70.304 27.0414C72.222 26.9216 72.6331 31.0317 74.9622 27.932C75.5616 27.1271 75.8013 26.7161 76.4007 25.8426C78.747 22.4689 79.2607 23.9759 80.3568 24.4212L81.1274 24.2328C80.7507 22.7258 82.2235 22.075 78.8326 22.075L78.4216 21.39C76.5035 21.2872 72.8899 21.5441 71.8282 21.1331C71.8624 19.3691 72.3591 19.5575 71.7768 17.3654C72.9585 18.4443 72.4789 15.9268 72.5988 19.1294C72.6844 21.5098 72.4276 20.3282 72.0165 20.8419H73.3695C72.7187 20.0884 72.6502 19.0266 72.9071 17.9477C73.3523 16.0981 72.1364 18.4957 73.1982 17.2798C71.9138 17.2798 71.9309 17.7079 71.7254 17.4168C71.6569 17.314 71.5199 17.451 71.4 17.451C70.8006 17.5195 70.3725 17.8107 69.8416 18.0847C68.8311 18.6156 69.2593 18.4957 68.4201 18.667H68.4373Z" fill="#FEFDFE"/>
<path fill-rule="evenodd" clip-rule="evenodd" d="M88.4405 7.20985C87.9096 8.08326 86.2484 8.73404 85.3065 9.09368C84.9468 9.65883 80.6654 12.0393 79.4323 12.5017C79.2439 12.6901 79.792 12.3476 79.0213 12.8613C78.8501 12.9812 78.6788 13.0497 78.4733 13.1696C77.9938 13.4607 77.8054 13.5977 77.3087 13.8718L73.5411 16.1495C72.9246 18.5471 74.209 17.7422 75.8531 17.8621C78.7131 18.0676 77.4286 17.4168 79.1583 18.7526C80.1859 17.1085 82.1039 18.0162 83.2685 18.0847C83.5939 17.5367 84.8783 17.9306 86.1114 17.7593C85.5805 16.5262 85.1866 15.5158 86.1456 14.4369C86.7279 13.495 86.9505 12.3818 87.8411 11.4228C88.5603 10.6521 89.9818 9.59033 91.1121 10.2754C92.1739 10.7378 92.6363 11.1316 92.6363 12.5188L92.6534 15.2247L94.6742 15.3274C94.5543 14.0601 94.3831 14.0259 94.4173 12.7928L95.1024 13.7176V3.76758C92.8932 4.60674 90.3072 6.86734 88.4062 7.20985H88.4405Z" fill="#FBFBFB"/>
<path fill-rule="evenodd" clip-rule="evenodd" d="M60.0115 21.527C59.6005 22.1949 54.1032 25.1919 52.9557 25.5686C52.3906 26.305 51.2603 26.3564 50.8322 27.0243C50.1643 28.069 51.2603 28.4115 51.4829 28.5314L52.1851 28.8054L52.2022 52.6273C52.2022 55.2133 52.579 58.6384 51.5001 60.1112C52.6989 61.173 52.6132 60.5565 52.8016 62.389C54.9423 61.6183 58.2476 59.3748 60.3198 58.2274C61.8269 57.4054 66.4508 55.1105 67.2729 53.946C66.0569 54.22 66.5536 53.6377 65.115 53.398L66.4851 50.8291C63.4538 51.908 55.0622 57.765 53.0928 58.1418V33.4979C53.0928 28.4286 52.4591 27.795 54.6169 26.9901C55.7472 25.62 63.5052 22.2805 64.1388 21.2016C64.0875 21.116 64.0018 20.8591 63.9847 20.7906C63.9676 20.7221 63.8991 20.4309 63.8648 20.3624C63.5908 19.5404 64.1217 20.1569 63.5908 19.8315L63.0599 19.6089C62.6832 20.1398 63.0771 19.763 62.4434 20.3282C62.4091 20.3453 61.8097 20.7392 61.7412 20.7906C61.1247 21.116 60.6623 21.2872 60.0458 21.5098L60.0115 21.527Z" fill="#28427B"/>
<path fill-rule="evenodd" clip-rule="evenodd" d="M82.0352 45.6914C80.9392 46.5134 75.4418 49.1508 75.0137 50.0071V60.8819C76.9831 61.1388 78.5587 60.6079 80.8535 61.1902L81.7612 60.8134L81.7441 50.3154C81.7783 49.4591 82.3949 47.0615 81.1961 48.2431L83.1998 47.4211C85.0665 46.5819 86.779 45.1776 88.2861 43.9275C89.2965 43.0883 89.0396 44.2528 89.7076 42.6602C88.5773 43.0027 88.3204 42.9342 87.5668 43.1397L87.1558 43.0198L82.0352 45.7085V45.6914Z" fill="#F4F9FC"/>
<path fill-rule="evenodd" clip-rule="evenodd" d="M71.0746 48.2261C72.0165 48.9454 71.2972 48.1576 71.7425 49.1166L69.8415 50.8806C70.6978 51.1374 71.1945 50.9833 71.2801 50.6066C71.2972 50.5209 71.3829 50.5209 71.4514 50.5038C72.1706 51.1546 71.7082 50.4353 71.7939 51.5656C72.6844 51.206 72.0336 51.4115 72.8214 51.3258C73.0612 50.9491 72.8214 50.9662 73.1811 51.1546L73.0783 63.057C68.7284 63.6906 66.7075 63.0227 66.4678 65.0093L73.0612 64.5469C72.9242 66.739 72.359 69.0338 72.6502 71.2088L73.5578 71.2259L73.8661 70.5752L73.986 69.5305V69.2907L74.4312 64.6668C77.2399 64.6668 79.9457 65.7286 82.7543 65.5059L82.566 64.4613L74.5682 63.0741L74.4997 52.9357C74.4655 50.127 74.3456 50.6579 74.9793 49.99C75.4074 49.1337 80.9048 46.4964 82.0008 45.6743L82.6173 44.407C82.4975 44.4413 82.3605 44.4755 82.2406 44.5269L80.7506 45.1263C81.1617 45.0236 81.1274 44.1159 81.1616 44.0474L81.8296 43.6021C82.6516 43.311 81.3329 42.9342 82.84 43.5165C82.7886 43.4309 82.6858 43.3452 82.6345 43.2767C81.5727 41.9409 82.4803 42.2492 82.3433 41.7012L71.0746 48.2089V48.2261Z" fill="#243264"/>
<path fill-rule="evenodd" clip-rule="evenodd" d="M88.2348 5.60009L87.7895 7.0729C88.2348 7.41541 87.1387 7.84356 88.4403 7.20991C90.3583 6.85027 92.9272 4.60679 95.1364 3.76763V13.7177V33.8233C94.5884 34.7481 90.3755 37.0943 89.3993 37.2313C88.5773 38.3102 87.8922 38.0705 87.3613 38.8411C87.1901 39.8002 86.6421 38.6185 87.9436 39.8002L89.8274 41.1531L90.1186 41.0504L90.6666 40.9818L97.7567 36.9059C97.945 33.9432 96.4894 35.0563 96.027 33.5493L96.0098 5.00069C96.0098 3.30524 96.4722 2.9456 96.3695 1.67829C96.3181 1.66117 96.2496 1.62692 96.2153 1.60979C96.1811 1.59267 96.0783 1.55841 96.0441 1.54129L94.948 1.35291C94.0061 2.75722 89.3308 4.38416 88.2519 5.60009H88.2348Z" fill="#252956"/>
<path fill-rule="evenodd" clip-rule="evenodd" d="M83.2683 18.0848C82.823 19.1466 82.8915 19.3521 83.097 20.7392C85.3063 20.7735 85.0836 21.0133 85.5803 21.4928L82.9943 21.5784C80.4939 21.0646 80.4768 21.5955 79.6034 21.0304C78.4046 20.842 79.3979 20.6365 78.4046 21.39L78.8156 22.0751C82.2065 22.0751 80.7337 22.7258 81.1105 24.2329L80.3398 24.4213L80.5624 25.8598C79.6376 26.0653 79.6548 26.4935 79.2951 26.973C77.5312 29.285 77.377 28.874 74.3458 29.2336L73.5409 29.5419C73.2669 29.9871 73.6436 29.4391 72.9586 29.97L71.4173 31.4086C71.2974 31.5113 70.9892 31.734 70.7494 31.9395C68.3518 33.8576 68.5573 32.3162 67.2557 32.1964C66.1426 32.693 66.6906 32.5046 66.3823 33.0869C67.9236 33.9774 68.2833 34.1829 70.6124 34.0631C70.9035 33.6863 71.0234 33.5493 71.4002 33.1725L74.3287 30.5694C74.7568 30.3468 76.6406 30.0899 77.1887 29.9358C79.7061 29.1822 78.182 29.9186 79.9288 28.5486C80.9734 29.422 80.374 29.1309 82.2236 29.1994L82.3606 30.6208C82.8059 29.5419 82.5319 29.5247 82.6346 28.2917L82.8744 26.9901C83.2169 25.4146 82.6689 24.4042 82.7032 22.3833L86.0084 22.1436C85.6145 23.6677 85.8714 23.428 85.8543 24.8665C85.8543 26.014 85.2035 26.5791 86.1112 27.6923C86.0084 25.877 86.0769 25.1919 86.8305 23.8219C87.4812 22.6745 87.5669 22.4689 88.6287 21.5784C88.0121 21.1503 87.2072 20.9276 87.2243 21.1845L89.3137 20.8934C87.9608 19.4548 89.1596 21.6983 86.899 19.6432C87.9608 19.883 87.721 20.0028 89.1082 19.6603C89.1767 19.6432 89.3137 19.6603 89.3651 19.5576C89.4164 19.4548 89.5363 19.4891 89.6219 19.4548C88.817 18.9582 88.5944 19.3349 87.3442 19.2836L86.5393 18.1704C86.231 17.2798 86.0427 15.8755 86.1454 14.4541C85.1864 15.533 85.5803 16.5434 86.1112 17.7765C84.8781 17.9478 83.5937 17.571 83.2683 18.1019V18.0848Z" fill="#F6F5EC"/>
<path fill-rule="evenodd" clip-rule="evenodd" d="M82.7718 65.523L83.3369 66.1738L81.4873 67.6637C78.8842 69.3934 77.1031 68.657 74.0205 69.2907V69.5304C76.2469 70.284 75.4933 69.1023 75.8872 69.9928C80.4769 69.1023 79.9631 71.0718 86.6079 67.9206C86.8306 65.934 86.6764 65.1634 85.3406 64.4099C80.768 61.8239 80.8879 63.4166 78.5588 62.5089C77.7368 62.1835 77.497 62.1664 76.6407 61.978C76.0413 61.841 75.3392 61.8924 75.0138 61.4471V60.8648V49.99C74.3801 50.6408 74.5 50.1099 74.5343 52.9356L74.6028 63.0741L82.6005 64.4612L82.7889 65.5059L82.7718 65.523Z" fill="#D4DADD"/>
<path fill-rule="evenodd" clip-rule="evenodd" d="M74.0203 69.5476L73.9004 70.5923L75.0136 70.3182C77.5653 70.5923 79.9115 70.9519 82.6516 70.6265C83.388 70.5409 84.9636 70.2326 85.8542 70.01C85.9398 69.9929 86.0083 69.9757 86.0939 69.9415L86.5221 69.7873C87.8407 69.3421 87.4126 69.5133 89.1594 69.4106C89.4506 68.383 90.1013 67.9035 90.3925 66.7732C89.6389 65.5573 90.187 67.0815 89.1765 65.3004C89.1423 65.249 89.108 65.1634 89.0909 65.0949C88.3716 63.8961 85.7685 62.8857 84.33 62.4404C81.2473 61.5156 78.4045 61.4642 75.0307 61.4642C75.3561 61.9095 76.0582 61.8581 76.6576 61.9951C77.4968 62.1835 77.7366 62.2006 78.5757 62.526C80.9048 63.4166 80.8021 61.8239 85.3575 64.427C86.6933 65.1805 86.8303 65.9512 86.6248 67.9378C79.98 71.106 80.4938 69.1194 75.9041 70.01C75.5102 69.1194 76.2809 70.3011 74.0374 69.5476H74.0203Z" fill="#DCE3EB"/>
<path fill-rule="evenodd" clip-rule="evenodd" d="M92.9273 41.3586L95.5989 41.8039C98.0307 42.0779 98.3561 40.7764 100.36 40.7421C100.822 40.2797 99.9488 40.7764 101.096 40.2112C101.422 40.0571 101.798 39.9543 102.192 39.8345C102.963 39.6118 103.46 39.4919 104.247 39.3549L103.836 35.0221L103.853 33.5493L103.477 34.4056C102.792 36.1182 102.655 35.3989 102.518 35.9983C102.329 36.8717 102.638 35.3818 102.638 36.4778L101.816 36.2723C101.079 36.3237 100.326 36.9745 100.034 37.1457L92.9102 41.3415L92.9273 41.3586Z" fill="#F1F5F9"/>
<path fill-rule="evenodd" clip-rule="evenodd" d="M74.0205 69.2907C77.1032 68.6399 78.9014 69.3934 81.4874 67.6637L83.3369 66.1738L82.7718 65.523C79.9632 65.7456 77.2573 64.6838 74.4487 64.6838L74.0034 69.3078L74.0205 69.2907Z" fill="#C7CCD5"/>
<path fill-rule="evenodd" clip-rule="evenodd" d="M66.4849 65.0264C67.5295 67.4753 69.8073 68.5543 72.1706 69.2907C72.3761 70.9005 71.5712 70.0613 72.6844 71.2259C72.3761 69.0509 72.9413 66.7561 73.0954 64.564L66.502 65.0264H66.4849Z" fill="#C7CCD5"/>
<path fill-rule="evenodd" clip-rule="evenodd" d="M66.4853 50.8634L65.1152 53.4322C66.5709 53.6891 66.0571 54.2543 67.2731 53.9802C68.352 53.9117 68.6945 53.4836 69.6878 52.9185C70.4756 52.4732 71.3319 51.9594 71.8114 51.5998C71.7258 50.4695 72.2053 51.1888 71.4689 50.538C71.4004 50.5551 71.3148 50.5551 71.2976 50.6407C71.1949 51.0004 70.6982 51.1545 69.8591 50.9147L71.76 49.1508C71.3148 48.2089 72.0169 48.9795 71.0921 48.2603C70.0474 48.5685 66.9477 50.264 66.4853 50.8976V50.8634Z" fill="#253973"/>
<path fill-rule="evenodd" clip-rule="evenodd" d="M87.7382 24.3185C87.3614 25.7399 87.0017 26.3565 87.5155 27.7437C89.622 30.2269 93.0129 24.661 90.855 22.0922C89.1938 22.212 88.5431 23.0341 87.7382 24.3185Z" fill="#FBFBFB"/>
<path fill-rule="evenodd" clip-rule="evenodd" d="M88.3377 17.6052C90.1359 17.1599 90.7695 16.1324 91.3175 14.6767L91.4717 11.9366L90.8551 11.2687C89.3138 11.1488 88.8857 11.8338 88.2007 12.9299C87.2245 14.5054 87.2587 14.7452 87.3786 16.8688L88.3377 17.6052Z" fill="#F8F8F8"/>
<path fill-rule="evenodd" clip-rule="evenodd" d="M90.8552 22.0921C93.0301 24.661 89.6221 30.2269 87.5157 27.7436C87.0019 26.3565 87.3615 25.7399 87.7383 24.3185C87.293 23.6848 88.0808 24.0274 86.8306 23.8047C86.06 25.1748 86.0086 25.8598 86.1114 27.6751C88.8001 33.7719 95.8388 24.2842 91.3176 21.1674H90.9066L90.8552 22.1093V22.0921Z" fill="#5580FF"/>
<path fill-rule="evenodd" clip-rule="evenodd" d="M74.9281 13.084C74.3801 14.0773 73.9862 14.1972 72.9415 14.574C72.051 14.6596 68.3005 16.7661 67.6668 17.4511C67.4099 18.5985 67.4099 17.297 68.232 18.3416C68.2491 18.3759 68.3005 18.4444 68.3176 18.4615C68.3347 18.4787 68.369 18.5472 68.369 18.5643C68.4375 18.667 67.9237 18.7184 68.4546 18.667C69.2766 18.4958 68.8485 18.6157 69.876 18.0848C70.4069 17.8108 70.8351 17.5196 71.4345 17.4511L72.2908 16.6976C73.1984 16.1496 72.6333 16.4749 73.5581 16.1324L77.3257 13.8547C77.2572 12.6559 77.3257 12.6388 76.3838 12.2963C75.87 12.536 75.4762 12.81 74.9453 13.0498L74.9281 13.084Z" fill="#25356B"/>
<path fill-rule="evenodd" clip-rule="evenodd" d="M82.3608 41.7182C82.4978 42.2662 81.5901 41.958 82.6519 43.2938C82.7033 43.3623 82.806 43.4479 82.8574 43.5336C81.3503 42.9513 82.6519 43.328 81.847 43.6192L81.1791 44.0644C81.1448 44.133 81.1962 45.0406 80.7681 45.1434L82.258 44.544C82.3779 44.5097 82.4978 44.4583 82.6348 44.4241L82.0182 45.6914L87.1388 43.0027C86.6251 42.095 87.2416 42.9684 86.6764 42.4546C85.6489 41.547 85.6489 42.1464 85.8715 40.5537C87.3101 40.2112 86.882 40.7934 87.9266 39.783C86.6251 38.6185 87.1731 39.8001 87.3443 38.824L82.3436 41.7011L82.3608 41.7182Z" fill="#242D62"/>
<path fill-rule="evenodd" clip-rule="evenodd" d="M67.2559 32.1964C68.5745 32.3163 68.3519 33.8405 70.7495 31.9395C70.9893 31.734 71.2975 31.5285 71.4174 31.4086L72.9587 29.9701C73.6438 29.4392 73.267 29.9872 73.541 29.5419C72.5477 29.4905 72.4278 29.2165 71.9141 28.6856C70.9893 27.7095 70.1501 26.3051 68.4889 29.3535C67.8553 30.5009 67.41 31.1004 67.2559 32.1964Z" fill="#F9FAFA"/>
<path fill-rule="evenodd" clip-rule="evenodd" d="M78.9011 10.8235L78.8154 11.8339L79.432 12.5189C80.665 12.0565 84.9464 9.67605 85.3061 9.1109L85.6315 7.67234C85.289 7.3127 86.1452 6.91881 85.1006 7.51821L84.6896 7.26132C84.2785 7.75797 84.0902 8.01486 83.388 8.42587C82.8057 8.76839 82.3605 8.88827 81.8124 9.16228C80.7849 9.69318 79.7916 10.3097 78.9011 10.8235Z" fill="#243264"/>
<path fill-rule="evenodd" clip-rule="evenodd" d="M74.3457 29.2336C77.377 28.874 77.5311 29.285 79.2951 26.973C79.6547 26.4935 79.6376 26.0654 80.5624 25.8599L79.7746 24.8666C79.6033 24.6611 79.4492 24.5069 79.2094 24.2843C76.555 24.5069 77.1372 27.0073 74.3286 29.2165L74.3457 29.2336Z" fill="#F9FAFA"/>
<path fill-rule="evenodd" clip-rule="evenodd" d="M86.1626 14.4199C86.0598 15.8413 86.2653 17.2285 86.5565 18.1362L88.3204 18.1704L88.3375 17.6053L87.3785 16.8689C87.2586 14.7453 87.2244 14.5055 88.2005 12.93C88.8856 11.8339 89.3137 11.1489 90.855 11.2688L91.129 10.2583C89.9987 9.57331 88.5602 10.6522 87.858 11.4058C86.9675 12.3648 86.7448 13.478 86.1626 14.4199Z" fill="#EFDE6D"/>
<path fill-rule="evenodd" clip-rule="evenodd" d="M63.5737 19.8658C64.1046 20.2083 63.5737 19.5918 63.8477 20.3967C63.8649 20.4652 63.9505 20.7564 63.9676 20.8249C63.9847 20.8934 64.0704 21.1502 64.1218 21.2359C65.2692 20.8249 67.6497 19.7802 68.4374 18.6499C67.9065 18.7184 68.4203 18.6499 68.3518 18.5471C68.3347 18.53 68.3176 18.4615 68.3004 18.4444C68.2833 18.4273 68.2319 18.3416 68.2148 18.3245C67.4099 17.2798 67.4099 18.5814 67.6497 17.434C66.6392 17.7422 66.2796 18.0847 65.3548 18.5471L63.882 19.4719C63.8477 19.5062 63.7621 19.6946 63.7279 19.6432C63.6936 19.5918 63.6251 19.7631 63.5737 19.8316V19.8658Z" fill="#25356B"/>
<path fill-rule="evenodd" clip-rule="evenodd" d="M79.6206 21.0303L82.6176 20.8419C82.0867 20.3967 81.727 21.664 81.7955 19.4034C81.8469 17.4168 81.5387 18.8896 82.5833 18.1874C81.1448 18.3758 81.1619 17.8449 79.4836 18.2559C79.1068 19.1122 79.0554 19.1807 79.2952 20.0713L79.6035 21.0303H79.6206Z" fill="#F7F7F7"/>
<path fill-rule="evenodd" clip-rule="evenodd" d="M88.3376 17.6052L88.3205 18.1704C88.1321 18.5643 88.2006 18.4615 88.0122 18.7013L89.9817 18.4273C91.0263 17.5538 91.8312 16.9373 92.3793 15.122C92.0368 14.437 92.9273 14.5911 91.3004 14.6767C90.7523 16.1324 90.1187 17.16 88.3205 17.6052H88.3376Z" fill="#5580FF"/>
<path fill-rule="evenodd" clip-rule="evenodd" d="M85.1006 7.51814C86.1453 6.91874 85.289 7.31264 85.6315 7.67228L85.3061 9.11084C86.248 8.7512 87.9092 8.10042 88.4401 7.22701C87.1385 7.86066 88.2346 7.43251 87.7893 7.09L88.2346 5.61719C87.2584 5.99395 85.7342 6.59335 85.1006 7.53527V7.51814Z" fill="#243264"/>
<path fill-rule="evenodd" clip-rule="evenodd" d="M88.6459 21.5442C87.5841 22.4347 87.4984 22.6573 86.8477 23.7876C88.0978 24.0274 87.2929 23.6849 87.7553 24.3014C88.5602 23.017 89.211 22.195 90.8722 22.0751L90.9236 21.1332H91.3346L90.3413 20.9105L88.6459 21.527V21.5442Z" fill="#FDE452"/>
<path fill-rule="evenodd" clip-rule="evenodd" d="M72.9244 14.574C73.9862 14.1972 74.38 14.0774 74.9109 13.0841C74.3115 12.9984 74.6712 13.4094 74.5513 12.6559L74.3972 10.9776L73.0956 10.9091L73.1812 10.892C73.0956 12.3648 73.3011 13.3752 72.9072 14.574H72.9244Z" fill="#252956"/>
<path fill-rule="evenodd" clip-rule="evenodd" d="M52.8018 62.4061C52.6134 60.5737 52.699 61.1902 51.5002 60.1284L50.7295 60.4024C50.524 61.9951 50.8152 62.1664 51.8085 62.937L52.8018 62.4061Z" fill="#25356B"/>
<path fill-rule="evenodd" clip-rule="evenodd" d="M76.3667 12.3306C77.3086 12.6731 77.2401 12.6902 77.3086 13.889C77.8053 13.615 77.9936 13.4608 78.4732 13.1868C78.6787 13.067 78.8499 12.9985 79.0212 12.8786C79.7918 12.3819 79.2438 12.7073 79.4322 12.5189L78.8157 11.8339L78.9013 10.8235L76.3667 12.3306Z" fill="#243264"/>
<path fill-rule="evenodd" clip-rule="evenodd" d="M91.3174 14.6767C92.9443 14.591 92.0538 14.4369 92.3963 15.1219L92.6874 15.2076L92.6703 12.5017C92.1737 13.0155 92.6874 12.9127 92.1565 12.6216C92.1052 12.5873 91.8997 12.3647 91.8483 12.3133L91.4715 11.9194L91.3174 14.6596V14.6767Z" fill="#5580FF"/>
<path fill-rule="evenodd" clip-rule="evenodd" d="M90.855 11.2687L91.4715 11.9366L91.8483 12.3305C91.8997 12.3647 92.1052 12.6045 92.1565 12.6387C92.6874 12.9299 92.1737 13.0326 92.6703 12.5189C92.6532 11.1317 92.2079 10.7378 91.1461 10.2754L90.8721 11.2858L90.855 11.2687Z" fill="#5580FF"/>
<path fill-rule="evenodd" clip-rule="evenodd" d="M56.6035 37.7794V38.0877C57.4085 37.3341 58.0764 36.4265 58.6929 35.6044C59.7889 34.1316 61.0049 32.4704 62.7174 32.9499L63.6936 33.0184C64.3444 32.8814 63.3682 33.1726 64.4129 32.8129L65.6117 32.0765C65.6459 32.0594 65.7144 32.008 65.7658 31.9738C66.0741 31.597 65.5261 31.9395 66.6392 31.2031C66.7934 30.7065 67.2386 30.2612 67.8723 29.5077C69.5506 27.5211 70.3726 27.6238 71.2974 27.5382C71.8112 27.4868 71.9311 27.5382 72.9244 27.0587L73.7293 26.5449C76.5379 24.3014 75.9728 23.6335 78.6101 22.2292C78.8499 22.195 79.004 22.1778 79.1753 22.1778L79.963 22.1607L79.7404 21.7155C78.6615 22.0922 78.1477 21.7668 75.7844 24.2158C75.185 24.8495 74.9452 25.1235 74.3458 25.7229C72.0167 28.0691 71.6057 26.699 69.6876 27.7095C66.5365 29.6789 67.3928 30.8606 64.1046 32.7615C63.6765 32.7444 63.3682 32.693 62.9743 32.6245C62.8031 32.5903 62.6489 32.556 62.4092 32.556C60.337 32.5732 58.3332 35.6729 57.5626 36.6491L56.5864 37.7965L56.6035 37.7794Z" fill="#FDE452"/>
<path fill-rule="evenodd" clip-rule="evenodd" d="M57.2032 36.3922V37.1971C58.0081 36.2894 58.676 34.7481 59.2925 33.378C60.3885 30.9633 61.6045 28.1547 63.3171 31.6655L64.2932 33.1211C64.944 33.6349 63.9678 33.0869 65.0125 33.5322L66.2113 33.1554C66.2455 33.1383 66.3141 33.104 66.3654 33.0869C66.6737 32.5046 66.1257 32.693 67.2388 32.1964C67.393 31.1003 67.8382 30.5009 68.4719 29.3535C70.1502 26.3051 70.9722 27.6923 71.897 28.6856C72.4108 29.2165 72.5307 29.4905 73.524 29.5419L74.3289 29.2336C77.1375 27.0244 76.5724 24.524 79.2097 24.3014C79.4495 24.5069 79.6036 24.6782 79.7749 24.8837L80.5627 25.877L80.34 24.4384C79.2611 23.9931 78.7473 22.4861 76.384 25.8598C75.7846 26.7332 75.5448 27.1443 74.9454 27.9492C72.6163 31.0318 72.2053 26.9388 70.2872 27.0586C67.1361 28.1376 67.9924 32.3505 64.7042 33.0355C64.2761 32.4019 63.9678 31.8881 63.5739 31.2031C63.4027 30.8948 63.2485 30.5865 63.0088 30.2783C60.9366 27.6238 58.9329 33.1211 58.1622 34.6967L57.186 36.4264L57.2032 36.3922Z" fill="#94B7C8"/>
<path fill-rule="evenodd" clip-rule="evenodd" d="M81.0421 36.6832C81.0764 36.7346 81.0592 36.8203 80.9907 36.8374L57.8539 50.0756C57.8025 50.1098 57.7169 50.0927 57.6997 50.0242C57.6655 49.9728 57.6826 49.8872 57.7511 49.8701L80.888 36.6319C80.9394 36.5976 81.025 36.6147 81.0592 36.6832H81.0421Z" fill="#CCCCCC"/>
<path fill-rule="evenodd" clip-rule="evenodd" d="M80.9733 38.9953C81.0075 39.0467 80.9904 39.1323 80.9219 39.1494L57.785 52.3705C57.7337 52.4047 57.648 52.3876 57.6309 52.3191C57.5966 52.2677 57.6138 52.1821 57.6823 52.165L80.8191 38.9268C80.8705 38.8925 80.9561 38.9097 80.9733 38.9782V38.9953Z" fill="#CCCCCC"/>
<path fill-rule="evenodd" clip-rule="evenodd" d="M107.227 68.5201L107.963 75.5587L107.946 77.1172L108.1 76.9459L109.419 76.9802L109.59 76.415L109.505 73.5379C109.453 73.4694 109.402 73.3838 109.385 73.3324L108.066 66.1053L107.296 64.5983L107.261 68.5029L107.227 68.5201Z" fill="#ECF2F5"/>
<path fill-rule="evenodd" clip-rule="evenodd" d="M108.1 76.9459C108.254 78.6243 108.563 78.7613 107.141 79.1209L106.251 79.0353L105.942 79.8573C107.997 81.8268 108.134 80.5423 110.121 81.1589L110.224 78.4873L109.933 77.1001C109.916 77.0316 109.847 76.9288 109.83 76.8603C109.813 76.8089 109.727 76.7576 109.71 76.6377C109.693 76.5178 109.624 76.4835 109.573 76.415L109.402 76.9802L108.083 76.9459H108.1Z" fill="#C8CACB"/>
<path fill-rule="evenodd" clip-rule="evenodd" d="M105.069 79.9771C104.915 80.9362 104.881 80.6279 105.086 81.6726C105.104 81.7753 105.258 82.272 105.292 82.3747C105.549 83.0255 105.446 82.7344 105.634 83.0084L105.754 82.3062C107.672 82.7858 109.368 82.7858 110.19 82.9741L110.138 81.1759C108.152 80.5423 108.015 81.8438 105.96 79.8744C105.36 79.9258 105.806 79.823 105.069 79.9943V79.9771Z" fill="#C7CCD5"/>
<path fill-rule="evenodd" clip-rule="evenodd" d="M87.1558 43.0027L87.5668 43.1226L87.6182 42.7116H89.4677C89.5191 41.9409 89.6219 41.6669 89.8103 41.136L87.9264 39.7831C86.8818 40.8106 87.3099 40.2112 85.8713 40.5537C85.6487 42.1464 85.6658 41.547 86.6763 42.4547C87.2585 42.9685 86.642 42.0951 87.1386 43.0027H87.1558Z" fill="#E0A75C"/>
<path fill-rule="evenodd" clip-rule="evenodd" d="M110.121 81.176L110.172 82.9742C110.464 83.3681 110.258 83.351 111.08 83.5222C111.851 82.4776 111.012 82.7344 112.039 82.6488V80.5252L110.994 80.1998L110.703 79.2408L110.224 78.5044L110.121 81.176Z" fill="#11192B"/>
<path fill-rule="evenodd" clip-rule="evenodd" d="M105.292 77.0487L104.675 77.4597L104.418 77.9906C104.504 78.9667 104.487 79.2408 105.052 79.96C105.789 79.7888 105.326 79.8915 105.943 79.8402L106.251 79.0181C106.08 77.5453 106.08 76.8603 107.141 76.4664C106.097 76.3294 106.011 76.4321 105.275 77.0315L105.292 77.0487Z" fill="#11192B"/>
<path fill-rule="evenodd" clip-rule="evenodd" d="M107.141 79.1209C108.563 78.7613 108.254 78.6242 108.1 76.9459L107.946 77.1172C107.227 77.768 106.85 78.0933 107.141 79.1209Z" fill="#292A33"/>
<path fill-rule="evenodd" clip-rule="evenodd" d="M142.3 70.421L83.9703 102.326C80.9047 104.09 81.0246 108.988 85.2376 111.471L105.84 124.264C110.584 127.21 114.831 127.415 118.787 125.035L173.863 91.9823C177.751 89.5333 177.597 84.1387 174.12 82.135C166.448 77.6138 158.382 75.3874 150.692 70.8662C148.654 69.5989 144.989 68.9995 142.3 70.4038V70.421Z" fill="#9C9FA4"/>
<path fill-rule="evenodd" clip-rule="evenodd" d="M142.3 67.9206L84.5866 101.932C81.5211 103.696 81.0244 106.488 85.2202 108.971L105.822 121.764C110.566 124.71 114.813 124.915 118.77 122.535L173.846 89.4819C177.733 87.0329 177.203 83.916 173.726 81.9123C166.054 77.3911 158.364 72.8871 150.692 68.3659C148.654 67.0986 144.989 66.4992 142.3 67.9035V67.9206Z" fill="#D9D8D6"/>
<path fill-rule="evenodd" clip-rule="evenodd" d="M161.19 73.0583C160.557 73.9318 159.871 74.5654 158.947 75.1134C158.758 75.8841 158.775 75.7813 157.953 75.867L157.816 76.7232L158.519 77.0829L159.529 76.9288C159.837 76.2437 159.152 76.7917 160.18 76.0553C160.608 75.7471 160.813 75.7642 161.207 75.5758C161.978 74.9935 161.875 74.788 162.937 74.7024C163.331 73.8119 163.588 72.9556 164.324 72.2706C164.324 73.555 163.691 74.9079 163.228 77.0486C164.273 77.4083 164.016 77.2884 164.376 77.9392C163.862 78.5043 163.862 78.7098 162.954 78.7612C163.434 79.686 162.954 79.5147 163.999 79.9086L164.787 79.823C164.889 79.2407 165.626 78.9153 166.02 78.8811C166.722 78.8297 166.979 79.2407 167.766 79.4634C169.239 79.6346 167.955 79.686 169.154 79.1037C169.873 78.7612 169.976 78.7783 170.935 78.6413C169.993 75.8498 169.736 74.8565 170.883 72.1335C171.277 71.2088 171.74 70.1127 171.825 69.1365C171.979 67.4925 171.431 67.4582 170.489 66.3964L167.921 66.7732C166.773 66.8417 167.424 66.876 166.807 66.4821C166.516 66.2937 166.739 66.3964 166.362 66.071C165.232 65.0949 166.962 66.1567 166.054 65.8313C165.232 65.7114 164.941 65.7799 164.872 64.9065C161.961 66.6362 163.245 71.6027 161.19 73.0241V73.0583Z" fill="#333333"/>
<path fill-rule="evenodd" clip-rule="evenodd" d="M94.9136 76.0554C93.9546 77.3056 90.3411 78.1276 89.3306 79.9087C88.697 80.628 89.0053 80.3369 89.0395 81.1589C89.0738 81.8782 89.1765 82.1351 89.2621 83.488C89.4505 85.8856 89.6903 88.3003 89.8444 90.6979C89.93 91.8796 90.2383 93.4209 89.8615 94.4485C89.3306 95.9041 88.6799 95.613 89.9472 97.3085C91.4029 97.6338 91.8139 97.925 92.927 97.3085C93.4922 97.0002 94.5197 96.3837 94.9821 96.0069C93.9546 96.1439 94.7424 96.161 94.4341 95.5788L94.9308 93.7292L95.1363 93.575C94.965 93.1469 93.3894 92.4447 92.0194 94.38C91.3001 95.3904 91.968 94.8595 91.0775 95.2705C90.9918 95.1164 90.5123 94.8766 91.1288 93.7806C91.9338 92.3591 93.6292 91.6912 95.239 92.3249L95.2048 91.4686C95.4445 88.7285 94.4684 87.581 94.5711 85.8171C94.5197 85.7657 94.4684 85.5945 94.4512 85.6287L94.0916 84.8238C93.8518 84.0189 93.4922 81.2616 93.8176 80.6451C94.28 79.1038 95.7528 78.5044 97.0886 77.9393L97.7736 77.9221C97.8764 76.6548 98.0476 76.0383 97.3969 75.0621L94.8794 76.0554H94.9136Z" fill="#5580FF"/>
<path fill-rule="evenodd" clip-rule="evenodd" d="M165.438 92.9756C165.592 94.2772 165.934 94.8937 166.088 95.7842C169.051 97.0002 164.496 100.151 168.435 101.213C168.828 99.3293 168.828 98.4901 169.959 97.4283C170.935 96.5035 172.356 96.2124 173.024 95.0307L173.093 94.2772C173.333 93.301 173.435 92.8729 173.093 91.7597C172.853 90.7835 172.305 90.441 172.134 89.4648C171.945 88.3859 172.271 87.5639 171.911 86.3308C170.747 82.3234 163.314 84.1387 166.003 88.3345C167.047 89.9444 165.592 90.9719 165.42 92.9756H165.438Z" fill="#6A4224"/>
<path fill-rule="evenodd" clip-rule="evenodd" d="M170.472 66.4135C171.414 67.4753 171.945 67.5096 171.808 69.1537C171.722 70.1298 171.26 71.2259 170.866 72.1507C169.719 74.8908 169.976 75.8669 170.917 78.6584C172.613 78.8126 174.531 79.9429 174 81.7753C172.527 81.5356 173.486 79.8915 170.935 79.7031L170.832 81.3643C171.705 82.0836 174.103 83.7105 175.165 83.7105C176.723 81.3301 174.702 83.2139 175.062 78.5557C175.233 76.3807 175.37 74.2058 175.593 72.0308C175.764 70.1641 176.5 67.3383 175.421 65.9854C174.976 65.4374 171.739 63.6563 170.9 63.3994C171.072 64.3413 170.78 64.838 171.054 66.4307L170.506 66.4135H170.472Z" fill="#2D51FF"/>
<path fill-rule="evenodd" clip-rule="evenodd" d="M173.007 95.0478C172.339 96.2294 170.918 96.5206 169.942 97.4454C168.811 98.5072 168.811 99.3463 168.417 101.23L167.561 105.803C167.184 107.669 167.201 110.067 166.499 110.958L166.842 112.036C166.825 112.191 166.859 112.396 166.842 112.499L166.534 113.03C165.472 112.499 166.225 113.646 165.66 111.951C165.557 111.643 165.523 111.129 165.369 110.684C163.845 110.375 163.451 109.707 162.235 109.622C161.807 109.091 162.355 109.587 161.601 109.039C161.584 109.039 160.916 108.646 160.865 108.611C160.334 108.32 159.872 108.098 159.461 107.892C158.245 107.361 158.93 107.31 157.457 107.464C156.892 108.303 156.823 108.303 156.823 109.656C157.286 110.067 158.005 110.564 158.33 111.214C159.358 111.266 165.472 114.777 165.883 115.633L166.739 115.907L168.023 116.232C167.356 115.975 167.732 116.78 167.458 115.65C167.784 114.691 168.058 114.537 167.064 113.972C167.133 113.458 167.116 113.167 167.099 113.03L167.167 112.978C167.304 113.047 167.595 113.098 168.246 112.859C168.212 109.913 169.137 106.094 169.599 103.491C170.096 100.716 169.582 98.8154 173.435 97.3255L177.768 94.808C177.956 94.6881 178.059 94.5854 178.419 94.4141C177.306 91.5199 175.011 95.1334 172.99 95.0306L173.007 95.0478Z" fill="#2D51FF"/>
<path fill-rule="evenodd" clip-rule="evenodd" d="M167.493 115.667C168.554 115.376 172.784 113.047 173.298 112.328C174.531 111.865 176.09 111.009 177.203 110.101C177.22 107.258 176.073 110.016 177.1 102.241C177.443 99.6375 178.128 97.0001 178.436 94.4313C178.076 94.6025 177.974 94.7053 177.785 94.8252L173.452 97.3427C169.599 98.8326 170.113 100.716 169.616 103.508C169.154 106.111 168.246 109.93 168.263 112.876C166.499 113.526 167.338 112.019 167.082 113.989C168.092 114.554 167.801 114.725 167.475 115.667H167.493Z" fill="#0548A3"/>
<path fill-rule="evenodd" clip-rule="evenodd" d="M111.337 72.0822L111.423 73.144L111.68 77.6481L111.697 77.8365H111.731L111.902 78.6242L111.971 79.3093L111.919 80.6964V82.7344C112.587 82.409 112.433 82.546 112.776 81.8953C113.05 81.7411 112.93 81.8268 113.204 81.4842C113.512 81.1075 113.478 81.0218 113.82 80.6964C115.122 79.4291 114.985 80.5937 115.601 79.7032L117.759 80.4738C118.222 80.9191 117.04 80.9191 118.667 80.7821L120.037 81.5014C120.756 81.1931 121.476 80.6793 122.178 80.3026C123.582 79.5319 123.514 79.6175 123.24 77.6481L122.006 77.5453C122.024 74.3599 121.647 71.6198 121.527 68.5201C121.27 66.9102 121.236 64.0502 119.9 62.9884C118.65 62.7487 114.591 65.2662 113.546 66.0197C112.673 66.5335 112.108 66.9445 111.303 67.3041L111.217 68.3659L111.337 72.0822Z" fill="#5580FF"/>
<path fill-rule="evenodd" clip-rule="evenodd" d="M98.9211 138.873C99.8288 140.02 98.7156 138.376 99.5377 139.386C99.589 139.335 99.6575 139.164 99.6747 139.215L102.535 137.828C107.124 135.995 105.874 134.899 103.545 133.05C103.305 132.861 102.997 132.673 102.877 132.57C102.192 132.022 102.603 132.468 102.055 131.611L98.9211 130.995L98.6642 132.587C97.2599 133.153 96.4036 131.32 94.3828 133.683C95.0165 134.249 96.729 135.208 97.5511 135.653C99.0068 136.458 100 137.057 98.904 138.855L98.9211 138.873Z" fill="#DCE1E5"/>
<path fill-rule="evenodd" clip-rule="evenodd" d="M151.668 98.6442C151.702 98.6099 151.737 98.4387 151.737 98.4901C151.737 98.5243 151.788 98.3531 151.805 98.3359C152.233 97.4968 151.428 98.4216 151.942 98.0619C151.976 98.0448 152.542 98.079 152.696 98.0448C152.679 97.9934 152.627 97.8564 152.627 97.8907L152.85 97.2741L153.398 96.7604L151.206 95.7499L151.326 94.8765C152.73 94.7224 153.843 94.7395 154.631 95.6129H155.881C156.772 94.9622 157.628 95.1848 158.895 95.1163L157.474 94.6368C158.45 93.986 158.655 94.0545 159.34 93.1297C158.707 92.6673 158.125 92.3077 157.439 91.7939C155.196 90.1327 154.117 91.6226 149.716 93.4037C148.363 93.438 148.037 94.3114 146.548 94.5511L146.034 92.5646C145.794 90.9205 145.486 89.8758 145.212 88.3345C145.503 88.0776 145.588 88.0091 145.948 87.7865C146.667 87.3241 146.342 87.5125 146.993 87.2042C147.301 86.8959 150.093 85.132 150.709 84.995L151.668 84.0017L151.719 83.7791C150.486 84.4298 145.434 87.2213 144.715 87.9235C144.681 88.6256 145.88 94.4655 146.137 95.1848C146.565 96.3493 147.695 96.5891 148.671 97.1885C149.664 97.7879 150.641 98.5243 151.634 98.6271L151.668 98.6442Z" fill="#242D62"/>
<path fill-rule="evenodd" clip-rule="evenodd" d="M133.772 121.49C134.166 121.764 133.995 121.644 134.337 121.935C136.512 123.802 139.749 125.001 142.335 126.679L142.369 127.638C142.609 128.015 142.677 128.135 142.866 128.614L143.499 128.512C144.698 128.512 144.133 128.888 144.133 127.587C144.15 126.525 144.441 125.994 143.688 124.949C143.756 125.908 144.047 125.326 143.448 125.926C142.763 125.771 143.277 126.439 142.78 125.309C142.455 124.555 142.729 123.665 141.444 121.627C140.725 120.48 139.218 118.698 137.266 118.75C136.067 119.932 134.56 119.795 133.772 121.507V121.49Z" fill="#2D51FF"/>
<path fill-rule="evenodd" clip-rule="evenodd" d="M98.6472 130.138L98.9383 130.995L102.072 131.611C102.62 132.468 102.209 132.039 102.894 132.57C103.014 132.673 103.34 132.861 103.562 133.05C105.891 134.917 107.142 136.013 102.552 137.828L99.6918 139.215C99.6576 139.164 99.5891 139.318 99.5548 139.386C98.7328 138.376 99.846 140.02 98.9383 138.873L98.9897 138.787C98.904 138.855 98.8013 138.873 98.7328 139.01C98.5615 139.335 97.7909 139.301 97.397 139.284C99.1095 139.421 97.5682 139.198 98.2533 139.797C100.514 140.243 107.724 138.718 109.077 136.749C109.179 136.595 109.316 136.338 109.505 136.047C109.762 135.67 109.728 135.773 109.984 135.379C107.844 131.2 109.847 134.18 103.716 131.2C102.826 130.772 103.048 130.858 101.97 130.721L99.6404 130.275C99.5548 130.258 98.8869 130.173 98.6814 130.121L98.6472 130.138Z" fill="#E4ECF4"/>
<path fill-rule="evenodd" clip-rule="evenodd" d="M92.6873 128.34L92.3791 128.854C92.3448 128.923 92.2592 129.128 92.2249 129.077C92.1907 129.042 92.1222 129.214 92.0708 129.282C92.6359 129.882 93.1497 130.413 94.143 130.721L94.3999 130.43L93.7834 130.395C94.9479 128.717 98.2189 127.313 100.548 126.011C101.507 125.463 101.85 125.121 102.655 124.556C102.106 123.117 100.188 122.226 98.9382 121.73C97.5168 121.713 95.9926 123.237 95.2391 124.316C94.28 125.703 93.9889 128.015 93.321 128.871C92.1564 128.94 93.0641 129.042 92.6702 128.34H92.6873Z" fill="#2D51FF"/>
<path fill-rule="evenodd" clip-rule="evenodd" d="M146.103 111.471C145.743 112.328 145.948 111.882 145.76 112.636C145.486 113.663 145.846 113.047 145.298 113.646L144.989 117.071C144.955 117.157 144.921 117.243 144.887 117.311C144.87 117.363 144.818 117.465 144.801 117.551C144.202 119.092 144.407 118.938 144.133 120.616C143.91 121.952 143.791 122.98 143.705 124.247V124.966C144.459 126.011 144.167 126.542 144.15 127.604C144.133 128.922 144.715 128.546 143.517 128.529L144.15 129.025C144.767 129.436 144.15 129.145 144.801 129.368L145.075 129.094C144.116 129.299 144.87 129.214 144.561 128.905C144.596 128.854 144.852 128.392 144.87 128.357C145.126 127.467 144.578 126.73 145.229 122.843C145.555 120.908 145.88 119.195 146.24 117.277C147.832 109.04 147.764 112.482 151.446 109.382C151.497 109.331 151.583 109.279 151.617 109.245C154.751 106.882 155.008 106.728 154.974 109.022C155.522 108.08 155.59 107.464 155.128 106.436L153.45 106.385C152.131 107.104 150.624 108.046 149.408 108.731C148.021 109.536 146.788 109.981 146.068 111.471H146.103Z" fill="#2D51FF"/>
<path fill-rule="evenodd" clip-rule="evenodd" d="M165.523 58.1761C162.749 61.0703 165.061 59.118 164.855 64.9236C164.924 65.797 165.215 65.7285 166.037 65.8484C166.499 64.7352 164.564 65.5744 165.403 61.6183L167.493 61.4128C167.544 63.3994 167.424 65.3004 167.904 66.7732L170.472 66.3964L171.02 66.4135C170.746 64.8208 171.038 64.3242 170.866 63.3823L170.901 62.2691C170.233 60.2311 171.38 60.2483 169.428 58.7241C167.852 57.491 167.287 58.2103 165.54 58.1589L165.523 58.1761Z" fill="#27150E"/>
<path fill-rule="evenodd" clip-rule="evenodd" d="M111.662 102.994C112.604 103.388 112.039 103.148 112.776 103.611C113.015 103.765 113.289 103.953 113.649 104.142L112.724 108.526L112.262 110.444L109.676 109.382L107.809 108.115L105.925 107.413C105.36 107.327 105.018 107.224 104.401 106.933C102.945 106.248 103.922 107.07 103.356 106.025L101.575 106.882C101.284 107.858 101.712 107.258 100.651 108.063C99.9141 108.629 99.9141 108.354 99.4175 109.211C100.034 109.793 100.873 110.478 101.695 110.684C103.271 110.889 102.038 110.392 103.168 111.454C102.62 109.964 103.288 111.386 102.774 110.838C102.312 110.358 102.997 111.009 102.449 110.547L102.089 110.324C102.449 107.601 101.678 108.389 102.74 107.841C104.11 107.139 104.624 107.669 105.257 108.012C106.473 108.68 106.131 108.217 106.816 109.108L110.224 110.615C111.32 111.214 110.772 110.649 111.08 111.454L106.85 113.389L105.925 112.893C105.977 114.263 106.131 114.246 105.566 115.239C105.548 115.273 105.48 115.359 105.446 115.427C106.234 115.513 111.303 112.687 112.142 111.985C113.032 111.249 114.283 104.946 114.06 103.679L109.487 100.956L109.419 101.59C109.522 101.641 111.303 102.703 111.662 103.011V102.994Z" fill="#243264"/>
<path fill-rule="evenodd" clip-rule="evenodd" d="M138.653 136.064L139.064 135.91C141.359 136.492 143.602 136.937 145.983 136.972C146.017 137.023 146.034 137.057 146.051 137.16C146.068 137.28 146.137 137.451 146.154 137.503C146.205 137.742 146.154 137.742 146.257 138.119C147.524 138.359 148.243 138.479 149.254 137.931C149.63 137.605 149.476 138.033 149.699 137.297C150.161 135.773 149.87 137.931 149.819 135.961C148.534 136.543 149.117 137.246 147.935 137.366C147.524 136.595 147.387 137.091 147.25 136.406C147.044 135.345 147.199 135.636 148.226 135.345C146.959 135.533 147.729 135.567 146.651 134.694C146.582 134.643 146.496 134.625 146.462 134.488C146.411 134.351 146.359 134.317 146.274 134.266L146.736 135.122C147.044 136.115 146.736 135.944 146.548 137.143C146.616 136.612 145.846 135.961 145.897 134.077C146.445 133.872 146.616 133.957 147.284 133.649L144.578 131.783C142.969 131.457 142.318 132.382 140.913 133.135C138.43 134.471 139.869 134.043 138.653 136.064Z" fill="#CCD4DB"/>
<path fill-rule="evenodd" clip-rule="evenodd" d="M100.942 81.2445C101.182 81.8267 102.723 89.1394 102.244 90.2355C101.815 91.1774 101.901 90.8177 101.113 91.0404C100.685 90.1498 100.308 84.0873 100.462 82.4604C100.599 81.1075 100.462 81.7754 100.942 81.2616V81.2445ZM100.377 79.1037C101.113 79.8915 101.216 79.7545 100.377 80.4738C99.9658 79.9429 100.103 80.5594 100.017 79.7031C99.9316 78.7098 100.291 79.1894 100.377 79.1037ZM98.3389 78.2132L98.0991 78.6071C99.2637 82.1864 100.034 86.091 100.206 90.0642V90.6465C100.377 90.6807 100.908 91.126 101.267 91.4171C101.901 91.9309 101.987 91.9138 102.535 92.3248C103.374 92.9756 104.179 93.2496 105.223 92.9242C105.823 92.4789 106.268 92.2734 106.953 91.9138C107.176 91.7939 107.775 91.4856 107.861 91.4171C108.614 90.7664 108.289 91.4856 108.546 90.4067C107.707 90.4067 106.816 89.6361 106.028 89.1908C106.148 90.1156 106.337 89.6703 105.429 90.1498C104.675 90.5609 105.241 90.4581 104.282 90.1156C103.973 91.1603 103.836 91.1774 102.74 91.5199C102.603 89.5847 102.655 87.6837 102.518 85.7657C102.381 84.0017 101.918 82.1521 101.867 80.5252C101.627 80.1998 101.798 80.508 101.541 79.96C101.37 79.6175 101.404 79.6518 101.302 79.3606C101.148 78.9325 101.045 78.5728 100.959 78.0077C100.925 78.0591 100.873 78.1447 100.839 78.179C100.805 78.2132 100.754 78.2988 100.719 78.3331L100.103 78.9325C99.1609 78.7783 99.0068 78.7441 98.356 78.2474L98.3389 78.2132Z" fill="#E1DDDB"/>
<path fill-rule="evenodd" clip-rule="evenodd" d="M162.423 121.096L162.269 122.381C162.903 122.415 163.793 122.569 164.221 122.706L165.694 123.271C168.177 123.271 166.91 123.048 167.373 124.179C169.479 123.922 169.941 123.99 171.483 124.744L170.472 123.271C171.637 123.528 171.38 123.545 172.442 123.322C172.544 123.562 172.133 123.785 172.168 123.631C173.075 123.494 172.579 123.785 173.144 122.826C169.941 123.066 171.962 121.85 170.541 120.685C169.616 119.932 168.28 119.829 167.373 118.647C165.711 118.818 163.81 120.36 162.423 121.096Z" fill="#D4DCE3"/>
<path fill-rule="evenodd" clip-rule="evenodd" d="M91.1118 116.592L91.5057 120.017C92.9272 119.812 93.1327 119.178 94.674 119.401C95.9242 119.589 96.2838 120.308 97.2942 120.497C98.2875 121.01 99.5034 120.034 100 119.401C97.6539 118.099 95.4104 116.661 92.7045 115.188C91.3173 114.845 91.0262 115.222 91.1118 116.592Z" fill="#F1F7FB"/>
<path fill-rule="evenodd" clip-rule="evenodd" d="M90.9574 135.636L92.2076 137.348C90.9574 138.068 91.6596 136.903 90.7861 137.348C91.0088 138.342 90.5806 137.691 91.6082 138.051L92.4302 138.239C92.4816 138.153 92.6015 138.29 92.6871 138.325C91.5739 138.359 91.5568 138.273 90.5635 138.102C89.7243 137.948 89.7415 138.325 88.9194 138.273L89.3818 138.684C90.8375 138.992 95.0333 139.866 96.5918 139.695L97.5508 139.66C97.6193 139.678 98.116 139.746 98.2187 139.746C97.5508 139.164 99.075 139.386 97.3624 139.232C97.7563 139.249 98.527 139.266 98.6982 138.958C98.7667 138.821 98.8695 138.804 98.9551 138.736L97.5851 138.667C96.5918 136.372 97.9961 137.4 95.4957 135.995C94.2113 135.276 93.6975 134.66 92.2076 134.54L91.0602 135.482C91.043 135.447 90.9745 135.55 90.9403 135.602L90.9574 135.636Z" fill="#DCE1E5"/>
<path fill-rule="evenodd" clip-rule="evenodd" d="M164.804 98.1989L165.044 99.9115L164.752 105.666L167.561 105.786L168.417 101.213C164.478 100.151 169.034 97.0001 166.071 95.7842C166.037 96.3836 165.575 95.7671 164.598 96.2466C164.564 96.4692 164.496 97.1714 164.496 97.3426C164.547 98.0105 164.461 97.5824 164.77 98.1989H164.804Z" fill="#FAD54A"/>
<path fill-rule="evenodd" clip-rule="evenodd" d="M130.792 95.9212L131.94 95.5615C132.984 95.0135 133.378 94.4655 134.731 94.0374L135.604 98.3873L136.033 99.3635C136.084 99.6717 136.135 99.8944 136.101 100.168C135.998 101.093 136.238 100.511 135.81 100.614C135.519 100.973 135.724 100.768 135.33 101.093C135.262 101.145 135.056 101.299 134.988 101.35C134.765 101.504 134.303 101.778 134.115 101.898C133.464 102.292 133.07 102.48 132.248 102.754C132.025 102.96 131.991 102.977 131.768 103.183C131.7 103.251 131.58 103.765 131.443 103.508C131.409 103.457 131.323 103.628 131.272 103.679C130.929 103.833 130.604 103.987 130.347 104.124L127.727 105.272L127.161 103.302L126.887 100.939L126.425 99.158C126.425 99.1066 126.494 99.0552 126.494 98.9524C126.494 98.8497 126.545 98.8154 126.579 98.7641L128.035 97.8393C128.686 97.2741 130.073 96.7946 130.792 95.9383V95.9212ZM139.715 106.573L139.937 107.002C141.222 106.573 143.071 105.597 143.791 104.69C143.208 103.645 138.036 101.264 136.615 100.579L135.056 93.3352C133.995 93.5578 133.515 93.9517 132.659 94.4484L131.066 95.4759C131.032 95.5102 130.929 95.6986 130.912 95.6472C130.878 95.5958 130.809 95.7499 130.758 95.8184C129.884 95.9383 126.528 97.9763 125.826 98.5414C125.826 99.3121 127.076 105.546 127.401 106.18C127.744 106.83 132.248 109.262 133.001 109.382L136.838 106.899C137.043 107.121 137.094 107.413 137.899 107.224C138.927 106.984 138.67 106.608 139.715 106.591V106.573Z" fill="#264383"/>
<path fill-rule="evenodd" clip-rule="evenodd" d="M137.437 129.196L138.361 129.899C139.406 129.573 139.406 129.145 140.331 129.505C140.776 129.676 141.838 130.378 142.232 130.652C139.68 133.135 136.786 132.022 137.265 135.653L138.653 136.047C139.869 134.026 138.43 134.454 140.913 133.118C142.318 132.365 142.968 131.44 144.578 131.765C143.927 130.943 144.201 131.132 143.448 130.823L144.784 129.368C144.133 129.145 144.749 129.419 144.133 129.025L143.499 128.529L142.866 128.631C142.917 129.813 142.951 128.94 142.609 129.179C141.598 128.511 139.321 127.09 138.122 127.004L137.437 129.196Z" fill="#1B2748"/>
<path fill-rule="evenodd" clip-rule="evenodd" d="M162.406 93.9688L158.93 95.1505C157.662 95.219 156.789 94.9964 155.916 95.6472L156.104 96.9487L157.577 97.1714C160.42 97.2227 163.399 96.5548 164.119 96.983L164.804 98.216C164.478 97.5995 164.581 98.0276 164.53 97.3597C164.513 97.1885 164.598 96.4863 164.633 96.2637C165.609 95.7842 166.071 96.4007 166.105 95.8013C165.934 94.9108 165.609 94.2942 165.455 92.9927C164.359 93.1639 163.211 93.5578 162.423 93.986L162.406 93.9688Z" fill="#FDE452"/>
<path fill-rule="evenodd" clip-rule="evenodd" d="M173.212 122.569C173.298 122.535 173.401 122.329 173.418 122.38C173.452 122.432 173.572 122.243 173.606 122.209C174.651 120.976 172.956 122.106 174.274 121.541C175.627 120.959 175.285 120.068 176.689 119.64C175.798 117.705 175.336 116.712 173.88 117.243C173.795 117.277 173.486 117.465 173.418 117.517C173.76 116.181 174.103 117.191 173.212 116.335C170.952 117.294 172.87 114.794 168.314 117.825C172.476 120.188 173.23 120.086 173.212 122.569Z" fill="#D4DCE3"/>
<path fill-rule="evenodd" clip-rule="evenodd" d="M147.798 132.108L148.843 132.81C149.528 133.238 150.247 133.906 150.144 134.831C150.041 135.721 149.99 135.464 149.425 135.601L148.551 135.961C148.003 135.208 148.466 135.824 148.175 135.071L148.055 133.94L147.301 133.666C146.633 133.975 146.462 133.889 145.914 134.094C145.863 135.978 146.633 136.629 146.565 137.16C146.753 135.961 147.062 136.132 146.753 135.139L146.291 134.283C146.376 134.334 146.445 134.368 146.479 134.505C146.531 134.642 146.616 134.66 146.668 134.711C147.747 135.584 146.976 135.533 148.243 135.362C147.233 135.653 147.062 135.379 147.267 136.424C147.404 137.109 147.541 136.612 147.952 137.383C149.134 137.263 148.534 136.543 149.836 135.978C149.887 137.948 150.178 135.79 149.716 137.314C149.493 138.05 149.648 137.639 149.271 137.948C149.356 137.828 149.63 137.4 149.665 137.365C150.161 136.817 149.767 136.629 150.11 137.126C150.418 136.612 150.161 137.177 150.281 136.389C150.418 135.55 150.247 135.824 151.463 134.146C151.754 133.752 151.48 134.214 151.788 133.649L151.977 133.221L150.555 131.337C150.435 129.984 149.802 130.412 150.059 129.436L148.569 129.351C148.175 130.721 148.791 131.8 147.781 132.125L147.798 132.108Z" fill="#CCD4DB"/>
<path fill-rule="evenodd" clip-rule="evenodd" d="M153.415 75.7642C152.747 74.9935 151.634 74.4969 150.778 74.0174C149.921 73.5378 148.997 72.9042 148.055 72.6644C148.175 74.0859 148.842 79.4633 149.853 80.2854C150.23 80.5936 151.446 81.193 151.942 81.3985L153.706 82.3747C153.124 83.1625 152.559 83.368 151.737 83.8133L151.685 84.0359C153.278 83.7277 151.994 83.3851 153.929 83.4708C153.929 82.2035 153.689 83.1796 154.425 82.8029C154.922 83.4023 156.326 84.0017 157.166 84.5154C159.392 85.8684 158.741 85.9369 163.348 83.2139C164.821 82.3405 165.865 82.0836 166.362 81.056C165.917 80.5936 166.122 80.7991 165.523 80.3539C165.198 80.1312 165.061 80.0799 164.769 79.8401L163.982 79.9257C163.622 80.7991 163.622 80.5594 162.903 81.2958C162.886 81.3129 162.817 81.4499 162.817 81.4157C162.8 81.3814 162.766 81.4842 162.731 81.5184C162.56 82.4946 162.714 82.135 161.772 82.546C158.279 84.0188 161.841 83.5906 158.364 83.8133C158.364 81.6212 158.656 81.33 158.364 79.4976C158.467 79.5318 158.587 79.5661 158.69 79.6003L160.608 80.3368L161.122 81.6554L161.036 80.6621C161.721 80.2683 162.252 79.549 162.612 78.7441L159.478 76.9459L158.467 77.1L158.073 78.2817C157.388 78.0762 157.08 77.8707 156.532 77.3226C156.669 76.6033 157.114 76.7746 157.765 76.7404L157.902 75.8841C156.292 75.336 157.097 75.1305 155.419 75.8841C153.946 76.5348 154.734 75.9354 153.381 75.7642H153.415Z" fill="#2A4484"/>
<path fill-rule="evenodd" clip-rule="evenodd" d="M93.6806 132.091C92.499 131.8 93.0812 131.8 91.8824 132.125L91.3687 132.194L92.7901 132.793C93.5094 133.187 93.6806 133.992 93.732 133.923C93.7663 133.872 93.8348 134.129 93.8861 134.231C92.5332 133.735 92.8928 133.992 92.2078 134.557C93.6978 134.677 94.2115 135.293 95.496 136.013C98.0134 137.417 96.592 136.389 97.5853 138.684L98.9554 138.753L98.904 138.838C100 137.04 99.0067 136.441 97.551 135.636C96.7461 135.191 95.0164 134.232 94.3828 133.666C96.4036 131.303 97.2599 133.135 98.6642 132.57L98.9211 130.978L98.63 130.121C97.0715 129.659 95.3761 131.68 93.6635 132.074L93.6806 132.091Z" fill="#1B2748"/>
<path fill-rule="evenodd" clip-rule="evenodd" d="M160.539 116.404C160.83 116.575 161.07 116.66 161.464 116.952C162.749 116.575 162.423 116.181 163.382 116.575C163.896 116.797 164.872 117.465 165.3 117.739C162.68 119.846 160.505 119.572 160.18 121.952C160.728 121.884 161.019 121.935 161.55 121.713C162.303 121.404 161.601 121.781 162.423 121.079C163.81 120.343 165.711 118.801 167.373 118.63C168.828 118.253 167.184 117.637 166.773 115.924L165.917 115.65C166.02 116.832 166.002 115.958 165.694 116.249C164.512 115.684 162.44 114.246 161.241 114.057C160.693 114.828 160.693 115.29 160.539 116.386V116.404Z" fill="#0F2432"/>
<path fill-rule="evenodd" clip-rule="evenodd" d="M173.213 116.335C174.103 117.191 173.778 116.198 173.418 117.517C173.487 117.448 173.795 117.26 173.88 117.243C175.319 116.712 175.781 117.722 176.689 119.64C175.285 120.069 175.627 120.959 174.274 121.541C172.973 122.107 174.651 120.959 173.606 122.209C173.572 122.244 173.452 122.449 173.418 122.381C173.384 122.329 173.298 122.518 173.213 122.569L173.144 122.843C173.863 123.596 174.035 122.911 173.641 123.733L174.72 122.483C175.319 122.089 176.175 122.175 176.895 121.833C178.162 121.233 176.603 121.593 178.522 120.634C181.227 119.281 178.915 117.962 177.631 116.712C176.843 115.941 175.045 115.41 174.069 115.907C173.521 114.383 174.069 115.41 173.315 114.845L173.195 116.335H173.213Z" fill="#D6DBE8"/>
<path fill-rule="evenodd" clip-rule="evenodd" d="M168.057 116.267L166.773 115.941C167.184 117.654 168.828 118.27 167.372 118.647C168.263 119.829 169.616 119.931 170.541 120.685C171.962 121.85 169.941 123.083 173.144 122.826L173.212 122.552C173.229 120.068 172.476 120.171 168.314 117.808C172.87 114.777 170.952 117.277 173.212 116.318L173.332 114.828L173.024 113.835C171.517 114.006 169.171 115.445 168.075 116.249L168.057 116.267Z" fill="#1B2748"/>
<path fill-rule="evenodd" clip-rule="evenodd" d="M137.265 135.67C136.786 132.039 139.68 133.153 142.232 130.669C141.838 130.378 140.776 129.693 140.331 129.522C139.406 129.162 139.406 129.608 138.361 129.916L137.437 129.214L136.7 129.967C136.683 129.984 136.615 130.036 136.58 130.053C136.546 130.07 136.478 130.121 136.443 130.156C132.967 132.913 136.067 134.129 136.546 134.642L137.248 135.687L137.265 135.67Z" fill="#D6DBE8"/>
<path fill-rule="evenodd" clip-rule="evenodd" d="M155.145 113.8L155.008 118.116C155.539 117.996 155.505 117.911 156.035 117.962C158.073 118.185 156.481 117.996 157.217 118.493L157.08 118.287C157.491 117.414 156.84 117.911 157.405 118.202L157.423 119.88C158.039 119.041 157.577 117.705 157.919 115.547C158.142 114.109 158.399 112.687 158.365 111.232C158.279 111.249 158.056 111.369 158.005 111.386C156.806 111.66 158.536 111.763 157.354 111.283C156.909 111.095 157.251 110.101 156.583 111.66C156.138 110.358 156.601 111.009 155.624 111.42C155.402 109.913 155.898 110.889 154.974 110.632L155.145 113.8Z" fill="#243264"/>
<path fill-rule="evenodd" clip-rule="evenodd" d="M160.95 102.703L161.002 102.72L161.43 103.85C160.779 104.142 161.361 103.799 160.984 104.467L162.92 105.683L163.399 105.546C164.136 105.46 163.57 106.008 164.067 105.135C164.101 105.083 164.204 104.827 164.256 104.741C164.256 106.83 164.17 104.981 164.735 105.666L165.026 99.9115C163.81 99.8259 162.731 99.1066 161.892 100.031C161.173 100.836 161.841 101.847 160.933 102.703H160.95Z" fill="#264383"/>
<path fill-rule="evenodd" clip-rule="evenodd" d="M139.269 117.602C139.492 118.818 140.108 118.339 141.821 120.411C143.105 121.969 142.951 122.723 143.705 124.23C143.79 122.946 143.91 121.918 144.133 120.599C144.407 118.938 144.201 119.092 144.801 117.534C144.835 117.465 144.869 117.363 144.886 117.294C144.903 117.243 144.955 117.14 144.989 117.054C143.859 116.849 143.174 116.215 141.787 116.421C140.827 116.575 140.057 117.243 139.269 117.585V117.602Z" fill="#2D51FF"/>
<path fill-rule="evenodd" clip-rule="evenodd" d="M160.539 116.404C160.197 117.688 158.81 116.849 158.467 118.955C158.193 120.702 159.769 119.914 159.769 122.432C159.769 122.911 159.683 122.706 160.334 122.706L160.163 121.952C160.488 119.555 162.663 119.829 165.283 117.739C164.855 117.465 163.896 116.78 163.365 116.575C162.406 116.181 162.731 116.575 161.447 116.952C161.07 116.66 160.813 116.575 160.522 116.404H160.539Z" fill="#D4DCE3"/>
<path fill-rule="evenodd" clip-rule="evenodd" d="M116.475 95.0478C118.427 94.8595 118.838 93.7977 119.215 91.7426C119.524 90.0471 119.935 88.3174 120.106 86.6049C118.462 87.0844 117.434 88.0777 115.944 88.7969L114.9 89.4135C113.906 89.9786 114.095 90.2184 112.776 90.0471C112.827 90.1499 112.879 90.4753 112.896 90.3896L112.776 90.3554C112.776 90.7493 112.862 90.6294 112.416 90.6294L112.348 91.0062L111.372 91.5371L110.378 92.0508C110.241 93.1126 110.139 95.3904 109.454 95.9726L109.111 97.9763L107.381 97.1372C106.645 96.6405 106.371 96.4179 105.943 95.887C104.778 96.1953 104.727 96.2124 103.785 95.6986C103.716 95.6644 103.117 95.2362 102.946 95.1163C102.483 94.7396 102.638 94.8595 102.312 94.5341C101.833 94.8937 102.021 94.6368 101.781 95.1506C102.364 96.024 106.046 97.9078 107.142 98.5586C108.221 99.2094 108.769 99.7917 110.19 99.0381C111.046 98.5757 112.159 98.0277 112.725 97.2571C113.649 97.1543 113.615 97.0344 114.471 96.5378C115.088 96.1781 115.585 95.887 116.047 95.6472C116.835 95.2362 116.252 95.6301 116.527 95.0478H116.475Z" fill="#2A4484"/>
<path fill-rule="evenodd" clip-rule="evenodd" d="M91.5054 120.017C92.1219 121.267 92.2418 122.569 92.4987 124.247L92.6871 128.357C93.4064 127.912 94.8792 123.048 95.5642 122.432C96.0437 121.987 96.215 121.969 96.5233 121.713C97.5165 120.908 97.0884 121.918 97.2768 120.497C96.2835 120.325 95.9067 119.589 94.6565 119.401C93.1152 119.178 92.9097 119.795 91.4883 120.017H91.5054Z" fill="#2D51FF"/>
<path fill-rule="evenodd" clip-rule="evenodd" d="M98.5615 74.1716C97.4997 73.8805 97.945 73.9147 96.9346 73.6064L97.4312 75.0621C98.082 76.0383 97.9107 76.6548 97.808 77.9221L98.1162 78.5729L98.356 78.179C99.4178 78.2989 98.9897 77.768 98.4759 76.8946C99.3493 76.9802 98.9383 76.7233 99.4007 77.5454L100.736 77.5967C100.856 76.9973 101.422 77.0145 102.004 76.7405L102.346 72.0309C101.13 72.3734 101.85 72.3734 100.599 72.6474L99.1952 72.5275L98.5615 74.1545V74.1716Z" fill="#FABA9F"/>
<path fill-rule="evenodd" clip-rule="evenodd" d="M155.145 105.94V106.436C155.607 107.464 155.539 108.081 154.991 109.022L154.974 110.632C155.898 110.889 155.402 109.913 155.624 111.42C156.601 111.009 156.121 110.358 156.583 111.66C157.251 110.101 156.909 111.112 157.354 111.283C158.553 111.763 156.823 111.66 158.005 111.386C158.056 111.369 158.279 111.266 158.365 111.232C158.039 110.598 157.32 110.084 156.857 109.673C156.857 108.32 156.926 108.32 157.491 107.481C158.964 107.327 158.279 107.378 159.495 107.892C160.437 107.002 160.351 107.806 161.173 106.522C161.379 106.18 160.625 106.368 161.481 106.214C160.899 105.409 161.053 105.529 160.009 105.375C159.632 105.837 160.368 105.358 158.262 105.906L157.149 106.111C157.08 106.128 157.012 106.145 156.943 106.162C155.676 106.436 156.018 106.317 155.162 105.906L155.145 105.94Z" fill="#264383"/>
<path fill-rule="evenodd" clip-rule="evenodd" d="M154.34 86.0911L155.127 90.2012L154.117 90.5266C154.014 90.6808 154.117 90.6636 153.62 90.9719C153.244 91.1945 153.466 91.0404 153.004 91.2459L151.428 92.0337C150.743 92.7358 150.486 92.5646 149.75 93.4551C154.151 91.674 155.23 90.1841 157.474 91.8453C158.159 92.3591 158.758 92.7016 159.375 93.1811C158.69 94.1059 158.501 94.0374 157.508 94.6882L158.929 95.1677L162.406 93.986C161.875 92.9242 157.439 91.0404 156.326 90.4239C155.213 89.8073 155.624 90.4067 155.264 88.9339C154.905 87.4269 154.528 84.6011 153.946 83.4708C153.946 84.4299 154.151 85.3889 154.357 86.0911H154.34Z" fill="#2A4484"/>
<path fill-rule="evenodd" clip-rule="evenodd" d="M155.145 105.94C156.001 106.351 155.658 106.471 156.926 106.197C156.994 106.18 157.063 106.162 157.131 106.145L158.244 105.94C160.351 105.392 159.614 105.871 159.991 105.409C159.049 104.039 157.696 104.553 157.251 103.028C158.296 102.497 159.888 103.953 160.985 104.484C161.361 103.833 160.762 104.159 161.43 103.868L161.002 102.737L159.495 102.309L156.138 102.189C155.693 103.131 155.573 102.549 155.265 103.628C155.076 104.279 155.162 105.22 155.145 105.957V105.94Z" fill="#294A94"/>
<path fill-rule="evenodd" clip-rule="evenodd" d="M86.3166 132.382C86.7618 133.529 86.6591 132.587 86.2481 133.324L84.3813 135.122C85.5801 135.482 85.2034 135.653 86.0597 136.287L86.6762 136.663L87.0187 136.15L88.3203 135.55L91.1631 133.581L89.108 132.245L88.2689 132.057C87.6866 132.622 87.2756 132.998 86.2994 132.382H86.3166Z" fill="#DCE1E5"/>
<path fill-rule="evenodd" clip-rule="evenodd" d="M159.992 105.392C161.036 105.546 160.882 105.426 161.464 106.231C163.04 106.454 164.855 108.834 165.386 110.684C165.54 111.129 165.575 111.625 165.677 111.951C166.242 113.646 165.489 112.499 166.551 113.03L166.859 112.499C166.876 112.396 166.842 112.191 166.859 112.036L166.516 110.958C166.02 108.594 164.359 106.642 162.954 105.683L161.019 104.467C159.906 103.936 158.313 102.48 157.286 103.011C157.731 104.535 159.084 104.022 160.026 105.392H159.992Z" fill="#94B7C8"/>
<path fill-rule="evenodd" clip-rule="evenodd" d="M100 119.401C99.5035 120.034 98.2876 121.01 97.2943 120.497C97.1059 121.918 97.5169 120.908 96.5407 121.713C96.2325 121.969 96.0612 121.987 95.5817 122.432C94.8967 123.066 94.6227 123.716 93.9034 124.162C94.2117 124.727 93.5266 124.47 94.2802 124.658C93.4581 124.59 93.8691 124.778 93.5609 125.669C93.3211 126.371 93.1156 127.073 92.8073 127.604L92.7046 128.357C93.0985 129.06 92.1908 128.957 93.3554 128.888C94.0233 128.032 94.3144 125.72 95.2734 124.333C96.027 123.237 97.5512 121.73 98.9726 121.747C99.3665 120.822 98.7842 121.336 100.017 120.634C100.805 120.188 100.565 120.223 101.473 120.291C101.713 119.623 101.473 119.966 101.952 119.486C102.398 119.041 102.209 119.144 102.843 119.024L101.935 118.527C101.541 118.835 100.839 119.229 100.017 119.418L100 119.401Z" fill="#94C7CD"/>
<path fill-rule="evenodd" clip-rule="evenodd" d="M133.806 116.746C135.21 116.66 135.039 116.832 136.067 117.448C136.238 117.551 136.906 117.911 136.957 117.962C137.471 118.424 137.42 118.048 137.266 118.75C139.235 118.716 140.725 120.497 141.444 121.627C142.746 123.682 142.455 124.555 142.78 125.309C143.277 126.439 142.763 125.771 143.448 125.925C144.047 125.326 143.756 125.908 143.688 124.949V124.23C142.934 122.723 143.088 121.969 141.804 120.411C140.091 118.339 139.475 118.818 139.252 117.602C138.173 117.979 138.276 117.705 137.231 117.123C137.009 117.003 136.289 116.609 136.152 116.523C135.673 116.13 135.758 116.318 135.656 115.753L134.44 115.77C134.012 116.626 134.371 116.112 133.806 116.746Z" fill="#94C7CD"/>
<path fill-rule="evenodd" clip-rule="evenodd" d="M105.24 92.8729L104.778 93.9689C105.411 94.5169 105.497 94.4484 105.96 95.2533C107.569 94.9108 108.306 93.4551 109.984 93.0612C109.967 94.6711 109.59 94.7224 109.453 95.9726C110.138 95.3903 110.241 93.1126 110.378 92.0508L111.371 91.5371L110.481 91.8453L109.95 91.3144C108.837 91.3144 109.282 91.6569 108.563 90.3383C108.306 91.4172 108.631 90.715 107.878 91.3487C107.809 91.4172 107.21 91.7254 106.97 91.8453C106.285 92.205 105.84 92.4276 105.24 92.8557V92.8729Z" fill="#253973"/>
<path fill-rule="evenodd" clip-rule="evenodd" d="M105.943 112.841V112.893L106.867 113.389L111.097 111.454C110.789 110.632 111.337 111.214 110.241 110.615L106.833 109.108C106.148 108.217 106.491 108.697 105.275 108.029C104.641 107.687 104.127 107.156 102.757 107.858C101.695 108.406 102.449 107.618 102.106 110.341L102.466 110.564C103.031 111.009 102.346 110.375 102.791 110.855C103.322 111.403 102.654 109.981 103.185 111.471C104.144 111.557 104.675 112.482 105.96 112.859L105.943 112.841Z" fill="#1B2748"/>
<path fill-rule="evenodd" clip-rule="evenodd" d="M145.058 129.094L144.784 129.368L143.448 130.823C144.201 131.132 143.927 130.961 144.578 131.765L147.284 133.632L148.037 133.906L148.157 135.036L148.791 134.643L149.408 135.584C149.973 135.447 150.024 135.704 150.127 134.814C150.23 133.906 149.51 133.221 148.825 132.793L147.781 132.091C146.548 131.817 146.239 131.337 145.263 130.721L146.068 130.036C146.308 129.265 146.616 129.042 145.982 128.717L145.04 129.077L145.058 129.094Z" fill="#0F2432"/>
<path fill-rule="evenodd" clip-rule="evenodd" d="M89.1081 132.245L91.1632 133.581L88.3203 135.55L88.0806 136.441L88.7998 136.389C89.8616 136.304 88.9197 136.458 89.7931 136.081C90.4953 135.773 90.1528 135.858 90.9406 135.653C90.9748 135.619 91.0433 135.499 91.0604 135.533L92.2079 134.591C92.8929 134.026 92.5333 133.769 93.8862 134.266C93.8348 134.163 93.7663 133.906 93.7321 133.957C93.6807 134.026 93.5094 133.221 92.7901 132.827L91.3687 132.228L89.1766 130.892C88.8855 131.115 88.0121 130.823 89.1081 132.279V132.245Z" fill="#152539"/>
<path fill-rule="evenodd" clip-rule="evenodd" d="M101.695 110.684C100.873 110.478 100.034 109.793 99.4175 109.211C99.8971 108.355 99.8971 108.629 100.651 108.063C101.712 107.258 101.301 107.858 101.575 106.882C100.377 107.293 99.6402 107.755 98.6469 108.303C97.7735 108.783 96.5747 109.211 96.1294 110.136L100.103 112.413L105.446 115.41C105.48 115.342 105.549 115.273 105.566 115.222C106.131 114.229 105.994 114.246 105.925 112.876V112.824C104.641 112.448 104.127 111.523 103.151 111.437C102.021 110.375 103.237 110.872 101.678 110.667L101.695 110.684Z" fill="#28478B"/>
<path fill-rule="evenodd" clip-rule="evenodd" d="M100.942 81.2444C100.462 81.7582 100.599 81.0903 100.462 82.4432C100.291 84.0873 100.685 90.1498 101.113 91.0232C101.901 90.8006 101.832 91.1602 102.243 90.2183C102.74 89.1223 101.182 81.8096 100.942 81.2273V81.2444Z" fill="#F9D64C"/>
<path fill-rule="evenodd" clip-rule="evenodd" d="M133.001 109.365C133.275 109.725 133.087 109.81 133.841 110.119C134.697 110.478 135.399 109.81 136.598 109.091L139.937 107.002L139.715 106.573C138.653 106.608 138.927 106.967 137.899 107.207C136.649 107.498 137.249 106.608 136.135 106.676C134.971 106.745 133.635 108.492 133.001 109.365Z" fill="#253973"/>
<path fill-rule="evenodd" clip-rule="evenodd" d="M159.478 107.909C159.871 108.115 160.334 108.337 160.882 108.629C160.933 108.646 161.601 109.04 161.618 109.057C162.372 109.588 161.824 109.108 162.252 109.639C163.468 109.725 163.862 110.392 165.386 110.701C164.872 108.851 163.04 106.471 161.464 106.248C160.625 106.385 161.378 106.214 161.156 106.556C160.351 107.841 160.419 107.053 159.478 107.926V107.909Z" fill="#25356B"/>
<path fill-rule="evenodd" clip-rule="evenodd" d="M97.5852 93.5236L98.6983 93.9346C100.719 92.6673 99.7601 93.5408 101.627 93.8833C101.747 93.6949 102.021 93.3181 102.106 93.1811C102.449 92.6502 102.38 92.9756 102.552 92.3077C102.004 91.9138 101.918 91.9309 101.284 91.4C100.925 91.1089 100.411 90.6808 100.223 90.6294V90.0471C100.034 86.0911 99.2635 82.1693 98.1161 78.59L97.8078 77.9392L97.1228 77.9563C95.8041 78.5215 94.3142 79.1209 93.8518 80.6622C93.5092 81.2787 93.886 84.0531 94.1258 84.8409L94.4854 85.6458C94.5025 85.6115 94.5539 85.7657 94.6053 85.8342C94.5025 87.6152 95.4787 88.7455 95.239 91.4857L95.2732 92.3419L97.6023 93.5408L97.5852 93.5236Z" fill="#242A5B"/>
<path fill-rule="evenodd" clip-rule="evenodd" d="M162.937 105.683C164.341 106.625 166.003 108.594 166.499 110.958C167.218 110.067 167.201 107.669 167.561 105.803L164.752 105.683C164.187 104.998 164.273 106.847 164.273 104.758C164.221 104.827 164.119 105.101 164.084 105.152C163.571 106.025 164.136 105.477 163.417 105.563L162.937 105.7V105.683Z" fill="#243264"/>
<path fill-rule="evenodd" clip-rule="evenodd" d="M105.96 95.2534L105.925 95.887C106.371 96.4179 106.645 96.6577 107.364 97.1372L109.094 97.9764L109.436 95.9727C109.573 94.7225 109.95 94.6711 109.967 93.0613C108.289 93.4552 107.569 94.9109 105.942 95.2534H105.96Z" fill="#242D62"/>
<path fill-rule="evenodd" clip-rule="evenodd" d="M162.731 81.5185L161.139 81.6555L160.625 80.3368L158.707 79.6004C158.604 79.5662 158.501 79.5319 158.381 79.4977C158.672 81.3301 158.381 81.6213 158.381 83.8134C161.841 83.5907 158.279 84.0189 161.789 82.5461C162.731 82.1522 162.577 82.5118 162.748 81.5185H162.731Z" fill="#1C2957"/>
<path fill-rule="evenodd" clip-rule="evenodd" d="M166.037 65.8485C166.944 66.1739 165.198 65.095 166.345 66.0883C166.722 66.4136 166.499 66.3109 166.79 66.4993C167.424 66.8932 166.756 66.8589 167.903 66.7904C167.441 65.3005 167.561 63.4166 167.492 61.4301L165.403 61.6356C164.547 65.5916 166.499 64.7524 166.037 65.8656V65.8485Z" fill="#74524B"/>
<path fill-rule="evenodd" clip-rule="evenodd" d="M94.4339 130.447C95.2731 130.344 95.8211 129.899 96.6432 129.402C97.5508 128.871 98.1331 128.563 98.9723 128.049C100.377 127.227 102.843 126.542 102.671 124.555C101.867 125.121 101.524 125.48 100.565 126.011C98.2359 127.33 94.9648 128.717 93.8003 130.395L94.4168 130.43L94.4339 130.447Z" fill="#0548A3"/>
<path fill-rule="evenodd" clip-rule="evenodd" d="M142.369 127.638L142.335 126.679C139.766 124.984 136.529 123.802 134.337 121.935C133.995 121.644 134.166 121.764 133.772 121.49C133.772 123.631 137.899 125.292 141.033 127.124C142.009 127.69 141.41 127.552 142.369 127.638Z" fill="#0548A3"/>
<path fill-rule="evenodd" clip-rule="evenodd" d="M152.867 97.2913L152.645 97.9078C152.645 97.8736 152.696 98.0106 152.713 98.062C152.559 98.0962 151.977 98.062 151.96 98.0791C151.446 98.4559 152.234 97.5311 151.805 98.3531C151.788 98.3702 151.754 98.5415 151.737 98.5073C151.737 98.473 151.703 98.6271 151.668 98.6614C152.765 100.083 153.484 99.7917 154.854 98.9354C155.864 98.3017 156.892 97.7708 157.577 97.1714L156.104 96.9488L153.432 96.7947L152.884 97.3084L152.867 97.2913Z" fill="#253973"/>
<path fill-rule="evenodd" clip-rule="evenodd" d="M101.627 93.8662L102.278 94.5169C102.603 94.8595 102.466 94.7396 102.911 95.0992C103.066 95.2191 103.665 95.6472 103.751 95.6815C104.692 96.1953 104.761 96.1781 105.908 95.8699L105.943 95.2362C105.497 94.4484 105.395 94.4998 104.761 93.9518L105.223 92.8558C104.196 93.1811 103.374 92.9243 102.535 92.2563C102.381 92.9243 102.432 92.5989 102.089 93.1298C102.004 93.2839 101.73 93.6435 101.61 93.8319L101.627 93.8662Z" fill="#FABA9F"/>
<path fill-rule="evenodd" clip-rule="evenodd" d="M95.1532 93.5578C96.0608 93.8147 96.5746 94.0887 97.174 94.7909C97.6021 94.4826 98.0817 94.2942 98.6982 93.9346L97.585 93.5236L95.2559 92.3248C93.629 91.6911 91.9506 92.359 91.1457 93.7805C90.5292 94.8765 91.0087 95.1163 91.0943 95.2704C91.9849 94.8594 91.317 95.3903 92.0363 94.3799C93.4063 92.4275 94.9819 93.1468 95.1532 93.575V93.5578Z" fill="#94B7C8"/>
<path fill-rule="evenodd" clip-rule="evenodd" d="M112.724 82.9228C112.724 82.9228 112.724 82.9228 112.741 82.9228C112.741 82.9228 112.741 82.9228 112.724 82.9228ZM112.741 82.9228C112.741 82.9228 112.741 82.9228 112.758 82.9228C112.758 82.9228 112.759 82.9228 112.741 82.9228ZM112.844 82.94C112.844 82.94 112.861 82.94 112.878 82.94C112.861 82.94 112.861 82.94 112.844 82.94ZM112.896 82.9571C112.896 82.9571 112.913 82.9571 112.913 82.9742C112.913 82.9742 112.896 82.9742 112.896 82.9571ZM113.067 83.077C113.529 82.8715 113.769 82.6146 113.957 82.3577C113.786 82.6317 113.529 82.8886 113.067 83.077ZM114.077 82.1864C114.111 82.1179 114.146 82.0666 114.18 81.9981C114.146 82.0494 114.111 82.1179 114.077 82.1864ZM114.18 81.9981C114.197 81.9638 114.214 81.9296 114.248 81.8953C114.231 81.9296 114.214 81.9638 114.18 81.9981ZM114.317 81.7925C114.351 81.7412 114.403 81.6727 114.437 81.6213C114.385 81.6727 114.351 81.724 114.317 81.7925ZM117.639 81.5185C117.691 81.5528 117.742 81.5699 117.793 81.587C117.742 81.5699 117.691 81.5357 117.639 81.5185ZM117.793 81.587C117.862 81.6213 117.913 81.6384 117.948 81.6727C117.896 81.6384 117.845 81.6213 117.793 81.587ZM118.033 81.7241C118.102 81.7583 118.153 81.7926 118.187 81.8439C118.153 81.8097 118.102 81.7754 118.033 81.7241ZM118.187 81.8439C118.376 82.0152 118.324 82.2207 118.427 82.7687L120.054 81.5185L118.684 80.7993C117.057 80.9363 118.239 80.9534 117.776 80.491L115.619 79.7203C115.002 80.6109 115.156 79.4292 113.837 80.7136C113.495 81.039 113.512 81.1418 113.221 81.5014C112.947 81.8439 113.067 81.7754 112.793 81.9124C112.45 82.5803 112.604 82.4262 111.936 82.7516C110.96 82.8201 111.748 82.5803 111.029 83.5736L111.954 85.3033C114.317 85.4061 113.906 85.2006 115.619 84.173C116.372 83.7106 117.4 82.8372 118.427 82.7516C118.324 82.2036 118.376 82.0152 118.187 81.8268V81.8439Z" fill="#2D51FF"/>
<path fill-rule="evenodd" clip-rule="evenodd" d="M153.86 118.955C153.552 119.743 153.603 119.503 153.603 120.582L155.196 120.668C156.258 120.308 155.898 120.274 156.686 119.64L157.183 120.719C157.748 120.188 157.491 120.702 157.439 119.897L157.422 118.219C156.857 117.928 157.525 117.431 157.097 118.305L157.234 118.51C156.498 117.996 158.09 118.202 156.052 117.979C155.521 117.928 155.539 118.013 155.025 118.133L153.86 118.972V118.955Z" fill="#11192B"/>
<path fill-rule="evenodd" clip-rule="evenodd" d="M103.339 106.025C103.905 107.07 102.928 106.231 104.384 106.933C105.001 107.224 105.343 107.327 105.908 107.413C105.651 107.002 105.857 107.036 105.206 106.642C104.812 106.402 104.35 106.317 103.905 106.18C103.767 104.827 104.144 103.525 104.59 102.155L105.446 99.3635C106.062 99.6204 106.285 99.8088 106.884 100.186C107.313 100.46 107.792 100.768 108.186 100.853L109.419 101.573L109.487 100.939L105.172 98.6785C104.196 100.117 103.665 104.005 103.356 106.043L103.339 106.025Z" fill="#294A94"/>
<path fill-rule="evenodd" clip-rule="evenodd" d="M167.75 79.4977C168.28 80.1485 168.64 80.1827 169.411 80.5937C169.616 79.9087 169.205 80.217 170.062 80.0628L170.918 79.7203C173.47 79.9087 172.51 81.5357 173.983 81.7925C174.531 79.9601 172.613 78.8298 170.901 78.6757C169.942 78.8298 169.856 78.7955 169.12 79.1381C167.921 79.7203 169.188 79.669 167.732 79.4977H167.75Z" fill="#94C7CD"/>
<path fill-rule="evenodd" clip-rule="evenodd" d="M96.9344 73.6064C97.9448 73.9146 97.4995 73.8804 98.5613 74.1715L99.195 72.5446L100.599 72.6645C101.849 72.3904 101.13 72.3904 102.346 72.0479C103.613 70.8663 101.832 69.8558 101.045 69.5133C100.257 69.0338 98.9724 68.8968 98.0818 69.5476C96.6261 69.9586 96.2836 71.8938 96.9515 73.6235L96.9344 73.6064Z" fill="#27150E"/>
<path fill-rule="evenodd" clip-rule="evenodd" d="M153.432 96.7775L156.104 96.9316L155.916 95.6301H154.665C153.895 94.7566 152.764 94.7395 151.36 94.8937L151.24 95.7671L153.432 96.7775Z" fill="#EFA19F"/>
<path fill-rule="evenodd" clip-rule="evenodd" d="M88.8167 136.389L88.2344 138.616L88.9365 138.29C89.7586 138.342 89.7586 137.982 90.5806 138.119C91.5568 138.29 91.591 138.376 92.7042 138.342C92.6186 138.307 92.4987 138.17 92.4473 138.256L91.6253 138.068C90.5806 137.708 91.0259 138.342 90.8032 137.366C91.6766 136.92 90.9574 138.085 92.2247 137.366L90.9745 135.653C90.1867 135.858 90.5121 135.773 89.8271 136.081C88.9708 136.458 89.9127 136.321 88.8338 136.389H88.8167Z" fill="#CAD3D7"/>
<path fill-rule="evenodd" clip-rule="evenodd" d="M86.3165 132.382C87.2926 132.998 87.7037 132.622 88.2859 132.057L89.1251 132.245C88.029 130.806 88.9025 131.08 89.1936 130.858C89.0395 130.738 88.9538 130.652 88.6798 130.481C87.9263 130.019 87.481 129.796 86.5734 129.813C86.1795 130.652 86.1966 131.389 86.3165 132.382Z" fill="#152539"/>
<path fill-rule="evenodd" clip-rule="evenodd" d="M146.085 130.053L145.28 130.738C146.256 131.354 146.565 131.834 147.798 132.108C148.791 131.8 148.175 130.704 148.586 129.333L148.414 129.128C147.558 129.111 146.907 129.642 146.102 130.053H146.085Z" fill="#CCD4DB"/>
<path fill-rule="evenodd" clip-rule="evenodd" d="M82.2405 124.624L82.3775 126.182L83.3708 126.799C83.7647 127.004 83.9359 127.056 84.4154 127.227L83.953 126.593C84.7751 126.285 84.758 126.371 85.3402 125.515C84.5182 124.47 84.3983 124.538 82.857 124.042L82.2405 124.624ZM86.2821 128.272C87.4638 129.385 91.437 131.132 91.8823 132.125C93.0811 131.8 92.4988 131.8 93.6805 132.091C93.7147 131.457 93.5948 131.817 93.8175 131.286C93.886 131.132 94.0915 130.841 94.1771 130.738C93.1838 130.412 92.67 129.899 92.1049 129.299C91.5397 128.563 91.5911 128.409 90.8547 127.775C91.2144 127.056 91.0431 127.433 91.1801 126.782C91.3685 125.549 91.3171 126.011 91.0773 124.71C89.3305 125.429 90.2553 125.874 88.6797 126.508L88.5599 120.702H86.4877C86.676 122.004 86.6075 123.357 86.6075 124.692C86.6075 125.823 86.8473 127.57 86.2821 128.289V128.272ZM82.3432 118.921L82.8227 121.353C82.8912 122.363 82.9598 123.031 82.857 124.042C84.3983 124.538 84.5182 124.47 85.3402 125.515C84.758 126.354 84.7751 126.268 83.953 126.593L84.4154 127.227L86.2821 128.272C86.8473 127.552 86.6075 125.806 86.6075 124.675C86.6075 123.357 86.6932 121.987 86.4877 120.685C87.0528 120.017 85.0491 120.171 88.5599 120.171L86.4877 120.12C86.5562 120.086 86.676 119.932 86.6932 120C86.7103 120.086 86.8815 119.88 86.9843 119.812C87.1213 119.726 87.5494 119.76 87.0186 119.777L87.0014 116.232C87.1556 114.948 86.8473 115.753 87.4124 115.119C87.3611 115.102 87.2754 115.068 87.2583 115.119C87.2412 115.171 87.1213 115.119 87.1042 115.102C86.3335 114.794 86.5048 115.633 86.402 113.903L87.9776 114.451C87.3439 113.372 82.8741 110.923 81.898 110.804C82.4117 109.913 82.3775 110.769 81.9836 110.204C81.4527 109.416 81.5726 111.078 81.5897 109.673C81.0588 110.17 81.4184 109.605 81.1958 110.375L81.3499 112.139C81.7438 113.818 82.583 117.568 82.2918 118.921H82.3432ZM86.5048 120.702H88.577L88.6969 126.508C90.2724 125.874 89.3305 125.446 91.0945 124.71L91.0431 124.401C90.4266 121.781 90.1012 115.239 88.0118 114.434L86.4363 113.886C86.539 115.616 86.3678 114.777 87.1384 115.085C87.1556 115.102 87.2754 115.136 87.2926 115.102C87.3097 115.051 87.3953 115.085 87.4467 115.102C86.8815 115.736 87.1898 114.931 87.0357 116.215L87.0528 119.76C87.5666 119.743 87.1556 119.709 87.0186 119.795C86.9158 119.863 86.7445 120.069 86.7274 119.983C86.7103 119.914 86.5904 120.069 86.5219 120.103L88.5941 120.154C85.0833 120.154 87.1042 120.017 86.5219 120.668L86.5048 120.702Z" fill="#2D51FF"/>
<path fill-rule="evenodd" clip-rule="evenodd" d="M91.0259 124.418L91.0773 124.727C91.317 126.028 91.3684 125.583 91.18 126.799L92.9611 125.857L92.807 127.604L92.4987 124.247L91.0259 124.418ZM81.6239 109.673C81.5896 111.078 81.4869 109.416 82.0178 110.204C82.3945 110.769 82.4459 109.913 81.9321 110.804C82.9083 110.923 87.3781 113.372 88.0118 114.451C90.1011 115.256 90.4265 121.798 91.043 124.418L92.5158 124.247C92.259 122.569 92.1391 121.267 91.5225 120.017L91.1286 116.592C90.5292 115.684 90.9574 116.147 90.6491 115.239C90.495 114.76 90.3237 114.588 90.0497 114.04C89.5531 112.859 88.2858 112.379 87.0013 111.643L83.3536 109.519C82.9939 109.314 81.6752 108.748 81.6239 109.673Z" fill="#0548A3"/>
<path fill-rule="evenodd" clip-rule="evenodd" d="M90.0327 114.04C90.3067 114.588 90.4779 114.777 90.6321 115.239C90.9403 116.147 90.5122 115.684 91.1116 116.592C91.026 115.205 91.3 114.845 92.7043 115.188C92.8755 114.434 92.8927 114.777 93.081 114.314C93.2866 113.852 93.2523 114.229 93.3722 113.458L92.8584 113.013L91.7624 113.886C91.3685 113.989 91.2657 114.28 90.8205 113.424C89.7929 113.424 89.947 113.115 90.0498 114.023L90.0327 114.04Z" fill="#94C7CD"/>
<path fill-rule="evenodd" clip-rule="evenodd" d="M161.139 81.6555L162.731 81.5185C162.766 81.4843 162.8 81.3644 162.817 81.4158C162.834 81.45 162.886 81.313 162.903 81.2959C163.622 80.5595 163.622 80.7993 163.982 79.9258C162.937 79.532 163.417 79.7032 162.937 78.7784L162.646 78.7271C162.303 79.532 161.772 80.2512 161.07 80.6451L161.156 81.6384L161.139 81.6555Z" fill="#74524B"/>
<path fill-rule="evenodd" clip-rule="evenodd" d="M91.1804 126.799C91.0434 127.45 91.2146 127.056 90.855 127.792C91.5743 128.409 91.54 128.58 92.1052 129.316C92.1565 129.248 92.225 129.06 92.2593 129.111C92.2935 129.145 92.362 128.94 92.4134 128.888L92.7217 128.375L92.8244 127.621L92.9786 125.874C91.677 126.2 92.2079 126.268 91.1975 126.816L91.1804 126.799Z" fill="#0548A3"/>
<path fill-rule="evenodd" clip-rule="evenodd" d="M148.534 127.193L148.397 129.128L148.569 129.334L150.059 129.419C150.144 129.008 150.281 128.306 150.179 127.501C149.836 126.936 149.973 127.022 149.339 126.73L148.534 127.193Z" fill="#152539"/>
<path fill-rule="evenodd" clip-rule="evenodd" d="M135.81 100.614C136.221 100.494 135.998 101.076 136.101 100.168C136.135 99.8944 136.084 99.6717 136.032 99.3635L135.604 98.3873L134.731 94.0374C133.378 94.4655 132.984 95.0306 131.939 95.5615L130.792 95.9212C130.09 96.7775 128.703 97.257 128.035 97.8221L126.579 98.7469C126.545 98.8154 126.493 98.8326 126.493 98.9353C126.493 99.0381 126.425 99.0894 126.425 99.1408L126.887 100.922L127.161 103.285L127.726 105.255L130.347 104.107C130.621 103.97 130.929 103.816 131.271 103.662C131.323 103.611 131.408 103.439 131.443 103.491C131.58 103.748 131.7 103.234 131.768 103.165C131.991 102.96 132.025 102.943 132.248 102.737C133.052 102.446 133.446 102.275 134.097 101.881C134.303 101.761 134.748 101.504 134.971 101.333C135.039 101.282 135.245 101.145 135.313 101.076C135.707 100.751 135.501 100.956 135.793 100.597L135.81 100.614Z" fill="#2097DF"/>
<path fill-rule="evenodd" clip-rule="evenodd" d="M94.9993 95.9897L97.1743 94.7909C96.5749 94.0888 96.0611 93.8147 95.1534 93.5579L94.9479 93.712L94.4513 95.5616C94.7595 96.1438 93.9717 96.1267 94.9993 95.9897Z" fill="#1C2957"/>
<path fill-rule="evenodd" clip-rule="evenodd" d="M109.933 91.3143L110.464 91.8452L111.354 91.537L112.33 91.0061L112.399 90.6293C112.056 90.0299 110.995 89.4819 109.864 90.0642L109.916 91.3143H109.933Z" fill="#FABA9F"/>
<path fill-rule="evenodd" clip-rule="evenodd" d="M146 128.734C146.633 129.059 146.325 129.282 146.085 130.053C146.89 129.625 147.541 129.094 148.397 129.128L148.534 127.193C147.969 127.433 147.832 127.57 147.215 127.895C146.856 128.083 146.804 128.049 146.479 128.272C145.982 128.597 146.359 128.323 146 128.734Z" fill="#0F2432"/>
<path fill-rule="evenodd" clip-rule="evenodd" d="M143.105 111.489C144.321 111.677 144.407 112.088 145.537 112.499L145.315 113.629C145.863 113.03 145.503 113.646 145.777 112.619C145.983 111.865 145.76 112.311 146.12 111.454C145.178 111.369 144.972 111.471 144.544 110.495L143.379 110.598C143.242 111.18 143.345 110.941 143.123 111.471L143.105 111.489Z" fill="#AACDD5"/>
<path fill-rule="evenodd" clip-rule="evenodd" d="M146.051 92.5988L146.565 94.5854C148.055 94.3456 148.38 93.4722 149.733 93.438C150.47 92.5474 150.726 92.7187 151.411 92.0165L152.987 91.2287C153.449 91.0232 153.227 91.1945 153.604 90.9547C154.1 90.6465 154.015 90.6636 154.1 90.5095L155.111 90.1841L154.323 86.0739C154.134 85.3717 153.912 84.4127 153.912 83.4537C151.977 83.368 153.261 83.7105 151.668 84.0188L150.709 85.0121C150.093 85.1491 147.301 86.9131 146.993 87.2213C146.359 87.5296 146.668 87.3412 145.948 87.8036C145.589 88.0262 145.503 88.0947 145.212 88.3516C145.486 89.8758 145.794 90.9376 146.034 92.5817L146.051 92.5988Z" fill="#2097DF"/>
<path fill-rule="evenodd" clip-rule="evenodd" d="M87.0186 136.15C88.1146 136.903 87.2412 136.732 87.5837 138.102L87.892 138.855L88.2345 138.599L88.8168 136.372L88.0975 136.424L88.3372 135.533L87.0357 136.132L87.0186 136.15Z" fill="#152539"/>
<path fill-rule="evenodd" clip-rule="evenodd" d="M98.356 78.1961C99.0068 78.7098 99.1609 78.727 100.103 78.8811L100.719 78.2817C100.754 78.2474 100.822 78.1618 100.839 78.1275C100.873 78.0933 100.908 78.0077 100.959 77.9563L100.719 77.6138L99.3835 77.5624C98.9383 76.7404 99.3322 76.9972 98.4588 76.9116C98.9725 77.785 99.3835 78.3159 98.3389 78.1961H98.356Z" fill="#FABA9F"/>
<path fill-rule="evenodd" clip-rule="evenodd" d="M86.676 136.681C86.4191 137.982 86.2992 137.896 86.8473 138.89L87.8919 138.873L87.5837 138.119C87.2411 136.732 88.1146 136.903 87.0185 136.167L86.676 136.681Z" fill="#152539"/>
<path fill-rule="evenodd" clip-rule="evenodd" d="M152.439 123.99C153.261 123.699 153.861 123.613 154.22 122.432L153.912 121.439C154.392 120.873 153.073 121.302 153.741 120.925C153.912 120.822 153.775 120.171 153.655 119.486C153.689 119.366 153.758 119.212 153.861 118.955C153.724 118.664 153.655 118.287 153.638 117.842C153.604 116.267 154.272 113.989 154.392 112.636L154.974 110.615L154.991 109.005C155.025 106.728 154.768 106.865 151.634 109.228C151.6 109.262 151.514 109.313 151.463 109.365C147.781 112.465 147.849 109.022 146.257 117.26C145.88 119.178 145.572 120.873 145.246 122.826C144.596 126.713 145.144 127.45 144.887 128.34L146.325 127.638C147.233 127.141 148.483 126.696 148.997 125.874L150.042 125.651L152.473 123.973L152.439 123.99Z" fill="#0548A3"/>
<path fill-rule="evenodd" clip-rule="evenodd" d="M109.676 109.382L112.262 110.444L112.724 108.526L113.649 104.142C113.289 103.953 113.033 103.765 112.776 103.611C112.039 103.148 112.587 103.405 111.662 102.994C111.303 102.686 109.522 101.607 109.419 101.573L108.186 100.853C107.792 100.768 107.313 100.46 106.884 100.186C106.285 99.8088 106.062 99.6204 105.446 99.3635L104.59 102.155C104.144 103.525 103.768 104.827 103.905 106.18C104.367 106.317 104.812 106.385 105.206 106.642C105.857 107.036 105.651 107.002 105.908 107.413L107.792 108.115L109.659 109.382H109.676Z" fill="#3593D1"/>
<path fill-rule="evenodd" clip-rule="evenodd" d="M160.18 121.969L160.351 122.723L160.899 123.014C161.944 122.911 161.55 123.134 162.252 122.38L162.406 121.096C161.584 121.781 162.286 121.421 161.533 121.73C161.002 121.935 160.711 121.901 160.163 121.969H160.18Z" fill="#4C4955"/>
<path fill-rule="evenodd" clip-rule="evenodd" d="M156.566 77.3226C157.132 77.8535 157.44 78.0762 158.125 78.2817L158.519 77.1L157.817 76.7404C157.166 76.7746 156.703 76.6034 156.584 77.3226H156.566Z" fill="#74524B"/>
<path fill-rule="evenodd" clip-rule="evenodd" d="M159.495 102.292L161.002 102.72L160.95 102.703L161.241 101.059C160.762 101.213 160.796 101.11 160.231 101.47C159.478 101.95 159.803 101.795 159.478 102.292H159.495Z" fill="#E4ECF4"/>
<path fill-rule="evenodd" clip-rule="evenodd" d="M169.428 80.5938L170.815 81.3815L170.918 79.7203L170.061 80.0629C169.205 80.217 169.616 79.9087 169.411 80.5938H169.428Z" fill="#58A8AA"/>
<path fill-rule="evenodd" clip-rule="evenodd" d="M148.158 135.053C148.449 135.807 147.986 135.208 148.534 135.944L149.408 135.584L148.791 134.642L148.158 135.036V135.053Z" fill="#576572"/>
<path fill-rule="evenodd" clip-rule="evenodd" d="M100.377 80.4567C101.216 79.7203 101.113 79.8745 100.377 79.0867C100.291 79.1723 99.9314 78.6756 100.017 79.6861C100.085 80.5424 99.9656 79.9258 100.377 80.4567Z" fill="#F9D64C"/>
<path fill-rule="evenodd" clip-rule="evenodd" d="M116.612 81.1246C117.52 81.3815 118.034 81.6555 118.633 82.3577C119.061 82.0494 119.541 81.861 120.157 81.5014L119.044 81.0904L116.715 79.8916C115.088 79.2579 113.41 79.9258 112.605 81.3472C111.988 82.4433 112.468 82.6831 112.553 82.8372C113.444 82.4262 112.793 82.9571 113.495 81.9466C114.865 79.9943 116.441 80.7136 116.612 81.1417V81.1246Z" fill="#94B7C8"/>
<path fill-rule="evenodd" clip-rule="evenodd" d="M47.4754 108.509L37.0972 102.412L37.1485 94.2943L47.5267 100.391L47.4754 108.509Z" fill="url(#paint1_linear_2178_374)"/>
<path fill-rule="evenodd" clip-rule="evenodd" d="M40.0087 96.0411L37.5426 94.9622V102.48C38.5359 103.148 40.6252 103.953 41.3273 104.929C42.2179 105.049 42.9372 105.632 44.0846 106.299C44.9751 106.813 45.8143 107.464 46.8932 107.738L46.8761 100.186L39.9744 96.024L40.0087 96.0411ZM41.1561 105.255C40.1457 104.912 37.4741 103.405 36.8062 102.72V93.5237L37.7823 93.4209L38.2961 93.9689C39.6833 94.6882 41.0533 95.5102 42.4576 96.3323C43.7421 97.0687 45.3348 98.2504 46.5336 98.5072C46.7391 98.8498 46.2082 98.6956 47.2357 98.9183L48.0064 99.7232L47.9893 109.022C46.7562 108.954 45.1978 107.789 44.2558 107.224C43.5366 106.796 41.55 105.734 41.1561 105.272V105.255Z" fill="#243264"/>
<path fill-rule="evenodd" clip-rule="evenodd" d="M68.7285 89.3107C68.7456 89.7388 68.7285 89.2079 68.7285 89.6532L68.6771 132.896L68.6942 133.461C68.6429 133.632 68.66 138.273 68.6771 138.393C68.5572 138.325 68.6429 138.393 68.5744 138.307L68.6771 138.496L68.5059 142.007C68.8312 142.229 68.66 141.887 68.6771 142.298C68.7456 142.452 69.0025 142.692 69.1395 142.777C69.1738 142.537 69.1738 140.739 69.1738 140.328C69.1738 139.523 69.1738 138.701 69.1738 137.879V133.529C69.1738 133.427 69.1738 133.307 69.1738 133.204L69.1909 132.998L69.1738 131.628L69.1909 123.374L69.1738 121.199C69.1738 120.394 69.1738 119.589 69.1738 118.784L69.208 116.472C69.1566 115.958 69.2251 90.167 69.2251 89.3278L68.7456 89.3107H68.7285Z" fill="#D9D8D6"/>
<path fill-rule="evenodd" clip-rule="evenodd" d="M49.8388 78.9154L49.6333 131.474L51.3973 132.485C51.5 132.142 51.4829 129.248 51.5 128.631C51.5171 127.415 51.5 126.182 51.5 124.966L51.5171 118.424C51.5171 118.287 51.5 118.082 51.5171 117.945L51.5856 117.62L51.5343 115.582L51.4315 92.5646L51.3801 89.2936C51.3801 88.0777 51.2945 81.1246 51.3287 79.9087L68.8484 89.8074V89.3107L49.8731 78.9154H49.8388Z" fill="#C8DEEC"/>
<path fill-rule="evenodd" clip-rule="evenodd" d="M49.7188 78.8469L68.8139 89.5847L68.9509 89.3621C65.3545 87.2556 49.9243 78.6071 49.8729 78.5729L49.7188 78.8469Z" fill="#D9D8D6"/>
<path fill-rule="evenodd" clip-rule="evenodd" d="M49.4278 78.5558C49.4449 78.9839 49.4278 78.453 49.4278 78.8983L49.3764 122.141L49.3935 122.706C49.3421 122.877 49.3592 127.518 49.3764 127.638C49.2565 127.57 49.3421 127.638 49.2565 127.553L49.3592 127.741L49.188 131.252C49.5305 131.474 49.3421 131.132 49.3592 131.543L49.8559 131.594C49.8901 131.354 49.873 129.967 49.873 129.573C49.873 128.768 49.873 127.946 49.873 127.124V122.774C49.873 122.672 49.873 122.552 49.873 122.449L49.9073 122.244L49.8901 120.891L49.9073 112.636L49.8901 110.461C49.8901 109.656 49.8901 108.851 49.8901 108.046L49.9244 105.734C49.873 105.221 49.9415 79.4292 49.9415 78.59L49.4278 78.5729V78.5558Z" fill="#D9D8D6"/>
<path fill-rule="evenodd" clip-rule="evenodd" d="M101.867 80.4567C101.918 82.1008 102.38 83.9332 102.517 85.6972C102.672 87.6152 102.603 89.5333 102.74 91.4514C103.836 91.1089 103.973 91.0918 104.281 90.0471L104.213 88.2489L106.028 89.1223C106.816 89.5505 107.707 90.3211 108.546 90.3382C109.265 91.6569 108.82 91.3144 109.933 91.3144L109.881 90.0642C111.012 89.4819 112.074 90.03 112.416 90.6294C112.878 90.6294 112.776 90.7492 112.776 90.3554L112.896 90.3896C112.878 90.4752 112.827 90.167 112.776 90.0471C112.125 89.1394 111.508 89.5847 110.704 89.2936C109.967 89.0367 109.214 88.3003 108.734 87.8721C107.929 87.3241 107.33 86.7247 106.542 86.5706C106.217 85.6972 105.737 84.2415 105.788 83.094C105.6 82.8372 105.72 83.1112 105.463 82.4775C105.429 82.3919 105.292 81.9124 105.275 81.8096C105.086 80.8163 105.121 81.1075 105.258 80.1827C104.709 79.4805 104.727 79.2236 104.641 78.2988L104.881 77.7851C103.905 77.7508 104.709 78.0077 103.819 77.2713C103.014 76.7233 103.065 76.689 102.004 76.7575C101.421 77.0144 100.873 77.0144 100.736 77.6138L100.976 77.9563C101.062 78.5215 101.147 78.8811 101.319 79.3093C101.421 79.6004 101.404 79.5661 101.558 79.9087C101.832 80.4567 101.644 80.1484 101.884 80.4738L101.867 80.4567Z" fill="#243264"/>
<defs>
<linearGradient id="paint0_linear_2178_374" x1="0.156702" y1="103.063" x2="238.787" y2="103.063" gradientUnits="userSpaceOnUse">
<stop stop-color="white"/>
<stop offset="1" stop-color="#E4EBFF"/>
</linearGradient>
<linearGradient id="paint1_linear_2178_374" x1="47.5267" y1="101.401" x2="37.0972" y2="101.401" gradientUnits="userSpaceOnUse">
<stop stop-color="#FA7373"/>
<stop offset="1" stop-color="#A13030"/>
</linearGradient>
</defs>
</svg>
