<svg xmlns="http://www.w3.org/2000/svg" xmlns:xlink="http://www.w3.org/1999/xlink" xmlns:xodm="http://www.corel.com/coreldraw/odm/2003" xml:space="preserve" width="80.9571mm" height="76.5307mm" style="shape-rendering:geometricPrecision; text-rendering:geometricPrecision; image-rendering:optimizeQuality; fill-rule:evenodd; clip-rule:evenodd" viewBox="0 0 1230.17 1162.91">
 <defs>
  <style type="text/css">
   <![CDATA[
    .str1 {stroke:#CCCCCC;stroke-width:3.8;stroke-miterlimit:22.9256}
    .str0 {stroke:#E6E6E6;stroke-width:3.04;stroke-miterlimit:22.9256}
    .str2 {stroke:#2D51FF;stroke-width:1.16;stroke-miterlimit:22.9256}
    .fil17 {fill:#019798}
    .fil8 {fill:#0548A3}
    .fil7 {fill:#387FD7}
    .fil6 {fill:#3E66FF}
    .fil14 {fill:#492B91}
    .fil15 {fill:#6C4529}
    .fil5 {fill:#76AEEC}
    .fil2 {fill:#779AFF}
    .fil18 {fill:#82C3B8}
    .fil12 {fill:#A87C43}
    .fil16 {fill:#B0B0B0}
    .fil0 {fill:#C8DEEC}
    .fil11 {fill:#D7A279}
    .fil10 {fill:#E0A75C}
    .fil19 {fill:#F3F3F3}
    .fil4 {fill:#F5ECD7}
    .fil9 {fill:#FDCCA7}
    .fil3 {fill:#FDFDFD}
    .fil1 {fill:white}
    .fil13 {fill:black;fill-opacity:0.050980}
   ]]>
  </style>
 </defs>
 <g id="Camada_x0020_1">
  <metadata id="CorelCorpID_0Corel-Layer"></metadata>
  <path class="fil0" d="M248.46 541.33c5.04,6.89 64.59,54.08 72.83,57.68 13.3,-40.38 187.81,-434.31 223.01,-515.39 11.27,-25.97 25.57,-49.29 56.93,-51.1l10.92 -6.22c-75.07,-17.09 -114.5,-62.64 -155.51,30.31 -22.54,51.1 -206.31,469.07 -208.19,484.71z"></path>
  <path class="fil0" d="M308.3 750.04l-187.57 -149.66c-13.7,-11.05 -24.74,-16.07 -32.27,-37.62 -14.74,-42.15 12.89,-78.49 47.44,-85.32l18.28 -5.08c-24.8,-6.2 -55.47,-22.32 -78.26,-25.88 -65.31,-10.2 -97.63,65.88 -59.8,105.99 17.17,18.2 208.43,169.79 222.24,175.54 12.27,5.12 63.5,24.7 69.93,22.03z"></path>
  <path class="fil1 str0" d="M248.16 531.19c-18.03,-12.46 -36.02,-26.53 -52.2,-39.74 -22.53,-18.4 -30.44,-26.29 -69.37,-22.84 -36.27,7.16 -65.29,45.32 -49.81,89.59 7.9,22.62 19.49,27.9 33.88,39.5l196.95 157.15c48.9,23.59 81.72,16.62 103.92,-26.46 29.39,-57.02 108.57,-250.53 139.34,-320.18 31.44,-71.18 63.73,-143.92 93.73,-216.1 27.84,-66.98 70.59,-121.72 24.83,-167.13 -16.59,-16.45 -28.94,-17.94 -57.39,-18.58 -32.35,1.87 -47.09,25.92 -58.72,52.71 -36.31,83.62 -216.31,489.95 -230.03,531.6 -8.51,-3.72 -69.92,-52.39 -75.13,-59.5z"></path>
  <path class="fil1 str1" d="M1107.3 362.95l-41.65 24.19c-4.52,2.67 -10,5.33 -13.87,8.11l-4.45 0.71c1.08,1 -1.63,0.92 2.01,0.86 -1.93,1.9 -3.14,2.25 -5.06,4.65 -14.86,18.55 -14.07,26.93 -14.07,50.22 0,24.66 0.3,49.36 0.33,74.02 0.04,31.49 -2.7,30.43 14.48,40.81 18.33,11.09 18.69,7.4 38.6,-3.85 4.97,-2.81 19.43,-12 23.54,-12.83l1.18 0.26c-1.13,35.47 2.67,76.41 -0.59,110.62 -2.97,3.33 0.13,3.56 0.95,6.3 -12.01,22.9 -22.56,22.34 -133.16,86.86 -14.4,5.71 -23.27,12.71 -36.04,20.03l-2.11 1.26 -173.8 101.07c-4.27,0.78 -42.37,23.58 -46.55,26.17 -43.79,27.23 -66.37,45.53 -71.16,48.08 -2.07,1.1 -3.1,1.65 -5.06,2.8l-9.08 5.72c-1.59,0.94 -3.53,1.47 -5.36,2.5 -1.7,0.95 -3.43,2.03 -4.92,2.85 -5.95,3.28 -11.21,6.83 -17.08,10.2 -144.41,86.86 -217.63,117.74 -215.28,79.87 2.13,-49.04 -1.28,-107.51 -0.47,-154.05l-0.9 -345.93c0,-7.15 -0.22,-14.66 0.05,-21.77 0.43,-11.58 6.53,-22.42 14.71,-30.15 3.47,-3.27 14.55,-9.47 20.36,-12.88l28.75 -16.48c2.13,-1.28 5.18,-2.7 7.28,-4.04 1.62,-1.04 0.87,-0.82 3.26,-2.04l32.09 -18.44c2.23,-1.15 4.59,-2.52 7.12,-4.06 1.93,-1.17 5.27,-2.85 7.14,-4.15 5.42,-3.78 12.11,-6.69 16.91,-9.3 0.23,-0.12 0.86,-0.51 1.07,-0.65 1.31,-0.82 1.73,-1.23 3.66,-2.42l42.36 -24.75c1.15,-0.59 0.57,-0.33 1.69,-0.92 5.19,-2.74 10.26,-6.61 13.49,-6.71 -0.27,8.53 -0.82,20.02 1.94,27.2 -0.07,0.22 -0.12,0.56 -0.17,0.68l-0.62 1.35c-0.05,-0.15 -0.28,0.45 -0.44,0.67 0.2,0.12 0.47,0.27 0.6,0.35l1.16 0.7c3.15,1.76 1.82,1.29 3.54,0.7 15.96,6.28 13.55,16.59 37.23,2.37l102.78 -59.21 6.25 -3.67c54.93,-31.13 112.88,-66.04 168.19,-97.08 18.88,-10.6 36.77,-21.39 55.63,-32.14 1.86,-0.84 3.58,-2.04 5.39,-3.57 3.01,-0.95 5.12,-2.32 6.71,-4.06 1.74,-0.53 1.58,-0.29 2.99,-1.1 1.66,-0.95 0.25,-0.08 1.34,-1.35 4.54,-1.27 11.45,-6.18 16.3,-8.83 25.2,-13.76 52.47,-30.95 78.43,-45.2 5.93,-3.26 27.03,-16.39 31.07,-17.65l1.25 0.65c-0.85,12.58 -0.25,88.65 0.19,104.5 0.31,11.04 0.99,97.74 -0.11,101.97z"></path>
  <path class="fil2" d="M975.85 229.96c-1.58,1.74 -3.69,3.11 -6.71,4.06 -1.8,1.52 -3.52,2.73 -5.39,3.57 -18.87,10.75 -36.75,21.55 -55.63,32.14 -55.31,31.04 -113.26,65.95 -168.19,97.08l-6.25 3.67 -102.78 59.21c-23.68,14.23 -21.27,3.91 -37.23,-2.37 -1.03,-0.95 -3.28,-3.26 -4.07,-4.44 -2.76,-7.19 -2.22,-18.67 -1.94,-27.2l-0.02 -17.86c-0.17,-4.94 -0.38,-11.62 0.31,-16.45 0.8,-5.57 2.58,-8.66 4,-13.18 3.04,-2.99 2.74,-7.34 12.62,-15.48 1.81,-1.49 3.52,-1.66 5.26,-4.06 4.8,-1.86 7.74,-3.97 12.12,-6.51 3.56,-2.08 7.29,-4.02 10.99,-6.44l44.2 -25.41c7.16,-4.22 14.42,-8.13 22.06,-12.75l33.16 -19.1c17.08,-10.44 37.97,-21.34 55.22,-31.83l22.15 -12.71c42.02,-24.47 90.73,-53.46 132.41,-76.51 3.81,-2.11 6.99,-4.26 11.1,-6.35 6.91,-3.51 26.17,-15.89 33.67,-19.52l55.24 -31.76c16.01,-9.98 35.7,-20.45 52.38,-30.38l52.55 -30.18c12.27,-7.56 14.72,-7.16 24.79,-0.96 5.39,3.32 11.46,4.35 14.33,11.77 2.86,7.4 1.89,58.21 -0.77,65.92 -7.06,20.44 -18.75,23.93 -35.56,34.06 -6.54,3.94 -41.2,22.88 -43.89,25.86 -4.04,1.26 -25.13,14.39 -31.07,17.65 -25.96,14.25 -53.23,31.44 -78.43,45.2 -4.85,2.65 -11.76,7.56 -16.3,8.83 -1.09,1.27 0.32,0.4 -1.34,1.35 -1.41,0.81 -1.25,0.57 -2.99,1.1zm62.07 -97.46c-3.67,-5.65 -11.75,-4.27 -17.19,-1.03 -3.64,2.17 -9.22,8.38 -11.17,11.51 -6.02,9.64 -10.28,28.58 2.22,32.53 2.88,2.67 6.23,4.52 11.69,3.11 5.26,-1.36 6.61,-4.03 10.33,-5.59l2.37 -2.42c0.86,-2.37 3.87,-5.71 5.47,-8.62 1.64,-2.98 3.2,-7.08 4.03,-10.72 1.95,-8.5 -0.46,-17.87 -7.74,-18.77zm56.06 -32.52c-1.19,-1.18 -3.14,-3.74 -9.05,-3.12 -7.44,0.79 -14.99,8.61 -18.69,14.86 -5.34,9.04 -11.44,27.52 2.06,31.81 3.82,4.68 12.33,4.27 17.52,0.8 4.02,-2.69 8.67,-7.63 11.35,-12.17 5.87,-9.95 10.84,-28.05 -3.19,-32.18zm57.56 -30.82c-6.5,-9.66 -21,-1.78 -28.75,11.05 -3.04,5.03 -5.87,11.98 -5.8,18.8 0.09,9.29 3.39,11.27 10.01,14.19 20.54,13.91 46.49,-40.19 24.54,-44.04z"></path>
  <path class="fil0" d="M587.64 377.82l0.02 17.86c-3.23,0.11 -8.31,3.97 -13.49,6.71 -1.12,0.59 -0.54,0.33 -1.69,0.92l-42.36 24.75c-1.94,1.2 -2.36,1.6 -3.66,2.42 -0.22,0.14 -0.85,0.53 -1.07,0.65 -4.81,2.61 -11.5,5.52 -16.91,9.3 -1.86,1.3 -5.21,2.98 -7.14,4.15 -2.53,1.54 -4.89,2.91 -7.12,4.06l-32.09 18.44c-2.39,1.22 -1.64,1 -3.26,2.04 -2.09,1.34 -5.15,2.76 -7.28,4.04l-28.75 16.48c-5.81,3.42 -16.89,9.61 -20.36,12.88 -8.18,7.73 -14.28,18.57 -14.71,30.15 -0.27,7.11 -0.05,14.62 -0.05,21.77l0.9 345.93 -0.31 9.24 0.79 144.81c-2.22,2.47 -9.84,6.58 -13.85,7.84 -1.14,-3.81 -0.96,-33.5 -1.02,-40.17 -0.13,-13.33 0.08,-26.72 0.01,-40.06l-0.11 -71.42c0.02,-1.55 0.16,-3.77 0.07,-5.25l-0.75 -3.48 0.54 -22.33 -0.56 -135.26 0.61 -35.7 -0.16 -39.67 -1.01 -37.83c1.52,-8.33 0.19,-68.13 0.2,-81.86 0.01,-15.06 -1.62,-25.01 3.12,-38.08 7.79,-21.45 27.54,-25.63 44.86,-37.26 3.6,-2.42 8.99,-5.67 13.18,-7.64l38.68 -22.35c2.62,-1.62 23.17,-14.27 25.6,-13.99l40.94 -23.8 46.73 -27.28c0.13,-0.09 0.4,-0.28 0.5,-0.35 0.1,-0.07 0.42,-0.09 0.49,-0.34 0.07,-0.25 0.31,-0.24 0.48,-0.34z"></path>
  <path class="fil3" d="M1126.99 113.2c-7.1,-9 -3.46,-21.6 1.6,-28.88 4.96,-7.14 12.12,-17.41 22.94,-15.16 21.95,3.85 -4,57.95 -24.54,44.04z"></path>
  <path class="fil3" d="M1036.16 170.61c-2.15,1.04 -1.34,0.13 -2.37,2.42 -3.72,1.57 -5.06,4.23 -10.33,5.59 -5.46,1.41 -8.8,-0.44 -11.69,-3.11 -1.83,-4.51 -3.06,-8.6 -1.52,-15.15 3.15,-13.41 12.62,-28.14 27.66,-27.86 7.29,0.9 9.69,10.27 7.74,18.77 -0.83,3.64 -2.38,7.75 -4.03,10.72 -1.6,2.91 -4.61,6.25 -5.47,8.62z"></path>
  <path class="fil3" d="M1068.29 143.52c-0.3,-4.02 -0.12,-0.43 -0.98,-3.4l-0.5 -3.12c-0.38,-12.41 4.97,-23.77 13.91,-31.79 3.35,-3.01 7.6,-4.26 13.26,-5.24 14.03,4.13 9.06,22.23 3.19,32.18 -2.68,4.54 -7.33,9.48 -11.35,12.17 -5.19,3.47 -13.7,3.88 -17.52,-0.8z"></path>
  <path class="fil0" d="M1093.97 99.98c-5.65,0.98 -9.91,2.24 -13.26,5.24 -8.94,8.02 -14.28,19.38 -13.91,31.79l0.5 3.12c0.86,2.97 0.68,-0.62 0.98,3.4 -13.49,-4.29 -7.4,-22.77 -2.06,-31.81 3.7,-6.25 11.25,-14.07 18.69,-14.86 5.91,-0.62 7.87,1.95 9.05,3.12z"></path>
  <path class="fil0" d="M1151.53 69.16c-10.82,-2.25 -17.98,8.02 -22.94,15.16 -5.06,7.28 -8.7,19.89 -1.6,28.88 -6.63,-2.92 -9.93,-4.89 -10.01,-14.19 -0.06,-6.82 2.76,-13.77 5.8,-18.8 7.75,-12.84 22.26,-20.72 28.75,-11.05z"></path>
  <path class="fil0" d="M1037.91 132.5c-15.04,-0.28 -24.51,14.46 -27.66,27.86 -1.54,6.54 -0.31,10.63 1.52,15.15 -12.5,-3.95 -8.24,-22.89 -2.22,-32.53 1.95,-3.13 7.53,-9.34 11.17,-11.51 5.43,-3.24 13.51,-4.61 17.19,1.03z"></path>
  <path class="fil4" d="M533.68 378.14c-1.72,0.6 -0.38,1.06 -3.54,-0.7l-1.16 -0.7c-0.13,-0.08 -0.4,-0.23 -0.6,-0.35 0.16,-0.21 0.39,-0.82 0.44,-0.67l0.62 -1.35c0.05,-0.12 0.1,-0.46 0.17,-0.68 0.79,1.18 3.03,3.49 4.07,4.44z"></path>
  <path class="fil5" d="M1033.79 173.03c1.03,-2.29 0.22,-1.38 2.37,-2.42l-2.37 2.42z"></path>
  <path class="fil6" d="M1176.59 21.75c-1.39,1.24 -2.93,1.22 -4.82,1.52 -6.76,1.05 -23.44,12.51 -30.48,16.23l-102.8 59.19c-3.44,2.08 -5.95,3.62 -9.82,5.86l-29.27 16.73c-6.37,3.34 -12.84,7.73 -19.91,11.56 -7.06,3.83 -12.72,7.63 -19.38,11.13 -15.34,8.05 -33.87,20.49 -49.3,28.33l-205.88 118.83c-3.72,2.11 -5.56,3.57 -9.2,5.5l-78.33 45.52c-1.69,1.39 -2.59,2.13 -3.93,3.8 -16.3,20.29 -12.49,29.31 -12.49,58.23 0,5.19 -0.11,10.5 0,15.68 0.04,1.97 0.17,5.87 0.57,7.7 1.29,5.85 4.3,3.6 1.45,3.07 1.94,2.8 0.42,0.78 -0.26,2.12 -4.72,-1.06 -13.07,-6.66 -14.91,-10.9 -2.03,-4.67 -1.56,-19.3 -1.44,-25.52l-0.02 -18.43c-0.11,-4.88 -0.35,-11.37 0.32,-16.11 0.78,-5.45 2.66,-8.63 3.99,-13.06 2.91,-2.86 2.22,-4.9 7.74,-10.77 5.01,-5.32 8.67,-6.7 10.18,-8.67l494.26 -284.61c11.39,-7.17 23.72,-13.44 35.32,-20.51 3.2,-1.95 5.56,-2.89 8.9,-4.96 16.34,-10.14 17.08,-2.27 29.52,2.56z"></path>
  <g id="_2633913896800">
   <path class="fil2" d="M653.38 840.87c2.69,6.2 1.4,15.94 1.69,23.56 0.14,8.97 0.64,18.1 0.81,27.22l-0.67 25.99c2.28,18.93 7.31,21.88 4.01,49.28 -3.32,27.58 -9.39,46.1 -6.31,74.24 0.53,4.8 2.97,20.56 2.54,24.06l2.55 15.62c-0.78,1.3 -1.73,11.8 -16.8,8.79 -9.91,-1.98 -11.17,-7.87 -13.6,-11.17l-1.45 -1.32c0.76,-3.74 0.48,-15.23 -1.7,-17.44 0.6,-6.51 -2.62,-56.7 -3.69,-58.63 -3.29,11.34 -4.93,20.53 -8.95,31.1 -3.78,9.94 -7.6,20.69 -7.04,32.93 -3.31,8.11 -1.38,48.15 1.01,57.35 -3.75,2.1 0.36,0.22 -3.45,2.71 -1.8,1.18 -2.31,1.2 -4.59,1.38 -16.57,1.25 -16.84,-15.38 -20.86,-18.03 1.49,-6.02 -0.43,-38.46 -2.09,-43.9 0.9,-7.69 -0.08,-14.37 1.37,-23.04 4.47,-26.73 9.15,-19.68 8.02,-65.64l2.19 -1.24c0.19,-0.1 0.99,-0.56 1.29,-0.72l-2.7 -9.06c-2.98,-12.34 1.08,-34.61 1.17,-45.17 0.06,-6.43 -0.96,-0.73 -0.18,-14.62 0.05,-5.99 2.31,-9.47 2.99,-14.47 0.54,-3.99 -1.32,-10.09 -2.21,-13.72 1.66,-1.65 0.42,-1.17 2.99,-0.62 1.68,0.36 1.54,0.84 4.01,1.07 2.79,0.26 6.66,-0.01 7.54,-2.52 5.47,-1.21 9.72,-9.89 11.82,-16.9 3.35,-11.21 -7.79,-32.3 -15.6,-40.41l-14.89 -13.5 5.07 -3.86c14.42,2.39 31.48,31.52 35.63,50.79 7.89,-0.51 16.78,-5.92 23.57,-8.24 -0.86,-20.2 -4.9,-29.33 -10.43,-45.5 -0.04,-1.5 -0.14,-3.53 0.02,-5.02l1.38 -4.02c4.28,5.72 7.97,16.2 10.16,24.18 1.29,4.71 4.65,27.08 5.4,28.47z"></path>
   <path class="fil2" d="M855.59 915.84l-1.46 4.89 -0.6 3.4 0.33 0.74 -1 1.78 -3.05 28.29c0.67,3.54 0.31,3.93 1.44,8.49 0.34,1.4 0.59,2.8 0.89,4.18 0.83,3.81 -0.88,0.96 1.54,4.38 -4.12,-0.25 -3.44,0.34 -7.3,1.51 -2.08,0.63 -6.26,1.51 -8.2,1.81 -8.41,1.3 -12.98,-0.66 -15.52,0.02 -0.24,0.06 -1.29,0.67 -1.54,0.89 -1.02,-3.74 1.17,-16.64 2.2,-21.18l2.02 -46.94 0.88 -2.64 2.05 -9.19 2.02 -7.61 0.33 -3.82 0.07 -6.37 -0.74 -9.97 -1.57 8.55c-1.82,4.41 -0.89,1.07 -1.42,4.54l-0.26 3.5 -2.38 10.54c-0.89,2.01 -0.33,1.07 -0.77,3.14 -0.07,0.33 -0.2,1.46 -0.3,1.78 -0.8,2.7 0.41,0.38 -1.12,2.29l-0.7 4.08c-3.47,3.06 -0.5,-0.16 -2.1,5.52 -3.04,10.76 -8.4,20.95 -9.67,37.42 -2.85,4.48 -3.48,17.46 -3.64,24.06 -0.12,5.01 -0.32,9.11 -0.92,14.1 -0.45,3.71 -1.72,8.93 -1.72,11.79 -3.17,1.84 -4.42,3.92 -9.95,3.41 -4.5,-0.42 -7.22,-2.62 -11.06,-3.87l1.17 9.09c-1.2,-3.46 -0.77,-8.12 -1.66,-11.03 -1.99,-6.55 -1.63,-1.9 -1.96,-10.27 -0.31,-7.87 0.01,-16.37 0.51,-24.95 -0.26,-15.59 1.02,-31.47 5.72,-44.55 6.19,-17.24 8.54,-18.69 8.93,-40.46l0.34 -4.38 0.04 -1.75c3.24,-0.52 8.69,-4.15 11.54,-6.65l-0.07 -2.34 -6.55 -4.51c-1.17,-2.49 -2.06,-3.49 -3.95,-6.12l0.05 -6.92c5.72,0.68 5.27,4.74 10.76,6.76l3.1 0.25 -0.71 -3.11c-0.41,-2.98 -4.5,-6.82 -6.32,-8.87 -1.12,-1.26 -2.29,-2.56 -4.03,-4.05 -2.23,-1.91 -1.6,-0.45 -3.38,-3.05 -0.28,-7.5 -0.43,-15.37 1.17,-22.19 1.18,-5.04 2.1,-4.58 0.59,-9.97 -1.22,-4.36 -1.08,-5.39 -0.92,-9.98 1.24,-14.11 5.97,-12.84 1.58,-29.1 1.41,-2.4 -0.91,-1.72 5.43,-0.61 6.87,1.2 12.23,-1.91 14.95,-7.83 18.32,-18.34 -10,-56.93 -24.57,-63.56 1.93,-2.76 2.67,-3.14 5.24,-4.74 7.72,1.89 18.67,14.78 22.67,20.98 7.13,11.04 7.42,16.24 12.45,29.28 5.61,-0.22 19.29,-5.7 22.93,-8.62 0.49,-17.78 -5.9,-30.55 -9.52,-43.41l-0.09 -1.5 1.39 -7.12c3.06,4.39 5.25,10.94 7.07,16.02l4.86 16.54c0.08,0.19 0.35,0.9 0.41,0.75 0.06,-0.15 0.26,0.5 0.43,0.73 -0.69,7.29 1.71,14.02 3.22,19.37 1.1,3.9 1.24,15.19 1.56,19.98 2.51,23.89 0.63,42.22 3.15,58.78 0.93,6.09 1.99,12.18 2.49,18.55 2.53,32.17 -12.76,60.1 -12.25,70.71 -1.89,1.77 -1.68,4.28 -1.81,7.12l-1.6 1.42c-0.32,4.86 1.06,4.48 -0.86,7.86l0.38 1.84 -0.67 2.12z"></path>
   <path class="fil7" d="M691.93 986.98c0,-3.95 -4.47,-5.74 -8.17,-6.22l-0.05 60.41c0,1.84 -0.73,21.68 7.43,17.2 0.33,-1.46 0.02,0.08 -0.32,-1.29 -1.21,-4.84 -0.88,-29.98 -0.73,-30.97 0.71,-4.52 4.07,-0.96 4.75,-6.87 -5,2.04 1.74,1.31 -4.94,1.9 0.64,-3.16 2.03,-4.11 2.03,-6.08l0 -28.1zm48.05 70.47c3.58,-0.47 2.46,0.17 4.14,-2.3 0.82,-1.2 0.88,-1.95 1.1,-3.94l0.18 -30.11c0.36,-13.41 0.19,-26.87 -0.13,-40.27 -8.42,2.01 -4.75,8.19 -4.37,15.3 0.23,4.35 -0.81,5.07 -0.94,9.88l0.03 51.45zm8.76 -74.87l-0.08 41.75 -0.01 21.48c-1.22,10.22 2.44,9.57 -3.53,18.26 -2.48,3.61 0.75,0.46 -1.69,2.13 -6.6,1.45 -1.89,4.15 -11.39,7.8l-1.04 0.44c-6.46,3.46 -0.65,2.78 -15.91,2.77 -19.76,-0.01 -11.14,-0.5 -17.54,-3.14 -4.31,-1.78 -0.61,2.21 -5.18,-3.1 -2.57,-2.98 -2.38,-3.84 -6.66,-4.76 -2.22,-3.25 -3.68,-3.87 -4.73,-8.69 -0.96,-4.42 -0.45,-9.25 -0.68,-13.8 -0.46,-6.62 -1.32,-69.32 0.68,-74.9 1.77,-4.95 5.96,-10.54 7.83,-15.87 4.91,-13.95 -8.93,-26.81 -8.87,-39.26 0.03,-5.67 0.82,-5.47 4.22,-8.82 12.33,-12.14 9.31,-13.32 22.86,-13.25l0.33 10.93c-9.82,3.56 -1.9,13.79 11.15,11.18 8.69,-1.74 10.7,-8.23 3.39,-10.97l-0.21 -11.33c10.13,0.59 8.76,-1.38 14.3,4.4 10.87,11.32 13.96,10.89 12.86,20.74 -0.43,3.83 -2.41,7.57 -4.46,12.21 -14.47,32.86 6.24,24.17 4.35,53.79z"></path>
   <path class="fil0" d="M882.97 662.39l-0.04 4.18c5.99,-0.5 3.46,-2.91 8.66,-5.48 -0.9,4.2 -3.04,2.46 -3.51,8.9 3.69,-0.18 3.59,-0.67 4.94,-1.81l2.86 0.13 -1.96 4.24c2.88,-0.26 4.09,-0.62 5.85,-1.66l2.18 1.26c-0.15,3.6 -0.83,2.93 0.79,5.59 4.78,-0.28 1.89,0.73 3.16,-2.1l1.66 -1.64c1.92,4.05 11.33,6.56 19.23,11 6.39,3.59 15.08,8.64 23.4,5.21 -0.94,-3.16 -4.51,-3.42 -1.09,-7.26l0.12 3.56c3.69,0.22 1.52,0.29 3.93,-0.51 0.78,-0.26 1.03,-0.65 3.07,-1.49 2.04,2.08 -0.36,1.12 3.73,0.56 9.76,-1.33 16.82,4.21 22.19,11.67 0.13,0.17 0.31,0.4 0.43,0.58 3.74,5.32 15.38,19.65 16.36,26.74 -3.44,-1.48 -3.47,-1.34 -6.65,-4.15 -2.4,-2.11 -2.96,-2.61 -5.03,-4.09 -4.29,-3.07 -6.84,-6.33 -11.81,-6.87 1.31,-5.47 0.38,-1.8 -0.45,-3.17 -2.91,1.58 -8.01,8.7 -8.23,13.25 -0.08,1.6 2.5,17.49 2.95,18.35l24.19 18.7c-3.21,3.01 -7.23,1.67 -12.8,0.09 -13.02,-3.71 -18.59,-4.37 -26.83,-15.48 -8.03,-10.83 -5.16,-15.01 -17.92,-24.1 -4.8,-3.42 -3.67,-4.01 -8.74,-2.52 2.54,-3.52 -1.07,-4.05 -6.8,-6.68l-2.9 2.69c-10.18,9.72 -27.08,-7.55 -55.76,-10.54l-0.15 8.54c-0.17,-0.23 -0.37,-0.88 -0.43,-0.73 -0.06,0.15 -0.33,-0.56 -0.41,-0.75l-4.86 -16.54c-1.82,-5.08 -4.01,-11.63 -7.07,-16.02l-0.28 -2.66c1.2,-1.13 0.54,-0.43 1.55,-2.42 0,-0.01 0.62,-1.74 0.84,-2.2 4.84,0.46 52.96,25.59 61.66,30.1 3.95,2.05 5.65,3.43 8.12,0.11l-5.56 -1.91c-8.73,-3.18 -57.37,-30.13 -63.93,-31.28l0.23 -12.95 6.71 -1.27c1.53,2.34 1.53,3.07 5.24,4.23 3.76,1.18 3.48,0.91 6.45,2.6 3.61,2.05 8,4.85 12.74,5.98z"></path>
   <path class="fil0" d="M807.6 625.53c-3.41,6.25 -7.28,6.73 -5.06,22.27 -6.12,-1.57 -19.73,-11.67 -28.25,-8.16 -1.32,0.54 -16.35,18.85 -34.44,-3.55 -4.16,-5.15 -7.96,-9.18 -11.39,-14.66 -2.98,-4.75 -8.99,-11.48 -9.09,-16.81 4.25,2.86 22.03,18.07 27.16,19.3 11.61,-18.32 6.84,-10.18 4.87,-34.65l-6.89 -5.08c-2.66,-1.92 -4.08,-2.83 -6.95,-5.11 -2.34,-1.86 -4.3,-3.61 -6.69,-5.34 -2.23,-1.62 -5.33,-1.69 -5.18,-5.51 12.19,-0.12 33.19,6.05 41.18,18.68l3.89 5.21c1.8,2.42 3.65,9.28 5.25,11.81 4.91,7.78 23.3,18.18 31.59,21.6z"></path>
   <path class="fil6" d="M639.22 766.78c-6.35,1.24 -7.05,3.43 -12.35,5.5 -5.44,2.13 -10.07,-0.9 -14.63,-2.35l-0.04 0.21c-1.89,-2.7 1.22,-0.78 -3.16,-2.35 -1.91,-2.14 -0.78,-1.17 -3.33,-2.79 -2.72,0.62 -2.08,0.3 -4.4,1.76 -0.31,0.19 -1.56,1.09 -1.74,1.24l-2.37 2.41c-2.81,0.74 -1.15,0.61 -4.62,1.41 -3.21,-8.73 -5.87,-20.9 0.12,-28.66 4.89,-6.34 14.18,-11.91 23,-12.42 12.13,-0.71 16.44,5.97 20.87,14.71 3.35,6.59 2.44,6.87 6.93,10.06 4.17,2.97 7.61,4.82 10.09,9.16 -5.92,-0.38 -10.49,-0.1 -14.38,2.11z"></path>
   <path class="fil6" d="M858.55 649.57l-6.71 1.27c-9.23,4.29 -11.26,8.28 -22.79,6.02l-5.24 -2.65c-1.1,-2.17 1.53,-1.82 -2.35,-1.62l-4.04 -2.97c-3.45,2.18 -5.62,2.77 -7.91,5.58 -4.3,1.5 -0.53,-0.17 -2.57,1.82 -2.83,-1.82 -3.63,-6.17 -4.39,-9.22 -2.22,-15.54 1.65,-16.02 5.06,-22.27 4.73,-2.91 8.35,-7.04 16.01,-8.81 22.32,-5.16 24.44,15.37 28.81,21.15 2.55,3.37 10.75,6.15 13.31,11.74l-7.17 -0.04z"></path>
   <path class="fil0" d="M718.34 828.7l-7.27 0.75c-0.15,-0.14 -0.81,-0.83 -1.02,-1.02 -1.91,-1.7 -0.27,-0.81 -3.05,-2.17 0.96,-9.52 0.88,-107.73 -0.36,-114.53 5.35,0.55 5.03,2.46 7.02,-4.02 1.62,-5.26 -0.74,-2.05 2.43,-4.04 0.88,1.34 1.54,2.08 1.45,5.37 -0.12,4.44 -1.13,2.68 -1.14,17.06l0 61.24c-0.12,6.59 0.58,5.69 2.93,10.01 -1.72,1.2 0.4,0.37 -1.99,0.84 -3.27,0.65 1.65,-1.48 -1.89,0.16 1.15,2.29 1.48,18.71 0.99,23.13l-1.05 3.28 3.91 1.68 -0.97 2.27z"></path>
   <path class="fil8" d="M821.13 976.23c0.25,-0.22 1.3,-0.83 1.54,-0.89 2.53,-0.69 7.11,1.27 15.52,-0.02 1.94,-0.3 6.12,-1.18 8.2,-1.81 3.86,-1.17 3.18,-1.76 7.3,-1.51 4.08,2.26 30.35,15.38 23.46,25.87 -2.67,4.07 -16.79,5.86 -29.37,-6.09 -1.49,-1.42 -3.33,-3.52 -5.85,-4.18 -6.36,-1.67 -17.09,6.58 -20.8,-11.36z"></path>
   <path class="fil8" d="M658 1080.86c5.2,1.38 12.97,5.92 17.47,8.99 5.4,3.68 10.07,7.27 9.24,16.54 -5.89,4.68 -12.61,4.25 -20.85,1.96 -8.69,-2.42 -9.34,-7.8 -14.79,-10.33 -5.42,-2.51 -11.47,2.71 -18.61,-2.36 -6.87,-4.88 -2.01,-14.6 -4.32,-18.49l1.45 1.32c2.43,3.29 3.69,9.19 13.6,11.17 15.07,3.01 16.02,-7.49 16.8,-8.79z"></path>
   <path class="fil9" d="M638.99 780.17c-0.17,5.83 0.92,3.4 -1.97,4.48 -2.65,0.38 -2.61,0.95 -3.3,4.51 -0.43,2.2 -0.32,4.62 -0.53,7.47l1.61 0.43c-1.37,1.77 1.36,0.81 -2.47,1.78 -1.37,2.29 0.18,-0.8 -5.11,1.31 -0.82,-1.35 -12.64,-4.87 -15.81,-6.55 -5.62,-2.98 -9.07,-7.74 -12.43,-11.56l-0.83 6.01c-1.03,-1.39 -0.45,0.58 -0.89,-1.91 -1.57,-8.89 0.7,-2.22 -2.1,-7.4 -2.59,-4.79 0.08,-4.83 -2.6,-6.94 3.47,-0.8 1.81,-0.67 4.62,-1.41 4.05,1.7 4.35,3.89 8.51,5.32 1.68,-2.01 1.38,-0.52 2.85,-5.95l3.64 0.36 0.04 -0.21 0.43 2.32c3.62,0.49 7.2,2.91 10.33,2.98 3.45,0.08 8.05,-3.2 11.11,-4.32 0.79,3.96 2.04,7.12 4.89,9.27z"></path>
   <path class="fil10" d="M829.05 656.85c2.74,4.62 8.3,3.65 12.75,1.2l3.73 -1.86c0.18,0.21 0.4,0.5 0.5,0.67l1.22 2.15c1.93,4 0.98,5.02 4.35,4.78l-0.3 2.98c-0.22,0.46 -0.83,2.19 -0.84,2.2 -1,2 -0.34,1.29 -1.55,2.42 -0.36,-2.77 0.29,-1.28 -1.39,-1.88 -2,2.96 -1.43,7.16 -1.93,11.41l2.21 0.25 0.09 1.5c-1.51,0.24 -4.7,0.76 -5.58,1.14 -3.51,1.51 -0.5,-0.23 -3.07,2.76l-0.75 -3.17c-19,-3.18 -23.17,-14.54 -28.49,-16.92 -1.51,-4.62 -5.07,-3.09 -3.09,-9.47 2.05,-2 -1.73,-0.32 2.57,-1.82 4.79,2.02 5.51,4.61 9.23,5.51l2.59 -6.15 2.48 -0.36 5.24 2.65z"></path>
   <path class="fil8" d="M605.78 1122.47c3.45,7.09 11.88,17.93 9.43,28.7 -11.07,5.17 -24.92,-2.23 -29.04,-11.1 -1.27,-2.73 -1.79,-6.5 -3.19,-8.99 -1.54,-2.74 -2.6,-2.12 -5.42,-5.51 -4.24,-5.09 -3.23,-10.07 -0.69,-17.04 4.02,2.65 4.29,19.28 20.86,18.03 2.28,-0.17 2.79,-0.2 4.59,-1.38 3.81,-2.49 -0.29,-0.61 3.45,-2.71z"></path>
   <path class="fil0" d="M721.69 891.44l0.21 11.33c-0,4.15 0.12,7.19 -3.74,8.31 -1.69,0.49 -4.61,0.51 -6.33,0.09 -3.14,-0.77 -2.46,-1.16 -3.14,-2.8 0.23,-4.04 0.1,-9.69 -0.27,-13.76 -0.51,-5.66 -0.43,-5.75 -0.33,-11.93 0.13,-7.99 0.87,-21.26 -0.69,-28.62l4.01 0.09 11.69 0c-2.77,10.7 1.01,26.65 -1.42,37.29z"></path>
   <path class="fil0" d="M705.25 842.31c0.34,5.34 1.02,6.05 2.39,10.89l-2.51 -2.6c-5.45,0.08 -8.46,0.81 -13.22,1.77 -7.57,1.53 -6.23,3.38 -11.06,4.33 1.38,-4.39 0.75,-1.14 -0.89,-2.34 -2.92,0.96 -8.56,1.6 -12.11,2 -7.93,0.89 -7.6,-0.03 -12.28,-3.01l0.59 11.08 -1.09 0c-0.29,-7.63 1,-17.36 -1.69,-23.56 0.54,-4.96 0.58,-14.46 0.23,-19.5 -0.49,-7.12 -2.54,-11.05 -2.65,-12.51 -0.39,-5.11 -0.27,-0.98 0.91,-2.76 6.71,8.62 4.99,24.02 11.42,27.93 4.08,2.48 5.33,-0.28 9.52,-0.47 -0.14,3.66 -0.96,2.97 -2.93,6.68 -1.51,2.84 -1.97,3.46 -1.81,7.17 7.13,0.09 30.19,-2.97 37.19,-5.11z"></path>
   <path class="fil8" d="M783.55 1008.44l-1.17 -9.09c3.85,1.26 6.57,3.46 11.06,3.87 5.52,0.51 6.77,-1.57 9.95,-3.41 2.03,11.5 10.12,16.2 8.96,31.64 -6.24,3.83 -16.61,3.76 -21.8,-0.56 -4.43,-3.69 -6.39,-14.82 -7.01,-22.45z"></path>
   <path class="fil0" d="M818.71 752.75c-2.72,5.92 -8.08,9.03 -14.95,7.83 -6.34,-1.11 -4.01,-1.78 -5.43,0.61 -4.76,0 -0.13,-2.01 0.04,-3.52 0.31,-2.77 -4.26,-7.8 -4.92,-11.81 -0.61,-3.68 4.09,-13.37 5.52,-17.99 5.04,1.69 16.42,13.1 18.45,16.21 3.23,4.97 -0.33,5.73 1.29,8.66z"></path>
   <path class="fil8" d="M691.93 986.98l0 28.1c0,1.97 -1.39,2.91 -2.03,6.08 6.68,-0.6 -0.06,0.13 4.94,-1.9 -0.68,5.91 -4.04,2.35 -4.75,6.87 -0.15,0.99 -0.48,26.14 0.73,30.97 0.34,1.36 0.65,-0.17 0.32,1.29 -8.16,4.48 -7.43,-15.37 -7.43,-17.2l0.05 -60.41c3.7,0.48 8.17,2.27 8.17,6.22z"></path>
   <path class="fil10" d="M920.88 666.15l-1.51 -0.41 -1.66 3.22 -4.94 0.27c-0.97,0.93 -0.53,-0.63 -0.11,1.42 -3.65,1.41 -0.65,-0.15 -2.8,1.29 -0.09,0.06 -1.96,1.77 -2.31,2.07l-1.66 1.64c-1.27,2.83 1.63,1.81 -3.16,2.1 -1.61,-2.66 -0.94,-1.99 -0.79,-5.59l1.67 -0.56 1.69 -1.78 -0.02 -2.73c3.65,-1.25 1.26,1.05 3.16,-2.22 -2.28,-1.17 -2.5,-0.77 -3.07,2.01 -3.19,-0.15 -3.71,1.79 -5.6,4.01 -1.76,1.04 -2.97,1.4 -5.85,1.66l1.96 -4.24 3.4 -4.14c-4.35,-0.07 -3.79,-0.02 -6.26,4.01 -1.35,1.14 -1.25,1.63 -4.94,1.81 0.47,-6.44 2.61,-4.7 3.51,-8.9 -5.2,2.56 -2.67,4.97 -8.66,5.48l0.04 -4.18c1.42,-1.31 7.52,-12.71 20.56,-9.47 7.55,1.87 15.57,5.49 17.35,13.23z"></path>
   <path class="fil9" d="M718.34 828.7l10.98 -0.41 0.04 1.52c-0.13,0.17 -0.28,0.26 -0.31,0.57 -0.03,0.33 -0.24,0.47 -0.28,0.62 -4.64,17.59 3.52,13.45 -20.88,20.52 1.4,2.72 -1.32,0.73 3.52,2.63l-4.01 -0.09 0.24 -0.86c-1.37,-4.84 -2.05,-5.55 -2.39,-10.89 -0.47,-11.14 -5.1,-14.09 1.74,-16.05 2.78,1.36 1.14,0.47 3.05,2.17 0.21,0.19 0.87,0.88 1.02,1.02l7.27 -0.75z"></path>
   <path class="fil3" d="M998.92 724.07c-0.98,-7.09 -12.63,-21.42 -16.36,-26.74 -0.12,-0.18 -0.3,-0.41 -0.43,-0.58 -5.37,-7.47 -12.43,-13 -22.19,-11.67 -4.09,0.56 -1.69,1.52 -3.73,-0.56 6.04,-3.5 9.41,-5.62 18.06,-2.94 11.57,3.58 30.28,32.72 31.01,38.86l-6.36 3.64z"></path>
   <path class="fil8" d="M739.98 1057.46l-0.03 -51.45c0.13,-4.82 1.17,-5.54 0.94,-9.88 -0.38,-7.1 -4.05,-13.28 4.37,-15.3 0.32,13.41 0.49,26.86 0.13,40.27l-0.18 30.11c-0.22,2 -0.28,2.74 -1.1,3.94 -1.68,2.47 -0.55,1.83 -4.14,2.3z"></path>
   <path class="fil0" d="M601.25 874.88c-0.88,2.51 -4.74,2.78 -7.54,2.52 -2.46,-0.23 -2.33,-0.71 -4.01,-1.07 -2.57,-0.55 -1.33,-1.03 -2.99,0.62 -0.61,-1.09 -0.13,0.55 -1.04,-2.43 -0.04,-0.13 -0.52,-2.51 -0.53,-2.55 -0.48,-1.97 -0.72,-2.56 -1.4,-4.28 -4.1,-10.34 -1.94,-7.59 1.03,-16.79 3.01,-9.33 0.68,-5.91 3.88,-7.76 0.66,0.73 0.8,0.74 1.53,1.91 4.27,6.86 3.9,10.04 5.38,15.78 0.89,3.44 1.98,6.17 2.91,9.01 2.12,6.44 0.91,4.77 2.78,5.04z"></path>
   <path class="fil3" d="M975.43 708.97c-1.5,3.19 -2.19,1.82 -2.48,6.04 -0.1,1.51 0.64,6.19 0.88,8.07 0.72,5.58 0.41,10.62 4.75,12.93l2.86 2.43c3.82,3.67 14.61,9.63 16.74,13.73 -1.29,1.25 -1.43,1.1 -2.79,2.31 -1.3,1.16 -0.97,0.48 -1.5,1.62l-24.19 -18.7c-0.45,-0.86 -3.03,-16.75 -2.95,-18.35 0.22,-4.55 5.32,-11.67 8.23,-13.25 0.83,1.37 1.75,-2.3 0.45,3.17z"></path>
   <path class="fil7" d="M723.2 637.8c0.92,5.18 2,12.66 0.34,17.95 -3.96,0.17 -16.08,-7.32 -18.72,-9.95l3.24 -16.4 15.14 8.4z"></path>
   <path class="fil8" d="M685.71 1066.22c4.28,0.91 4.09,1.77 6.66,4.76 4.56,5.3 0.86,1.32 5.18,3.1 6.39,2.64 -2.23,3.13 17.54,3.14 15.26,0.01 9.45,0.69 15.91,-2.77l1.04 -0.44c9.5,-3.65 4.79,-6.34 11.39,-7.8 -2.47,2.17 -3.03,3.73 -5.31,6.05 -2,2.03 -4.27,3.65 -6.29,5.74 -6.43,6.65 -4.91,5.52 -16.74,5.5 -19.73,-0.03 -10.78,-0.77 -29.38,-17.28z"></path>
   <path class="fil11" d="M627.22 800.14l-0.51 5.47c-11.32,0.06 -25.52,-11.79 -28.55,-17.56l0.83 -6.01c3.36,3.82 6.81,8.58 12.43,11.56 3.17,1.68 14.99,5.2 15.81,6.55z"></path>
   <path class="fil12" d="M839.26 686.58l-0.02 3.32c-6.45,0.51 -12.61,-3.39 -16.68,-6.07 -6.79,-4.47 -7.76,-5.85 -12.24,-10.93l-0.3 -6.41c5.32,2.38 9.49,13.74 28.49,16.92l0.75 3.17zm9.67 -15.18l0.28 2.66 -1.39 7.12 -2.21 -0.25c0.5,-4.25 -0.07,-8.45 1.93,-11.41 1.68,0.6 1.03,-0.89 1.39,1.88zm2.68 -7.6c-3.38,0.24 -2.43,-0.78 -4.35,-4.78l-1.22 -2.15c-0.1,-0.17 -0.32,-0.46 -0.5,-0.67l-3.73 1.86c-4.45,2.45 -10.01,3.42 -12.75,-1.2 11.53,2.26 13.57,-1.72 22.79,-6.02l-0.23 12.95z"></path>
   <path class="fil3" d="M680.86 856.69c-6.15,1.94 -18.3,10.59 -24.55,13.9l-0.14 -6.16 -0.59 -11.08c4.68,2.98 4.35,3.9 12.28,3.01 3.55,-0.4 9.19,-1.03 12.11,-2 1.64,1.2 2.27,-2.05 0.89,2.34z"></path>
   <path class="fil3" d="M851.32 666.77l0.3 -2.98c6.55,1.15 55.19,28.1 63.93,31.28l5.56 1.91c-2.48,3.32 -4.18,1.93 -8.12,-0.11 -8.7,-4.51 -56.82,-29.64 -61.66,-30.1z"></path>
   <path class="fil13" d="M823.33 955.05c-1.02,4.54 -3.22,17.44 -2.2,21.18 3.71,17.94 14.44,9.69 20.8,11.36 2.52,0.66 4.36,2.76 5.85,4.18 12.58,11.95 26.69,10.16 29.37,6.09 6.89,-10.49 -19.39,-23.61 -23.46,-25.87 -2.42,-3.43 -0.71,-0.57 -1.54,-4.38 -0.3,-1.38 -0.54,-2.78 -0.89,-4.18 -1.12,-4.57 -0.76,-4.95 -1.44,-8.49 2.24,3.6 2.66,2.6 7.59,3.5 5.34,0.97 20.07,6.76 24.05,8.86 8.2,4.32 1,-2.89 7.06,3.68l2.14 2c15.2,11.6 25.97,25.91 14.64,45.81 -15.25,26.76 -64.7,36.85 -96.46,32.42 -16.49,-2.3 -34,-8.08 -47.91,-16.83 -0.91,-0.57 -2.35,-1.77 -3.22,-2.64 -3.22,-3.22 -5.41,-5.83 -9.04,-7.39l0.08 -41.75c0.28,-0.16 0.6,-0.41 0.8,-0.56l14.6 -11.14c6.01,-3.82 14.27,-6.77 16.3,-8.7 -0.5,8.58 -0.82,17.08 -0.51,24.95 0.33,8.38 -0.04,3.72 1.96,10.27 0.89,2.91 0.46,7.57 1.66,11.03 0.62,7.63 2.58,18.76 7.01,22.45 5.19,4.32 15.56,4.4 21.8,0.56 1.15,-15.44 -6.94,-20.14 -8.96,-31.64 0,-2.86 1.27,-8.07 1.72,-11.79 0.61,-4.98 0.8,-9.08 0.92,-14.1 0.16,-6.59 0.79,-19.58 3.64,-24.06l-0.89 5 6.18 0.73c2.82,-0.24 5.58,-0.35 8.37,-0.55zm-137.61 111.17c18.6,16.51 9.65,17.25 29.38,17.28 11.83,0.02 10.31,1.15 16.74,-5.5 2.02,-2.09 4.29,-3.7 6.29,-5.74 2.28,-2.32 2.84,-3.89 5.31,-6.05 2.44,-1.67 -0.79,1.48 1.69,-2.13 5.96,-8.7 2.3,-8.04 3.53,-18.26 9.18,1.71 25.94,20.88 14.21,35.15 -13.02,15.85 -31.5,18.08 -53.81,19.42 -0.19,3.82 14.95,34.19 -32.11,53 -23.65,9.45 -54.02,12.49 -78.47,6.27 -3.2,-0.81 -6.95,-1.15 -10.22,-2.1 -1.33,-0.39 -5.15,-2.28 -7.49,-3.19 -2.72,-1.07 -5.04,-1.63 -7.82,-3.2 -2.25,-1.27 -5.04,-2.91 -7.12,-4.07 -10.45,-5.84 -5.3,-4.02 -10.1,-7.78 -1.47,-1.15 -1.61,-0.77 -3.04,-2.04l-7.79 -13.95c-4.37,-15.36 2.67,-24.86 9.8,-32.89 1.92,-2.16 4.16,-3.75 6.5,-5.42 1.34,-0.96 1.84,-1.33 3.46,-2.5 5.68,-4.11 7.87,-3.8 9.15,-5.06l0.97 -1.32c1.02,-2.14 -0.05,-8.46 0.02,-11.52 1.66,5.45 3.57,37.88 2.09,43.9 -2.55,6.98 -3.55,11.95 0.69,17.04 2.83,3.39 3.88,2.77 5.42,5.51 1.4,2.49 1.92,6.26 3.19,8.99 4.12,8.87 17.97,16.27 29.04,11.1 2.44,-10.78 -5.99,-21.61 -9.43,-28.7 -2.39,-9.2 -4.32,-49.24 -1.01,-57.35l1.38 3.63c2.45,-2.86 6.65,-1.99 11.68,-2.12 7.28,-0.19 7.09,-0.12 6.62,-6.92 2.18,2.21 2.46,13.71 1.7,17.44 2.31,3.89 -2.55,13.61 4.32,18.49 7.13,5.07 13.19,-0.15 18.61,2.36 5.45,2.53 6.09,7.91 14.79,10.33 8.23,2.29 14.96,2.72 20.85,-1.96 0.83,-9.27 -3.84,-12.86 -9.24,-16.54 -4.5,-3.08 -12.27,-7.61 -17.47,-8.99l-2.55 -15.62c3.02,-1.89 9.33,-20.09 24.86,-21.5 0.23,4.55 -0.28,9.38 0.68,13.8 1.05,4.82 2.51,5.44 4.73,8.69z"></path>
   <path class="fil11" d="M723.11 854.15l-11.69 -0c-4.83,-1.91 -2.12,0.09 -3.52,-2.63 24.39,-7.07 16.23,-2.92 20.88,-20.52 0.04,-0.15 0.24,-0.29 0.28,-0.62 0.03,-0.31 0.18,-0.4 0.31,-0.57 1.56,9.21 1.85,7.73 -0.95,13.94 -1.31,2.9 -0.86,3.53 -2.68,6.51 -0.94,1.55 -2.23,2.95 -2.62,3.9z"></path>
   <path class="fil8" d="M707.36 902.56c0.01,0.55 -0.06,2.62 0.04,3.12 0.5,2.42 -0.12,1.48 1.29,2.68 0.68,1.64 0,2.02 3.14,2.8 1.71,0.42 4.63,0.4 6.33,-0.09 3.86,-1.11 3.74,-4.15 3.74,-8.31 7.31,2.75 5.31,9.23 -3.39,10.97 -13.05,2.61 -20.97,-7.62 -11.15,-11.18z"></path>
   <path class="fil11" d="M638.99 780.17c-2.84,-2.14 -4.09,-5.31 -4.89,-9.27 -3.06,1.11 -7.67,4.39 -11.11,4.32 -3.13,-0.07 -6.71,-2.49 -10.33,-2.98l-0.43 -2.32c4.56,1.45 9.19,4.48 14.63,2.35 5.3,-2.07 6,-4.26 12.35,-5.5l-0.22 13.39z"></path>
   <path class="fil14" d="M609.04 767.78l-0.48 1.99c-1.47,5.42 -1.17,3.93 -2.85,5.95 -4.16,-1.43 -4.47,-3.62 -8.51,-5.32l2.37 -2.41c0.18,-0.15 1.44,-1.05 1.74,-1.24 2.32,-1.46 1.67,-1.14 4.4,-1.76 2.55,1.63 1.42,0.65 3.33,2.79z"></path>
   <path class="fil15" d="M821.46 652.59l-0.13 1.98 -2.59 6.15c-3.72,-0.9 -4.44,-3.49 -9.23,-5.51 2.29,-2.8 4.46,-3.4 7.91,-5.58l4.04 2.97z"></path>
   <path class="fil12" d="M796.26 859.62l-1.02 2.89c-3.11,0.21 -5.11,-0.03 -6.5,-2.65l-1.46 -2.22c-1.15,-1.24 -0.79,-0.59 -2.15,-1.43l-0.23 -0.13 -0.27 -0.82c5.87,-4.48 4.13,0.02 11.62,4.35z"></path>
   <path class="fil11" d="M637.82 788.21l-1.38 4.02c-0.16,1.49 -0.05,3.52 -0.02,5.02l-1.62 -0.2 -1.61 -0.43c0.21,-2.85 0.1,-5.27 0.53,-7.47 0.69,-3.55 0.65,-4.13 3.3,-4.51l0.8 3.56z"></path>
   <path class="fil7" d="M795.47 871.04l-0.05 -1.99 0.13 0.17 4.32 -4.66 7.14 -0.17c-2.85,2.5 -8.3,6.13 -11.54,6.65z"></path>
   <path class="fil11" d="M572.23 981.37c-1.54,-2.62 -4.04,-2.51 -5.23,-6.49l-2.77 -2.33 -0.19 -0.36 -0.19 -1.43c8.63,0.96 5.58,4.48 8.37,10.61z"></path>
   <path class="fil12" d="M920.88 666.15l-0.77 3.5 -6.27 1.02 -1.18 -0.03c-0.42,-2.05 -0.85,-0.49 0.11,-1.42l4.94 -0.27 1.66 -3.22 1.51 0.41z"></path>
   <polygon class="fil0" points="913.84,670.68 920.11,669.65 919.58,673.92 "></polygon>
   <path class="fil0" d="M795.1 877.17c-3.72,-0.09 -2.29,0.49 -3.27,-2.57 2.53,-2.3 0.49,-1.05 3.6,-1.81l-0.34 4.38z"></path>
   <polygon class="fil5" points="795.55,869.23 795.49,864.52 798.13,864.49 799.87,864.56 "></polygon>
   <path class="fil11" d="M579.08 981.14c-1.58,-1.75 -1.07,2.04 -1.68,-3.18 1.22,-1.18 -1.76,-1.65 1.98,-0.71l1.52 3 -1.82 0.89z"></path>
   <path class="fil12" d="M905.28 667.09l0.09 -0.2c0.57,-2.78 0.79,-3.18 3.07,-2.01 -1.91,3.27 0.49,0.97 -3.16,2.22z"></path>
   <path class="fil11" d="M612.19 770.13l-3.64 -0.36 0.48 -1.99c4.38,1.57 1.26,-0.35 3.16,2.35z"></path>
   <path class="fil16" d="M788.74 859.86c-3.31,-0.99 -2.62,-1.06 -3.61,-3.65 1.36,0.84 1,0.19 2.15,1.43l1.46 2.22z"></path>
   <path class="fil16" d="M821.33 654.56l0.13 -1.98c3.88,-0.21 1.25,-0.55 2.35,1.62l-2.48 0.36z"></path>
   <path class="fil0" d="M981.45 738.44l-2.86 -2.43c3.14,0.95 1.45,-0.56 2.86,2.43z"></path>
   <path class="fil0" d="M715.64 703.92c0.92,5.18 9.56,-53.46 7.91,-48.17 -3.96,0.17 -16.08,-7.32 -18.72,-9.95l2.3 74.87 8.52 -16.75z"></path>
   <path class="fil9" d="M584.95 964.92l2.7 9.06 -4.02 0.11c-6.67,-7.88 -2.26,-6.42 -6.02,-9.44 -1.77,2.46 -1.39,4.2 -1.39,4.2 -0.66,5.97 0.47,5.89 3.15,8.39 -3.73,-0.94 -0.76,-0.48 -1.98,0.71 0.61,5.23 0.1,1.43 1.68,3.18l0.96 7.17c-3.43,0.72 -3.25,-0.04 -4.65,-1.95 -1.39,-1.9 -1.79,-3.07 -3.16,-4.97 -2.79,-6.13 0.26,-9.65 -8.37,-10.61l-3.14 -2.25 -0.88 -17.86c2.51,0.18 4.93,1.11 6.3,-0.71l9.11 -1.73c1.11,2.48 -0.03,0.42 1.59,2.45 10.02,12.54 2.55,3.95 8.1,14.26z"></path>
   <path class="fil0" d="M574.95 917.82l-3.01 1.89c0.84,9.41 -1.25,19.42 -0.49,23.42 0.97,5.11 -0.09,1.95 3.81,5.07l-9.11 1.73c-1.15,-2.59 -1.91,-6.35 -1.94,-9.36l3.31 -1.67c0.09,-0.03 1.2,-0.01 1.52,-0.09 1.45,-10.8 1.99,-30.49 -1.95,-40.75 -1.07,-2.77 -2.76,-6.56 -4.59,-9.29 2.54,-2.33 1.62,-2.39 7.43,-2.4l2.46 30.37c1.27,1.41 -1.9,1.23 2.56,1.08z"></path>
   <rect class="fil1" x="776.43" y="776.35" width="14.11" height="61.93"></rect>
   <path class="fil10" d="M807.01 864.4l-7.14 0.17 -1.74 -0.07 -2.88 -1.98 1.02 -2.89c-7.5,-4.33 -5.75,-8.84 -11.62,-4.35l-3.77 -7.13 -1.3 -4.68 -1.83 -6.59 6.06 -5.11 7.16 -1.52c2.4,0.69 3.2,1.23 4.96,2.2 1.78,2.59 1.14,1.14 3.38,3.05 1.74,1.49 2.91,2.79 4.03,4.05 1.83,2.05 5.92,5.89 6.32,8.87l0.71 3.11 -3.1 -0.25c-5.49,-2.02 -5.04,-6.08 -10.76,-6.76l-0.05 6.92c1.89,2.63 2.78,3.63 3.95,6.12l6.55 4.51 0.07 2.34z"></path>
  </g>
  <g id="_2633913881968">
   <path class="fil2" d="M1117 572.66c-5.46,1.1 -24.66,13.31 -31.26,17.04 -26.43,14.95 -26.91,19.83 -51.25,5.11 -22.81,-13.79 -19.17,-12.37 -19.22,-54.19 -0.04,-32.75 -0.43,-65.55 -0.43,-98.29 0,-30.93 -1.04,-42.06 18.69,-66.69 2.56,-3.19 4.16,-3.66 6.72,-6.18 2,-1.34 1.14,-0.84 3.24,-2.08 5.14,-3.69 12.41,-7.23 18.41,-10.77l55.3 -32.13c10.55,-4.41 57.42,-35.12 67.59,-37.16 5.97,-1.2 9.96,-0.2 14.57,2.58 30.49,18.41 29.67,11.81 29.67,54.13 0,22.77 0.2,45.49 0.19,68.23 -0.01,39.74 8.7,84.02 -26.35,109.58 -11.44,8.35 -82.43,45.92 -85.88,50.81z"></path>
   <path class="fil4" d="M1043.48 367.37c-2.1,1.24 -1.23,0.75 -3.24,2.08 -4.83,0.08 -1.24,0.19 -2.67,-1.14l5.91 -0.95z"></path>
   <path class="fil6 str2" d="M1215.51 298.85c-1.56,1.14 -14.71,4.36 -21.41,8.47 -6.37,3.91 -13.08,7.21 -19.2,11.01 -25.18,15.63 -100,54.24 -113.31,67.11 -29.77,28.8 -22.47,60.26 -22.48,98.17l0.19 87.8c0.27,25.06 2.27,17.46 2.98,25.5 -35.14,-11.61 -24.73,-42.52 -25.31,-74.02 -0.61,-33.05 -0.62,-67.48 -0.27,-100.55 0.62,-57.65 63.09,-70.3 102.46,-97.84 11.25,-4.52 34.5,-19.55 46.74,-26.66 7.29,-4.24 17.54,-11.26 26.44,-10.75 4.3,0.24 21.15,8.82 23.17,11.77z"></path>
   <path class="fil17" d="M1132.34 540.95c-2.57,-2.54 -5.3,-3.4 -7.36,-6.89 -19.67,-33.19 -3.61,-90.61 19.12,-120.92 1.16,-1.55 2.19,-2.69 3.53,-4.3 1.56,-1.86 1.47,-2.11 3.54,-3.94 1.4,-1.24 2.35,-2.85 3.81,-4.03 4.75,-3.82 6.55,-6.04 13.46,-9.62 8.57,-4.44 15.23,-5.39 25.11,-2.45 -1,-1.54 -12,-12.54 -13.24,-13.19 -5.28,-2.75 -18.57,-8.12 -32.6,-4.2 -24.92,7.07 -46.85,29.49 -57.12,53.97 -4.01,9.55 -7.87,25.05 -9.05,35.75 -2.31,21.07 -0.66,52.21 18.95,63.34 1.33,0.76 2.26,1.32 3.55,2.02l21.9 11.69c1.38,0.78 2.27,0.36 3.59,1.06 1.24,0.66 1.33,1.31 2.81,1.71z"></path>
   <path class="fil18" d="M1159.08 497.74c-0.76,0.32 -6.81,-2 -8.26,-2.6 -1.63,-0.68 -24.21,-18.58 -26.24,-20.72 -4.47,-4.73 -0.65,-13.72 7.06,-12.51 2.69,0.42 6.31,2.32 9.24,3.06l-2.16 0.6c4.38,-0.39 5.27,0.5 7.8,2.57 1.82,1.48 3.84,3.07 5.87,4.47 0.22,-1.81 21.53,-50.29 24.14,-56.21 4.75,-10.78 9.33,-5.5 18.03,-3.52l-1.27 0.72c3.2,0.07 4.59,0.24 6.45,2.09 5.15,5.11 0.34,11.26 -2.79,18.79 -3.37,8.11 -7,16.29 -10.54,24.3 -3.46,7.83 -12.36,29.59 -15.67,36 -2.5,4.84 -6.19,5.63 -11.68,2.98zm-36.36 38.32c13.12,9.63 26.08,6.44 39.47,-1.73 1.86,-1.14 3.49,-2.53 5.2,-3.8 1.13,-0.84 1.31,-1.1 2.31,-2l6.85 -6.46c0.93,-0.96 1.06,-1.4 1.95,-2.36 5.23,-5.63 12.86,-17 16.21,-23.71 2.69,-5.39 6.29,-12.74 8.2,-18.42 2.38,-7.06 4.49,-12.81 6.05,-20.56l2.48 -15.13c0.77,-5.58 0.6,-11.21 0.61,-17.39 0.03,-12.86 -3.57,-25.72 -9.32,-34.91l-3.89 -5.12c-2.29,-2.39 -7.55,-6.76 -10.67,-7.28 -10.53,-3.04 -17.63,-2.06 -26.76,2.53 -7.36,3.7 -9.28,6 -14.34,9.94 -1.56,1.21 -2.56,2.87 -4.06,4.16 -2.2,1.89 -2.11,2.15 -3.77,4.07 -1.43,1.66 -2.53,2.84 -3.77,4.44 -24.22,31.33 -41.33,90.66 -20.37,124.97 2.2,3.6 4.86,6.12 7.6,8.74z"></path>
   <path class="fil17" d="M1152.02 473.1c0.6,0.81 7.63,6.39 8.6,6.81 1.57,-4.77 22.17,-51.28 26.33,-60.85 1.33,-3.07 3.02,-5.82 6.72,-6.03l1.29 -0.73c-8.86,-2.02 -13.52,-7.4 -18.36,3.58 -2.66,6.03 -24.36,55.38 -24.58,57.22z"></path>
   <path class="fil17" d="M1159.08 497.74l-22.14 -17.67c-1.62,-1.3 -2.92,-1.9 -3.81,-4.44 -1.74,-4.98 1.52,-9.27 5.6,-10.07l2.16 -0.6c-2.93,-0.73 -6.55,-2.63 -9.24,-3.06 -7.71,-1.2 -11.53,7.78 -7.06,12.51 2.03,2.15 24.61,20.04 26.24,20.72 1.45,0.6 7.5,2.92 8.26,2.6z"></path>
   <path class="fil19" d="M1151.98 471.9c-2.13,-1.47 -4.25,-3.13 -6.16,-4.69 -2.66,-2.17 -3.59,-3.1 -8.19,-2.7 -4.28,0.84 -7.71,5.35 -5.88,10.58 0.93,2.67 2.3,3.29 4,4.66l23.25 18.55c5.77,2.79 9.65,1.96 12.27,-3.12 3.47,-6.73 12.82,-29.58 16.45,-37.8 3.71,-8.4 7.52,-16.99 11.07,-25.51 3.29,-7.91 8.33,-14.37 2.93,-19.73 -1.96,-1.94 -3.42,-2.12 -6.78,-2.19 -3.82,0.22 -5.56,3.06 -6.93,6.22 -4.29,9.87 -25.54,57.84 -27.16,62.76 -1,-0.44 -8.26,-6.19 -8.87,-7.02z"></path>
  </g>
 </g>
</svg>