<svg width="718" height="463" viewBox="0 0 718 463" fill="none" xmlns="http://www.w3.org/2000/svg">
<g clip-path="url(#clip0_2046_1257)">
<path d="M272.111 72.8992C271.617 73.5496 270.933 74.0239 270.158 74.2542C269.382 74.4846 268.556 74.4591 267.795 74.1816C267.564 74.1118 267.337 74.0275 267.116 73.9291C267.366 71.2088 267.242 68.4662 266.749 65.7807C266.555 68.0891 266.001 70.3511 265.109 72.4816C264.381 71.7376 263.785 70.8705 263.348 69.9189C262.533 67.9498 261.993 65.8741 261.744 63.7523C260.539 56.5231 259.35 49.0023 261.316 41.9375C264.197 31.6171 273.279 24.1979 277.072 14.1847L278.941 12.4744C282.141 18.0282 282.282 24.9294 280.978 31.2271C279.681 37.5372 277.067 43.4595 275 49.5448C272.934 55.6301 271.385 62.103 272.344 68.4705C272.565 69.9698 272.901 71.6177 272.111 72.8992Z" fill="#2F2E41"/>
<path d="M230.575 160.225L218.395 217.014L271.594 234.678L263.771 160.225H230.575Z" fill="#FFB6B6"/>
<path d="M605.977 461.606H630.084V348.939C630.052 319.862 618.707 291.986 598.539 271.426C578.371 250.865 551.026 239.3 522.504 239.267H298.463C269.94 239.3 242.596 250.865 222.427 271.426C202.259 291.986 190.915 319.862 190.882 348.939V461.606H214.989V384.635C215.022 355.288 226.472 327.153 246.828 306.401C267.183 285.65 294.782 273.977 323.57 273.944H497.397C526.184 273.977 553.783 285.65 574.139 306.401C594.495 327.153 605.945 355.288 605.977 384.635V461.606Z" fill="#E6E6E6"/>
<path d="M313.038 402.664L287.346 394.735C285.675 387.735 284.832 380.558 284.836 373.354C284.848 371.727 285.315 370.138 286.181 368.771C287.047 367.404 288.277 366.318 289.727 365.638C291.177 364.958 292.787 364.713 294.368 364.932C295.95 365.15 297.437 365.824 298.657 366.873C312.437 378.922 332.621 385.351 345.647 399.082C351.038 404.852 355.086 411.785 357.491 419.368C359.896 426.95 360.597 434.987 359.541 442.882L365.165 461.425C352.578 460.499 340.339 456.802 329.289 450.59C318.239 444.377 308.642 435.796 301.159 425.438C297.017 419.585 293.615 413.223 291.032 406.504C301.929 405.244 313.038 402.664 313.038 402.664Z" fill="#F2F2F2"/>
<path d="M379.998 433.03L393.102 428.986C393.119 428.915 393.136 428.844 393.152 428.773C393.515 427.139 393.4 425.432 392.822 423.864C392.244 422.296 391.229 420.934 389.9 419.948C388.572 418.961 386.99 418.393 385.348 418.313C383.707 418.233 382.078 418.645 380.664 419.498C374.715 423.1 368.11 426.202 363.366 431.203C360.617 434.146 358.552 437.682 357.325 441.549C356.099 445.416 355.741 449.515 356.28 453.543L353.412 463C359.831 462.528 366.074 460.642 371.709 457.474C377.345 454.305 382.24 449.928 386.057 444.645C388.169 441.66 389.905 438.416 391.222 434.988C385.664 434.345 379.998 433.03 379.998 433.03Z" fill="#F2F2F2"/>
<path d="M486.072 156.178H435.043C434.321 156.179 433.629 156.472 433.119 156.993C432.61 157.514 432.324 158.22 432.324 158.956V241.134H488.798V158.956C488.798 158.591 488.727 158.23 488.591 157.893C488.454 157.556 488.253 157.249 488 156.991C487.747 156.733 487.446 156.528 487.115 156.389C486.785 156.249 486.43 156.178 486.072 156.178ZM460.729 202.87C459.133 202.862 457.605 202.213 456.477 201.062C455.348 199.912 454.711 198.354 454.704 196.727V187.249C454.706 185.621 455.341 184.061 456.471 182.91C457.601 181.76 459.132 181.114 460.729 181.114C462.326 181.114 463.857 181.76 464.987 182.91C466.117 184.061 466.753 185.621 466.755 187.249V196.727C466.747 198.354 466.11 199.912 464.982 201.062C463.853 202.213 462.325 202.862 460.729 202.87Z" fill="#3F3D56"/>
<path d="M570.572 27.9304H352.442C350.568 27.9335 348.772 28.6938 347.447 30.0447C346.121 31.3956 345.376 33.2269 345.373 35.1374V185.193C345.374 187.104 346.12 188.936 347.445 190.287C348.771 191.638 350.568 192.398 352.442 192.4H570.572C572.446 192.398 574.243 191.638 575.568 190.287C576.894 188.936 577.639 187.104 577.641 185.193V35.1374C577.638 33.227 576.892 31.3956 575.567 30.0447C574.242 28.6938 572.446 27.9335 570.572 27.9304Z" fill="#3F3D56"/>
<path d="M568.751 33.136H354.265C353.261 33.1382 352.3 33.5461 351.591 34.2702C350.882 34.9943 350.484 35.9754 350.484 36.9983V183.334C350.486 184.356 350.885 185.335 351.593 186.058C352.302 186.78 353.263 187.187 354.265 187.189H568.751C569.753 187.187 570.714 186.78 571.422 186.058C572.131 185.335 572.53 184.356 572.532 183.334V36.9983C572.532 35.9754 572.133 34.9943 571.425 34.2702C570.716 33.5461 569.754 33.1382 568.751 33.136Z" fill="white"/>
<path d="M432.149 238.505V246.434C432.15 246.845 432.31 247.238 432.595 247.529C432.88 247.819 433.267 247.983 433.67 247.984H487.452C487.855 247.982 488.24 247.818 488.525 247.528C488.81 247.237 488.971 246.844 488.973 246.434V238.505H432.149Z" fill="#3F3D56"/>
<path d="M526.973 250.743H399.365C399.016 250.743 398.671 250.663 398.355 250.51C398.04 250.357 397.762 250.134 397.542 249.857C397.322 249.581 397.165 249.258 397.083 248.912C397.001 248.566 396.996 248.205 397.068 247.857L399.048 238.27C399.161 237.734 399.45 237.253 399.868 236.907C400.286 236.561 400.807 236.372 401.345 236.37H524.993C525.531 236.372 526.052 236.561 526.47 236.907C526.888 237.253 527.177 237.734 527.29 238.27L529.27 247.857C529.342 248.205 529.336 248.566 529.254 248.912C529.172 249.258 529.015 249.581 528.795 249.857C528.575 250.134 528.297 250.357 527.982 250.51C527.667 250.663 527.322 250.743 526.973 250.743Z" fill="#3F3D56"/>
<path d="M405.692 238.096H402.739C402.469 238.096 402.251 238.319 402.251 238.594V240.002C402.251 240.277 402.469 240.5 402.739 240.5H405.692C405.962 240.5 406.181 240.277 406.181 240.002V238.594C406.181 238.319 405.962 238.096 405.692 238.096Z" fill="#E6E6E6"/>
<path d="M413.553 238.096H410.599C410.33 238.096 410.111 238.319 410.111 238.594V240.002C410.111 240.277 410.33 240.5 410.599 240.5H413.553C413.823 240.5 414.041 240.277 414.041 240.002V238.594C414.041 238.319 413.823 238.096 413.553 238.096Z" fill="#E6E6E6"/>
<path d="M421.413 238.096H418.46C418.19 238.096 417.972 238.319 417.972 238.594V240.002C417.972 240.277 418.19 240.5 418.46 240.5H421.413C421.683 240.5 421.902 240.277 421.902 240.002V238.594C421.902 238.319 421.683 238.096 421.413 238.096Z" fill="#E6E6E6"/>
<path d="M429.274 238.096H426.32C426.051 238.096 425.832 238.319 425.832 238.594V240.002C425.832 240.277 426.051 240.5 426.32 240.5H429.274C429.544 240.5 429.762 240.277 429.762 240.002V238.594C429.762 238.319 429.544 238.096 429.274 238.096Z" fill="#E6E6E6"/>
<path d="M437.134 238.096H434.181C433.911 238.096 433.692 238.319 433.692 238.594V240.002C433.692 240.277 433.911 240.5 434.181 240.5H437.134C437.404 240.5 437.623 240.277 437.623 240.002V238.594C437.623 238.319 437.404 238.096 437.134 238.096Z" fill="#E6E6E6"/>
<path d="M444.995 238.096H442.041C441.771 238.096 441.553 238.319 441.553 238.594V240.002C441.553 240.277 441.771 240.5 442.041 240.5H444.995C445.264 240.5 445.483 240.277 445.483 240.002V238.594C445.483 238.319 445.264 238.096 444.995 238.096Z" fill="#E6E6E6"/>
<path d="M452.855 238.096H449.902C449.632 238.096 449.413 238.319 449.413 238.594V240.002C449.413 240.277 449.632 240.5 449.902 240.5H452.855C453.125 240.5 453.343 240.277 453.343 240.002V238.594C453.343 238.319 453.125 238.096 452.855 238.096Z" fill="#E6E6E6"/>
<path d="M460.715 238.096H457.762C457.492 238.096 457.273 238.319 457.273 238.594V240.002C457.273 240.277 457.492 240.5 457.762 240.5H460.715C460.985 240.5 461.204 240.277 461.204 240.002V238.594C461.204 238.319 460.985 238.096 460.715 238.096Z" fill="#E6E6E6"/>
<path d="M468.576 238.096H465.622C465.352 238.096 465.134 238.319 465.134 238.594V240.002C465.134 240.277 465.352 240.5 465.622 240.5H468.576C468.845 240.5 469.064 240.277 469.064 240.002V238.594C469.064 238.319 468.845 238.096 468.576 238.096Z" fill="#E6E6E6"/>
<path d="M476.436 238.096H473.483C473.213 238.096 472.994 238.319 472.994 238.594V240.002C472.994 240.277 473.213 240.5 473.483 240.5H476.436C476.706 240.5 476.924 240.277 476.924 240.002V238.594C476.924 238.319 476.706 238.096 476.436 238.096Z" fill="#E6E6E6"/>
<path d="M484.296 238.096H481.343C481.073 238.096 480.854 238.319 480.854 238.594V240.002C480.854 240.277 481.073 240.5 481.343 240.5H484.296C484.566 240.5 484.785 240.277 484.785 240.002V238.594C484.785 238.319 484.566 238.096 484.296 238.096Z" fill="#E6E6E6"/>
<path d="M492.157 238.096H489.203C488.934 238.096 488.715 238.319 488.715 238.594V240.002C488.715 240.277 488.934 240.5 489.203 240.5H492.157C492.426 240.5 492.645 240.277 492.645 240.002V238.594C492.645 238.319 492.426 238.096 492.157 238.096Z" fill="#E6E6E6"/>
<path d="M500.017 238.096H497.064C496.794 238.096 496.575 238.319 496.575 238.594V240.002C496.575 240.277 496.794 240.5 497.064 240.5H500.017C500.287 240.5 500.505 240.277 500.505 240.002V238.594C500.505 238.319 500.287 238.096 500.017 238.096Z" fill="#E6E6E6"/>
<path d="M507.877 238.096H504.924C504.654 238.096 504.436 238.319 504.436 238.594V240.002C504.436 240.277 504.654 240.5 504.924 240.5H507.877C508.147 240.5 508.366 240.277 508.366 240.002V238.594C508.366 238.319 508.147 238.096 507.877 238.096Z" fill="#E6E6E6"/>
<path d="M515.738 238.096H512.785C512.515 238.096 512.296 238.319 512.296 238.594V240.002C512.296 240.277 512.515 240.5 512.785 240.5H515.738C516.008 240.5 516.226 240.277 516.226 240.002V238.594C516.226 238.319 516.008 238.096 515.738 238.096Z" fill="#E6E6E6"/>
<path d="M523.598 238.096H520.645C520.375 238.096 520.156 238.319 520.156 238.594V240.002C520.156 240.277 520.375 240.5 520.645 240.5H523.598C523.868 240.5 524.087 240.277 524.087 240.002V238.594C524.087 238.319 523.868 238.096 523.598 238.096Z" fill="#E6E6E6"/>
<path d="M405.6 242.103H402.646C402.377 242.103 402.158 242.326 402.158 242.601V244.009C402.158 244.284 402.377 244.507 402.646 244.507H405.6C405.869 244.507 406.088 244.284 406.088 244.009V242.601C406.088 242.326 405.869 242.103 405.6 242.103Z" fill="#E6E6E6"/>
<path d="M413.46 242.103H410.507C410.237 242.103 410.018 242.326 410.018 242.601V244.009C410.018 244.284 410.237 244.507 410.507 244.507H413.46C413.73 244.507 413.948 244.284 413.948 244.009V242.601C413.948 242.326 413.73 242.103 413.46 242.103Z" fill="#E6E6E6"/>
<path d="M421.32 242.103H418.367C418.097 242.103 417.879 242.326 417.879 242.601V244.009C417.879 244.284 418.097 244.507 418.367 244.507H421.32C421.59 244.507 421.809 244.284 421.809 244.009V242.601C421.809 242.326 421.59 242.103 421.32 242.103Z" fill="#E6E6E6"/>
<path d="M429.181 242.103H426.227C425.958 242.103 425.739 242.326 425.739 242.601V244.009C425.739 244.284 425.958 244.507 426.227 244.507H429.181C429.451 244.507 429.669 244.284 429.669 244.009V242.601C429.669 242.326 429.451 242.103 429.181 242.103Z" fill="#E6E6E6"/>
<path d="M437.041 242.103H434.088C433.818 242.103 433.599 242.326 433.599 242.601V244.009C433.599 244.284 433.818 244.507 434.088 244.507H437.041C437.311 244.507 437.53 244.284 437.53 244.009V242.601C437.53 242.326 437.311 242.103 437.041 242.103Z" fill="#E6E6E6"/>
<path d="M444.901 242.103H441.948C441.678 242.103 441.46 242.326 441.46 242.601V244.009C441.46 244.284 441.678 244.507 441.948 244.507H444.901C445.171 244.507 445.39 244.284 445.39 244.009V242.601C445.39 242.326 445.171 242.103 444.901 242.103Z" fill="#E6E6E6"/>
<path d="M452.762 242.103H449.808C449.539 242.103 449.32 242.326 449.32 242.601V244.009C449.32 244.284 449.539 244.507 449.808 244.507H452.762C453.032 244.507 453.25 244.284 453.25 244.009V242.601C453.25 242.326 453.032 242.103 452.762 242.103Z" fill="#E6E6E6"/>
<path d="M460.622 242.103H457.669C457.399 242.103 457.181 242.326 457.181 242.601V244.009C457.181 244.284 457.399 244.507 457.669 244.507H460.622C460.892 244.507 461.111 244.284 461.111 244.009V242.601C461.111 242.326 460.892 242.103 460.622 242.103Z" fill="#E6E6E6"/>
<path d="M468.483 242.103H465.529C465.26 242.103 465.041 242.326 465.041 242.601V244.009C465.041 244.284 465.26 244.507 465.529 244.507H468.483C468.753 244.507 468.971 244.284 468.971 244.009V242.601C468.971 242.326 468.753 242.103 468.483 242.103Z" fill="#E6E6E6"/>
<path d="M476.343 242.103H473.39C473.12 242.103 472.901 242.326 472.901 242.601V244.009C472.901 244.284 473.12 244.507 473.39 244.507H476.343C476.613 244.507 476.832 244.284 476.832 244.009V242.601C476.832 242.326 476.613 242.103 476.343 242.103Z" fill="#E6E6E6"/>
<path d="M484.203 242.103H481.25C480.98 242.103 480.762 242.326 480.762 242.601V244.009C480.762 244.284 480.98 244.507 481.25 244.507H484.203C484.473 244.507 484.692 244.284 484.692 244.009V242.601C484.692 242.326 484.473 242.103 484.203 242.103Z" fill="#E6E6E6"/>
<path d="M492.064 242.103H489.11C488.841 242.103 488.622 242.326 488.622 242.601V244.009C488.622 244.284 488.841 244.507 489.11 244.507H492.064C492.334 244.507 492.552 244.284 492.552 244.009V242.601C492.552 242.326 492.334 242.103 492.064 242.103Z" fill="#E6E6E6"/>
<path d="M499.924 242.103H496.971C496.701 242.103 496.482 242.326 496.482 242.601V244.009C496.482 244.284 496.701 244.507 496.971 244.507H499.924C500.194 244.507 500.413 244.284 500.413 244.009V242.601C500.413 242.326 500.194 242.103 499.924 242.103Z" fill="#E6E6E6"/>
<path d="M507.785 242.103H504.831C504.561 242.103 504.343 242.326 504.343 242.601V244.009C504.343 244.284 504.561 244.507 504.831 244.507H507.785C508.054 244.507 508.273 244.284 508.273 244.009V242.601C508.273 242.326 508.054 242.103 507.785 242.103Z" fill="#E6E6E6"/>
<path d="M515.645 242.103H512.692C512.422 242.103 512.203 242.326 512.203 242.601V244.009C512.203 244.284 512.422 244.507 512.692 244.507H515.645C515.915 244.507 516.133 244.284 516.133 244.009V242.601C516.133 242.326 515.915 242.103 515.645 242.103Z" fill="#E6E6E6"/>
<path d="M523.505 242.103H520.552C520.282 242.103 520.063 242.326 520.063 242.601V244.009C520.063 244.284 520.282 244.507 520.552 244.507H523.505C523.775 244.507 523.994 244.284 523.994 244.009V242.601C523.994 242.326 523.775 242.103 523.505 242.103Z" fill="#E6E6E6"/>
<path d="M470.841 246.911H440.376C440.106 246.911 439.888 247.134 439.888 247.409V248.817C439.888 249.092 440.106 249.315 440.376 249.315H470.841C471.111 249.315 471.329 249.092 471.329 248.817V247.409C471.329 247.134 471.111 246.911 470.841 246.911Z" fill="#E6E6E6"/>
<path d="M536.77 69.8712V146.894C536.769 152.053 534.759 156.999 531.181 160.646C527.603 164.294 522.751 166.343 517.691 166.344H423.128C419.405 166.345 415.763 165.236 412.65 163.154C409.538 161.072 407.091 158.107 405.61 154.625C405.113 153.475 404.735 152.275 404.479 151.045C406.489 151.838 408.627 152.243 410.782 152.239H505.345C510.008 152.232 514.478 150.341 517.775 146.98C521.072 143.619 522.927 139.062 522.933 134.309V57.2856C522.938 55.0883 522.541 52.9095 521.763 50.8602C522.969 51.1207 524.146 51.5069 525.275 52.0127C528.69 53.5225 531.598 56.0175 533.64 59.1905C535.683 62.3635 536.771 66.0761 536.77 69.8712Z" fill="#F2F2F2"/>
<path d="M183.982 376.317L174.602 382.238L146.971 347.612L160.813 338.875L183.982 376.317Z" fill="#FFB6B6"/>
<path d="M192.079 388.684L184.534 392.118L180.008 385.469L179.738 394.3L159.728 403.407C158.769 403.844 157.698 403.956 156.671 403.728C155.645 403.5 154.717 402.944 154.023 402.14C153.328 401.337 152.904 400.328 152.812 399.261C152.72 398.195 152.965 397.126 153.511 396.211L164.564 377.688L161.35 370.347L178.606 363.72L192.079 388.684Z" fill="#2F2E41"/>
<path d="M157.707 369.656L173.548 354.006C161.779 324.399 160.839 306.048 144.523 270.241C183.234 278.312 210.91 277.822 242.924 270.585C253.763 268.173 281.728 246.152 279.429 234.861C279.321 234.333 279.194 233.81 279.048 233.292C275.611 221.348 278.031 203.056 270.593 189.802C256.832 184.513 235.924 202.373 219.569 213.26C211.683 218.509 217.456 225.663 211.566 227.538L188.986 235.01L133.588 225.889C130.911 225.475 128.18 225.606 125.552 226.273C122.925 226.941 120.453 228.132 118.279 229.777C116.105 231.423 114.272 233.491 112.886 235.863C111.499 238.234 110.587 240.862 110.202 243.594C110.108 244.207 110.04 244.824 109.998 245.443C112.547 259.828 115.204 273.834 118.064 287.13C118.988 291.422 117.429 299.65 120.901 299.772C124.374 299.895 122.975 308.405 124.057 312.565C130.715 338.179 134.925 350.574 157.707 369.656Z" fill="#2F2E41"/>
<path d="M127.388 438.299L117.616 433.099L133.076 391.348L147.498 399.022L127.388 438.299Z" fill="#FFB6B6"/>
<path d="M125.759 407.129L141.427 418.126C160.631 389.814 173.099 351.982 182.385 309.649C218.54 293.571 250.177 275.176 272.223 250.502C275.843 246.365 277.742 240.954 277.516 235.415C277.29 229.876 274.958 224.644 271.013 220.828C270.627 220.459 270.228 220.106 269.817 219.768C260.267 212.014 239.06 216.476 225.504 209.995L201.289 244.161L204.073 252.119L195.649 256.3L188.536 259.829L180.394 263.87L153.704 277.116C151.284 278.349 149.128 280.058 147.359 282.145C145.591 284.232 144.245 286.655 143.4 289.274C142.554 291.894 142.226 294.659 142.434 297.408C142.642 300.158 143.382 302.838 144.611 305.295C144.881 305.851 145.173 306.395 145.489 306.927L135.576 357.269C135.576 357.269 138.304 366.033 134.012 365.213C129.72 364.393 132.059 375.132 132.059 375.132L125.759 407.129Z" fill="#2F2E41"/>
<path d="M121.47 461.308L114.145 457.411L116.447 449.665L109.489 454.934L90.062 444.597C89.1308 444.102 88.3792 443.316 87.9172 442.354C87.4551 441.393 87.3066 440.306 87.4935 439.252C87.6804 438.198 88.1928 437.233 88.9559 436.497C89.719 435.761 90.6928 435.293 91.7353 435.162L112.841 432.493L116.49 425.366L132.3 435.041L121.47 461.308Z" fill="#2F2E41"/>
<path d="M335.046 242.435L323.617 214.279L314.613 219.379L320.051 248.02C319.506 249.834 319.469 251.768 319.943 253.603C320.417 255.438 321.384 257.102 322.735 258.407C324.086 259.712 325.767 260.608 327.59 260.993C329.413 261.377 331.304 261.236 333.053 260.585C334.801 259.934 336.337 258.798 337.487 257.306C338.637 255.814 339.356 254.025 339.563 252.139C339.77 250.253 339.457 248.346 338.659 246.632C337.861 244.917 336.609 243.464 335.046 242.435Z" fill="#FFB6B6"/>
<path d="M143.274 19.7932L160.663 44.5765L168.299 37.5298L156.637 10.8896C156.764 8.99651 156.371 7.10479 155.501 5.4271C154.632 3.74941 153.32 2.35228 151.714 1.39278C150.108 0.433288 148.272 -0.0505363 146.411 -0.00429412C144.55 0.041948 142.739 0.616423 141.181 1.65454C139.623 2.69266 138.379 4.15327 137.591 5.87217C136.802 7.59106 136.5 9.50009 136.717 11.3846C136.935 13.2692 137.664 15.0546 138.822 16.54C139.98 18.0254 141.522 19.1521 143.274 19.7932Z" fill="#FFB6B6"/>
<path d="M221.799 176.873C210.52 194.707 251.841 233.565 273.594 224.478C277.404 222.887 290.506 217.632 281.55 210.346C272.594 203.061 282.589 211.214 282.825 206.471C282.983 203.301 280.575 196.345 283.087 196.643C285.6 196.941 287.042 189.533 281.57 187.646C279.667 186.953 277.997 185.722 276.757 184.096C275.517 182.47 274.757 180.517 274.566 178.467C274.043 158.919 280.537 138.509 280.537 138.509L307.047 207.593C307.047 207.593 306.851 219.544 310.232 215.892C313.613 212.24 313.367 224.061 313.367 224.061C313.367 224.061 318.394 227.637 315.503 229.627C312.612 231.618 318.615 237.737 318.615 237.737L332.621 236.717C332.621 236.717 332.402 226.11 330.011 223.765C327.619 221.419 328.794 217.728 328.794 217.728C328.794 217.728 323.863 213.052 326.742 207.546C329.62 202.041 305.781 103.556 305.781 103.556C304.826 98.8172 302.604 94.4404 299.362 90.9089C296.119 87.3774 291.981 84.8287 287.407 83.5446L272.279 79.2984L269.592 68.4332H248.291L244.581 75.5725L210.565 72.5128C210.565 72.5128 176.907 41.2936 178.551 38.856C180.194 36.4183 174.976 30.7113 174.976 30.7113C174.976 30.7113 170.521 29.2245 173.035 28.4308C175.549 27.637 170.797 25.8018 170.797 25.8018C170.797 25.8018 166.395 24.6227 168.471 23.0701C170.547 21.5176 161.543 20.4977 161.543 20.4977L149.86 30.2149L152.221 34.2964C152.221 34.2964 150.782 39.8543 152.661 37.8253C154.539 35.7963 154.893 41.6846 154.893 41.6846C154.893 41.6846 155.853 48.1323 161.543 50.075C167.233 52.0176 171.547 70.473 171.547 70.473L219.569 111.269C212.256 119.827 213.996 128.777 220.475 137.931L221.799 176.873Z" fill="#6C63FF"/>
<path d="M258.461 61.2141C271.2 61.2141 281.528 50.6863 281.528 37.6995C281.528 24.7128 271.2 14.1849 258.461 14.1849C245.722 14.1849 235.395 24.7128 235.395 37.6995C235.395 50.6863 245.722 61.2141 258.461 61.2141Z" fill="#FFB6B6"/>
<path d="M278.597 30.6968C278.006 30.8702 269.342 32.0226 265.591 32.7366C261.909 33.4403 261.269 28.657 258.257 29.5545C258.259 29.5336 258.255 29.5126 258.247 29.4933C257.78 26.9588 256.983 24.4994 255.876 22.1806C256.278 24.4015 256.335 26.6729 256.046 28.9119C256.045 28.9702 256.038 29.0282 256.026 29.0853C256.016 29.1873 255.996 29.2791 255.986 29.3811C252.805 27.9532 250.784 29.2281 248.583 29.6769C246.122 30.1766 244.201 31.2781 245.582 39.8759C248.413 57.561 263.14 63.8743 260.588 75.5726C260.088 77.8877 258.828 80.7843 257.247 81.5084C256.78 78.9739 255.983 76.5145 254.876 74.1957C255.277 76.4166 255.335 78.688 255.046 80.927C252.595 78.2243 250.824 68.78 242.58 61.2939C240.549 59.4581 230.375 48.5655 229.154 45.9953C229.529 48.0502 229.709 50.137 229.694 52.227C229.697 53.6258 229.603 55.023 229.414 56.4085C229.414 56.4978 229.404 56.5868 229.384 56.6737C229.374 56.8369 229.344 56.9797 229.324 57.1327C229.304 57.3061 229.274 57.4693 229.244 57.6427C225.913 57.1531 222.961 56.5615 221.571 55.1745C214.807 48.4635 223.061 35.3883 227.573 23.5574C234.026 6.61684 252.765 4.36285 254.586 4.17927C262.609 3.35315 276.166 5.10738 280.598 14.3783C283.699 20.8751 281.718 29.7788 278.597 30.6968Z" fill="#2F2E41"/>
<path d="M229.959 34.5207L246.668 8.02331C242.663 5.65347 238.104 4.4341 233.474 4.49484C231.166 4.54372 228.895 5.08774 226.808 6.09141C224.72 7.09509 222.864 8.53591 221.359 10.32C217.947 14.6435 217.361 20.7554 218.64 26.1496C219.081 28.0125 227.49 21.4576 225.489 24.5173C223.846 26.9129 221.16 36.9821 220.487 39.8159C219.402 44.3767 216.421 49.0584 219.077 52.8916C222.217 57.4245 227.821 59.6776 233.26 59.9065C238.699 60.1353 244.052 58.5987 249.221 56.8583L229.959 34.5207Z" fill="#2F2E41"/>
<path d="M236.379 33.4756C236.138 33.4753 235.905 33.3862 235.723 33.2246C235.541 33.0629 235.423 32.8398 235.39 32.5961C235.356 32.3525 235.411 32.1049 235.542 31.8988C235.674 31.6927 235.874 31.5421 236.106 31.4746C236.369 31.0334 236.261 29.1764 236.175 27.6759C235.849 22.042 235.305 12.6129 244.284 6.24796C244.502 6.09356 244.771 6.03368 245.032 6.0815C245.293 6.12932 245.525 6.28091 245.677 6.50293C245.828 6.72496 245.887 6.99922 245.84 7.26539C245.793 7.53156 245.644 7.76783 245.427 7.92223C237.368 13.6348 237.852 22.0126 238.172 27.5559C238.355 30.7251 238.487 33.0144 236.602 33.4502C236.529 33.4672 236.454 33.4757 236.379 33.4756Z" fill="#6C63FF"/>
<path d="M5.24677e-06 460.946C-0.000930142 461.267 0.123239 461.575 0.34518 461.803C0.567122 462.03 0.868659 462.159 1.18347 462.16H716.809C717.125 462.16 717.428 462.032 717.651 461.804C717.875 461.577 718 461.268 718 460.946C718 460.624 717.875 460.316 717.651 460.088C717.428 459.86 717.125 459.732 716.809 459.732H1.19059C1.0347 459.732 0.880257 459.763 0.736061 459.823C0.591865 459.884 0.46074 459.972 0.350188 460.084C0.239635 460.196 0.151816 460.33 0.0917375 460.476C0.0316587 460.623 0.000493626 460.78 3.57784e-05 460.939L5.24677e-06 460.946Z" fill="#CCCCCC"/>
<path d="M442.738 96.7373H427.599C427.198 96.7373 426.812 96.5747 426.529 96.2852C426.245 95.9958 426.085 95.6033 426.085 95.194C426.085 94.7847 426.245 94.3921 426.529 94.1027C426.812 93.8132 427.198 93.6506 427.599 93.6506H442.738C443.14 93.6506 443.525 93.8132 443.809 94.1027C444.093 94.3921 444.252 94.7847 444.252 95.194C444.252 95.6033 444.093 95.9958 443.809 96.2852C443.525 96.5747 443.14 96.7373 442.738 96.7373Z" fill="#6C63FF"/>
<path d="M469.988 96.7373H454.849C454.651 96.7373 454.454 96.6974 454.27 96.6198C454.086 96.5422 453.919 96.4286 453.779 96.2852C453.638 96.1419 453.527 95.9718 453.451 95.7846C453.375 95.5973 453.335 95.3966 453.335 95.194C453.335 94.9913 453.375 94.7906 453.451 94.6033C453.527 94.4161 453.638 94.246 453.779 94.1027C453.919 93.9594 454.086 93.8457 454.27 93.7681C454.454 93.6905 454.651 93.6506 454.849 93.6506H469.988C470.187 93.6506 470.384 93.6905 470.568 93.7681C470.751 93.8457 470.918 93.9594 471.059 94.1027C471.199 94.246 471.311 94.4161 471.387 94.6033C471.463 94.7906 471.502 94.9913 471.502 95.194C471.502 95.3966 471.463 95.5973 471.387 95.7846C471.311 95.9718 471.199 96.1419 471.059 96.2852C470.918 96.4286 470.751 96.5422 470.568 96.6198C470.384 96.6974 470.187 96.7373 469.988 96.7373Z" fill="#6C63FF"/>
<path d="M483.614 109.084H468.475C468.276 109.084 468.079 109.044 467.895 108.966C467.712 108.889 467.545 108.775 467.404 108.632C467.264 108.489 467.152 108.318 467.076 108.131C467 107.944 466.961 107.743 466.961 107.541C466.961 107.338 467 107.137 467.076 106.95C467.152 106.763 467.264 106.593 467.404 106.449C467.545 106.306 467.712 106.192 467.895 106.115C468.079 106.037 468.276 105.997 468.475 105.997H483.614C483.812 105.997 484.009 106.037 484.193 106.115C484.377 106.192 484.544 106.306 484.684 106.449C484.825 106.593 484.936 106.763 485.012 106.95C485.088 107.137 485.128 107.338 485.128 107.541C485.128 107.743 485.088 107.944 485.012 108.131C484.936 108.318 484.825 108.489 484.684 108.632C484.544 108.775 484.377 108.889 484.193 108.966C484.009 109.044 483.812 109.084 483.614 109.084Z" fill="#6C63FF"/>
<path d="M456.447 109.084H427.599C427.198 109.084 426.812 108.921 426.529 108.632C426.245 108.343 426.085 107.95 426.085 107.541C426.085 107.131 426.245 106.739 426.529 106.449C426.812 106.16 427.198 105.997 427.599 105.997H456.447C456.848 105.997 457.233 106.16 457.517 106.449C457.801 106.739 457.961 107.131 457.961 107.541C457.961 107.95 457.801 108.343 457.517 108.632C457.233 108.921 456.848 109.084 456.447 109.084Z" fill="#6C63FF"/>
<path d="M510.948 96.7373H482.1C481.698 96.7373 481.313 96.5747 481.029 96.2852C480.745 95.9958 480.586 95.6033 480.586 95.194C480.586 94.7847 480.745 94.3921 481.029 94.1027C481.313 93.8132 481.698 93.6506 482.1 93.6506H510.948C511.146 93.6506 511.343 93.6905 511.527 93.7681C511.711 93.8457 511.877 93.9594 512.018 94.1027C512.159 94.246 512.27 94.4161 512.346 94.6033C512.422 94.7906 512.461 94.9913 512.461 95.194C512.461 95.3966 512.422 95.5973 512.346 95.7846C512.27 95.9718 512.159 96.1419 512.018 96.2852C511.877 96.4286 511.711 96.5422 511.527 96.6198C511.343 96.6974 511.146 96.7373 510.948 96.7373Z" fill="#6C63FF"/>
<path d="M453.103 73.3571H424.255C424.056 73.3576 423.859 73.318 423.675 73.2407C423.49 73.1634 423.323 73.0498 423.182 72.9064C423.041 72.7631 422.929 72.5928 422.853 72.4053C422.777 72.2178 422.737 72.0167 422.737 71.8137C422.737 71.6107 422.777 71.4097 422.853 71.2222C422.929 71.0347 423.041 70.8644 423.182 70.721C423.323 70.5777 423.49 70.4641 423.675 70.3867C423.859 70.3094 424.056 70.2699 424.255 70.2704H453.103C453.504 70.2704 453.889 70.433 454.173 70.7224C454.457 71.0118 454.617 71.4044 454.617 71.8137C454.617 72.223 454.457 72.6156 454.173 72.905C453.889 73.1945 453.504 73.3571 453.103 73.3571Z" fill="#6C63FF"/>
<path d="M455.475 82.3738C455.192 82.3739 454.916 82.284 454.686 82.1167C454.456 81.9493 454.283 81.7129 454.192 81.4404C454.1 81.1679 454.094 80.873 454.175 80.5969C454.255 80.3208 454.419 80.0773 454.642 79.9005L462.028 74.0472C462.325 73.812 462.571 73.5165 462.75 73.1795C462.929 72.8424 463.037 72.4712 463.068 72.0892C463.099 71.7072 463.052 71.3229 462.929 70.9606C462.807 70.5982 462.612 70.2657 462.357 69.9842L456.155 63.14C456.034 63.0068 455.94 62.8505 455.879 62.6802C455.817 62.51 455.789 62.329 455.796 62.1476C455.803 61.9663 455.845 61.7881 455.92 61.6233C455.994 61.4584 456.1 61.3102 456.231 61.187C456.361 61.0639 456.515 60.9681 456.682 60.9053C456.849 60.8425 457.026 60.8139 457.204 60.821C457.382 60.8282 457.557 60.871 457.718 60.947C457.88 61.023 458.026 61.1307 458.146 61.264L467.356 71.4271C467.483 71.5677 467.581 71.7338 467.642 71.9147C467.703 72.0957 467.727 72.2876 467.711 72.4784C467.696 72.6692 467.642 72.8546 467.553 73.023C467.463 73.1913 467.341 73.3389 467.192 73.4564L456.306 82.0829C456.068 82.2716 455.776 82.3739 455.475 82.3738Z" fill="#6C63FF"/>
<path d="M422.795 82.3738C423.078 82.3739 423.353 82.284 423.583 82.1167C423.814 81.9493 423.987 81.7129 424.078 81.4404C424.17 81.1679 424.176 80.873 424.095 80.5969C424.015 80.3208 423.851 80.0773 423.628 79.9005L416.241 74.0472C415.945 73.812 415.699 73.5165 415.52 73.1795C415.341 72.8424 415.233 72.4712 415.202 72.0892C415.171 71.7072 415.218 71.3229 415.341 70.9606C415.463 70.5982 415.658 70.2657 415.913 69.9842L422.115 63.14C422.236 63.0068 422.329 62.8505 422.391 62.6802C422.453 62.51 422.481 62.329 422.474 62.1476C422.467 61.9663 422.425 61.7881 422.35 61.6233C422.276 61.4584 422.17 61.3102 422.039 61.187C421.908 61.0639 421.755 60.9681 421.588 60.9053C421.421 60.8425 421.244 60.8139 421.066 60.821C420.888 60.8282 420.713 60.871 420.551 60.947C420.39 61.023 420.244 61.1307 420.124 61.264L410.914 71.4271C410.787 71.5677 410.689 71.7338 410.628 71.9147C410.567 72.0957 410.543 72.2876 410.559 72.4784C410.574 72.6692 410.628 72.8546 410.717 73.023C410.807 73.1913 410.929 73.3389 411.078 73.4564L421.964 82.0829C422.201 82.2716 422.494 82.374 422.795 82.3738Z" fill="#6C63FF"/>
<path d="M468.016 135.551H439.168C438.767 135.551 438.382 135.388 438.098 135.099C437.814 134.809 437.654 134.417 437.654 134.007C437.654 133.598 437.814 133.206 438.098 132.916C438.382 132.627 438.767 132.464 439.168 132.464H468.016C468.417 132.464 468.802 132.627 469.086 132.916C469.37 133.206 469.53 133.598 469.53 134.007C469.53 134.417 469.37 134.809 469.086 135.099C468.802 135.388 468.417 135.551 468.016 135.551Z" fill="#6C63FF"/>
<path d="M473.099 143.186C472.817 143.186 472.541 143.096 472.311 142.928C472.081 142.761 471.908 142.525 471.816 142.252C471.724 141.98 471.718 141.685 471.799 141.409C471.88 141.133 472.043 140.889 472.266 140.712L479.653 134.859C479.95 134.624 480.195 134.328 480.374 133.991C480.553 133.654 480.662 133.283 480.693 132.901C480.723 132.519 480.676 132.135 480.554 131.772C480.431 131.41 480.236 131.078 479.981 130.796L473.78 123.952C473.659 123.818 473.565 123.662 473.503 123.492C473.442 123.322 473.414 123.141 473.421 122.959C473.428 122.778 473.47 122.6 473.544 122.435C473.619 122.27 473.724 122.122 473.855 121.999C473.986 121.876 474.139 121.78 474.306 121.717C474.473 121.654 474.651 121.626 474.829 121.633C475.007 121.64 475.181 121.683 475.343 121.759C475.505 121.835 475.65 121.942 475.771 122.076L484.98 132.239C485.108 132.379 485.205 132.546 485.266 132.726C485.328 132.907 485.351 133.099 485.336 133.29C485.321 133.481 485.266 133.666 485.177 133.835C485.088 134.003 484.965 134.151 484.817 134.268L473.931 142.895C473.693 143.083 473.4 143.186 473.099 143.186Z" fill="#6C63FF"/>
<path d="M422.795 143.186C423.078 143.186 423.353 143.096 423.583 142.928C423.814 142.761 423.987 142.525 424.078 142.252C424.17 141.98 424.176 141.685 424.095 141.409C424.015 141.133 423.851 140.889 423.628 140.712L416.241 134.859C415.945 134.624 415.699 134.328 415.52 133.991C415.341 133.654 415.233 133.283 415.202 132.901C415.171 132.519 415.218 132.135 415.341 131.772C415.463 131.41 415.658 131.078 415.913 130.796L422.115 123.952C422.359 123.683 422.488 123.326 422.474 122.959C422.46 122.593 422.303 122.248 422.039 121.999C421.775 121.75 421.425 121.618 421.066 121.633C420.706 121.647 420.368 121.807 420.124 122.076L410.914 132.239C410.787 132.379 410.689 132.546 410.628 132.726C410.567 132.907 410.543 133.099 410.559 133.29C410.574 133.481 410.628 133.666 410.717 133.835C410.807 134.003 410.929 134.151 411.078 134.268L421.964 142.895C422.201 143.083 422.494 143.186 422.795 143.186Z" fill="#6C63FF"/>
<path d="M425.37 138.861L431.434 124.72C431.596 124.347 431.896 124.054 432.269 123.906C432.642 123.758 433.058 123.767 433.425 123.931C433.791 124.094 434.08 124.399 434.227 124.779C434.373 125.158 434.367 125.582 434.208 125.957L428.144 140.098C428.065 140.284 427.951 140.453 427.808 140.595C427.664 140.736 427.495 140.847 427.31 140.922C427.124 140.997 426.926 141.033 426.727 141.029C426.527 141.026 426.33 140.982 426.148 140.9C425.965 140.819 425.8 140.702 425.662 140.555C425.524 140.408 425.415 140.235 425.343 140.046C425.271 139.856 425.236 139.654 425.241 139.451C425.245 139.247 425.289 139.047 425.37 138.861Z" fill="#6C63FF"/>
</g>
<defs>
<clipPath id="clip0_2046_1257">
<rect width="718" height="463" fill="white"/>
</clipPath>
</defs>
</svg>
